<svg width="60" height="61" viewBox="0 0 60 61" fill="none" xmlns="http://www.w3.org/2000/svg">
<path d="M52.862 0.429888L52.8613 0.43013C52.7104 0.482811 48.7978 1.86951 43.8657 4.81249C39.794 7.24278 34.3366 11.1805 30.212 16.6636C30.1459 16.7516 30.0422 16.8033 29.9322 16.8032C29.8221 16.8032 29.7185 16.7513 29.6524 16.6633C28.7362 15.4428 27.721 14.2524 26.6094 13.0966C24.1267 10.5161 21.159 8.10242 17.7861 5.92343L17.786 5.92342C12.0616 2.2246 7.19281 0.49713 7.00139 0.429915L7.00126 0.429868C6.32485 0.192043 5.5773 0.501586 5.26627 1.14846C5.17865 1.33094 2.95732 5.99603 1.52462 12.6597C0.68093 16.5854 0.288745 20.3911 0.357747 23.9713L0.00781222 23.9781L0.357747 23.9713C0.444898 28.4967 1.27264 32.6743 2.8118 36.3906C4.35141 40.1074 6.72011 43.6467 9.85798 46.9083C12.3403 49.4884 15.3084 51.9025 18.6809 54.0815L18.491 54.3755L18.6809 54.0815C24.4031 57.7789 29.2703 59.5069 29.4653 59.5754L52.862 0.429888ZM52.862 0.429888C53.539 0.191964 54.2865 0.501733 54.597 1.14846L54.9125 0.99697M52.862 0.429888L54.9125 0.99697M54.9125 0.99697L54.597 1.14846C54.6846 1.33094 56.906 5.99603 58.3387 12.6597C59.1824 16.5854 59.5745 20.3911 59.5051 23.9713C59.4179 28.4967 58.5906 32.6743 57.051 36.3906L57.051 36.3906M54.9125 0.99697L57.051 36.3906M57.051 36.3906C55.5119 40.1074 53.1432 43.6467 50.0053 46.9083C47.5226 49.4884 44.5548 51.9025 41.1824 54.0815C35.4648 57.7759 30.6003 59.5042 30.3982 59.5753C30.2469 59.6282 30.0892 59.6546 29.9314 59.6546C29.7737 59.6546 29.6161 59.6282 29.4656 59.5755L57.051 36.3906ZM7.6087 3.69986C7.52237 3.66327 7.42497 3.66285 7.33833 3.69869C7.25169 3.73453 7.18305 3.80364 7.1478 3.89052C6.39647 5.74226 5.15225 9.1497 4.25918 13.3367C3.03136 19.0927 2.22015 27.6042 5.41338 35.3134C8.60614 43.0222 15.1978 48.4674 20.1357 51.6692L20.1358 51.6693C22.4975 53.2001 24.7278 54.386 26.5011 55.2393C26.6319 55.3023 26.788 55.278 26.8934 55.1783C26.9988 55.0785 27.0318 54.9241 26.9763 54.79L11.3486 17.0586L11.3486 17.0586C11.0509 16.34 11.3922 15.5164 12.1105 15.2186C12.8286 14.921 13.6524 15.2623 13.9497 15.9805L13.9498 15.9806L29.5778 53.7129C29.6334 53.847 29.766 53.9329 29.9111 53.9288C30.0562 53.9247 30.1837 53.8315 30.2316 53.6945C32.3526 47.6283 35.4843 35.3888 31.054 24.6915L31.054 24.6915C30.4162 23.1517 29.6447 21.7007 28.774 20.3361L28.7741 20.3361L28.7687 20.3281C28.7528 20.3047 28.7379 20.2813 28.7245 20.2588L28.7247 20.2586L28.718 20.2482C22.5889 10.7124 11.6122 5.39671 7.6087 3.69986ZM32.8875 54.7896C32.8319 54.9236 32.8649 55.0781 32.9703 55.1778C33.0758 55.2775 33.2318 55.3018 33.3626 55.2389C35.1363 54.3856 37.3658 53.2006 39.7276 51.6692C44.6655 48.4674 51.2572 43.0222 54.4499 35.3134C57.6431 27.6042 56.8319 19.0928 55.6041 13.3367L55.2618 13.4098L55.6041 13.3367C54.7106 9.1488 53.4664 5.74045 52.715 3.88912C52.6798 3.80231 52.6112 3.73325 52.5247 3.69739C52.4381 3.66153 52.3408 3.66187 52.2545 3.69833C50.7091 4.35122 48.1427 5.53396 45.2383 7.27297C41.1831 9.70071 35.6322 13.7331 31.7301 19.3698C31.6523 19.4822 31.6471 19.6296 31.7167 19.7472C32.4643 21.0107 33.1115 22.3016 33.6552 23.6139C35.417 27.8681 36.2387 32.6466 36.1088 37.8856C36.1046 38.0541 36.2212 38.2017 36.3862 38.2367C36.5511 38.2716 36.7175 38.184 36.782 38.0282L47.7043 11.6571L47.7043 11.657C48.0016 10.939 48.8249 10.5978 49.5437 10.8953C50.2618 11.1926 50.6031 12.0164 50.3054 12.7346L50.3054 12.7347L32.8875 54.7896Z" fill="#00C2C5" stroke="#FAFAFA" stroke-width="0.7" stroke-linejoin="round"/>
</svg>
