<svg width="72" height="72" viewBox="0 0 72 72" fill="none" xmlns="http://www.w3.org/2000/svg">
<path d="M12.5755 24.3848V24.3846C12.5767 23.524 12.7271 22.8645 13.1548 22.4284C13.5839 21.991 14.2346 21.8365 15.0838 21.8365M12.5755 24.3848L49.6465 50.837C50.5441 50.837 51.2233 50.6927 51.6685 50.2609C52.1158 49.827 52.2661 49.1624 52.2661 48.2865C52.2705 40.3067 52.2705 32.3246 52.2661 24.3447C52.2661 23.4978 52.109 22.8472 51.6705 22.4174C51.2333 21.9889 50.5738 21.8365 49.7155 21.8365C38.1724 21.8343 26.6292 21.8343 15.0838 21.8365M12.5755 24.3848C12.5733 32.329 12.5733 40.2709 12.5755 48.2151C12.5755 49.1294 12.7178 49.8141 13.1681 50.2567C13.6171 50.698 14.3102 50.837 15.2374 50.837L12.5755 24.3848ZM15.0838 21.8365V22.0865M15.0838 21.8365V22.0865M15.0838 22.0865C26.6292 22.0843 38.1723 22.0843 49.7155 22.0865C51.3947 22.0865 52.0161 22.6923 52.0161 24.3448L12.8255 24.3849C12.8278 22.699 13.4246 22.0865 15.0838 22.0865ZM57.2791 43.7033C57.9073 43.6757 58.438 43.4823 58.8136 43.1077C59.1906 42.7317 59.3814 42.2028 59.3862 41.5646L59.3862 41.5643C59.4085 38.0845 59.4085 34.6024 59.3862 31.1226C59.3825 30.4829 59.194 29.9512 58.8204 29.5721C58.4478 29.1939 57.9201 28.9969 57.2951 28.9681C56.9377 28.951 56.5746 28.9551 56.1945 28.9594C56.0194 28.9613 55.8408 28.9633 55.6574 28.9633H55.4074V29.2133V29.2416V29.2698V29.298V29.3262V29.3545V29.3827V29.4109V29.4391V29.4673V29.4956V29.5238V29.552V29.5802V29.6084V29.6365V29.6647V29.6929V29.7211V29.7493V29.7775V29.8056V29.8338V29.862V29.8902V29.9183V29.9465V29.9746V30.0028V30.0309V30.0591V30.0872V30.1154V30.1435V30.1717V30.1998V30.2279V30.256V30.2842V30.3123V30.3404V30.3685V30.3966V30.4248V30.4529V30.481V30.5091V30.5372V30.5653V30.5934V30.6215V30.6495V30.6776V30.7057V30.7338V30.7619V30.7899V30.818V30.8461V30.8742V30.9022V30.9303V30.9583V30.9864V31.0145V31.0425V31.0706V31.0986V31.1266V31.1547V31.1827V31.2108V31.2388V31.2668V31.2949V31.3229V31.3509V31.3789V31.4069V31.435V31.463V31.491V31.519V31.547V31.575V31.603V31.631V31.659V31.687V31.715V31.743V31.771V31.7989V31.8269V31.8549V31.8829V31.9108V31.9388V31.9668V31.9948V32.0227V32.0507V32.0786V32.1066V32.1346V32.1625V32.1905V32.2184V32.2464V32.2743V32.3023V32.3302V32.3581V32.3861V32.414V32.4419V32.4699V32.4978V32.5257V32.5536V32.5816V32.6095V32.6374V32.6653V32.6932V32.7211V32.7491V32.777V32.8049V32.8328V32.8607V32.8886V32.9165V32.9444V32.9723V33.0001V33.028V33.0559V33.0838V33.1117V33.1396V33.1674V33.1953V33.2232V33.2511V33.2789V33.3068V33.3347V33.3626V33.3904V33.4183V33.4461V33.474V33.5019V33.5297V33.5576V33.5854V33.6133V33.6411V33.669V33.6968V33.7246V33.7525V33.7803V33.8082V33.836V33.8638V33.8917V33.9195V33.9473V33.9752V34.003V34.0308V34.0586V34.0865V34.1143V34.1421V34.1699V34.1977V34.2255V34.2533V34.2812V34.309V34.3368V34.3646V34.3924V34.4202V34.448V34.4758V34.5036V34.5314V34.5592V34.587V34.6148V34.6426V34.6703V34.6981V34.7259V34.7537V34.7815V34.8093V34.8371V34.8648V34.8926V34.9204V34.9482V34.9759V35.0037V35.0315V35.0593V35.087V35.1148V35.1426V35.1703V35.1981V35.2259V35.2536V35.2814V35.3091V35.3369V35.3647V35.3924V35.4202V35.4479V35.4757V35.5034V35.5312V35.5589V35.5867V35.6144V35.6422V35.6699V35.6977V35.7254V35.7531V35.7809V35.8086V35.8364V35.8641V35.8918V35.9196V35.9473V35.975V36.0028V36.0305V36.0582V36.086V36.1137V36.1414V36.1691V36.1969V36.2246V36.2523V36.28V36.3078V36.3355V36.3632V36.3909V36.4187V36.4464V36.4741V36.5018V36.5295V36.5572V36.5849V36.6127V36.6404V36.6681V36.6958V36.7235V36.7512V36.7789V36.8066V36.8343V36.8621V36.8898V36.9175V36.9452V36.9729V37.0006V37.0283V37.056V37.0837V37.1114V37.1391V37.1668V37.1945V37.2222V37.2499V37.2776V37.3053V37.333V37.3607V37.3884V37.4161V37.4438V37.4715V37.4992V37.5268V37.5545V37.5822V37.6099V37.6376V37.6653V37.693V37.7207V37.7484V37.7761V37.8038V37.8314V37.8591V37.8868V37.9145V37.9422V37.9699V37.9976V38.0253V38.0529V38.0806V38.1083V38.136V38.1637V38.1914V38.2191V38.2467V38.2744V38.3021V38.3298V38.3575V38.3852V38.4128V38.4405V38.4682V38.4959V38.5236V38.5513V38.5789V38.6066V38.6343V38.662V38.6897V38.7174V38.745V38.7727V38.8004V38.8281V38.8558V38.8835V38.9111V38.9388V38.9665V38.9942V39.0219V39.0496V39.0772V39.1049V39.1326V39.1603V39.188V39.2156V39.2433V39.271V39.2987V39.3264V39.3541V39.3817V39.4094V39.4371V39.4648V39.4925V39.5202V39.5479V39.5755V39.6032V39.6309V39.6586V39.6863V39.714V39.7417V39.7693V39.797V39.8247V39.8524V39.8801V39.9078V39.9355V39.9632V39.9908V40.0185V40.0462V40.0739V40.1016V40.1293V40.157V40.1847V40.2124V40.2401V40.2678V40.2955V40.3232V40.3508V40.3785V40.4062V40.4339V40.4616V40.4893V40.517V40.5447V40.5724V40.6001V40.6278V40.6555V40.6832V40.7109V40.7386V40.7663V40.794V40.8217V40.8495V40.8772V40.9049V40.9326V40.9603V40.988V41.0157V41.0434V41.0711V41.0988V41.1265V41.1543V41.182V41.2097V41.2374V41.2651V41.2928V41.3206V41.3483V41.376V41.4037V41.4314V41.4592V41.4869V41.5146V41.5423V41.5701V41.5978V41.6255V41.6532V41.681V41.7087V41.7364V41.7642V41.7919V41.8196V41.8474V41.8751V41.9028V41.9306V41.9583V41.986V42.0138V42.0415V42.0693V42.097V42.1248V42.1525V42.1803V42.208V42.2358V42.2635V42.2913V42.319V42.3468V42.3745V42.4023V42.43V42.4578V42.4856V42.5133V42.5411V42.5688V42.5966V42.6244V42.6521V42.6799V42.7077V42.7355V42.7632V42.791V42.8188V42.8465V42.8743V42.9021V42.9299V42.9577V42.9855V43.0132V43.041V43.0688V43.0966V43.1244V43.1522V43.18V43.2078V43.2356V43.2634V43.2912V43.319V43.3468V43.3746V43.4024V43.4302V43.458V43.708H55.6574C55.8367 43.708 56.0121 43.71 56.1846 43.7119C56.5608 43.7162 56.9228 43.7203 57.2791 43.7033ZM57.2791 43.7033C57.2789 43.7033 57.2787 43.7033 57.2786 43.7033L57.2676 43.4535L57.2796 43.7032C57.2794 43.7033 57.2792 43.7033 57.2791 43.7033ZM38.1392 50.8375C36.2214 50.8372 34.3037 50.837 32.3863 50.837C30.4806 50.837 28.5751 50.8372 26.6697 50.8375C22.8591 50.838 19.0488 50.8385 15.2375 50.837L38.1392 50.8375ZM38.1392 50.8375C41.975 50.838 45.8112 50.8385 49.6464 50.837L38.1392 50.8375ZM55.3362 25.6499V25.8999H55.5862C55.8406 25.8999 56.0773 25.8975 56.3024 25.8952C56.7617 25.8906 57.1726 25.8864 57.5865 25.9041C60.2137 26.0169 62.3878 28.1225 62.4385 30.7326C62.5097 34.4755 62.5119 38.2227 62.4363 41.9674C62.3835 44.571 60.1961 46.6628 57.5584 46.7693C57.143 46.7857 56.7313 46.7819 56.2772 46.7777C56.0591 46.7757 55.8312 46.7736 55.5884 46.7736H55.3384V47.0236C55.3384 47.2118 55.3387 47.387 55.3389 47.5538C55.3394 47.8642 55.3398 48.1455 55.3384 48.4275C55.3287 50.1182 54.7894 51.4815 53.8554 52.4219C52.9216 53.362 51.5702 53.9027 49.8911 53.9048C43.6818 53.9111 37.4736 53.9097 31.2649 53.9083C28.604 53.9077 25.9431 53.9071 23.2818 53.9071C22.4246 53.9071 21.5677 53.9079 20.7109 53.9088C18.7841 53.9107 16.8584 53.9126 14.9334 53.9049C13.2862 53.8984 11.9367 53.3555 10.9993 52.4238C10.0621 51.4924 9.51653 50.1524 9.51438 48.5132L9.51438 48.5132C9.50324 40.4223 9.50547 32.3337 9.51438 24.2427L9.51438 24.2422C9.5133 22.5561 10.0522 21.1932 10.9886 20.2524C11.9249 19.3116 13.2814 18.7698 14.9593 18.7687C26.5758 18.762 38.1901 18.762 49.8067 18.7687C51.5339 18.7698 52.906 19.3043 53.8476 20.2435C54.7892 21.1828 55.3264 22.5528 55.3339 24.2747L55.334 24.2763C55.3372 24.5726 55.3369 24.8684 55.3365 25.2294C55.3363 25.36 55.3362 25.4992 55.3362 25.6499Z" fill="#00C2C5" stroke="white" stroke-width="0.5"/>
<path d="M30.0681 34.4328L29.8684 34.8017H30.2879C30.9799 34.8017 31.6599 34.8029 32.3314 34.804C33.9814 34.8067 35.5798 34.8093 37.1764 34.795L37.1768 34.795C38.0245 34.7862 38.6714 34.8804 39.0813 35.574C39.2934 35.9337 39.3256 36.2585 39.2615 36.5766C39.1949 36.9068 39.0229 37.2383 38.8043 37.6005C37.9033 39.0887 37.0079 40.5829 36.1129 42.0764C35.3893 43.2839 34.666 44.4909 33.9401 45.694L33.94 45.6942C33.598 46.2623 33.21 46.5991 32.824 46.738C32.4465 46.8739 32.038 46.8325 31.6151 46.5778C31.1899 46.3213 30.9652 45.985 30.9105 45.5927C30.8545 45.1903 30.9723 44.69 31.316 44.1086C32.1434 42.7138 32.9779 41.324 33.8544 39.8642C34.1712 39.3366 34.4935 38.7998 34.823 38.2504L35.0499 37.8718H34.6085C33.9088 37.8718 33.2257 37.8707 32.5546 37.8696C30.9164 37.8669 29.3491 37.8643 27.7824 37.8785C26.8894 37.8853 26.1979 37.8393 25.7614 37.1055C25.5359 36.7259 25.5112 36.3883 25.5883 36.0578C25.6689 35.7123 25.8612 35.3696 26.0921 34.9886C27.3276 32.9539 28.5507 30.9102 29.7731 28.8679C30.1861 28.1778 30.5991 27.4879 31.0124 26.7985L31.0124 26.7985C31.219 26.4538 31.4741 26.1843 31.7507 26.0359C32.0192 25.8919 32.3145 25.857 32.6381 25.9867L32.6382 25.9867C33.134 26.1851 33.6466 26.7354 33.8634 27.2541L33.8634 27.2541C33.9106 27.3671 33.9035 27.5634 33.8242 27.8289C33.7486 28.0819 33.6225 28.3487 33.4998 28.5674C32.8668 29.6933 32.1981 30.7965 31.5265 31.9044C31.2385 32.3794 30.95 32.8554 30.6636 33.3344L30.6625 33.3361C30.543 33.5397 30.4304 33.7522 30.2987 34.0008C30.2285 34.1332 30.153 34.2758 30.0681 34.4328Z" fill="#00C2C5" stroke="white" stroke-width="0.5"/>
</svg>
