<svg width="72" height="72" viewBox="0 0 72 72" fill="none" xmlns="http://www.w3.org/2000/svg">
<path d="M68.0027 19.2436L36.5028 3.49365C36.3466 3.41562 36.1745 3.375 35.9999 3.375C35.8254 3.375 35.6532 3.41562 35.497 3.49365L3.99711 19.2436C3.8101 19.3371 3.65283 19.4808 3.54294 19.6587C3.43305 19.8365 3.37489 20.0415 3.37499 20.2505V51.7505C3.37384 51.9605 3.4315 52.1667 3.54145 52.3456C3.6514 52.5246 3.80924 52.6691 3.99711 52.763L35.497 68.513C35.6532 68.591 35.8254 68.6317 35.9999 68.6317C36.1745 68.6317 36.3466 68.591 36.5028 68.513L68.0027 52.763C68.1906 52.6691 68.3484 52.5246 68.4584 52.3456C68.5683 52.1667 68.626 51.9605 68.6249 51.7505V20.2505C68.625 20.0415 68.5668 19.8365 68.4569 19.6587C68.347 19.4808 68.1897 19.3371 68.0027 19.2436ZM35.9999 34.7428L27.2058 30.3451L55.315 15.413L64.99 20.2505L35.9999 34.7428ZM18.2058 25.8451L46.315 10.913L52.84 14.1755L24.7342 29.1099L18.2058 25.8451ZM16.875 27.6958L23.6249 31.0708V40.0348L21.0453 37.4551C20.8344 37.2442 20.5483 37.1256 20.25 37.1255H16.875V27.6958ZM35.9999 5.75827L43.8434 9.67552L15.7342 24.6099L7.01548 20.2505L35.9999 5.75827ZM5.62498 22.0708L14.625 26.5708V38.2505C14.625 38.5489 14.7435 38.835 14.9545 39.046C15.1654 39.257 15.4516 39.3755 15.75 39.3755H19.7842L23.9546 43.5459C24.1119 43.7032 24.3123 43.8103 24.5305 43.8537C24.7487 43.8971 24.9749 43.8748 25.1804 43.7897C25.386 43.7045 25.5616 43.5604 25.6853 43.3754C25.8089 43.1904 25.8749 42.973 25.8749 42.7505V32.1958L34.8749 36.6958V65.6803L5.62498 51.0553V22.0708ZM37.1249 65.6803V36.6958L66.3749 22.0708V51.0553L37.1249 65.6803Z" fill="#4CBFD2"/>
</svg>
