<svg width="6" height="6" viewBox="0 0 6 6" fill="none" xmlns="http://www.w3.org/2000/svg">
<path d="M1.22156e-07 2.99848C0.000468854 1.34737 1.35417 -0.00234061 3.00738 3.04756e-06C4.65263 0.00234671 6.00047 1.35417 6 3.00129C5.99977 4.6524 4.6456 6.00258 2.99285 6.00024C1.34807 5.99766 -0.00046861 4.64537 1.22156e-07 2.99848ZM2.99824 5.39745C4.32147 5.39886 5.39815 4.32241 5.39745 2.99895C5.39651 1.67923 4.32944 0.608886 3.00785 0.602558C1.68603 0.596464 0.60607 1.6708 0.602789 2.9952C0.599508 4.31819 1.67408 5.39604 2.99824 5.39745Z" fill="white"/>
<path d="M4.03207 1.93967C3.8938 2.08006 3.76044 2.21552 3.62686 2.35098C3.19422 1.94014 2.5858 2.09037 2.32144 2.39622C2.02239 2.74237 2.03082 3.2929 2.34534 3.62664C2.62283 3.92123 3.19937 4.04334 3.61021 3.65218C3.74615 3.78905 3.88185 3.92592 4.02129 4.06654C3.79044 4.41106 3.12555 4.5941 2.58627 4.44364C1.9727 4.27231 1.53256 3.72437 1.50186 3.09299C1.46928 2.42481 1.83747 1.84124 2.44167 1.60312C3.00391 1.38165 3.68967 1.52742 4.03207 1.93967Z" fill="white"/>
</svg>
