<svg width="72" height="72" viewBox="0 0 72 72" fill="none" xmlns="http://www.w3.org/2000/svg">
<path d="M35.3594 38.0037C28.2441 37.8496 22.5409 32.1593 22.435 25.1049C22.3323 18.1757 27.8846 12.1388 34.6341 11.8435C36.8261 11.7472 38.0361 12.572 38.1227 14.2185C38.2062 15.8136 37.0572 16.7957 34.8972 16.9786C30.8822 17.3156 27.7562 20.5668 27.5797 24.585C27.4128 28.4074 30.2468 32.0245 33.9505 32.7145C37.9719 33.4655 41.8457 31.2574 43.1006 27.4478C43.3477 26.6968 43.46 25.888 43.5467 25.0985C43.7457 23.2916 44.6892 22.3159 46.249 22.3833C47.8281 22.4539 48.7524 23.6446 48.6818 25.5189C48.4282 32.4963 42.3881 38.1545 35.3594 38.0037Z" fill="#00C2C5" stroke="white" stroke-width="2"/>
<path d="M40.8665 61.5555C37.9331 61.5555 34.9997 61.5715 32.0662 61.549C30.1791 61.5362 29.0429 60.5477 29.0558 58.9975C29.0654 57.4602 30.2176 56.4332 32.0983 56.4236C37.9652 56.3979 40.1899 56.3979 46.0568 56.4236C47.9921 56.43 49.2117 57.5372 49.1507 59.1099C49.0929 60.644 47.9664 61.5426 46.0247 61.5523C43.0881 61.5651 43.7999 61.5555 40.8665 61.5555Z" fill="#00C2C5" stroke="white" stroke-width="2"/>
<path d="M40.8665 50.243C37.9331 50.243 34.9997 50.259 32.0662 50.2365C30.1791 50.2237 29.0429 49.2352 29.0558 47.685C29.0654 46.1477 30.2176 45.1207 32.0983 45.1111C37.9652 45.0854 40.1899 45.0854 46.0568 45.1111C47.9921 45.1175 49.2117 46.2247 49.1507 47.7974C49.0929 49.3315 47.9664 50.2301 46.0247 50.2398C43.0881 50.2526 43.7999 50.243 40.8665 50.243Z" fill="#00C2C5" stroke="white" stroke-width="2"/>
<ellipse cx="23.3995" cy="59.2325" rx="2.82817" ry="2.82818" fill="#00C2C5"/>
<ellipse cx="23.3995" cy="47.92" rx="2.82817" ry="2.82818" fill="#00C2C5"/>
</svg>
