<svg width="20" height="18" viewBox="0 0 20 18" fill="none" xmlns="http://www.w3.org/2000/svg">
<path d="M19.939 0.884882C19.8171 0.594882 19.5333 0.40625 19.2187 0.40625H0.781244C0.466674 0.40625 0.182846 0.594882 0.0610108 0.884882C-0.0608249 1.17488 0.00312026 1.50969 0.223276 1.73433L7.65623 9.31897V16.8125C7.65623 17.1284 7.84658 17.4133 8.13853 17.5343C8.43045 17.6552 8.7665 17.5883 8.98994 17.3649L12.1149 14.2399C12.2614 14.0935 12.3437 13.8947 12.3437 13.6875V9.31897L19.7767 1.73433C19.9969 1.50969 20.0608 1.17488 19.939 0.884882ZM10.7812 13.3639L9.21873 14.9264V9.78123H10.7812V13.3639ZM11.2343 8.21874H8.76576L2.64073 1.96875H17.3593L11.2343 8.21874Z" fill="#2B2B2B"/>
</svg>
