<svg width="72" height="72" viewBox="0 0 72 72" fill="none" xmlns="http://www.w3.org/2000/svg">
<path d="M41.744 56.7984C41.5415 56.6371 41.3207 56.4941 41.14 56.3134C32.8749 48.0541 24.6122 39.7924 16.3529 31.5285C14.7399 29.9144 14.7513 27.8976 16.3689 26.2801C20.478 22.1699 24.5882 18.0596 28.6984 13.9494C29.4888 13.1578 30.0242 13.175 30.7358 14.0421C32.057 15.6505 32.5237 17.4854 32.0067 19.501C31.6864 20.7479 31.9804 21.6928 32.8921 22.5931C34.1665 23.8526 35.4637 25.04 37.2242 25.5651C39.3383 26.1966 41.4008 26.0547 43.4039 25.1144C44.3911 24.6511 44.8201 24.8101 45.2376 25.7939C47.5049 31.1407 49.7814 36.4853 52.0292 41.8413C52.5555 43.0962 53.4123 43.7082 54.7873 43.7253C59.3837 43.7825 62.7275 47.1824 62.7343 51.7731C62.7355 52.6482 62.7732 53.5382 62.6359 54.395C62.2058 57.0798 60.0357 58.9262 57.3189 59.0108C57.129 59.0166 56.9379 59.0143 56.7469 59.0143C44.128 59.0143 31.5102 59.0143 18.8913 59.0131C18.6259 59.0131 18.3525 59.02 18.0963 58.9639C17.5883 58.8518 17.2703 58.4034 17.3367 57.9092C17.4053 57.3944 17.705 57.0787 18.2335 57.0295C18.5172 57.0032 18.8044 57.0135 19.0903 57.0124C26.3716 57.0112 33.6528 57.0124 40.9341 57.0101C41.1697 57.0101 41.4054 56.9895 41.6399 56.978C41.6753 56.9185 41.7097 56.8591 41.744 56.7984ZM44.8018 29.9293C44.4906 29.1857 44.1795 28.5142 43.9278 27.8221C43.7596 27.36 43.58 27.233 43.0607 27.4046C40.3712 28.2957 37.7356 28.1104 35.1708 26.8898C33.7135 26.1954 32.5901 25.0904 31.4519 23.9853C30.0196 22.5954 29.5117 21.0042 30.0597 19.0537C30.356 17.999 30.2198 16.9523 29.6822 16.0577C28.0909 17.6501 26.5146 19.2276 24.8639 20.8795C25.5434 21.535 26.3075 22.2248 27.0179 22.9661C29.6112 25.6738 29.6925 29.6811 27.2353 32.5146C27.1289 32.6382 27.0351 32.7732 26.9298 32.9104C27.0522 33.0466 27.1369 33.1484 27.2295 33.241C32.971 38.9837 38.7159 44.724 44.4551 50.4689C45.8485 51.8634 47.5198 52.5406 49.492 52.5326C53.0187 52.5178 56.5455 52.5292 60.0723 52.5269C60.2737 52.5269 60.475 52.5052 60.6626 52.4949C61.1968 48.8503 58.4811 45.765 54.7598 45.7341C52.5806 45.717 51.0592 44.7446 50.2321 42.7118C50.0193 42.189 49.7848 41.6754 49.5411 41.1137C48.9177 41.3745 48.3629 41.6193 47.7989 41.839C47.1457 42.0941 46.592 41.8893 46.3633 41.3311C46.1379 40.782 46.4021 40.274 47.0611 39.9858C47.6124 39.7444 48.1638 39.503 48.761 39.2422C48.3491 38.2756 47.9648 37.3753 47.5724 36.4532C46.9169 36.7232 46.3427 36.9726 45.7581 37.1957C45.1392 37.4325 44.6039 37.222 44.3796 36.6798C44.1623 36.1524 44.414 35.6136 45.018 35.3448C45.4698 35.1434 45.9263 34.9478 46.3873 34.7693C46.6698 34.6595 46.7819 34.5303 46.6355 34.2145C46.3244 33.5407 46.0281 32.8578 45.7615 32.1646C45.6357 31.8397 45.4733 31.8225 45.1953 31.9495C44.7617 32.1463 44.3213 32.3293 43.8786 32.5032C43.2048 32.7674 42.6591 32.5878 42.4235 32.0399C42.189 31.4931 42.4372 30.9611 43.0824 30.6694C43.6212 30.4258 44.1657 30.2015 44.8018 29.9293ZM18.3777 27.1964C16.958 28.2477 16.7864 29.1869 18.0516 30.4223C21.4068 33.6975 24.6957 37.0401 28.0109 40.3564C32.8761 45.2216 37.7447 50.0846 42.6077 54.9521C43.9083 56.2539 45.4687 56.9803 47.3047 56.9986C50.621 57.0307 53.9385 57.0261 57.2548 57.0009C58.5452 56.9906 59.5621 56.4049 60.2359 55.285C60.3549 55.0859 60.4167 54.8537 60.5459 54.5357C60.1879 54.5357 59.9442 54.5357 59.7006 54.5357C56.3076 54.5357 52.9146 54.5265 49.5217 54.538C46.9707 54.546 44.8029 53.6594 42.9989 51.852C36.2782 45.1221 29.5495 38.4003 22.8265 31.6738C21.3462 30.1935 19.8739 28.703 18.3777 27.1964ZM19.8762 25.6875C21.7706 27.583 23.6501 29.4626 25.5319 31.3466C27.1655 29.9453 27.5704 27.13 26.2103 25.1922C25.4221 24.07 24.3628 23.1376 23.4488 22.1447C22.1916 23.3916 21.0168 24.5561 19.8762 25.6875Z" fill="#00C2C5"/>
<path d="M22.0353 49.0571C20.1879 49.0571 18.3392 49.0606 16.4918 49.056C15.6796 49.0537 15.246 48.6934 15.254 48.0447C15.2609 47.427 15.7047 47.0495 16.4632 47.0484C20.197 47.0438 23.9309 47.0438 27.6647 47.0484C28.4598 47.0495 28.9379 47.5014 28.8739 48.1591C28.8201 48.7105 28.4117 49.0514 27.7505 49.0537C25.8458 49.0617 23.9412 49.0571 22.0353 49.0571Z" fill="#00C2C5"/>
<path d="M14.6734 18.0715C13.5878 18.0715 12.501 18.0783 11.4154 18.0692C10.6753 18.0623 10.2577 17.7088 10.2417 17.106C10.2246 16.4757 10.6432 16.0753 11.4063 16.0707C13.5981 16.057 15.7887 16.057 17.9805 16.0718C18.7001 16.0764 19.1291 16.4757 19.1325 17.0682C19.1359 17.6837 18.6921 18.0635 17.9325 18.0692C16.8457 18.0772 15.759 18.0715 14.6734 18.0715Z" fill="#00C2C5"/>
<path d="M13.3393 34.7254C14.2899 34.7254 15.2417 34.7197 16.1923 34.7277C16.9039 34.7334 17.3408 35.1178 17.3397 35.7149C17.3386 36.3166 16.905 36.717 16.198 36.7204C14.2579 36.7296 12.3178 36.7307 10.3765 36.7193C9.69011 36.7147 9.23939 36.28 9.25426 35.692C9.26799 35.12 9.69926 34.7357 10.3719 34.7288C11.3614 34.7174 12.3509 34.7254 13.3393 34.7254Z" fill="#00C2C5"/>
</svg>
