<svg width="100" height="37" viewBox="0 0 100 37" fill="none" xmlns="http://www.w3.org/2000/svg">
<path d="M13.6901 7.25059C14.5391 7.24926 15.3615 6.95729 16.017 6.42435C16.6725 5.89142 17.1207 5.15047 17.2853 4.32779C17.4498 3.5051 17.3205 2.65152 16.9193 1.91244C16.5182 1.17336 15.87 0.594522 15.0852 0.274459C14.3005 -0.0456046 13.4276 -0.0870863 12.6154 0.15712C11.8031 0.401327 11.1017 0.916122 10.6306 1.61377C10.1595 2.31142 9.94778 3.14879 10.0316 3.98327C10.1155 4.81776 10.4896 5.59771 11.0903 6.19031C11.4318 6.52717 11.8372 6.79424 12.2833 6.97617C12.7294 7.15811 13.2075 7.25134 13.6901 7.25059Z" fill="#00C2C5"/>
<path d="M21.5171 0C21.636 0.341596 24.0489 7.66781 11.0316 12.6377C10.6869 12.7716 10.3273 12.9056 10.0137 13.0637C10.6409 12.9798 11.2732 12.9382 11.9062 12.9391C15.7103 12.8725 19.3966 14.2478 22.212 16.7841C25.0273 19.3204 26.7592 22.8263 27.0539 26.5855C27.1269 26.3857 27.1891 26.1823 27.2404 25.976C31.6066 13.2901 21.8956 0.52244 21.5171 0Z" fill="#00C2C5"/>
<path d="M10.1779 13.293C9.56874 13.2931 8.96025 13.3347 8.35613 13.4176L6.9545 13.6266C1.01401 17.1494 -2.682 24.2436 3.18445 34.5628C3.72975 29.3474 6.06852 17.884 16.1789 15.2706C16.1789 15.2706 6.77813 18.9939 5.94603 35.9232C10.4512 36.5934 20.6222 37.0688 24.6952 28.6199L24.6333 27.6819C24.3857 23.7834 22.7566 20.13 20.0748 17.4594C17.3931 14.7887 13.8585 13.2997 10.1846 13.293H10.1779Z" fill="#00C2C5"/>
<path d="M49.166 26.5965H54.7256C54.7864 27.3293 55.0003 28.0418 55.354 28.6894C55.7077 29.337 56.1935 29.9057 56.7809 30.3599C57.3684 30.8141 58.0448 31.144 58.7679 31.3289C59.491 31.5138 60.245 31.5498 60.9829 31.4345C64.72 31.4345 66.5877 30.1597 66.5859 27.6099C66.6045 27.1663 66.4997 26.7261 66.2828 26.3369C66.0658 25.9476 65.7449 25.624 65.3548 25.4011C63.4242 24.5361 61.4004 23.889 59.3219 23.472C53.2686 21.9665 50.242 19.1668 50.242 15.0731C50.192 13.9505 50.4281 12.8333 50.9286 11.8233C51.4292 10.8133 52.1784 9.94243 53.1081 9.29002C55.335 7.84442 57.9714 7.13364 60.636 7.26056C67.7176 7.26056 71.3605 10.0941 71.5645 15.7612L65.8187 16.0008C65.754 15.3975 65.5677 14.8129 65.2706 14.2812C64.9735 13.7496 64.5716 13.2817 64.0885 12.9048C63.6054 12.528 63.0506 12.2497 62.4569 12.0865C61.8631 11.9232 61.2422 11.8782 60.6306 11.954C57.6461 11.954 55.8056 12.8737 55.8056 14.6983C55.8197 15.0264 55.9032 15.3481 56.0507 15.6427C56.1983 15.9372 56.4067 16.1983 56.6625 16.4091C58.3034 17.3818 60.1163 18.0404 62.0058 18.3502C66.7786 19.5631 69.7059 20.908 70.7878 22.385C71.8859 23.8983 72.4553 25.7214 72.4106 27.5805C72.4106 33.3502 68.6141 36.2395 61.021 36.2484C53.8976 36.2172 49.9459 32.9999 49.166 26.5965Z" fill="#00C2C5"/>
<path d="M98.1034 7.2993L91.1905 7.24609L79.424 20.1253V7.24609H73.6328V36.2484H79.4172L79.3389 28.2694L98.1034 7.2993Z" fill="#00C2C5"/>
<path d="M85.8691 23.9636L92.2391 36.2481H99.328L89.4672 19.3301L85.8691 23.9636Z" fill="#00C2C5"/>
<path d="M40.6038 16.5983V36.2482H45.4918L45.4087 10.8711C44.2663 13.2499 42.606 15.2299 40.5977 16.6083L40.6038 16.5983Z" fill="#00C2C5"/>
<path d="M45.4931 7.24609H41.1516C40.4508 8.8138 39.3772 10.215 38.0105 11.3455C36.6438 12.476 35.0193 13.3066 33.2578 13.7756V18.122C37.6938 16.4329 44.5961 12.2097 45.4931 7.24609Z" fill="#00C2C5"/>
</svg>
