<svg width="72" height="72" viewBox="0 0 72 72" fill="none" xmlns="http://www.w3.org/2000/svg">
<path d="M14.4 9.25H57.5999C58.9658 9.25 60.2757 9.79259 61.2415 10.7584C62.2073 11.7242 62.7499 13.0341 62.7499 14.4V57.6C62.7499 58.9659 62.2073 60.2758 61.2415 61.2416C60.2757 62.2074 58.9658 62.75 57.5999 62.75H14.4C13.0341 62.75 11.7242 62.2074 10.7584 61.2416C9.79259 60.2758 9.25 58.9659 9.25 57.6V14.4C9.25 13.0341 9.79259 11.7242 10.7584 10.7584C11.7242 9.79259 13.0341 9.25 14.4 9.25ZM59.0495 59.0496C59.4339 58.6651 59.6499 58.1437 59.6499 57.6V14.4C59.6499 13.8563 59.4339 13.3349 59.0495 12.9504C58.665 12.566 58.1436 12.35 57.5999 12.35H14.4C13.8563 12.35 13.3349 12.566 12.9504 12.9504C12.566 13.3349 12.35 13.8563 12.35 14.4V57.6C12.35 58.1437 12.566 58.6651 12.9504 59.0496C13.3349 59.434 13.8563 59.65 14.4 59.65H57.5999C58.1436 59.65 58.665 59.434 59.0495 59.0496Z" fill="#00C2C5" stroke="white" stroke-width="0.5"/>
<path d="M52.1998 52.4566H52.4498V52.2066V39.6066C52.4498 39.1956 52.6131 38.8013 52.9038 38.5106C53.1945 38.2199 53.5887 38.0566 53.9998 38.0566C54.4109 38.0566 54.8051 38.2199 55.0958 38.5106C55.3865 38.8013 55.5498 39.1956 55.5498 39.6066V54.0066C55.5498 54.4177 55.3865 54.812 55.0958 55.1027C54.8051 55.3933 54.4109 55.5566 53.9998 55.5566H39.5998C39.1887 55.5566 38.7945 55.3933 38.5038 55.1027C38.2131 54.812 38.0498 54.4177 38.0498 54.0066C38.0498 53.5956 38.2131 53.2013 38.5038 52.9106C38.7945 52.6199 39.1887 52.4566 39.5998 52.4566H52.1998Z" fill="#00C2C5" stroke="white" stroke-width="0.5"/>
<path d="M19.7982 19.5492H19.5482V19.7992V32.3992C19.5482 32.8103 19.3849 33.2046 19.0943 33.4952C18.8036 33.7859 18.4093 33.9492 17.9982 33.9492C17.5872 33.9492 17.1929 33.7859 16.9022 33.4952C16.6115 33.2046 16.4482 32.8103 16.4482 32.3992V17.9992C16.4482 17.5881 16.6115 17.1939 16.9022 16.9032C17.1929 16.6125 17.5872 16.4492 17.9982 16.4492H32.3982C32.8093 16.4492 33.2036 16.6125 33.4943 16.9032C33.7849 17.1939 33.9482 17.5881 33.9482 17.9992C33.9482 18.4103 33.7849 18.8046 33.4943 19.0952C33.2036 19.3859 32.8093 19.5492 32.3982 19.5492H19.7982Z" fill="#00C2C5" stroke="white" stroke-width="0.5"/>
</svg>
