<svg width="72" height="72" viewBox="0 0 72 72" fill="none" xmlns="http://www.w3.org/2000/svg">
<path d="M37.0054 42.7719L36.8585 42.2625C36.5801 41.2969 36.3069 40.3499 36.0375 39.4161C35.3918 37.1778 34.7679 35.0152 34.1462 32.8538L34.1461 32.8536C33.9832 32.2854 33.8216 31.7148 33.6725 31.1394C33.5681 30.7393 33.4409 30.3928 33.2433 30.1353C33.0539 29.8885 32.7931 29.7144 32.3885 29.6671C31.9831 29.6199 31.6959 29.7294 31.4618 29.9257C31.216 30.1317 31.0184 30.4422 30.825 30.8158C30.3888 31.6613 29.9461 32.496 29.5043 33.3292C28.9389 34.3952 28.3748 35.4587 27.8276 36.5391L27.8275 36.5393C27.6784 36.8329 27.5007 37.0602 27.2549 37.2083C27.0095 37.356 26.7255 37.4071 26.3981 37.4049L26.3979 37.4049C22.8851 37.3777 19.3725 37.3757 15.86 37.4049C15.8598 37.4049 15.8597 37.4049 15.8596 37.4049L15.8575 37.1549L37.0054 42.7719ZM37.0054 42.7719L37.305 42.3345C37.5998 41.9041 37.8863 41.4938 38.1641 41.0958C38.7918 40.1969 39.3754 39.361 39.9106 38.5L39.9107 38.4999C40.1714 38.0801 40.4589 37.8021 40.7914 37.6272C41.125 37.4517 41.5235 37.3696 42.0224 37.3736C44.4669 37.3931 46.9233 37.3923 49.3787 37.3915C51.6281 37.3907 53.8767 37.39 56.1146 37.4049L56.1148 37.4049C56.5002 37.4071 56.8279 37.3454 57.1162 37.1852C57.404 37.0253 57.6283 36.7807 57.8308 36.4598M37.0054 42.7719L57.8308 36.4598M57.8308 36.4598C62.1112 29.706 59.4103 20.7004 52.0987 17.4309C47.0849 15.1891 41.3201 16.2851 37.3813 20.2239C36.7827 20.8225 36.385 21.0504 36.0326 21.0496C35.6796 21.0488 35.2799 20.8185 34.6779 20.2175L57.8308 36.4598ZM42.7542 40.0599C42.503 40.0629 42.2537 40.1913 42.0554 40.335C41.8506 40.4834 41.6634 40.6749 41.5328 40.8578L41.5323 40.8584C40.2627 42.6467 39.0395 44.4658 37.8203 46.2821C37.6094 46.596 37.3927 46.8342 37.1469 46.9792C36.9087 47.1196 36.6273 47.1822 36.2615 47.117L36.2611 47.117C35.918 47.0564 35.6925 46.907 35.527 46.7022C35.355 46.4895 35.2378 46.2046 35.1408 45.859L34.9001 45.9266L35.1408 45.859C34.6268 44.0283 34.1002 42.2007 33.5736 40.3732C33.4944 40.0986 33.4153 39.8241 33.3363 39.5495L33.3362 39.5493C33.0893 38.6953 32.8392 37.8415 32.5766 36.9449C32.4039 36.355 32.2257 35.7467 32.0394 35.1076L31.8666 34.5147L31.5783 35.0608C31.3442 35.5043 31.1166 35.9283 30.8957 36.3399C30.4108 37.2434 29.9579 38.0872 29.5389 38.9453C29.3361 39.3606 29.0951 39.6357 28.8075 39.8061C28.5196 39.9767 28.1609 40.0566 27.6978 40.0392C26.7927 40.0038 25.882 40.0118 24.9785 40.0197C24.5939 40.0231 24.2106 40.0264 23.8295 40.0264H23.819H23.8085H23.798H23.7875H23.777H23.7665H23.756H23.7455H23.735H23.7245H23.714H23.7035H23.693H23.6825H23.672H23.6615H23.651H23.6405H23.63H23.6195H23.609H23.5985H23.588H23.5775H23.567H23.5565H23.546H23.5355H23.525H23.5145H23.504H23.4935H23.483H23.4725H23.462H23.4515H23.441H23.4305H23.42H23.4095H23.3989H23.3884H23.3779H23.3674H23.3569H23.3464H23.3359H23.3254H23.3149H23.3044H23.2938H23.2833H23.2728H23.2623H23.2518H23.2413H23.2308H23.2202H23.2097H23.1992H23.1887H23.1782H23.1676H23.1571H23.1466H23.1361H23.1256H23.115H23.1045H23.094H23.0835H23.0729H23.0624H23.0519H23.0413H23.0308H23.0203H23.0098H22.9992H22.9887H22.9782H22.9676H22.9571H22.9465H22.936H22.9255H22.9149H22.9044H22.8938H22.8833H22.8728H22.8622H22.8517H22.8411H22.8306H22.82H22.8095H22.7989H22.7884H22.7778H22.7673H22.7567H22.7462H22.7356H22.725H22.7145H22.7039H22.6934H22.6828H22.6722H22.6617H22.6511H22.6405H22.63H22.6194H22.6088H22.5983H22.5877H22.5771H22.5665H22.556H22.5454H22.5348H22.5242H22.5136H22.503H22.4925H22.4819H22.4713H22.4607H22.4501H22.4395H22.4289H22.4183H22.4077H22.3971H22.3865H22.3759H22.3653H22.3547H22.3441H22.3335H22.3229H22.3123H22.3017H22.2911H22.2805H22.2698H22.2592H22.2486H22.238H22.2274H22.2167H22.2061H22.1955H22.1849H22.1742H22.1636H22.153H22.1423H22.1317H22.121H22.1104H22.0998H22.0891H22.0785H22.0678H22.0572H22.0465H22.0359H22.0252H22.0146H22.0039H21.9932H21.9826H21.9719H21.9613H21.9506H21.9399H21.9293H21.9186H21.9079H21.8972H21.8865H21.8759H21.8652H21.8545H21.8438H21.8331H21.8224H21.8117H21.801H21.7903H21.7797H21.769H21.7582H21.7475H21.7368H21.7261H21.7154H21.7047H21.694H21.6833H21.6726H21.6618H21.6511H21.6404H21.6297H21.6189H21.6082H21.5975H21.5867H21.576H21.5652H21.5545H21.5437H21.533H21.5223H21.5115H21.5007H21.49H21.4792H21.4685H21.4577H21.4469H21.4362H21.4254H21.4146H21.4038H21.3931H21.3823H21.3715H21.3607H21.3499H21.3391H21.3283H21.3175H21.3067H21.2959H21.2851H21.2743H21.2635H21.2527H21.2419H21.2311H21.2203H21.2095H21.1986H21.1878H21.177H21.1661H21.1553H21.1445H21.1336H21.1228H21.1119H21.1011H21.0903H21.0794H21.0685H21.0577H21.0468H21.036H21.0251H21.0142H21.0034H20.9925H20.9816H20.9707H20.9598H20.949H20.9381H20.9272H20.9163H20.9054H20.8945H20.8836H20.8727H20.8618H20.8509H20.8399H20.829H20.8181H20.8072H20.7963H20.7853H20.7744H20.7635H20.7525H20.7416H20.7306H20.7197H20.7087H20.6978H20.6868H20.6759H20.6649H20.6539H20.643H20.632H20.621H20.61H20.5991H20.5881H20.5771H20.5661H20.5551H20.5441H20.5331H20.5221H20.5111H20.5001H20.4891H20.4781H20.467H20.456H20.445H20.434H20.4229H20.4119H20.4008H20.3898H20.3788H20.3677H20.3567H20.3456H20.3345H20.3235H20.3124H20.3013H20.2903H20.2792H20.2681H20.257H20.2459H20.2348H20.2238H20.2127H20.2016H20.1904H20.1793H20.1682H20.1571H20.146H20.1349H20.1237H20.1126H20.1015H20.0903H20.0792H20.0681H20.0569H20.0458H20.0346H20.0234H20.0123H20.0011H19.9899H19.9788H19.9676H19.9564H19.9452H19.934H19.9228H19.9116H19.9004H19.8892H19.878H19.8668H19.8556H19.8444H19.8332H19.8219H19.8107H19.7995H19.7882H19.777H19.7657H19.7545H19.7432H19.732H19.7207H19.7094H19.6982H19.6869H19.6756H19.6643H19.6531H19.6418H19.6305H19.6192H19.6079H19.5966H19.5852H19.5739H19.5626H19.5513H19.54H19.5286H19.5173H19.506H19.4946H19.4833H19.4719H19.4606H19.4492H19.4378H19.4265H19.4151H19.4037H19.3923H19.3809H19.3696H19.3582H19.3468H19.3354H19.3239H19.3125H19.3011H19.2897H19.2783H19.2668H19.2554H19.244H19.2325H19.2211H19.2096H19.1982H19.1867H19.1753H19.1638H19.1523H19.1408H19.1293H19.1179H19.1064H19.0949H19.0834H19.0719H19.0604H19.0488H19.0373H19.0258H19.0143H19.0027H18.9912H18.9797H18.9681H18.9566H18.945H18.9334H18.9219H18.9103H18.8987H18.8872H18.8756H18.864H18.8524H18.8408H18.8292H18.8176H18.806H18.7944H18.7827H18.7711H18.7595H18.7478H18.7362H18.7245H18.7129H18.7012H18.6896H18.6779H18.6662H18.6546H18.6429H18.6312H18.6195H18.6078H18.5961H18.5844H18.5727H18.561H18.5493H18.5375H18.5258H18.5141H18.5023H18.4906H18.4788H18.4671H18.4553H18.4436H18.4318H18.42H18.4082H18.3964H18.3846H18.3729H18.361H18.3492H18.3374H18.3256H18.3138H18.302H18.2901H18.2783H18.2664H18.2546H18.2427H18.2309H18.219H17.6358L18.038 40.4488C18.1635 40.5806 18.2705 40.6959 18.3661 40.7989C18.5458 40.9925 18.6851 41.1425 18.8304 41.2766C24.0128 46.0685 29.1952 50.8584 34.3839 55.6441C34.7282 55.9619 35.0134 56.2136 35.2673 56.3843C35.5235 56.5565 35.7738 56.6643 36.0468 56.6604C36.3185 56.6566 36.5696 56.5425 36.8288 56.3649C37.0869 56.1881 37.3791 55.9296 37.7339 55.6024L37.7339 55.6024C39.6697 53.8161 41.6045 52.0291 43.5393 50.2421C46.7635 47.2643 49.9875 44.2865 53.2157 41.3127C53.3106 41.2259 53.4227 41.1487 53.5507 41.0684C53.5918 41.0426 53.6365 41.0153 53.6827 40.9871C53.772 40.9326 53.8671 40.8746 53.9543 40.8162L54.1662 40.6744L54.0203 40.4653C53.9969 40.4318 53.9738 40.399 53.951 40.3665C53.897 40.2895 53.8445 40.2147 53.7924 40.1381L53.718 40.0285H53.5856C52.8126 40.0285 52.0394 40.0277 51.266 40.0268C48.4295 40.0236 45.591 40.0205 42.7542 40.0599ZM42.7542 40.0599L42.7572 40.3099M42.7542 40.0599C42.7541 40.0599 42.7539 40.0599 42.7537 40.0599L42.7572 40.3099M42.7572 40.3099C45.5921 40.2705 48.4282 40.2736 51.2647 40.2768C52.0383 40.2777 52.8119 40.2785 53.5856 40.2785L36.2176 47.3631C37.0612 47.5135 37.5873 47.0771 38.0279 46.4215C39.2473 44.6049 40.4688 42.7883 41.7362 41.0031C41.9659 40.6815 42.4085 40.314 42.7572 40.3099ZM35.8743 17.6829L36.0371 17.8207L36.1989 17.6818C38.552 15.6601 41.1943 14.4018 44.2008 13.8565L44.2009 13.8565C52.6342 12.3222 61.197 18.5377 62.3224 27.0441L62.3224 27.0442C63.0614 32.6181 61.3615 37.3235 57.2674 41.1418L57.2674 41.1418C52.4399 45.6453 47.5827 50.1176 42.7255 54.59C41.5436 55.6783 40.3617 56.7665 39.1802 57.8553L39.1801 57.8553C38.0937 58.8573 37.0487 59.3287 36.0282 59.3254C35.0072 59.322 33.9589 58.8433 32.8667 57.8365C31.234 56.3303 29.5991 54.827 27.9644 53.3239C23.5559 49.2701 19.1486 45.2175 14.7886 41.1134L14.7885 41.1133C10.0463 36.6533 8.38981 31.1625 10.2527 24.9323C12.1142 18.7102 16.4807 14.9628 22.8965 13.8674L22.8965 13.8674C27.7133 13.0441 32.0314 14.4275 35.8743 17.6829Z" fill="#00C2C5" stroke="white" stroke-width="0.5"/>
</svg>
