<svg width="28" height="28" viewBox="0 0 28 28" fill="none" xmlns="http://www.w3.org/2000/svg">
<rect width="28" height="28" rx="14" fill="#00C2C5"/>
<path d="M16.1125 19.834H11.8708C11.8986 20.0719 11.9139 20.3111 11.9167 20.5506V20.6673H16.0833V20.4006C16.0833 20.2131 16.0833 20.0215 16.1125 19.834Z" fill="white"/>
<path d="M14.7667 14.418H13.2333L13.9417 19.0013H14.0583L14.7667 14.418Z" fill="white"/>
<path d="M11.7167 18.9998H13.0958L12.3917 14.4165H11.9167C11.8062 14.4165 11.7002 14.3726 11.6221 14.2944C11.5439 14.2163 11.5 14.1103 11.5 13.9998C11.5 13.8893 11.5439 13.7833 11.6221 13.7052C11.7002 13.627 11.8062 13.5831 11.9167 13.5831H16.0833C16.1939 13.5831 16.2998 13.627 16.378 13.7052C16.4561 13.7833 16.5 13.8893 16.5 13.9998C16.5 14.1103 16.4561 14.2163 16.378 14.2944C16.2998 14.3726 16.1939 14.4165 16.0833 14.4165H15.6083L14.9042 18.9998H16.2667C16.4865 18.1209 16.935 17.3159 17.5667 16.6665C18.2696 15.9511 18.7412 15.0408 18.9201 14.054C19.0989 13.0671 18.9769 12.0493 18.5698 11.1327C18.1628 10.2161 17.4894 9.44306 16.6373 8.91409C15.7852 8.38512 14.7937 8.12463 13.7917 8.16646C12.5211 8.22914 11.3211 8.76984 10.4325 9.68014C9.5438 10.5904 9.03211 11.803 9.00001 13.0748C8.98851 13.7337 9.10739 14.3884 9.34979 15.0012C9.5922 15.614 9.95337 16.1729 10.4125 16.6456C11.043 17.3047 11.4923 18.1157 11.7167 18.9998Z" fill="white"/>
<path d="M11.975 21.5C12.0671 21.8569 12.275 22.1731 12.566 22.3993C12.857 22.6255 13.2148 22.7488 13.5833 22.75H14.4167C14.7852 22.7488 15.143 22.6255 15.434 22.3993C15.725 22.1731 15.9329 21.8569 16.025 21.5H11.975Z" fill="white"/>
<path d="M14 7.33398C13.8895 7.33398 13.7835 7.29008 13.7054 7.21194C13.6272 7.1338 13.5833 7.02782 13.5833 6.91732V5.25065C13.5833 5.14014 13.6272 5.03416 13.7054 4.95602C13.7835 4.87788 13.8895 4.83398 14 4.83398C14.1105 4.83398 14.2165 4.87788 14.2946 4.95602C14.3728 5.03416 14.4167 5.14014 14.4167 5.25065V6.91732C14.4167 7.02782 14.3728 7.1338 14.2946 7.21194C14.2165 7.29008 14.1105 7.33398 14 7.33398Z" fill="white"/>
<path d="M19 9.41772C18.9452 9.41804 18.8908 9.40753 18.8401 9.38679C18.7893 9.36606 18.7431 9.33551 18.7042 9.29689C18.6651 9.25815 18.6341 9.21207 18.613 9.16129C18.5918 9.11052 18.5809 9.05606 18.5809 9.00105C18.5809 8.94605 18.5918 8.89159 18.613 8.84081C18.6341 8.79004 18.6651 8.74396 18.7042 8.70522L20.3708 7.03855C20.4097 6.9997 20.4558 6.96889 20.5066 6.94786C20.5573 6.92684 20.6117 6.91602 20.6667 6.91602C20.7216 6.91602 20.776 6.92684 20.8268 6.94786C20.8775 6.96889 20.9236 6.9997 20.9625 7.03855C21.0013 7.0774 21.0322 7.12352 21.0532 7.17428C21.0742 7.22504 21.085 7.27945 21.085 7.33439C21.085 7.38933 21.0742 7.44373 21.0532 7.49449C21.0322 7.54525 21.0013 7.59137 20.9625 7.63022L19.2958 9.29689C19.2569 9.33551 19.2107 9.36606 19.16 9.38679C19.1092 9.40753 19.0548 9.41804 19 9.41772Z" fill="white"/>
<path d="M9 9.41772C8.94516 9.41804 8.89081 9.40753 8.84004 9.38679C8.78927 9.36606 8.7431 9.33551 8.70417 9.29689L7.0375 7.63022C6.99865 7.59137 6.96783 7.54525 6.94681 7.49449C6.92578 7.44373 6.91496 7.38933 6.91496 7.33439C6.91496 7.27945 6.92578 7.22504 6.94681 7.17428C6.96783 7.12352 6.99865 7.0774 7.0375 7.03855C7.07635 6.9997 7.12247 6.96889 7.17323 6.94786C7.22399 6.92684 7.27839 6.91602 7.33333 6.91602C7.38828 6.91602 7.44268 6.92684 7.49344 6.94786C7.5442 6.96889 7.59032 6.9997 7.62917 7.03855L9.29583 8.70522C9.33489 8.74396 9.36589 8.79004 9.38704 8.84081C9.40819 8.89159 9.41908 8.94605 9.41908 9.00105C9.41908 9.05606 9.40819 9.11052 9.38704 9.16129C9.36589 9.21207 9.33489 9.25815 9.29583 9.29689C9.2569 9.33551 9.21073 9.36606 9.15996 9.38679C9.1092 9.40753 9.05484 9.41804 9 9.41772Z" fill="white"/>
<path d="M21.9167 14.4173H20.25C20.1395 14.4173 20.0335 14.3734 19.9554 14.2953C19.8772 14.2171 19.8333 14.1112 19.8333 14.0007C19.8333 13.8901 19.8772 13.7842 19.9554 13.706C20.0335 13.6279 20.1395 13.584 20.25 13.584H21.9167C22.0272 13.584 22.1332 13.6279 22.2113 13.706C22.2894 13.7842 22.3333 13.8901 22.3333 14.0007C22.3333 14.1112 22.2894 14.2171 22.2113 14.2953C22.1332 14.3734 22.0272 14.4173 21.9167 14.4173Z" fill="white"/>
<path d="M7.75001 14.4173H6.08334C5.97283 14.4173 5.86685 14.3734 5.78871 14.2953C5.71057 14.2171 5.66667 14.1112 5.66667 14.0007C5.66667 13.8901 5.71057 13.7842 5.78871 13.706C5.86685 13.6279 5.97283 13.584 6.08334 13.584H7.75001C7.86052 13.584 7.9665 13.6279 8.04464 13.706C8.12278 13.7842 8.16668 13.8901 8.16668 14.0007C8.16668 14.1112 8.12278 14.2171 8.04464 14.2953C7.9665 14.3734 7.86052 14.4173 7.75001 14.4173Z" fill="white"/>
</svg>
