<svg width="72" height="72" viewBox="0 0 72 72" fill="none" xmlns="http://www.w3.org/2000/svg">
<path d="M43.7141 20.842L43.7137 20.8425C43.4312 21.1844 43.317 21.6339 43.4024 22.0679L43.4024 22.0683L45.7248 33.9799L43.7141 20.842ZM43.7141 20.842C43.9948 20.5006 44.4147 20.3027 44.8582 20.3027H57.0425C57.7505 20.3027 58.3605 20.8044 58.4984 21.4999L43.7141 20.842ZM43.6754 42.8222L43.6744 42.8234C41.6499 45.211 38.6941 46.5807 35.5669 46.5807C33.9812 46.5807 32.4501 46.2374 31.0252 45.5648L31.0241 45.5642C29.6689 44.9161 28.4356 43.9678 27.4666 42.8324L27.4651 42.8307C25.5355 40.5266 24.775 37.2171 25.409 33.9807L27.7313 22.0683L27.7314 22.0679C27.8168 21.6339 27.7025 21.1844 27.42 20.8425L27.4196 20.842C27.139 20.5006 26.7191 20.3027 26.2755 20.3027H14.0913C13.3832 20.3027 12.7731 20.8046 12.6353 21.5002C12.6353 21.5002 12.6353 21.5003 12.6353 21.5003L10.7633 31.0342C10.7633 31.0342 10.7632 31.0342 10.7632 31.0342C8.73494 41.3815 12.8229 51.709 21.1665 57.354C25.4313 60.2298 30.4116 61.7503 35.5669 61.7503C38.1843 61.7503 40.7592 61.3604 43.2179 60.592L43.2183 60.5919C45.5842 59.8565 47.8506 58.7709 49.954 57.3641C49.9605 57.359 49.9681 57.3536 49.9767 57.3483C58.3128 51.7041 62.3984 41.379 60.3705 31.0342C60.3705 31.0342 60.3705 31.0342 60.3705 31.0342L58.4984 21.5003L43.6754 42.8222ZM43.6754 42.8222C45.5983 40.5266 46.3587 37.2171 45.7249 33.9801L43.6754 42.8222ZM48.3094 54.8939L48.3083 54.8946C46.4421 56.1441 44.4331 57.1077 42.3343 57.7591L48.3094 54.8939ZM48.3094 54.8939C55.6699 49.9123 59.2558 40.7671 57.4588 31.6049L57.4588 31.6048L57.3865 31.2367L57.3469 31.0348H57.1412H48.4767H48.1731L48.2313 31.3327L48.6365 33.408L48.6365 33.4082C49.4561 37.5935 48.4684 41.7188 45.9434 44.735C43.3468 47.7967 39.5674 49.5474 35.5669 49.5474C33.5389 49.5474 31.5833 49.1088 29.7515 48.2445C28.0164 47.4151 26.4452 46.2065 25.2003 44.7465C22.6652 41.7184 21.6777 37.5932 22.4973 33.409L22.4973 33.4089L22.9026 31.3328L22.9607 31.0349H22.6572H13.9926H13.7869L13.7473 31.2367L13.675 31.6049L13.675 31.6049C11.8779 40.768 15.4639 49.914 22.8261 54.8956L22.8265 54.8958M48.3094 54.8939L22.8265 54.8958M22.8265 54.8958C26.5987 57.4383 31.0044 58.7835 35.5669 58.7835C37.8836 58.7835 40.1599 58.4388 42.334 57.7592L22.8265 54.8958ZM55.8625 23.4713L55.8229 23.2694H55.6172H46.9606H46.6571L46.7153 23.5673L47.5545 27.866L47.594 28.0681H47.7999H56.4608H56.7646L56.7061 27.77L55.8625 23.4713ZM15.5166 23.2694H15.3109L15.2712 23.4713L14.4276 27.77L14.3691 28.0681H14.673H23.334H23.5399L23.5794 27.866L24.4185 23.5673L24.4767 23.2694H24.1732H15.5166Z" fill="#00C2C5" stroke="white" stroke-width="0.5"/>
<path d="M36.1864 10.1135C35.296 9.77498 34.2905 10.2185 33.9486 11.1131L31.208 18.2716C31.0032 18.804 31.0743 19.4032 31.3976 19.8738M36.1864 10.1135L36.0968 10.3469C36.097 10.347 36.0971 10.347 36.0972 10.3471M36.1864 10.1135L36.0975 10.3472C36.0974 10.3472 36.0973 10.3471 36.0972 10.3471M36.1864 10.1135L39.5551 18.0523C39.2785 17.649 38.8207 17.4078 38.3311 17.4078H35.3451H34.9817L35.1116 17.0684L36.9516 12.2628L36.9517 12.2625C37.2455 11.4983 36.8623 10.6407 36.0972 10.3471M36.0972 10.3471C35.3347 10.0574 34.4743 10.4378 34.1821 11.2023L34.182 11.2025L31.4415 18.361L31.4414 18.3614C31.2662 18.8167 31.3269 19.3294 31.6037 19.7322M31.6037 19.7322C31.6037 19.7322 31.6036 19.7321 31.6036 19.7321L31.3976 19.8738M31.6037 19.7322C31.8803 20.134 32.3381 20.3745 32.8263 20.3745H35.8021H36.167L36.0353 20.7148L34.1953 25.4663L31.3976 19.8738M31.6037 19.7322L31.3976 19.8738M35.0426 27.3849C34.2794 27.0895 33.8998 26.2297 34.1953 25.4663L35.0423 27.3848C35.0424 27.3848 35.0425 27.3849 35.0426 27.3849ZM35.0426 27.3849C35.2203 27.4533 35.4013 27.4857 35.5787 27.4857C36.1729 27.4857 36.7348 27.1245 36.9621 26.5368L36.9621 26.5367L39.7145 19.4264L39.7145 19.4264C39.8912 18.9701 39.8319 18.4567 39.5553 18.0525L35.0426 27.3849Z" fill="#00C2C5" stroke="white" stroke-width="0.5"/>
</svg>
