<svg width="82" height="47" viewBox="0 0 82 47" fill="none" xmlns="http://www.w3.org/2000/svg">
<path d="M11.796 5.66656C12.4514 5.66552 13.0861 5.43734 13.5921 5.02083C14.0981 4.60433 14.4441 4.02525 14.5711 3.3823C14.6981 2.73935 14.5983 2.07225 14.2886 1.49463C13.979 0.917019 13.4787 0.464637 12.8729 0.214498C12.2671 -0.0356414 11.5934 -0.0680607 10.9664 0.122795C10.3395 0.31365 9.79804 0.715978 9.43439 1.26121C9.07075 1.80645 8.90736 2.46088 8.97207 3.11305C9.03678 3.76523 9.32559 4.37478 9.78929 4.83792C10.0529 5.10119 10.3658 5.30991 10.7101 5.4521C11.0545 5.59428 11.4235 5.66715 11.796 5.66656Z" fill="white"/>
<path d="M17.3951 0.0625C17.4851 0.323043 19.3089 5.91092 9.46953 9.70158C9.20898 9.80375 8.93718 9.90592 8.70013 10.0265C9.17425 9.96248 9.65218 9.93075 10.1306 9.93147C13.006 9.88065 15.7924 10.9296 17.9204 12.8641C20.0484 14.7986 21.3575 17.4727 21.5802 20.3399C21.6354 20.1875 21.6824 20.0324 21.7212 19.875C25.0214 10.1992 17.6812 0.460978 17.3951 0.0625Z" fill="white"/>
<path d="M9.59719 11.0098C9.13496 11.0099 8.67321 11.0396 8.21478 11.0987L7.15116 11.2478C2.64325 13.7613 -0.161442 18.823 4.29028 26.1857C4.70408 22.4645 6.47884 14.2854 14.1511 12.4208C14.1511 12.4208 7.01732 15.0773 6.38589 27.1563C9.80463 27.6345 17.5228 27.9737 20.6136 21.9454L20.5666 21.2762C20.3787 18.4947 19.1425 15.888 17.1074 13.9825C15.0724 12.077 12.3902 11.0146 9.6023 11.0098H9.59719Z" fill="white"/>
<path d="M37.3507 20.2495H41.5266C41.5723 20.8088 41.7329 21.3526 41.9986 21.8469C42.2643 22.3411 42.6292 22.7752 43.0704 23.1219C43.5117 23.4685 44.0198 23.7203 44.5629 23.8615C45.106 24.0026 45.6724 24.0301 46.2266 23.9421C49.0336 23.9421 50.4365 22.969 50.4351 21.023C50.4491 20.6844 50.3704 20.3484 50.2074 20.0513C50.0445 19.7542 49.8035 19.5073 49.5104 19.3371C48.0604 18.6769 46.5402 18.183 44.979 17.8648C40.4323 16.7157 38.1589 14.5789 38.1589 11.4544C38.1214 10.5975 38.2987 9.74485 38.6747 8.97396C39.0506 8.20307 39.6134 7.53842 40.3117 7.04047C41.9843 5.93714 43.9646 5.39464 45.966 5.49151C51.2852 5.49151 54.0214 7.6542 54.1747 11.9796L49.8588 12.1625C49.8103 11.7019 49.6703 11.2557 49.4472 10.85C49.224 10.4442 48.9222 10.0871 48.5593 9.79944C48.1964 9.5118 47.7797 9.29946 47.3337 9.17484C46.8878 9.05023 46.4214 9.01586 45.962 9.07373C43.7203 9.07373 42.3378 9.77566 42.3378 11.1683C42.3484 11.4187 42.4111 11.6642 42.522 11.8891C42.6328 12.1139 42.7893 12.3132 42.9815 12.4741C44.214 13.2164 45.5757 13.7191 46.9949 13.9556C50.5799 14.8813 52.7786 15.9078 53.5913 17.0351C54.4161 18.1901 54.8438 19.5816 54.8102 21.0005C54.8102 25.4042 51.9585 27.6094 46.2552 27.6163C40.9047 27.5924 37.9365 25.1368 37.3507 20.2495Z" fill="white"/>
<path d="M74.6278 5.51641L69.4834 5.47656L60.7271 15.1228V5.47656H56.4174V27.1987H60.722L60.6637 21.2226L74.6278 5.51641Z" fill="white"/>
<path d="M65.0736 18.6361L70.1077 27.2096H75.7099L67.9171 15.4023L65.0736 18.6361Z" fill="white"/>
<path d="M31.3102 13.1911V27.189H35.3971L35.3277 9.11133C34.3725 10.8059 32.9843 12.2164 31.3051 13.1983L31.3102 13.1911Z" fill="white"/>
<path d="M35.4533 5.47656H32.1204C31.5824 6.77674 30.7582 7.93885 29.709 8.87642C28.6598 9.81399 27.4127 10.5029 26.0605 10.8918V14.4965C29.4659 13.0957 34.7647 9.59315 35.4533 5.47656Z" fill="white"/>
<path d="M0.597656 41.6035C0.621094 42.582 1.33008 43.8711 3.39258 43.8711C5.00977 43.8711 6.26367 43.0566 6.26367 41.5625C6.26367 40.2969 5.44922 39.7695 4.1543 39.418L2.91211 39.0781C2.04492 38.8496 1.61133 38.416 1.61133 37.7012C1.61133 36.7637 2.37305 36.2012 3.49219 36.2012C4.75781 36.2012 5.34375 36.9102 5.40234 37.6777H6.1582C6.12891 36.2832 4.92188 35.5156 3.50977 35.5156C2.0625 35.5156 0.849609 36.3359 0.849609 37.748C0.849609 38.9434 1.69336 39.5352 2.68359 39.8047L3.96094 40.1387C4.98633 40.4141 5.50195 40.8066 5.50195 41.6152C5.50195 42.5645 4.69922 43.1855 3.48047 43.1855C2.05664 43.1855 1.41211 42.377 1.35352 41.6035H0.597656ZM9.83531 36.4941H10.4271L12.0209 34.5195H11.2533L9.83531 36.4941ZM11.6576 42.6113H11.7045V43.6953H12.4427V38.1348H12.5423C13.4623 38.1348 13.931 37.5547 13.931 36.6523V35.9609H13.2572V36.6641C13.2572 37.2148 13.0228 37.584 12.4017 37.584H11.7045V41.4102C11.7045 42.3125 10.9955 43.1504 9.91734 43.1504C9.0443 43.1504 8.41734 42.6934 8.41734 41.6445V37.584H7.6732V41.8145C7.6732 43.2266 8.56383 43.7949 9.765 43.7949C10.8841 43.7949 11.4759 43.1387 11.6576 42.6113ZM14.362 41.1465C14.362 42.8105 15.323 43.7949 16.8347 43.7949C18.4167 43.7949 19.0905 42.8809 19.1433 42.0664H18.4109C18.2937 42.5938 17.8952 43.1035 16.8523 43.1035C15.7683 43.1035 15.0945 42.3828 15.0945 41.1406V40.1562C15.0945 38.9082 15.739 38.1348 16.8347 38.1348C17.9011 38.1348 18.2995 38.8203 18.3816 39.2949H19.114C19.073 38.4395 18.323 37.4844 16.8288 37.4844C15.3405 37.4844 14.362 38.4746 14.362 40.1035V41.1465ZM23.6909 41.3223L24.3823 40.6602L26.7084 43.6953H27.6049L24.9213 40.1855L27.4702 37.5488H26.5912L23.7202 40.4844H23.6909V35.2812H22.9526V43.6953H23.6909V41.3223ZM28.6629 43.6953H29.4012V40.1797C29.4012 39.0723 30.0105 38.1289 31.2 38.1289C32.1609 38.1289 32.7293 38.7617 32.7293 39.7695V43.6953H33.4676V39.5586C33.4676 38.1875 32.5828 37.4844 31.3934 37.4844C30.1277 37.4844 29.5828 38.252 29.4422 38.7383H29.4012V35.2812H28.6629V43.6953ZM37.5197 37.4844C36.0724 37.4844 34.965 38.4746 34.965 40.1562V41.123C34.965 42.8574 36.0607 43.7949 37.5197 43.7949C38.9611 43.7949 40.0744 42.8457 40.0744 41.123V40.1562C40.0744 38.4395 38.9552 37.4844 37.5197 37.4844ZM37.5197 38.1348C38.5978 38.1348 39.3302 38.9375 39.3302 40.2441V41.041C39.3302 42.3711 38.6154 43.1328 37.5197 43.1328C36.4181 43.1328 35.6974 42.3652 35.6974 41.041V40.2441C35.6974 38.9375 36.4474 38.1348 37.5197 38.1348ZM36.7345 35.3457C36.8517 35.2988 37.0685 35.2344 37.3146 35.2344C37.6662 35.2344 37.9298 35.4336 37.9298 35.7324C37.9298 35.9727 37.7716 36.166 37.4025 36.377L37.7013 36.7754C38.1056 36.5469 38.4923 36.248 38.4923 35.709C38.4923 35.1113 38.047 34.7422 37.3615 34.7422C37.0802 34.7422 36.8576 34.8066 36.7345 34.8594V35.3457ZM43.8277 43.7949C45.3159 43.7949 46.0249 42.8633 46.1128 42.2305H45.3335C45.2398 42.6641 44.7183 43.1328 43.8277 43.1328C42.6909 43.1328 42.0523 42.3242 42.0523 41.1348V40.8125H46.2007V40.2148C46.2007 38.498 45.187 37.4844 43.7573 37.4844C42.3218 37.4844 41.314 38.498 41.314 40.2148V41.0996C41.314 42.7578 42.2398 43.7949 43.8277 43.7949ZM42.0523 40.2266V40.1387C42.0523 38.9082 42.732 38.1348 43.7573 38.1348C44.7827 38.1348 45.4566 38.9082 45.4566 40.1387V40.2266H42.0523ZM50.1389 43.6953H50.8772V35.2812H50.1389V43.6953ZM54.3844 43.7949C55.4039 43.7949 55.9781 43.2559 56.2301 42.8047H56.2652V43.6953H56.9801V39.4297C56.9801 38.0469 56.025 37.4844 54.8004 37.4844C53.5055 37.4844 52.7203 38.0586 52.6383 38.9902H53.359C53.4703 38.5508 53.8453 38.1465 54.7652 38.1465C55.6559 38.1465 56.2359 38.5508 56.2359 39.4648V40.1855H54.5074C53.1188 40.1855 52.3922 40.9004 52.3922 41.9434C52.3922 43.0684 53.2008 43.7949 54.3844 43.7949ZM54.5484 43.1504C53.7867 43.1504 53.1598 42.7227 53.1598 41.9258C53.1598 41.2871 53.5582 40.8125 54.5191 40.8125H56.2359V41.6152C56.2359 42.5059 55.4918 43.1504 54.5484 43.1504ZM55.3277 36.4941L53.9156 34.5195H53.148L54.7418 36.4941H55.3277ZM60.8655 39.2422C60.8655 40.3789 61.7445 40.666 62.9105 40.9238C63.7894 41.1113 64.5452 41.2812 64.5452 42.0488C64.5452 42.7285 63.9769 43.168 62.9749 43.168C61.9027 43.168 61.5042 42.6699 61.4456 42.125H60.7191C60.7191 43.0859 61.5277 43.7949 62.9515 43.7949C64.2757 43.7949 65.2777 43.168 65.2777 41.9668C65.2777 40.7891 64.2933 40.5078 63.1507 40.2734C62.3245 40.0977 61.598 39.9277 61.598 39.1719C61.598 38.4746 62.2073 38.0996 62.9984 38.0996C64.0003 38.0996 64.4105 38.6914 64.4339 39.1367H65.137C65.137 38.2637 64.4046 37.4844 63.0218 37.4844C61.8616 37.4844 60.8655 38.0469 60.8655 39.2422ZM67.0505 36.6699H67.9177L68.9782 35.8496H69.0075L70.0563 36.6699H70.8942L69.3473 35.4277H68.6794L67.0505 36.6699ZM70.0798 35.4395L70.4372 35.6855L72.277 34.0742H71.404L70.0798 35.4395ZM68.9841 37.4844C67.5368 37.4844 66.4294 38.4746 66.4294 40.1562V41.123C66.4294 42.8574 67.5251 43.7949 68.9841 43.7949C70.4255 43.7949 71.5387 42.8457 71.5387 41.123V40.1562C71.5387 38.4395 70.4196 37.4844 68.9841 37.4844ZM68.9841 38.1348C70.0622 38.1348 70.7946 38.9375 70.7946 40.2441V41.041C70.7946 42.3711 70.0798 43.1328 68.9841 43.1328C67.8825 43.1328 67.1618 42.3652 67.1618 41.041V40.2441C67.1618 38.9375 67.9118 38.1348 68.9841 38.1348ZM77.9145 43.6953V35.7148H77.1762L75.2309 37.1094V37.9004L77.1352 36.5586H77.1762V43.6953H77.9145Z" fill="white"/>
</svg>
