<svg width="72" height="72" viewBox="0 0 72 72" fill="none" xmlns="http://www.w3.org/2000/svg">
<path d="M13.9863 40.7761C13.9863 29.2684 23.3463 19.9102 34.8522 19.9102C46.3565 19.9102 55.7198 29.2702 55.7198 40.7761C55.7198 52.2803 46.3565 61.6436 34.8522 61.6436C23.3463 61.6436 13.9863 52.282 13.9863 40.7761ZM17.2758 40.771C17.2758 50.4667 25.1598 58.3508 34.8522 58.3508C44.5463 58.3508 52.4304 50.4667 52.4304 40.771C52.4304 31.082 44.5462 23.1962 34.8522 23.1962C25.1599 23.1962 17.2758 31.0803 17.2758 40.771Z" fill="#00C2C5" stroke="white" stroke-width="0.5"/>
<path d="M20.1183 21.6041C20.1183 24.6053 17.6853 27.0382 14.6841 27.0382C11.6829 27.0382 9.25 24.6053 9.25 21.6041C9.25 18.6029 11.6829 16.1699 14.6841 16.1699C17.6853 16.1699 20.1183 18.6029 20.1183 21.6041Z" fill="#00C2C5" stroke="white" stroke-width="0.5"/>
<path d="M57.9223 20.2658C57.9223 22.5279 56.0885 24.3617 53.8264 24.3617C51.5643 24.3617 49.7305 22.5279 49.7305 20.2658C49.7305 18.0037 51.5643 16.1699 53.8264 16.1699C56.0885 16.1699 57.9223 18.0037 57.9223 20.2658Z" fill="#00C2C5" stroke="white" stroke-width="0.5"/>
<path d="M62.7498 12.7235C62.7498 14.0896 61.6424 15.1971 60.2763 15.1971C58.9102 15.1971 57.8027 14.0896 57.8027 12.7235C57.8027 11.3574 58.9102 10.25 60.2763 10.25C61.6424 10.25 62.7498 11.3574 62.7498 12.7235Z" fill="#00C2C5" stroke="white" stroke-width="0.5"/>
<path d="M27.2245 13.79C27.2245 14.8292 26.382 15.6717 25.3427 15.6717C24.3034 15.6717 23.4609 14.8292 23.4609 13.79C23.4609 12.7507 24.3034 11.9082 25.3427 11.9082C26.382 11.9082 27.2245 12.7507 27.2245 13.79Z" fill="#00C2C5" stroke="white" stroke-width="0.5"/>
<path d="M21.705 44.8968L21.7047 44.8962C20.9852 43.6803 20.6182 42.1438 20.6182 40.2741C20.6182 37.6621 21.3433 35.6681 22.7658 34.2456C24.1868 32.8246 26.1776 32.0996 28.7725 32.0996C31.4366 32.0996 33.453 32.8114 34.8571 34.2058L34.8573 34.206C36.264 35.5998 36.9823 37.5663 36.9823 40.1396C36.9823 42.018 36.6654 43.5313 36.0512 44.7052C35.4314 45.8731 34.5427 46.7877 33.3743 47.4433C32.2109 48.0944 30.7479 48.4268 28.9726 48.4268C27.1615 48.4268 25.682 48.1363 24.5239 47.5759C23.3686 47.0143 22.4289 46.1276 21.705 44.8968ZM31.5055 44.0214L31.5057 44.0211C32.1581 43.2464 32.4538 41.9031 32.4572 40.0745V40.074C32.4572 38.5158 32.1426 37.3232 31.4674 36.5505L31.467 36.55C30.7931 35.783 29.8822 35.4042 28.7641 35.4042C27.6812 35.4042 26.796 35.7934 26.1313 36.5711C25.4571 37.3577 25.1483 38.6212 25.1483 40.296C25.1483 41.9578 25.454 43.2105 26.1241 43.9985C26.7878 44.7809 27.69 45.1642 28.8061 45.1642C29.945 45.1642 30.8561 44.7903 31.5055 44.0214Z" fill="#00C2C5" stroke="white" stroke-width="0.5"/>
<path d="M42.0816 45.9506C42.0634 45.9682 42.0516 45.9766 42.0457 45.9803C41.9148 45.9879 41.8109 46.0963 41.8104 46.2291C41.81 46.3668 41.9211 46.479 42.0589 46.4799C42.0604 46.4799 42.0619 46.4799 42.0634 46.4799H45.7024V47.8746H38.1304C38.1512 47.8081 38.1747 47.7314 38.1997 47.6494C38.2325 47.5418 38.2682 47.4251 38.3045 47.3102C38.4614 46.8138 38.6609 46.2547 38.8992 45.8963C39.3919 45.1623 40.3299 44.4026 41.7739 43.3289C42.6494 42.6798 43.239 42.167 43.5114 41.7945L43.512 41.7936C43.7756 41.4301 43.9261 41.0568 43.9261 40.6853C43.9261 40.288 43.7779 39.9441 43.4859 39.6642C43.1905 39.381 42.822 39.2467 42.3967 39.2467C41.9564 39.2467 41.5795 39.3861 41.2847 39.6767L41.2841 39.6774C41.0199 39.9397 40.8547 40.348 40.7605 40.861L38.2618 40.6564C38.382 39.9622 38.5741 39.4311 38.8273 39.0499L38.8273 39.0499L38.8284 39.0482C39.1081 38.6195 39.5134 38.2862 40.0424 38.0545L40.0424 38.0545L40.0434 38.0541C40.5709 37.8205 41.3178 37.6973 42.3126 37.6973C43.3522 37.6973 44.132 37.819 44.6771 38.0433L44.6771 38.0433L44.6784 38.0438C45.2146 38.2608 45.6338 38.6023 45.9436 39.0598C46.249 39.5126 46.4035 40.03 46.4035 40.5995C46.4035 41.2023 46.2258 41.7997 45.8682 42.3608C45.5071 42.9186 44.8361 43.5857 43.8371 44.2916C43.3449 44.6322 42.9805 44.9379 42.7551 45.127C42.6989 45.1741 42.6513 45.214 42.6126 45.2454C42.5294 45.3128 42.4581 45.4121 42.4034 45.4933C42.3739 45.5371 42.3442 45.5836 42.3159 45.6279L42.3153 45.6288C42.2866 45.6736 42.2591 45.7167 42.2313 45.7582C42.1738 45.8442 42.1247 45.9089 42.0816 45.9506Z" fill="#00C2C5" stroke="white" stroke-width="0.5" stroke-linejoin="round"/>
</svg>
