<svg width="20" height="20" viewBox="0 0 20 20" fill="none" xmlns="http://www.w3.org/2000/svg">
<path fill-rule="evenodd" clip-rule="evenodd" d="M10 3.95898C8.96447 3.95898 8.125 4.79845 8.125 5.83398C8.125 6.86952 8.96447 7.70898 10 7.70898C11.0355 7.70898 11.875 6.86952 11.875 5.83398C11.875 4.79845 11.0355 3.95898 10 3.95898ZM6.875 5.83398C6.875 4.10809 8.27411 2.70898 10 2.70898C11.7259 2.70898 13.125 4.10809 13.125 5.83398C13.125 7.55987 11.7259 8.95898 10 8.95898C8.27411 8.95898 6.875 7.55987 6.875 5.83398Z" fill="white"/>
<path fill-rule="evenodd" clip-rule="evenodd" d="M9.99996 11.459C8.67341 11.459 6.84183 11.9401 5.74002 12.3524C5.1684 12.5664 4.79163 13.1354 4.79163 13.7998V16.6673C4.79163 17.0125 4.5118 17.2923 4.16663 17.2923C3.82145 17.2923 3.54163 17.0125 3.54163 16.6673V13.7998C3.54163 12.6691 4.19233 11.597 5.30187 11.1817C6.46785 10.7454 8.45986 10.209 9.99996 10.209C11.5828 10.209 13.3042 10.7778 14.5667 11.2013C15.7364 11.5936 16.4583 12.7 16.4583 13.8925V16.6673C16.4583 17.0125 16.1785 17.2923 15.8333 17.2923C15.4881 17.2923 15.2083 17.0125 15.2083 16.6673V13.8925C15.2083 13.1954 14.7911 12.5949 14.1692 12.3864C12.8709 11.9509 11.3442 11.459 9.99996 11.459Z" fill="white"/>
</svg>
