<svg width="24" height="24" viewBox="0 0 24 24" fill="none" xmlns="http://www.w3.org/2000/svg">
<path fill-rule="evenodd" clip-rule="evenodd" d="M12 4.75C10.7574 4.75 9.75 5.75736 9.75 7C9.75 8.24264 10.7574 9.25 12 9.25C13.2426 9.25 14.25 8.24264 14.25 7C14.25 5.75736 13.2426 4.75 12 4.75ZM8.25 7C8.25 4.92893 9.92893 3.25 12 3.25C14.0711 3.25 15.75 4.92893 15.75 7C15.75 9.07107 14.0711 10.75 12 10.75C9.92893 10.75 8.25 9.07107 8.25 7Z" fill="#00C2C5"/>
<path fill-rule="evenodd" clip-rule="evenodd" d="M12 13.75C10.4081 13.75 8.21025 14.3273 6.88807 14.8221C6.20212 15.0789 5.75 15.7617 5.75 16.5589V20C5.75 20.4142 5.41421 20.75 5 20.75C4.58579 20.75 4.25 20.4142 4.25 20V16.5589C4.25 15.2021 5.03085 13.9156 6.36229 13.4173C7.76147 12.8936 10.1519 12.25 12 12.25C13.8994 12.25 15.9651 12.9326 17.48 13.4407C18.8837 13.9115 19.75 15.2392 19.75 16.6702V20C19.75 20.4142 19.4142 20.75 19 20.75C18.5858 20.75 18.25 20.4142 18.25 20V16.6702C18.25 15.8337 17.7493 15.1132 17.0031 14.8629C15.4451 14.3403 13.6131 13.75 12 13.75Z" fill="#00C2C5"/>
</svg>
