<svg width="65" height="24" viewBox="0 0 65 24" fill="none" xmlns="http://www.w3.org/2000/svg">
<path d="M8.47449 4.92455C9.04405 4.92365 9.59567 4.72534 10.0354 4.36337C10.4752 4.00141 10.7758 3.49816 10.8862 2.9394C10.9966 2.38064 10.9098 1.8009 10.6407 1.29892C10.3716 0.796939 9.93682 0.403795 9.41038 0.18641C8.88393 -0.0309743 8.29842 -0.0591484 7.75355 0.106715C7.20868 0.272579 6.73815 0.622224 6.42212 1.09606C6.10609 1.5699 5.9641 2.13864 6.02034 2.70541C6.07658 3.27219 6.32757 3.80192 6.73055 4.20442C6.95962 4.43321 7.23156 4.6146 7.53081 4.73817C7.83005 4.86173 8.15074 4.92506 8.47449 4.92455Z" fill="white"/>
<path d="M13.3411 0.0549316C13.4192 0.281358 15.0042 5.13753 6.45331 8.43181C6.22688 8.52061 5.99067 8.60939 5.78467 8.71417C6.1967 8.65855 6.61205 8.63097 7.02781 8.6316C9.52673 8.58744 11.9482 9.49906 13.7976 11.1802C15.6469 12.8614 16.7846 15.1853 16.9781 17.6771C17.0261 17.5447 17.067 17.4098 17.1007 17.2731C19.9687 8.86424 13.5897 0.401231 13.3411 0.0549316Z" fill="white"/>
<path d="M6.56394 9.56763C6.16224 9.56771 5.76095 9.59352 5.36255 9.64488L4.43821 9.77452C0.52059 11.9589 -1.91684 16.3578 1.95194 22.7563C2.31156 19.5224 3.85393 12.4144 10.5215 10.7939C10.5215 10.7939 4.3219 13.1026 3.77314 23.5999C6.74421 24.0154 13.4518 24.3102 16.1378 19.0713L16.097 18.4897C15.9337 16.0724 14.8593 13.8071 13.0908 12.1511C11.3222 10.4951 8.99121 9.57179 6.56838 9.56763H6.56394Z" fill="white"/>
<path d="M30.6831 17.5979H34.3122C34.3519 18.084 34.4915 18.5566 34.7224 18.9861C34.9533 19.4156 35.2704 19.7929 35.6539 20.0942C36.0373 20.3954 36.4789 20.6142 36.9509 20.7369C37.4229 20.8596 37.9151 20.8834 38.3967 20.8069C40.8362 20.8069 42.0554 19.9613 42.0542 18.2701C42.0663 17.9759 41.9979 17.6839 41.8563 17.4257C41.7147 17.1675 41.5052 16.9529 41.2506 16.805C39.9904 16.2312 38.6693 15.802 37.3125 15.5254C33.3612 14.5268 31.3855 12.6698 31.3855 9.95447C31.3528 9.20981 31.5069 8.46879 31.8337 7.79885C32.1604 7.12891 32.6495 6.55129 33.2564 6.11855C34.71 5.15969 36.431 4.68823 38.1703 4.77241C42.7929 4.77241 45.1708 6.65191 45.304 10.4109L41.5534 10.5698C41.5111 10.1696 41.3895 9.78184 41.1956 9.42921C41.0017 9.07659 40.7393 8.76621 40.424 8.51624C40.1086 8.26626 39.7465 8.08172 39.3589 7.97343C38.9713 7.86513 38.566 7.83526 38.1668 7.88556C36.2186 7.88556 35.0172 8.49557 35.0172 9.70584C35.0264 9.9235 35.0809 10.1368 35.1772 10.3322C35.2735 10.5276 35.4095 10.7008 35.5766 10.8406C36.6477 11.4858 37.8311 11.9226 39.0645 12.1282C42.18 12.9326 44.0908 13.8247 44.797 14.8044C45.5138 15.8082 45.8855 17.0175 45.8563 18.2506C45.8563 22.0776 43.3781 23.9941 38.4216 24C33.7717 23.9793 31.1922 21.8453 30.6831 17.5979Z" fill="white"/>
<path d="M63.0788 4.79489L58.608 4.76025L50.9983 13.1434V4.76025H47.2529V23.638H50.9938L50.9432 18.4444L63.0788 4.79489Z" fill="white"/>
<path d="M54.7759 16.1962L59.1508 23.647H64.0194L57.247 13.3859L54.7759 16.1962Z" fill="white"/>
<path d="M25.4332 11.464V23.6289H28.9849L28.9246 7.91846C28.0945 9.39116 26.8881 10.6169 25.4287 11.4702L25.4332 11.464Z" fill="white"/>
<path d="M29.034 4.76025H26.1375C25.67 5.89018 24.9537 6.90012 24.0419 7.71492C23.1301 8.52971 22.0463 9.12838 20.8711 9.46637V12.599C23.8306 11.3817 28.4355 8.33779 29.034 4.76025Z" fill="white"/>
</svg>
