<svg width="60" height="61" viewBox="0 0 60 61" fill="none" xmlns="http://www.w3.org/2000/svg">
<path d="M29.7173 10.1469C29.7835 10.2332 29.8861 10.2838 29.9948 10.2838C30.1036 10.2839 30.2062 10.2333 30.2725 10.147C31.7644 8.20484 33.467 6.65486 35.3543 5.51737C37.7436 4.07785 40.325 3.35 43.0302 3.35C46.559 3.35 50.0985 4.64675 52.9918 7.00904C55.9622 9.4344 58.0523 12.7482 59.0337 16.5975C60.0984 20.7743 60.3167 27.4848 55.2 35.6414C50.4565 43.2031 42.2152 50.2378 30.6683 56.5354L30.6681 56.5356C30.4581 56.6503 30.2267 56.7074 29.9945 56.7074C29.7627 56.7074 29.531 56.65 29.3205 56.5353C17.7769 50.2382 9.53847 43.2035 4.79676 35.6415C-0.317652 27.4849 -0.0979615 20.7739 0.966692 16.5971C1.94817 12.7482 4.03779 9.43439 7.00722 7.00903C9.9001 4.64672 13.4378 3.35 16.9656 3.35C21.8735 3.35 26.3266 5.7273 29.7173 10.1469ZM6.26079 31.4364C6.13888 31.4364 6.02575 31.4999 5.96217 31.6039C5.89858 31.7079 5.8937 31.8375 5.94929 31.946C9.21578 38.3224 16.0639 45.9399 29.8243 53.5988C29.9301 53.6577 30.0588 53.6577 30.1647 53.5988C44.4719 45.6373 51.3103 37.7209 54.4187 31.1976C57.5288 24.6707 56.8875 19.5747 56.3058 17.293C54.6409 10.7639 49.1979 6.16544 43.0302 6.16544C38.3496 6.16544 34.1534 8.9027 31.1985 13.7793L31.1984 13.7793C30.9433 14.2005 30.4865 14.4576 29.9945 14.4576H29.994C29.5018 14.4576 29.0454 14.2002 28.7907 13.779L28.7906 13.7789C25.838 8.90279 21.6441 6.16544 16.9656 6.16544C10.8002 6.16544 5.35947 10.764 3.69463 17.293C3.19963 19.2336 2.66075 23.2154 4.42861 28.3847C4.47704 28.5263 4.61013 28.6215 4.75978 28.6215H10.0877C10.2203 28.6215 10.3415 28.5465 10.4008 28.428L13.6802 21.8686L13.6802 21.8685C13.9184 21.3917 14.4055 21.0906 14.9391 21.0906C15.4721 21.0906 15.9593 21.3916 16.198 21.8686C16.198 21.8686 16.198 21.8687 16.198 21.8687L22.1558 33.7856C22.2151 33.9042 22.3363 33.9791 22.4688 33.9791C22.6014 33.9791 22.7226 33.9042 22.7819 33.7856L28.7402 21.8686L28.7402 21.8685C28.9785 21.3916 29.4656 21.0906 29.9986 21.0906C30.5321 21.0906 31.0193 21.3916 31.258 21.8686C31.258 21.8686 31.258 21.8687 31.258 21.8687L34.5369 28.4279C34.5962 28.5465 34.7174 28.6215 34.85 28.6215H47.0929C47.87 28.6215 48.5003 29.2517 48.5003 30.0289C48.5003 30.8062 47.87 31.4364 47.0929 31.4364H33.7637C33.2307 31.4364 32.7435 31.1355 32.5048 30.6584L30.3117 26.2718C30.2524 26.1533 30.1312 26.0784 29.9986 26.0784C29.866 26.0784 29.7448 26.1533 29.6856 26.2718L23.7278 38.1888L23.7277 38.1889C23.4894 38.6659 23.0018 38.9672 22.4688 38.9672C21.9359 38.9672 21.4483 38.6659 21.21 38.1889L21.2099 38.1888L15.2521 26.2718C15.1929 26.1533 15.0717 26.0784 14.9391 26.0784C14.8065 26.0784 14.6853 26.1533 14.626 26.2718L12.4329 30.6585C12.1946 31.1351 11.7074 31.4364 11.174 31.4364H6.26079Z" fill="#00C2C5" stroke="#FAFAFA" stroke-width="0.7" stroke-linejoin="round"/>
</svg>
