<svg width="24" height="24" viewBox="0 0 24 24" fill="none" xmlns="http://www.w3.org/2000/svg">
<g opacity="0.7">
<path fill-rule="evenodd" clip-rule="evenodd" d="M3.36546 11.716C2.72804 9.0771 5.13362 6.83766 7.6897 7.25551C10.6749 7.74352 13.2539 7.75815 16.3285 7.25952C18.8861 6.84472 21.3012 9.08655 20.6626 11.7301L18.8987 19.0326C18.5134 20.6278 17.0839 21.7503 15.4423 21.7503H8.5892C6.94757 21.7503 5.51809 20.6278 5.13277 19.0326L3.36546 11.716ZM7.4477 8.73586C5.82222 8.47014 4.46791 9.89158 4.82353 11.3638L6.59084 18.6804C6.81306 19.6004 7.63847 20.2503 8.5892 20.2503H15.4423C16.393 20.2503 17.2184 19.6004 17.4406 18.6804L19.2046 11.3779C19.5606 9.90369 18.2 8.4756 16.5686 8.74017C13.3323 9.26503 10.5905 9.24963 7.4477 8.73586Z" fill="#00A3A6"/>
<path fill-rule="evenodd" clip-rule="evenodd" d="M11.5 3.75C9.98123 3.75 8.75001 4.98121 8.75001 6.5L8.75 10.8323C8.75 11.2465 8.41421 11.5823 8 11.5823C7.58579 11.5823 7.25 11.2465 7.25 10.8323L7.25001 6.49999C7.25001 4.15279 9.1528 2.25 11.5 2.25H12.5C14.8472 2.25 16.75 4.15279 16.75 6.5V11C16.75 11.4142 16.4142 11.75 16 11.75C15.5858 11.75 15.25 11.4142 15.25 11V6.5C15.25 4.98122 14.0188 3.75 12.5 3.75H11.5Z" fill="#00A3A6"/>
</g>
</svg>
