<svg width="24" height="24" viewBox="0 0 24 24" fill="none" xmlns="http://www.w3.org/2000/svg">
<g opacity="0.7">
<path fill-rule="evenodd" clip-rule="evenodd" d="M3.36546 11.7141C2.72804 9.07515 5.13362 6.83571 7.6897 7.25356C10.6749 7.74156 13.2539 7.75619 16.3285 7.25756C18.8861 6.84277 21.3012 9.0846 20.6626 11.7281L18.8987 19.0307C18.5134 20.6259 17.0839 21.7484 15.4423 21.7484H8.5892C6.94757 21.7484 5.51809 20.6259 5.13277 19.0307L3.36546 11.7141ZM7.4477 8.73391C5.82222 8.46819 4.46791 9.88963 4.82353 11.3619L6.59084 18.6785C6.81306 19.5985 7.63847 20.2484 8.5892 20.2484H15.4423C16.393 20.2484 17.2184 19.5985 17.4406 18.6785L19.2046 11.3759C19.5606 9.90174 18.2 8.47365 16.5686 8.73822C13.3323 9.26308 10.5905 9.24767 7.4477 8.73391Z" fill="white"/>
<path fill-rule="evenodd" clip-rule="evenodd" d="M11.5 3.75C9.98123 3.75 8.75001 4.98121 8.75001 6.5L8.75 10.8323C8.75 11.2465 8.41421 11.5823 8 11.5823C7.58579 11.5823 7.25 11.2465 7.25 10.8323L7.25001 6.49999C7.25001 4.15279 9.1528 2.25 11.5 2.25H12.5C14.8472 2.25 16.75 4.15279 16.75 6.5V11C16.75 11.4142 16.4142 11.75 16 11.75C15.5858 11.75 15.25 11.4142 15.25 11V6.5C15.25 4.98122 14.0188 3.75 12.5 3.75H11.5Z" fill="white"/>
</g>
</svg>
