<svg width="24" height="24" viewBox="0 0 24 24" fill="none" xmlns="http://www.w3.org/2000/svg">
<path fill-rule="evenodd" clip-rule="evenodd" d="M8.57227 2.17773C8.98648 2.17773 9.32227 2.51352 9.32227 2.92773V5.21345C9.32227 5.62766 8.98648 5.96345 8.57227 5.96345C8.15805 5.96345 7.82227 5.62766 7.82227 5.21345V2.92773C7.82227 2.51352 8.15805 2.17773 8.57227 2.17773Z" fill="#676767"/>
<path fill-rule="evenodd" clip-rule="evenodd" d="M15.4277 2.17773C15.8419 2.17773 16.1777 2.51352 16.1777 2.92773V5.21345C16.1777 5.62766 15.8419 5.96345 15.4277 5.96345C15.0135 5.96345 14.6777 5.62766 14.6777 5.21345V2.92773C14.6777 2.51352 15.0135 2.17773 15.4277 2.17773Z" fill="#676767"/>
<path fill-rule="evenodd" clip-rule="evenodd" d="M6.8 3.32031C4.83939 3.32031 3.25 4.9097 3.25 6.87031V11.0602L3.27509 11.0624C3.02962 13.9526 5.3274 16.4256 8.22782 16.3929L20.75 16.2517V6.87031C20.75 4.9097 19.1606 3.32031 17.2 3.32031H6.8ZM20.7176 17.7522L8.24473 17.8928C6.22959 17.9156 4.43733 17.0115 3.25 15.592V17.2703C3.25 19.2309 4.83939 20.8203 6.8 20.8203H17.2C18.9972 20.8203 20.4824 19.4849 20.7176 17.7522ZM7 12.2489C7 11.8347 7.33579 11.4989 7.75 11.4989H12.25C12.6642 11.4989 13 11.8347 13 12.2489C13 12.6631 12.6642 12.9989 12.25 12.9989H7.75C7.33579 12.9989 7 12.6631 7 12.2489ZM7.75 8.4989C7.33579 8.4989 7 8.83469 7 9.2489C7 9.66312 7.33579 9.9989 7.75 9.9989H14.25C14.6642 9.9989 15 9.66312 15 9.2489C15 8.83469 14.6642 8.4989 14.25 8.4989H7.75Z" fill="#676767"/>
</svg>
