<svg width="16" height="16" viewBox="0 0 16 16" fill="none" xmlns="http://www.w3.org/2000/svg">
<path fill-rule="evenodd" clip-rule="evenodd" d="M1.46967 1.46966C1.76256 1.17677 2.23744 1.17677 2.53033 1.46966L14.53 13.4693C14.8229 13.7622 14.8229 14.2371 14.53 14.53C14.2371 14.8229 13.7622 14.8229 13.4693 14.53L1.46967 2.53032C1.17678 2.23743 1.17678 1.76255 1.46967 1.46966Z" fill="#676767"/>
<path fill-rule="evenodd" clip-rule="evenodd" d="M14.5303 1.47003C14.8232 1.76292 14.8232 2.23779 14.5303 2.53069L2.53068 14.5303C2.23779 14.8232 1.76292 14.8232 1.47002 14.5303C1.17713 14.2374 1.17713 13.7626 1.47002 13.4697L13.4697 1.47003C13.7626 1.17713 14.2374 1.17713 14.5303 1.47003Z" fill="#676767"/>
</svg>
