<svg width="11" height="11" viewBox="0 0 11 11" fill="none" xmlns="http://www.w3.org/2000/svg">
<path d="M5.05165 1.28794C5.23506 0.916358 5.76494 0.916359 5.94835 1.28794L6.75045 2.9129C6.96876 3.35517 7.39054 3.66186 7.87857 3.7332L9.6739 3.99561C10.0839 4.05553 10.2473 4.55945 9.95045 4.84853L8.65292 6.11233C8.29911 6.45694 8.13762 6.95364 8.22111 7.44043L8.52712 9.22465C8.59718 9.63313 8.16841 9.94461 7.80159 9.75171L6.19818 8.90849C5.7611 8.67864 5.2389 8.67864 4.80182 8.90849L3.19841 9.75171C2.83159 9.94461 2.40282 9.63313 2.47288 9.22465L2.77889 7.44043C2.86238 6.95364 2.70089 6.45694 2.34708 6.11233L1.04954 4.84853C0.752748 4.55945 0.91614 4.05553 1.3261 3.99561L3.12143 3.7332C3.60946 3.66186 4.03124 3.35517 4.24955 2.9129L5.05165 1.28794Z" stroke="#BDBDBD" stroke-linecap="round" stroke-linejoin="round"/>
</svg>
