<svg width="132" height="48" viewBox="0 0 132 48" fill="none" xmlns="http://www.w3.org/2000/svg">
<path d="M17.8287 9.6001C18.9529 9.59835 20.0417 9.21176 20.9096 8.50613C21.7776 7.8005 22.371 6.81946 22.5889 5.73019C22.8067 4.64091 22.6355 3.51074 22.1043 2.53216C21.5732 1.55359 20.715 0.787173 19.6759 0.363395C18.6368 -0.0603825 17.4812 -0.115306 16.4057 0.208035C15.3302 0.531375 14.4015 1.21299 13.7777 2.13671C13.154 3.06043 12.8737 4.16914 12.9847 5.27403C13.0957 6.37893 13.5911 7.41162 14.3865 8.19625C14.8386 8.64227 15.3754 8.99588 15.966 9.23677C16.5567 9.47765 17.1897 9.6011 17.8287 9.6001Z" fill="#00C2C5"/>
<path d="M28.192 0C28.3495 0.452288 31.5443 10.1525 14.3087 16.7329C13.8523 16.9102 13.3762 17.0876 12.9609 17.2969C13.7914 17.1858 14.6286 17.1307 15.4667 17.132C20.5036 17.0437 25.3844 18.8647 29.1121 22.2229C32.8397 25.5811 35.1328 30.223 35.5229 35.2004C35.6196 34.9359 35.702 34.6665 35.7699 34.3934C41.5509 17.5967 28.6931 0.691735 28.192 0Z" fill="#00C2C5"/>
<path d="M13.1786 17.6016C12.372 17.6017 11.5664 17.6569 10.7665 17.7665L8.91068 18.0433C1.0452 22.7077 -3.84848 32.1007 3.91896 45.7637C4.64097 38.8583 7.73761 23.6803 21.1243 20.22C21.1243 20.22 8.67716 25.1498 7.57542 47.565C13.5405 48.4524 27.0074 49.0819 32.4002 37.8951L32.3182 36.6532C31.9904 31.4914 29.8333 26.6542 26.2826 23.1181C22.7318 19.582 18.0518 17.6105 13.1875 17.6016H13.1786Z" fill="#00C2C5"/>
<path d="M64.7998 35.2146H72.1609C72.2414 36.1848 72.5246 37.1282 72.9929 37.9856C73.4612 38.8431 74.1045 39.5961 74.8823 40.1975C75.6601 40.7989 76.5558 41.2357 77.5131 41.4805C78.4705 41.7253 79.4689 41.7729 80.4458 41.6203C85.394 41.6203 87.8669 39.9323 87.8645 36.5564C87.8892 35.969 87.7504 35.3862 87.4632 34.8708C87.1759 34.3554 86.751 33.927 86.2345 33.6318C83.6783 32.4865 80.9987 31.6297 78.2467 31.0776C70.2319 29.0842 66.2245 25.3773 66.2245 19.9571C66.1583 18.4706 66.4708 16.9915 67.1336 15.6541C67.7964 14.3168 68.7883 13.1638 70.0194 12.3C72.9678 10.386 76.4586 9.44486 79.9865 9.6129C89.363 9.6129 94.1863 13.3647 94.4564 20.8682L86.8487 21.1854C86.7631 20.3865 86.5164 19.6125 86.123 18.9086C85.7297 18.2047 85.1976 17.5851 84.5578 17.0862C83.9181 16.5872 83.1837 16.2188 82.3975 16.0026C81.6113 15.7865 80.7893 15.7268 79.9794 15.8272C76.0278 15.8272 73.5909 17.0449 73.5909 19.4608C73.6095 19.8953 73.7201 20.3211 73.9155 20.7112C74.1109 21.1012 74.3867 21.4469 74.7255 21.726C76.8981 23.0138 79.2985 23.8859 81.8003 24.2961C88.1197 25.902 91.9956 27.6827 93.428 29.6384C94.8819 31.6421 95.6359 34.0559 95.5767 36.5174C95.5767 44.1567 90.5499 47.9824 80.4963 47.9942C71.0646 47.9528 65.8324 43.693 64.7998 35.2146Z" fill="#00C2C5"/>
<path d="M129.597 9.6642L120.444 9.59375L104.865 26.6464V9.59375H97.1973V47.9942H104.856L104.752 37.4295L129.597 9.6642Z" fill="#00C2C5"/>
<path d="M113.398 31.7288L121.832 47.994H131.218L118.162 25.5938L113.398 31.7288Z" fill="#00C2C5"/>
<path d="M53.4656 21.9736V47.991H59.9376L59.8275 14.3906C58.315 17.5403 56.1167 20.1619 53.4575 21.9869L53.4656 21.9736Z" fill="#00C2C5"/>
<path d="M59.9379 9.59375H54.1895C53.2617 11.6695 51.8401 13.5248 50.0305 15.0216C48.221 16.5184 46.0701 17.6182 43.7378 18.2391V23.9939C49.6113 21.7575 58.7501 16.1658 59.9379 9.59375Z" fill="#00C2C5"/>
</svg>
