<svg width="16" height="16" viewBox="0 0 16 16" fill="none" xmlns="http://www.w3.org/2000/svg">
<path d="M11.4504 3.2049C11.3822 3.1987 11.314 3.1925 11.2395 3.1925L5.038 3.1925C4.96358 3.1925 4.89537 3.1987 4.82715 3.2049L5.08761 2.15684C5.14604 1.9214 5.28159 1.71228 5.47265 1.5628C5.66371 1.41333 5.89929 1.33209 6.14188 1.33203L10.1357 1.33203C10.3783 1.33209 10.6138 1.41333 10.8049 1.5628C10.996 1.71228 11.1315 1.9214 11.1899 2.15684L11.4504 3.2049Z" fill="white"/>
<path d="M11.4504 12.793L11.1899 13.841C11.1315 14.0765 10.996 14.2856 10.8049 14.4351C10.6138 14.5845 10.3783 14.6658 10.1357 14.6658H6.14188C5.89929 14.6658 5.66371 14.5845 5.47265 14.4351C5.28159 14.2856 5.14604 14.0765 5.08761 13.841L4.82715 12.793C4.89537 12.7992 4.96358 12.8054 5.038 12.8054L11.2395 12.8054C11.314 12.8054 11.3822 12.7992 11.4504 12.793Z" fill="white"/>
<path d="M11.24 3.8125L5.03843 3.8125C4.58623 3.81283 4.15264 3.99261 3.83288 4.31237C3.51312 4.63213 3.33334 5.06572 3.33301 5.51793L3.33301 10.4792C3.33334 10.9314 3.51312 11.365 3.83288 11.6847C4.15264 12.0045 4.58623 12.1843 5.03843 12.1846L11.24 12.1846C11.6922 12.1843 12.1258 12.0045 12.4455 11.6847C12.7653 11.365 12.9451 10.9314 12.9454 10.4792L12.9454 5.51793C12.9451 5.06572 12.7653 4.63213 12.4455 4.31237C12.1258 3.99261 11.6922 3.81283 11.24 3.8125ZM9.08804 8.94738C9.04494 8.99066 8.99372 9.025 8.93732 9.04843C8.88092 9.07186 8.82044 9.08392 8.75936 9.08392C8.69829 9.08392 8.63781 9.07186 8.58141 9.04843C8.525 9.025 8.47378 8.99066 8.43068 8.94738L7.81053 8.32723C7.76724 8.28414 7.7329 8.23292 7.70949 8.17651C7.68607 8.1201 7.67404 8.05962 7.67409 7.99854L7.67409 6.13808C7.67409 6.01472 7.72309 5.89642 7.81032 5.80919C7.89755 5.72197 8.01585 5.67296 8.13921 5.67296C8.26256 5.67296 8.38087 5.72197 8.46809 5.80919C8.55532 5.89642 8.60432 6.01472 8.60432 6.13808V7.80568L9.08804 8.29002C9.13125 8.33316 9.16552 8.38439 9.18891 8.44079C9.21229 8.49719 9.22433 8.55764 9.22433 8.6187C9.22433 8.67975 9.21229 8.74021 9.18891 8.79661C9.16552 8.853 9.13125 8.90424 9.08804 8.94738Z" fill="white"/>
</svg>
