<svg width="72" height="72" viewBox="0 0 72 72" fill="none" xmlns="http://www.w3.org/2000/svg">
<path d="M43.7142 20.8418L43.7138 20.8423C43.4313 21.1842 43.3171 21.6336 43.4024 22.0677L43.4025 22.0681L45.7249 33.9796L43.7142 20.8418ZM43.7142 20.8418C43.9949 20.5003 44.4148 20.3025 44.8583 20.3025H57.0426C57.7506 20.3025 58.3606 20.8042 58.4985 21.4997L43.7142 20.8418ZM43.6755 42.8219L43.6745 42.8231C41.6499 45.2108 38.6941 46.5804 35.5669 46.5804C33.9813 46.5804 32.4502 46.2371 31.0253 45.5645L31.0241 45.564C29.6689 44.9159 28.4356 43.9676 27.4667 42.8322L27.4651 42.8304C25.5356 40.5264 24.775 37.2168 25.409 33.9804L27.7314 22.0681L27.7314 22.0677C27.8168 21.6336 27.7026 21.1842 27.4201 20.8423L27.4197 20.8418C27.139 20.5003 26.7191 20.3025 26.2756 20.3025H14.0913C13.3832 20.3025 12.7731 20.8043 12.6354 21.5C12.6353 21.5 12.6353 21.5 12.6353 21.5001L10.7633 31.0339C8.73492 41.3812 12.8229 51.7087 21.1665 57.3537C25.4313 60.2296 30.4116 61.75 35.5669 61.75C38.1844 61.75 40.7593 61.3602 43.218 60.5917L43.2183 60.5916C45.5843 59.8562 47.8507 58.7707 49.954 57.3638C49.9606 57.3588 49.9681 57.3534 49.9768 57.348C58.3129 51.7038 62.3985 41.3788 60.3706 31.034C60.3706 31.034 60.3706 31.0339 60.3706 31.0339L58.4985 21.5001L43.6755 42.8219ZM43.6755 42.8219C45.5984 40.5263 46.3588 37.2168 45.7249 33.9798L43.6755 42.8219ZM48.3094 54.8936L48.3084 54.8943C46.4421 56.1439 44.4331 57.1075 42.3343 57.7589L48.3094 54.8936ZM48.3094 54.8936C55.67 49.912 59.2559 40.7669 57.4589 31.6046L57.4589 31.6046L57.3866 31.2364L57.347 31.0346H57.1413H48.4768H48.1732L48.2314 31.3325L48.6366 33.4078L48.6366 33.4079C49.4562 37.5932 48.4685 41.7185 45.9435 44.7347C43.3468 47.7965 39.5675 49.5471 35.5669 49.5471C33.539 49.5471 31.5834 49.1085 29.7515 48.2443C28.0164 47.4149 26.4453 46.2062 25.2003 44.7463C22.6652 41.7182 21.6778 37.5929 22.4973 33.4088L22.4973 33.4086L22.9026 31.3325L22.9608 31.0346H22.6572H13.9926H13.7869L13.7473 31.2364L13.675 31.6046L13.675 31.6047C11.8779 40.7677 15.4639 49.9137 22.8262 54.8953L22.8265 54.8956M48.3094 54.8936L22.8265 54.8956M22.8265 54.8956C26.5987 57.438 31.0044 58.7833 35.5669 58.7833C37.8836 58.7833 40.1599 58.4386 42.3341 57.759L22.8265 54.8956ZM55.8626 23.471L55.823 23.2692H55.6173H46.9607H46.6572L46.7153 23.5671L47.5546 27.8658L47.5941 28.0679H47.8H56.4609H56.7647L56.7062 27.7697L55.8626 23.471ZM15.5166 23.2692H15.3109L15.2713 23.471L14.4276 27.7697L14.3691 28.0679H14.673H23.334H23.5399L23.5794 27.8658L24.4186 23.5671L24.4767 23.2692H24.1732H15.5166Z" fill="#00C2C5" stroke="white" stroke-width="0.5"/>
<path d="M36.1865 10.1135C35.2961 9.77498 34.2906 10.2185 33.9487 11.1131L31.2082 18.2716C31.0034 18.804 31.0744 19.4032 31.3978 19.8738M36.1865 10.1135L36.097 10.3469C36.0971 10.347 36.0972 10.347 36.0973 10.3471M36.1865 10.1135L36.0976 10.3472C36.0975 10.3472 36.0974 10.3471 36.0973 10.3471M36.1865 10.1135L39.5553 18.0523C39.2786 17.649 38.8209 17.4078 38.3312 17.4078H35.3452H34.9818L35.1117 17.0684L36.9517 12.2628L36.9519 12.2625C37.2456 11.4983 36.8624 10.6407 36.0973 10.3471M36.0973 10.3471C35.3348 10.0574 34.4744 10.4378 34.1822 11.2023L34.1822 11.2025L31.4416 18.361L31.4415 18.3614C31.2663 18.8167 31.327 19.3294 31.6038 19.7322M31.6038 19.7322C31.6038 19.7322 31.6037 19.7321 31.6037 19.7321L31.3978 19.8738M31.6038 19.7322C31.8804 20.134 32.3382 20.3745 32.8264 20.3745H35.8022H36.1672L36.0354 20.7148L34.1954 25.4663L31.3978 19.8738M31.6038 19.7322L31.3978 19.8738M35.0428 27.3849C34.2796 27.0895 33.8999 26.2297 34.1954 25.4663L35.0424 27.3848C35.0425 27.3848 35.0426 27.3849 35.0428 27.3849ZM35.0428 27.3849C35.2204 27.4533 35.4014 27.4857 35.5788 27.4857C36.173 27.4857 36.7349 27.1245 36.9622 26.5368L36.9622 26.5367L39.7146 19.4264L39.7146 19.4264C39.8913 18.9701 39.832 18.4567 39.5554 18.0525L35.0428 27.3849Z" fill="#00C2C5" stroke="white" stroke-width="0.5"/>
</svg>
