<svg width="72" height="72" viewBox="0 0 72 72" fill="none" xmlns="http://www.w3.org/2000/svg">
<g clip-path="url(#clip0_3091_25105)">
<path d="M68.9525 0.118138L1.59892 22.1267C-0.303235 22.7482 -0.578311 25.3355 1.15285 26.3421L26.6064 41.1429C27.4094 41.6098 28.4131 41.5535 29.1586 40.9997L36.3138 35.6861L31.0001 42.8412C30.4464 43.5869 30.3901 44.5907 30.857 45.3935L45.6578 70.8471C46.6655 72.5797 49.2522 72.3016 49.8733 70.401L71.8818 3.04744C72.4722 1.23891 70.7522 -0.470335 68.9525 0.118138ZM47.0675 64.031L35.6418 44.3816L49.4193 25.8297C50.1057 24.905 50.0112 23.617 49.1969 22.8027C48.3827 21.9883 47.0944 21.8937 46.1699 22.5803L27.6179 36.3579L7.96863 24.932L66.0447 5.95497L47.0675 64.031ZM24.3853 50.8988L8.96398 66.3201C8.05703 67.2269 6.58643 67.2271 5.67948 66.3201C4.77238 65.4131 4.77238 63.9425 5.67948 63.0355L21.1008 47.6143C22.0081 46.7075 23.4787 46.7072 24.3853 47.6143C25.2924 48.5213 25.2924 49.9919 24.3853 50.8988ZM4.01248 51.4824C3.10538 50.5753 3.10538 49.1048 4.01248 48.1979L10.0975 42.1127C11.0045 41.2056 12.4751 41.2056 13.382 42.1127C14.2891 43.0198 14.2891 44.4902 13.382 45.3972L7.29698 51.4824C6.39018 52.3892 4.91943 52.3893 4.01248 51.4824ZM29.887 58.6175C30.7941 59.5245 30.7941 60.9951 29.887 61.902L23.8018 67.9871C23.3483 68.4407 22.7539 68.6674 22.1596 68.6674C20.109 68.6674 19.0502 66.1697 20.5175 64.7026L26.6026 58.6175C27.5095 57.7104 28.9801 57.7104 29.887 58.6175Z" fill="white"/>
</g>
<defs>
<clipPath id="clip0_3091_25105">
<rect width="72" height="72" fill="white"/>
</clipPath>
</defs>
</svg>
