<svg width="72" height="72" viewBox="0 0 72 72" fill="none" xmlns="http://www.w3.org/2000/svg">
<path d="M7.24997 27.4729L7.24997 27.4714C7.2472 26.5366 7.42894 25.6104 7.78476 24.746C8.14058 23.8815 8.66349 23.0958 9.32353 22.4338C9.98356 21.7718 10.7677 21.2466 11.6311 20.8882C12.4945 20.5299 13.4201 20.3454 14.355 20.3454H19.2374H20.4186L19.5964 19.4973C18.9584 18.8392 18.3928 18.1144 17.9096 17.3355C16.9929 15.7989 16.4876 14.052 16.4425 12.2632C16.3975 10.4763 16.8132 8.70786 17.6496 7.12824C18.3779 5.87755 19.4299 4.84628 20.695 4.14305C21.9628 3.43828 23.3975 3.08918 24.8475 3.13266L24.8629 3.13312L24.8784 3.13263C26.4919 3.08119 28.0975 3.3799 29.5846 4.00821C31.071 4.63622 32.4039 5.57862 33.4915 6.77063C34.3187 7.69426 35.0116 8.73002 35.5494 9.84726L35.9878 10.7578L36.4456 9.85693C37.0172 8.73241 37.7472 7.69576 38.6134 6.77871L38.6135 6.77876L38.6193 6.77232C39.7072 5.57951 41.0406 4.63652 42.5277 4.00821C44.0148 3.3799 45.6204 3.08119 47.234 3.13263L47.2492 3.13311L47.2644 3.13267C48.7132 3.09059 50.1463 3.44265 51.4106 4.15129C52.6727 4.85863 53.7194 5.89474 54.4395 7.1494C55.2764 8.72936 55.6924 10.4983 55.6473 12.2857C55.6022 14.0745 55.0969 15.8214 54.1802 17.3581C53.697 18.137 53.1315 18.8617 52.4934 19.5198L51.6712 20.3679H52.8524L57.6659 20.3679C57.6661 20.3679 57.6663 20.3679 57.6665 20.3679C59.547 20.3736 61.3485 21.1246 62.6763 22.4563C64.0042 23.7881 64.7499 25.5922 64.7499 27.4729V61.7854C64.7499 63.6638 64.0037 65.4652 62.6754 66.7935C61.3472 68.1217 59.5458 68.8679 57.6674 68.8679H14.355H14.3535C13.4216 68.8707 12.4984 68.6895 11.6367 68.3348C10.775 67.9801 9.99171 67.4589 9.33181 66.8009L8.98326 67.1505L9.33181 66.8009C8.67191 66.143 8.14834 65.3613 7.7911 64.5006C7.43386 63.6399 7.24997 62.7173 7.24997 61.7854L7.24997 27.4729ZM37.7499 64.8659L37.748 65.3679H38.2499H57.6674C58.1378 65.3679 58.6037 65.2752 59.0383 65.0952C59.473 64.9152 59.8679 64.6513 60.2006 64.3186C60.5332 63.9859 60.7971 63.591 60.9772 63.1564C61.1572 62.7217 61.2499 62.2558 61.2499 61.7854V27.4731C61.2499 27.473 61.2499 27.473 61.2499 27.4729C61.2502 26.5347 60.8848 25.6333 60.2312 24.9602C59.5776 24.2871 58.6872 23.8953 57.7494 23.8681L57.7421 23.8679H57.7349H38.4074H37.9094L37.9074 24.3659L37.7499 64.8659ZM47.7499 6.71957V6.6618L47.2796 6.63377C46.1105 6.56409 44.9406 6.75664 43.8555 7.19733C42.7704 7.63803 41.7975 8.31573 41.0081 9.18085C39.6236 10.6967 38.8144 12.7117 38.3486 14.6611C37.8815 16.6159 37.7499 18.5467 37.7499 19.9354V20.4354H38.2499H41.0849C47.3851 20.4354 50.0887 17.5265 51.1431 15.6937C51.7697 14.702 52.1281 13.5646 52.1833 12.3927C52.2387 11.2171 51.987 10.0473 51.453 8.99851L51.4469 8.98664L51.4403 8.97512C51.0168 8.24273 50.3966 7.64363 49.6501 7.24575C49.0611 6.93188 48.4121 6.75313 47.7499 6.71957ZM20.5822 8.88494L20.5755 8.89655L20.5694 8.90851C20.0354 9.95729 19.7836 11.1271 19.839 12.3027C19.8942 13.4745 20.2527 14.612 20.8792 15.6037C21.3963 16.5028 22.3107 17.6975 23.9052 18.6667C25.5066 19.64 27.7644 20.3679 30.9374 20.3679H33.7499H34.2753L34.2493 19.8431C34.1812 18.4701 34.0274 16.5439 33.5524 14.5836C33.0787 12.6283 32.2758 10.5975 30.8816 9.0484L30.8762 9.04248L30.8707 9.03673C30.0812 8.21379 29.122 7.57258 28.0597 7.15763C27.0069 6.74638 25.8779 6.56714 24.7497 6.63202C23.9202 6.58635 23.094 6.76977 22.3615 7.16248C21.6198 7.56012 21.0037 8.15659 20.5822 8.88494ZM34.2499 24.3698L34.2519 23.8679H33.7499H14.355C13.3989 23.8679 12.4819 24.2477 11.8058 24.9238C11.1298 25.5998 10.75 26.5168 10.75 27.4729V61.7854C10.75 62.258 10.8435 62.726 11.0251 63.1624C11.2068 63.5988 11.473 63.9949 11.8085 64.3279C12.1439 64.6609 12.5419 64.9242 12.9796 65.1027C13.4168 65.281 13.8849 65.3711 14.357 65.3679H33.5924H34.0905L34.0924 64.8698L34.2499 24.3698Z" fill="#6B58CC" stroke="#EBE9F7"/>
</svg>
