<svg width="72" height="72" viewBox="0 0 72 72" fill="none" xmlns="http://www.w3.org/2000/svg">
<g clip-path="url(#clip0_3247_540)">
<path d="M61.8164 55.9317C60.5963 55.9326 59.4033 55.5716 58.3884 54.8944C57.3735 54.2172 56.5822 53.2542 56.1147 52.1272C55.6472 51.0002 55.5244 49.7599 55.7619 48.5632C55.9993 47.3664 56.5864 46.2669 57.4489 45.4039C58.3113 44.5408 59.4103 43.9529 60.6069 43.7146C61.8035 43.4762 63.0439 43.5981 64.1712 44.0648C65.2986 44.5315 66.2621 45.3221 66.9401 46.3365C67.618 47.3509 67.9799 48.5436 67.9799 49.7637C67.9791 51.3985 67.3296 52.9663 66.174 54.1227C65.0185 55.2791 63.4512 55.9297 61.8164 55.9317V55.9317ZM61.8164 45.8457C61.0413 45.8448 60.2833 46.0738 59.6384 46.5038C58.9935 46.9338 58.4907 47.5454 58.1934 48.2612C57.8962 48.9771 57.818 49.765 57.9686 50.5253C58.1193 51.2856 58.4921 51.9842 59.0399 52.5326C59.5876 53.081 60.2857 53.4546 61.0459 53.6061C61.806 53.7576 62.594 53.6803 63.3102 53.3839C64.0264 53.0875 64.6386 52.5853 65.0693 51.9409C65.5 51.2965 65.7299 50.5388 65.7299 49.7637C65.7295 48.7255 65.3172 47.7298 64.5835 46.9953C63.8498 46.2607 62.8546 45.8473 61.8164 45.8457V45.8457Z" fill="#FB910F"/>
<path d="M29.313 55.9317C28.0928 55.9329 26.8997 55.5721 25.8846 54.8951C24.8695 54.2181 24.078 53.2552 23.6102 52.1283C23.1425 51.0013 23.0195 49.7609 23.2568 48.5641C23.4941 47.3672 24.0811 46.2676 24.9434 45.4044C25.8058 44.5412 26.9048 43.9531 28.1015 43.7147C29.2981 43.4762 30.5386 43.598 31.666 44.0646C32.7934 44.5313 33.7571 45.3219 34.4351 46.3363C35.1131 47.3508 35.475 48.5435 35.475 49.7637C35.4738 51.3982 34.8244 52.9654 33.6692 54.1217C32.5141 55.278 30.9474 55.9289 29.313 55.9317V55.9317ZM29.313 45.8457C28.5378 45.8445 27.7797 46.0733 27.1346 46.5031C26.4895 46.9329 25.9864 47.5444 25.689 48.2602C25.3915 48.976 25.313 49.764 25.4635 50.5244C25.614 51.2848 25.9867 51.9835 26.5344 52.532C27.0821 53.0806 27.7802 53.4543 28.5404 53.606C29.3006 53.7576 30.0887 53.6804 30.805 53.384C31.5212 53.0877 32.1335 52.5855 32.5643 51.941C32.9951 51.2966 33.225 50.5389 33.225 49.7637C33.2242 48.7259 32.812 47.7307 32.0787 46.9963C31.3454 46.2618 30.3508 45.8481 29.313 45.8457V45.8457Z" fill="#FB910F"/>
<path d="M69.9314 50.8881H66.8549C66.5565 50.8881 66.2704 50.7695 66.0594 50.5586C65.8484 50.3476 65.7299 50.0614 65.7299 49.7631C65.7299 49.4647 65.8484 49.1785 66.0594 48.9676C66.2704 48.7566 66.5565 48.6381 66.8549 48.6381H69.6134V42.6726C69.6127 41.866 69.4062 41.073 69.0134 40.3686L62.9234 29.4501C62.8714 29.3569 62.7954 29.2793 62.7034 29.2252C62.6114 29.1712 62.5066 29.1426 62.3999 29.1426H54.1004V48.6426H56.7794C57.0778 48.6426 57.3639 48.7611 57.5749 48.9721C57.7859 49.183 57.9044 49.4692 57.9044 49.7676C57.9044 50.0659 57.7859 50.3521 57.5749 50.5631C57.3639 50.774 57.0778 50.8926 56.7794 50.8926H52.9754C52.677 50.8926 52.3909 50.774 52.1799 50.5631C51.9689 50.3521 51.8504 50.0659 51.8504 49.7676V28.0176C51.8504 27.7192 51.9689 27.4331 52.1799 27.2221C52.3909 27.0111 52.677 26.8926 52.9754 26.8926H62.3999C62.9074 26.8923 63.4058 27.0276 63.8436 27.2845C64.2813 27.5413 64.6425 27.9104 64.8899 28.3536L70.9784 39.2736C71.5572 40.313 71.8613 41.4829 71.8619 42.6726V48.9576C71.8611 49.4693 71.6575 49.9599 71.2956 50.3218C70.9337 50.6836 70.4432 50.8873 69.9314 50.8881V50.8881Z" fill="#FB910F"/>
<path d="M24.2745 50.8883H13.488C13.1896 50.8883 12.9035 50.7698 12.6925 50.5588C12.4815 50.3478 12.363 50.0617 12.363 49.7633V41.1113C12.363 40.813 12.4815 40.5268 12.6925 40.3158C12.9035 40.1049 13.1896 39.9863 13.488 39.9863C13.7864 39.9863 14.0725 40.1049 14.2835 40.3158C14.4945 40.5268 14.613 40.813 14.613 41.1113V48.6383H24.2745C24.5729 48.6383 24.859 48.7569 25.07 48.9678C25.281 49.1788 25.3995 49.465 25.3995 49.7633C25.3995 50.0617 25.281 50.3478 25.07 50.5588C24.859 50.7698 24.5729 50.8883 24.2745 50.8883Z" fill="#FB910F"/>
<path d="M13.488 37.1204C13.1896 37.1204 12.9035 37.0019 12.6925 36.7909C12.4815 36.5799 12.363 36.2938 12.363 35.9954V28.4414C12.363 28.143 12.4815 27.8569 12.6925 27.6459C12.9035 27.4349 13.1896 27.3164 13.488 27.3164C13.7864 27.3164 14.0725 27.4349 14.2835 27.6459C14.4945 27.8569 14.613 28.143 14.613 28.4414V35.9999C14.6118 36.2975 14.4928 36.5825 14.2819 36.7925C14.0711 37.0025 13.7856 37.1204 13.488 37.1204V37.1204Z" fill="#FB910F"/>
<path d="M52.9755 50.8885H34.35C34.0516 50.8885 33.7655 50.77 33.5545 50.559C33.3435 50.348 33.225 50.0619 33.225 49.7635C33.225 49.4651 33.3435 49.179 33.5545 48.968C33.7655 48.757 34.0516 48.6385 34.35 48.6385H51.8505V19.207H14.613V23.8405C14.613 24.1389 14.4945 24.425 14.2835 24.636C14.0725 24.847 13.7864 24.9655 13.488 24.9655C13.1896 24.9655 12.9035 24.847 12.6925 24.636C12.4815 24.425 12.363 24.1389 12.363 23.8405V19C12.3638 18.4582 12.5795 17.9388 12.9628 17.5558C13.3461 17.1728 13.8656 16.9574 14.4075 16.957H52.0575C52.5991 16.9578 53.1183 17.1733 53.5013 17.5563C53.8842 17.9393 54.0997 18.4584 54.1005 19V49.7635C54.1005 50.0619 53.982 50.348 53.771 50.559C53.56 50.77 53.2739 50.8885 52.9755 50.8885V50.8885Z" fill="#FB910F"/>
<path d="M17.9355 42.2363H3.657C3.35863 42.2363 3.07248 42.1178 2.8615 41.9068C2.65052 41.6958 2.532 41.4097 2.532 41.1113C2.532 40.813 2.65052 40.5268 2.8615 40.3158C3.07248 40.1049 3.35863 39.9863 3.657 39.9863H17.9355C18.2339 39.9863 18.52 40.1049 18.731 40.3158C18.942 40.5268 19.0605 40.813 19.0605 41.1113C19.0605 41.4097 18.942 41.6958 18.731 41.9068C18.52 42.1178 18.2339 42.2363 17.9355 42.2363V42.2363Z" fill="#FB910F"/>
<path d="M29.313 37.1211H9.3885C9.09013 37.1211 8.80398 37.0026 8.593 36.7916C8.38202 36.5806 8.2635 36.2945 8.2635 35.9961C8.2635 35.6977 8.38202 35.4116 8.593 35.2006C8.80398 34.9896 9.09013 34.8711 9.3885 34.8711H29.313C29.6114 34.8711 29.8975 34.9896 30.1085 35.2006C30.3195 35.4116 30.438 35.6977 30.438 35.9961C30.438 36.2945 30.3195 36.5806 30.1085 36.7916C29.8975 37.0026 29.6114 37.1211 29.313 37.1211V37.1211Z" fill="#FB910F"/>
<path d="M8.769 31.1797H0.988502C0.690134 31.1797 0.403986 31.0612 0.193007 30.8502C-0.0179711 30.6392 -0.136497 30.3531 -0.136497 30.0547C-0.136497 29.7563 -0.0179711 29.4702 0.193007 29.2592C0.403986 29.0482 0.690134 28.9297 0.988502 28.9297H8.769C9.06737 28.9297 9.35352 29.0482 9.5645 29.2592C9.77548 29.4702 9.894 29.7563 9.894 30.0547C9.894 30.3531 9.77548 30.6392 9.5645 30.8502C9.35352 31.0612 9.06737 31.1797 8.769 31.1797Z" fill="#FB910F"/>
<path d="M21.2445 24.9668H7.5105C7.21213 24.9668 6.92598 24.8483 6.715 24.6373C6.50402 24.4263 6.3855 24.1402 6.3855 23.8418C6.3855 23.5434 6.50402 23.2573 6.715 23.0463C6.92598 22.8353 7.21213 22.7168 7.5105 22.7168H21.2445C21.5429 22.7168 21.829 22.8353 22.04 23.0463C22.251 23.2573 22.3695 23.5434 22.3695 23.8418C22.3695 24.1402 22.251 24.4263 22.04 24.6373C21.829 24.8483 21.5429 24.9668 21.2445 24.9668Z" fill="#FB910F"/>
</g>
<defs>
<clipPath id="clip0_3247_540">
<rect width="71.9999" height="72" fill="white"/>
</clipPath>
</defs>
</svg>
