<svg width="24" height="24" viewBox="0 0 24 24" fill="none" xmlns="http://www.w3.org/2000/svg">
<path fill-rule="evenodd" clip-rule="evenodd" d="M3.36546 11.7157C2.72804 9.07673 5.13362 6.83729 7.6897 7.25515C10.6749 7.74315 13.2539 7.75778 16.3285 7.25915C18.8861 6.84435 21.3012 9.08619 20.6626 11.7297L18.8987 19.0323C18.5134 20.6275 17.0839 21.75 15.4423 21.75H8.5892C6.94757 21.75 5.51809 20.6275 5.13277 19.0323L3.36546 11.7157ZM7.4477 8.7355C5.82222 8.46977 4.46791 9.89121 4.82353 11.3635L6.59084 18.6801C6.81306 19.6001 7.63847 20.25 8.5892 20.25H15.4423C16.393 20.25 17.2184 19.6001 17.4406 18.6801L19.2046 11.3775C19.5606 9.90333 18.2 8.47523 16.5686 8.73981C13.3323 9.26466 10.5905 9.24926 7.4477 8.7355Z" fill="white"/>
<path fill-rule="evenodd" clip-rule="evenodd" d="M11.5 3.75C9.98123 3.75 8.75001 4.98121 8.75001 6.5L8.75 10.8323C8.75 11.2465 8.41421 11.5823 8 11.5823C7.58579 11.5823 7.25 11.2465 7.25 10.8323L7.25001 6.49999C7.25001 4.15279 9.1528 2.25 11.5 2.25H12.5C14.8472 2.25 16.75 4.15279 16.75 6.5V11C16.75 11.4142 16.4142 11.75 16 11.75C15.5858 11.75 15.25 11.4142 15.25 11V6.5C15.25 4.98122 14.0188 3.75 12.5 3.75H11.5Z" fill="white"/>
</svg>
