<svg width="72" height="72" viewBox="0 0 72 72" fill="none" xmlns="http://www.w3.org/2000/svg">
<path d="M46.8213 35.4461L47.0133 35.6387L47.1892 35.4312C51.8647 29.9124 51.2623 21.312 45.9313 16.1212L45.9312 16.1211C40.585 10.9163 32.2657 11.0108 27.1806 15.2159L26.969 15.3909L27.1631 15.5852C28.082 16.5052 29.0057 17.4304 29.9309 18.3572C30.8403 19.2681 31.7513 20.1806 32.6608 21.0912C32.6612 21.0923 32.6616 21.0934 32.662 21.0945C32.7013 21.1998 32.7916 21.2421 32.8509 21.2531C32.9002 21.2622 32.9393 21.254 32.9529 21.2508C33.0007 21.2398 33.0344 21.2163 33.0379 21.2138L33.0382 21.2136C33.05 21.2057 33.0604 21.1973 33.0694 21.1892L33.3042 21.0278L33.2211 20.9446C33.3229 20.7562 33.4217 20.5687 33.5197 20.3826C33.8122 19.8274 34.098 19.2849 34.4383 18.7698L34.4384 18.7697C34.6839 18.3975 35.0451 18.0457 35.4185 17.8732L35.4187 17.8731C36.2119 17.5056 37.0998 17.8565 37.593 18.7592C38.0615 19.617 38.5254 20.4804 38.9897 21.3447C39.7348 22.7317 40.4812 24.121 41.2501 25.4936C42.0939 27.0003 42.4491 28.5468 42.128 30.2357C42.1057 30.352 42.1177 30.4792 42.1462 30.5879C42.1742 30.6944 42.227 30.818 42.3173 30.9096C43.5237 32.1398 44.7406 33.3598 45.9675 34.5898C46.2516 34.8746 46.5362 35.1599 46.8213 35.4461ZM25.1475 17.6084L24.955 17.4158L24.7795 17.6241C20.6554 22.5175 20.3066 30.8923 25.6014 36.3562C30.9012 41.8269 39.3291 42.3164 44.8815 37.7187L45.093 37.5436L44.8988 37.3494C43.5826 36.0331 42.2643 34.7149 40.93 33.3796C40.9085 33.3391 40.8794 33.3117 40.8573 33.2953C40.8052 33.257 40.7529 33.2501 40.7424 33.2487L40.7416 33.2486C40.7228 33.2461 40.7074 33.2462 40.6985 33.2465C40.6665 33.2476 40.6384 33.2545 40.6162 33.2623L40.1939 33.3503L40.3303 33.4868C40.2977 33.5158 40.2651 33.5447 40.2327 33.5735C40.1996 33.603 40.1666 33.6323 40.1339 33.6614L40.1336 33.6616C39.0826 34.5968 37.8575 35.1317 36.4669 35.2048C34.0402 35.3309 32.1069 34.4128 30.7948 32.3664L30.5844 32.5014L30.7948 32.3664C29.4773 30.3117 29.4197 28.161 30.5206 25.9703C30.7318 25.5508 30.9569 25.142 31.1768 24.7425C31.2789 24.5571 31.3799 24.3737 31.4779 24.1922L31.5663 24.0283L31.4347 23.8967L31.4177 23.8798C29.3079 21.77 27.2261 19.6882 25.1475 17.6084ZM36.2671 21.8201L36.0987 21.5055L35.8606 21.7711C35.8284 21.807 35.8044 21.8317 35.7824 21.8544C35.7758 21.8612 35.7695 21.8677 35.7631 21.8744L35.7627 21.8748C35.7392 21.8993 35.7011 21.939 35.6723 21.9923C35.3894 22.5148 35.1035 23.0368 34.8172 23.5595C34.1266 24.8204 33.4342 26.0847 32.7782 27.3656C32.0051 28.8736 32.4568 30.7322 33.738 31.784L33.7381 31.7841C35.006 32.824 36.8526 32.8626 38.1584 31.8748C39.5036 30.8581 40.0333 29.0011 39.2622 27.4499L39.2622 27.4498C38.6075 26.1332 37.9031 24.8377 37.1901 23.5266C36.8829 22.9616 36.5741 22.3938 36.2671 21.8201ZM52.9887 26.5383C52.9691 35.8847 45.3074 43.5003 35.9577 43.4673C26.5964 43.4344 18.9965 35.7869 19.0284 26.4353C19.0603 17.0728 26.7078 9.47304 36.0594 9.50597C45.4237 9.5389 53.0082 17.1696 52.9887 26.5383Z" fill="#00C2C5" stroke="white" stroke-width="0.5"/>
<path d="M62.4889 56.959V56.9589C62.4946 56.2368 62.493 55.515 62.4914 54.792C62.4907 54.454 62.4899 54.1158 62.4899 53.7771C62.4899 53.4243 62.4914 53.0725 62.4928 52.7212C62.4958 51.9943 62.4988 51.27 62.4889 50.545C62.4651 49.0344 61.1907 47.9469 59.7522 48.2462C58.9321 48.4173 58.1212 48.7604 57.3453 49.1472L57.3453 49.1473C57.0506 49.2941 56.7736 49.4867 56.4898 49.6987C56.4127 49.7562 56.3345 49.8157 56.2552 49.8761C56.0484 50.0334 55.8345 50.1962 55.616 50.3432C55.616 50.3432 55.616 50.3432 55.616 50.3432L55.4764 50.1359C53.7461 51.3012 51.6994 51.2709 50.013 50.068L62.4889 56.959ZM62.4889 56.959C62.4793 58.2224 61.7251 59.1544 60.5063 59.3518C59.3677 59.5351 58.4629 60.1056 57.6182 60.7547L57.6181 60.7548M62.4889 56.959L57.6181 60.7548M57.6181 60.7548C56.5099 61.6074 55.3151 62.2139 53.9258 62.3946C51.8317 62.6667 49.9411 62.232 48.2483 60.9717L48.2482 60.9716M57.6181 60.7548L48.2482 60.9716M48.2482 60.9716C47.9537 60.7526 47.6578 60.5365 47.3587 60.3234C45.4774 58.9809 43.2667 58.9871 41.3997 60.3555L41.3996 60.3556M48.2482 60.9716L41.3996 60.3556M41.3996 60.3556C40.2123 61.227 39.0764 62.0452 37.652 62.3089C35.5444 62.6991 33.5876 62.4196 31.8107 61.2M41.3996 60.3556L41.5475 60.5572C40.3665 61.4239 39.1866 62.2791 37.6975 62.5548C35.537 62.9547 33.5102 62.6696 31.6692 61.4061L31.8107 61.2M31.8107 61.2C31.5772 61.0397 31.3474 60.8734 31.1149 60.7049L31.0848 60.683C30.863 60.5221 30.6385 60.3594 30.4102 60.2013M31.8107 61.2L30.4102 60.2013M30.4102 60.2013C30.4102 60.2013 30.4103 60.2013 30.4103 60.2013L30.2679 60.4068L30.4102 60.2013ZM30.4102 60.2013C28.7115 59.0241 26.4847 59.0353 24.7953 60.2254M30.4102 60.2013L24.9392 60.4298M24.9392 60.4298L24.7954 60.2253C24.7953 60.2254 24.7953 60.2254 24.7953 60.2254M24.9392 60.4298L24.7953 60.2254M24.9392 60.4298C24.7512 60.5621 24.5656 60.6977 24.38 60.8333C24.1584 60.9951 23.9368 61.1569 23.7112 61.3132M24.7953 60.2254C24.6054 60.359 24.4181 60.4958 24.2328 60.6312C24.2147 60.6444 24.1967 60.6576 24.1786 60.6707C23.9749 60.8195 23.7733 60.9661 23.5689 61.1077M23.5689 61.1077C23.5689 61.1077 23.5689 61.1077 23.5689 61.1077L23.7112 61.3132M23.5689 61.1077C20.8767 62.9722 17.4944 62.952 14.8256 61.0571L14.8254 61.057C14.5708 60.8765 14.319 60.6925 14.0656 60.5073C14.0102 60.4668 13.9547 60.4262 13.8991 60.3857M23.5689 61.1077L23.7112 61.3132M23.7112 61.3132C20.9326 63.2377 17.4355 63.2168 14.6808 61.261C14.4245 61.0793 14.1711 60.894 13.9175 60.7087C13.8622 60.6683 13.8069 60.6279 13.7515 60.5875M13.8991 60.3857C13.8991 60.3857 13.8992 60.3857 13.8992 60.3858L13.7515 60.5875M13.8991 60.3857C13.1703 59.8519 12.3681 59.5042 11.4689 59.3481M13.8991 60.3857C13.899 60.3856 13.8989 60.3856 13.8989 60.3855L13.7515 60.5875M13.7515 60.5875C13.0529 60.0758 12.2865 59.7437 11.426 59.5944M11.4689 59.3481L11.426 59.5944M11.4689 59.3481C10.3331 59.1505 9.54073 58.2179 9.53223 57.0708L9.53223 57.0707C9.51553 54.8796 9.50927 52.6885 9.53431 50.499L9.53431 50.4989C9.55032 49.0415 10.8273 47.9937 12.2754 48.2233L11.4689 59.3481ZM11.4689 59.3481C11.4688 59.3481 11.4688 59.3481 11.4688 59.3481L11.426 59.5944M11.4689 59.3481L11.426 59.5944M47.3067 51.6816C45.5078 50.3949 43.3145 50.3891 41.5159 51.6621L41.6589 51.8642L41.5159 51.6621C41.3418 51.7853 41.1723 51.9082 41.0041 52.0301C40.7382 52.223 40.4754 52.4135 40.2028 52.5993L40.2027 52.5994C38.3235 53.8808 36.2648 54.1244 34.063 53.6302L34.063 53.6302C32.8469 53.3574 31.8672 52.6502 30.8372 51.9067C30.7476 51.842 30.6577 51.777 30.5671 51.7121C28.689 50.3643 26.5283 50.3786 24.6474 51.7266L24.6474 51.7266C24.5272 51.8128 24.4081 51.8989 24.2895 51.9846C23.9857 52.2042 23.685 52.4216 23.3771 52.6318L23.377 52.6319C21.6933 53.7822 19.828 54.0541 17.8243 53.7471C16.4842 53.5414 15.3579 52.8694 14.2528 52.05C13.8947 51.7816 13.5129 51.5387 13.1053 51.2795C12.9249 51.1647 12.7394 51.0467 12.5487 50.9218L12.1618 50.6685L41.1562 52.2287C41.3239 52.1071 41.4915 51.9856 41.6603 51.8661C43.3718 50.6548 45.4487 50.6601 47.1613 51.8849C47.2965 51.9816 47.4311 52.0794 47.5656 52.1773C48.4575 52.8258 49.3495 53.4744 50.4401 53.7729C52.8282 54.4266 55.0879 54.1947 57.168 52.7736M47.3067 51.6816L47.1614 51.8847L47.3066 51.6815C47.3066 51.6815 47.3067 51.6816 47.3067 51.6816ZM47.3067 51.6816C47.4447 51.7802 47.5809 51.8791 47.7161 51.9774C48.6111 52.6274 49.4629 53.2462 50.5061 53.5317C52.8344 54.1691 55.0163 53.9409 57.027 52.5671L57.168 52.7736M57.168 52.7736L57.027 52.5671C57.2314 52.4275 57.4317 52.2808 57.6359 52.1314L57.6776 52.1009C57.8949 51.9418 58.1168 51.7802 58.3457 51.627L58.3458 51.627C58.5732 51.4749 58.8165 51.3363 59.0718 51.1909C59.193 51.1219 59.3168 51.0514 59.4429 50.9772L59.7662 50.7868L59.8174 51.1585C59.8242 51.2079 59.83 51.2447 59.8353 51.2779C59.8374 51.2915 59.8395 51.3045 59.8415 51.3175C59.8479 51.3591 59.8541 51.4044 59.8542 51.4544M57.168 52.7736L59.8542 51.4544M23.5181 52.8383C23.8289 52.626 24.1338 52.4056 24.4386 52.1853C24.5567 52.1 24.6747 52.0147 24.7931 51.9298C26.5881 50.6433 28.6316 50.6308 30.4214 51.9152C30.5133 51.9812 30.6051 52.0474 30.6968 52.1137C31.7189 52.8521 32.7396 53.5896 34.0083 53.8742L23.5181 52.8383ZM23.5181 52.8383C21.7711 54.0318 19.8382 54.3086 17.7863 53.9942C16.385 53.7791 15.2186 53.0774 14.1034 52.2504C13.7531 51.9878 13.3839 51.753 12.9806 51.4965C12.8766 51.4304 12.7705 51.3628 12.6617 51.293M23.5181 52.8383L12.6617 51.293M12.6617 51.293C12.6618 51.2391 12.6618 51.1851 12.6618 51.131H12.4118L12.2748 51.3402C12.321 51.3704 12.3667 51.4001 12.4117 51.4293C12.4116 51.6795 12.4115 51.927 12.4113 52.1721C12.4104 53.631 12.4095 55.007 12.4264 56.3824M12.6617 51.293L12.7647 56.6633C12.6321 56.6299 12.4274 56.4805 12.4264 56.3824M12.4264 56.3824L12.1764 56.385C12.1764 56.3851 12.1764 56.3852 12.1764 56.3852C12.1764 56.3853 12.1764 56.3854 12.1764 56.3855L12.4264 56.3824ZM33.3118 58.7329L33.1667 58.9365C33.0245 58.8352 32.8841 58.7336 32.7446 58.6326C31.7817 57.9357 30.8647 57.2719 29.7328 56.9872L29.7328 56.9872C27.4489 56.4121 25.3154 56.6682 23.3604 58.0156C23.1115 58.1873 22.8706 58.3631 22.6267 58.5409C22.4789 58.6487 22.3299 58.7574 22.1776 58.8663L33.3118 58.7329ZM33.3118 58.7329L33.1667 58.9365C34.8762 60.1543 37.103 60.157 38.8242 58.9557L38.8243 58.9556M33.3118 58.7329L38.8243 58.9556M48.591 57.9733C48.9007 58.182 49.1991 58.3991 49.5018 58.6193C49.6755 58.7456 49.8507 58.8731 50.0301 59.0005C51.0973 59.7581 52.2847 59.9434 53.5322 59.785L53.5322 59.785C54.6274 59.6457 55.5017 59.0835 56.299 58.4647L56.299 58.4647C57.2413 57.733 58.228 57.1508 59.3793 56.8894L48.591 57.9733ZM48.591 57.9733C46.0646 56.2715 42.7518 56.2655 40.2215 57.9581M48.591 57.9733L40.2215 57.9581M59.8542 51.4544C59.8545 51.7419 59.8551 52.0296 59.8557 52.3175C59.8584 53.6129 59.861 54.9109 59.8447 56.208L59.8447 56.2083C59.8429 56.3463 59.7826 56.4937 59.7189 56.6006C59.6849 56.6576 59.6427 56.7155 59.5934 56.7644C59.5482 56.8091 59.476 56.8675 59.3796 56.8893L59.8542 51.4544ZM38.8243 58.9556C39.0309 58.8114 39.226 58.6686 39.4186 58.5277C39.6834 58.3339 39.9434 58.1437 40.2213 57.9583L40.2215 57.9581M38.8243 58.9556L40.2215 57.9581" fill="#00C2C5" stroke="white" stroke-width="0.5"/>
</svg>
