<svg width="60" height="61" viewBox="0 0 60 61" fill="none" xmlns="http://www.w3.org/2000/svg">
<path d="M48.3995 24.7038C48.3956 24.7567 48.4038 24.8099 48.4234 24.8592L54.6624 40.5126H48.8162C48.6229 40.5126 48.4662 40.6693 48.4662 40.8626V49.1069H38.8472C38.6539 49.1069 38.4972 49.2636 38.4972 49.4569V59.6546H12.6594V39.4601C12.6594 39.3683 12.6233 39.2802 12.559 39.2147C8.38547 34.9693 6.00216 29.0724 6.00216 22.9119C6.00216 10.4515 15.5465 0.35 27.2342 0.35C38.9218 0.35 48.4662 10.4515 48.4662 22.9119C48.4662 23.5053 48.4438 24.1061 48.3995 24.7038ZM35.8854 56.4887V46.291H45.5044C45.6977 46.291 45.8544 46.1343 45.8544 45.941V37.6967H50.1812C50.2973 37.6967 50.4058 37.6391 50.4709 37.5431C50.5361 37.447 50.5493 37.3249 50.5064 37.2171L45.7296 25.2327L45.7633 24.8711C45.8237 24.22 45.8544 23.5608 45.8544 22.9119C45.8544 12.0436 37.5211 3.1659 27.2342 3.1659C16.9472 3.1659 8.61398 12.0436 8.61398 22.9119C8.61398 28.5206 10.876 33.8874 14.8276 37.635L15.2712 38.0557V56.4887C15.2712 56.682 15.4279 56.8387 15.6212 56.8387H35.5354C35.7287 56.8387 35.8854 56.682 35.8854 56.4887Z" fill="#00C2C5" stroke="#FAFAFA" stroke-width="0.7" stroke-linejoin="round"/>
<path d="M12.4758 22.9114C12.4758 14.2541 19.1076 7.23125 27.2342 7.23125C35.298 7.23125 41.8902 14.1462 41.9914 22.7114H39.0793C38.9782 15.8861 33.7145 10.3471 27.2342 10.3471C20.6907 10.3471 15.3876 15.9947 15.3876 22.9114C15.3876 27.8894 19.205 31.9597 23.9224 31.9597C28.6397 31.9597 32.4571 27.8894 32.4571 22.9114C32.4571 19.872 30.1254 17.3789 27.2342 17.3789C24.3429 17.3789 22.0112 19.872 22.0112 22.9114C22.0112 24.0121 22.8573 24.9279 23.9224 24.9279C24.9222 24.9279 25.729 24.1208 25.8241 23.1114H28.7417C28.6425 25.8594 26.508 28.0438 23.9224 28.0438C21.2742 28.0438 19.0994 25.7527 19.0994 22.9114C19.0994 18.1314 22.7599 14.263 27.2342 14.263C31.7084 14.263 35.3689 18.1314 35.3689 22.9114C35.3689 29.63 30.2227 35.0756 23.9224 35.0756C17.622 35.0756 12.4758 29.63 12.4758 22.9114Z" fill="#00C2C5" stroke="#FAFAFA" stroke-width="0.4" stroke-linejoin="round"/>
</svg>
