<svg width="60" height="61" viewBox="0 0 60 61" fill="none" xmlns="http://www.w3.org/2000/svg">
<path d="M32.9207 0C17.401 0 10.4207 13.7839 10.4207 23.5714V37.5C10.4207 38.9186 12.5635 38.9175 12.5635 37.5V23.5714C12.5635 14.6732 18.8796 2.14286 32.9207 2.14286C46.9617 2.14286 53.2778 14.6732 53.2778 23.5714V46.0714C53.2778 47.49 55.4207 47.4889 55.4207 46.0714V23.5714C55.4207 13.7839 48.4392 0 32.9207 0Z" fill="#00C2C5"/>
<path d="M10.4207 49.2862V55.7148C10.4207 57.1333 12.5635 57.1323 12.5635 55.7148V49.2862C12.5635 47.8676 10.4207 47.8687 10.4207 49.2862Z" fill="#00C2C5"/>
<path d="M36.4917 38.7545C34.4614 40.5695 31.3875 40.5867 29.341 38.792C28.276 37.8588 26.8617 39.467 27.9289 40.4034C30.7907 42.9095 35.0839 42.8892 37.921 40.3509C38.9764 39.4059 37.5492 37.8074 36.4917 38.7545Z" fill="#00C2C5"/>
<path d="M54.3492 57.8555C44.536 57.8555 41.7 50.3447 41.5135 45.984C45.4575 42.5855 47.5017 37.4501 47.8617 34.9837C49.2 34.2626 52.2064 32.1637 52.2064 27.8555C52.2064 25.2401 50.6892 24.0176 48.9921 23.6748V18.4858C48.9921 16.2487 48.2807 14.1262 46.935 12.3465C43.531 7.84225 38.191 5.35547 32.9207 5.35547C22.6339 5.35547 16.8492 12.789 16.8492 18.4858V23.6748C15.1521 24.0176 13.635 25.2401 13.635 27.8555C13.635 32.1637 16.6403 34.2626 17.9796 34.9837C18.3407 37.449 20.385 42.5855 24.3278 45.983C24.1425 50.3448 21.3064 57.8555 11.4921 57.8555C10.0746 57.8555 10.0735 59.9983 11.4921 59.9983C21.96 59.9983 25.6264 52.6258 26.3453 47.4487C28.2085 48.5683 30.3932 49.284 32.9207 49.284C35.4482 49.284 37.6328 48.5683 39.496 47.4487C40.215 52.6258 43.8825 59.9983 54.3492 59.9983C55.7678 59.9983 55.7667 57.8555 54.3492 57.8555ZM46.771 17.5033C44.401 15.2298 41.55 13.5508 38.4921 12.6219C39.2807 11.5698 39.5978 10.2765 39.27 8.90618C42.5239 10.3869 46.2825 13.4748 46.771 17.5033ZM35.8907 7.81547C37.6821 8.65225 37.7335 11.1519 35.9164 12.0326C29.6657 11.0255 23.5028 13.2498 19.0703 17.5033C19.2396 16.1019 19.7528 14.7787 20.6153 13.6387C24.5485 8.43583 29.7707 6.59297 35.8907 7.81547ZM20.0635 34.284C20.0635 33.8426 19.7935 33.4473 19.3821 33.2855C19.3457 33.2726 15.7778 31.8326 15.7778 27.8555C15.7778 27.3251 15.7778 25.7126 17.9207 25.7126C18.5121 25.7126 18.9921 25.2326 18.9921 24.6412V20.7412C26.3732 11.6801 39.465 11.6769 46.8492 20.7412V24.6412C46.8492 25.2326 47.3282 25.7126 47.9207 25.7126C50.0635 25.7126 50.0635 27.3251 50.0635 27.8555C50.0635 31.793 46.6028 33.2287 46.4592 33.2855C46.0489 33.4473 45.7778 33.8426 45.7778 34.284C45.7778 36.8287 41.6432 47.1412 32.9207 47.1412C24.1982 47.1412 20.0635 36.8287 20.0635 34.284Z" fill="#00C2C5"/>
<path d="M44.4792 29.0092C45.3525 27.8896 43.6585 26.5717 42.7907 27.6913C41.6282 29.1817 39.405 29.426 38.0346 27.7588C37.1367 26.6628 35.4792 28.0246 36.3792 29.1196C38.5285 31.7349 42.3942 31.6846 44.4792 29.0092Z" fill="#00C2C5"/>
<path d="M29.4621 29.1174C30.3632 28.0213 28.7046 26.6628 27.8067 27.7567C26.5264 29.3135 24.2914 29.2803 23.0507 27.6892C22.1817 26.5749 20.4878 27.8863 21.361 29.0071C23.4525 31.6878 27.3171 31.7296 29.4621 29.1174Z" fill="#00C2C5"/>
<path d="M37.9478 23.4494C38.8789 22.5547 40.8814 22.4969 43.2996 23.2929C44.6453 23.7333 45.316 21.6997 43.9692 21.2572C39.5378 19.8022 37.3671 21.0386 36.4639 21.9044C35.4267 22.9008 36.9439 24.4158 37.9478 23.4494Z" fill="#00C2C5"/>
<path d="M22.5407 23.2938C24.96 22.4977 26.9603 22.5555 27.8935 23.4502C28.8985 24.4155 30.4146 22.9005 29.3775 21.9041C28.4742 21.0373 26.2992 19.803 21.8732 21.257C20.5253 21.6995 21.1939 23.7341 22.5407 23.2938Z" fill="#00C2C5"/>
<path d="M15.7778 42.8565V43.9279C15.7778 45.3465 17.9207 45.3454 17.9207 43.9279V42.8565C17.9207 41.4379 15.7778 41.439 15.7778 42.8565Z" fill="#00C2C5"/>
<path d="M15.7778 49.2873C15.7778 50.7059 17.9207 50.7048 17.9207 49.2873V48.2159C17.9207 46.7973 15.7778 46.7984 15.7778 48.2159V49.2873Z" fill="#00C2C5"/>
<path d="M18.9921 47.1429H20.0635C21.481 47.1429 21.4821 45 20.0635 45H18.9921C17.5746 45 17.5735 47.1429 18.9921 47.1429Z" fill="#00C2C5"/>
<path d="M14.7064 45H13.635C12.2175 45 12.2164 47.1429 13.635 47.1429H14.7064C16.1239 47.1429 16.125 45 14.7064 45Z" fill="#00C2C5"/>
<path d="M8.2778 40.7142C8.86923 40.7142 9.34923 40.2353 9.34923 39.6428V38.5713C9.34923 37.1528 7.20638 37.1538 7.20638 38.5713V39.6428C7.20638 40.2353 7.68638 40.7142 8.2778 40.7142Z" fill="#00C2C5"/>
<path d="M8.2778 42.8555C7.68638 42.8555 7.20638 43.3344 7.20638 43.9269V44.9983C7.20638 46.4169 9.34923 46.4158 9.34923 44.9983V43.9269C9.34923 43.3344 8.86923 42.8555 8.2778 42.8555Z" fill="#00C2C5"/>
<path d="M11.4921 42.8577C12.9096 42.8577 12.9107 40.7148 11.4921 40.7148H10.4207C9.82924 40.7148 9.34924 41.1938 9.34924 41.7863C9.34924 42.3788 9.82924 42.8577 10.4207 42.8577H11.4921Z" fill="#00C2C5"/>
<path d="M6.13496 40.7148H5.06353C3.64603 40.7148 3.64496 42.8577 5.06353 42.8577H6.13496C6.72638 42.8577 7.20638 42.3788 7.20638 41.7863C7.20638 41.1938 6.72638 40.7148 6.13496 40.7148Z" fill="#00C2C5"/>
<path d="M50.0635 47.1417C50.0635 46.5492 49.5846 46.0703 48.9921 46.0703C48.3996 46.0703 47.9207 46.5492 47.9207 47.1417V48.2132C47.9207 49.6317 50.0635 49.6307 50.0635 48.2132V47.1417Z" fill="#00C2C5"/>
<path d="M50.0635 53.5725V52.501C50.0635 51.0825 47.9207 51.0835 47.9207 52.501V53.5725C47.9207 54.991 50.0635 54.99 50.0635 53.5725Z" fill="#00C2C5"/>
<path d="M51.135 51.428H52.2064C53.625 51.428 53.6239 49.2852 52.2064 49.2852H51.135C49.7164 49.2852 49.7175 51.428 51.135 51.428Z" fill="#00C2C5"/>
<path d="M46.8492 49.2852H45.7778C44.3592 49.2852 44.3603 51.428 45.7778 51.428H46.8492C48.2678 51.428 48.2667 49.2852 46.8492 49.2852Z" fill="#00C2C5"/>
</svg>
