<svg width="20" height="20" viewBox="0 0 20 20" fill="none" xmlns="http://www.w3.org/2000/svg">
<path fill-rule="evenodd" clip-rule="evenodd" d="M7.14258 1.81543C7.48776 1.81543 7.76758 2.09525 7.76758 2.44043V4.34519C7.76758 4.69037 7.48776 4.97019 7.14258 4.97019C6.7974 4.97019 6.51758 4.69037 6.51758 4.34519V2.44043C6.51758 2.09525 6.7974 1.81543 7.14258 1.81543Z" fill="#00C2C5"/>
<path fill-rule="evenodd" clip-rule="evenodd" d="M12.8564 1.81543C13.2016 1.81543 13.4814 2.09525 13.4814 2.44043V4.34519C13.4814 4.69037 13.2016 4.97019 12.8564 4.97019C12.5113 4.97019 12.2314 4.69037 12.2314 4.34519V2.44043C12.2314 2.09525 12.5113 1.81543 12.8564 1.81543Z" fill="#00C2C5"/>
<path fill-rule="evenodd" clip-rule="evenodd" d="M5.66634 2.76782C4.0325 2.76782 2.70801 4.09231 2.70801 5.72616V9.21776L2.72891 9.21954C2.52436 11.628 4.43917 13.6889 6.85619 13.6617L17.2913 13.544V5.72616C17.2913 4.09231 15.9668 2.76782 14.333 2.76782H5.66634ZM17.2643 14.7944L6.87028 14.9116C5.191 14.9305 3.69745 14.1772 2.70801 12.9942V14.3928C2.70801 16.0267 4.0325 17.3512 5.66634 17.3512H14.333C15.8307 17.3512 17.0684 16.2383 17.2643 14.7944ZM5.83301 10.2083C5.83301 9.86314 6.11283 9.58331 6.45801 9.58331H10.208C10.5532 9.58331 10.833 9.86314 10.833 10.2083C10.833 10.5535 10.5532 10.8333 10.208 10.8333H6.45801C6.11283 10.8333 5.83301 10.5535 5.83301 10.2083ZM6.45801 7.08331C6.11283 7.08331 5.83301 7.36314 5.83301 7.70831C5.83301 8.05349 6.11283 8.33331 6.45801 8.33331H11.8747C12.2199 8.33331 12.4997 8.05349 12.4997 7.70831C12.4997 7.36314 12.2199 7.08331 11.8747 7.08331H6.45801Z" fill="#00C2C5"/>
</svg>
