<svg width="28" height="28" viewBox="0 0 28 28" fill="none" xmlns="http://www.w3.org/2000/svg">
<rect width="28" height="28" rx="14" fill="#00C2C5"/>
<path d="M17.75 11.0752L20.25 6.15644C20.3048 6.06143 20.3337 5.95365 20.3337 5.84394C20.3337 5.73423 20.3048 5.62645 20.25 5.53144C20.1916 5.44278 20.1117 5.37044 20.0176 5.32123C19.9236 5.27202 19.8186 5.24758 19.7125 5.25019H16.4125C16.2971 5.25054 16.184 5.28284 16.0858 5.34352C15.9876 5.40419 15.9082 5.49087 15.8562 5.59394L14 9.24394L12.125 5.59394C12.0745 5.49365 11.998 5.4088 11.9034 5.34831C11.8088 5.28782 11.6997 5.25393 11.5875 5.25019H8.28749C8.17963 5.24956 8.07344 5.27686 7.97925 5.32943C7.88506 5.382 7.80608 5.45805 7.74999 5.55019C7.69514 5.6452 7.66626 5.75298 7.66626 5.86269C7.66626 5.9724 7.69514 6.08018 7.74999 6.17519L10.25 11.0939C10.3028 11.1958 10.3826 11.2812 10.4807 11.3408C10.5789 11.4003 10.6915 11.4317 10.8062 11.4314H12.2187C12.1281 11.7078 12.0817 11.9968 12.0812 12.2877C12.0751 12.4043 12.0751 12.5211 12.0812 12.6377C10.9352 13.0863 9.98177 13.9211 9.38571 14.9978C8.78965 16.0746 8.58836 17.3257 8.81662 18.5351C9.04488 19.7445 9.68835 20.8362 10.6359 21.6216C11.5834 22.407 12.7755 22.8369 14.0062 22.8369C15.237 22.8369 16.4291 22.407 17.3766 21.6216C18.3241 20.8362 18.9676 19.7445 19.1959 18.5351C19.4241 17.3257 19.2228 16.0746 18.6268 14.9978C18.0307 13.9211 17.0773 13.0863 15.9312 12.6377C15.9481 12.5175 15.9586 12.3965 15.9625 12.2752C15.9763 11.9849 15.9468 11.6942 15.875 11.4127H17.2437C17.3499 11.4042 17.4521 11.3688 17.5407 11.3097C17.6293 11.2506 17.7013 11.1699 17.75 11.0752ZM17.175 16.7002L15.5812 18.2564L15.9562 20.4564L14 19.4064L12.025 20.4439L12.4 18.2439L10.8062 16.6877L13.0125 16.3689L14 14.3627L14.9875 16.3689L17.175 16.7002ZM14.7062 12.2814C14.7062 12.2814 14.7062 12.2814 14.7062 12.3252C14.4726 12.2868 14.2367 12.2638 14 12.2564C13.772 12.2571 13.5444 12.2738 13.3187 12.3064C13.3158 12.2941 13.3158 12.2813 13.3187 12.2689C13.3105 11.9616 13.4051 11.6602 13.5875 11.4127H14.4625C14.6427 11.661 14.735 11.9623 14.725 12.2689L14.7062 12.2814Z" fill="white"/>
</svg>
