<svg width="20" height="20" viewBox="0 0 20 20" fill="none" xmlns="http://www.w3.org/2000/svg">
<path d="M12.5 5.83337C12.5 7.21409 11.3807 8.33337 10 8.33337C8.61929 8.33337 7.5 7.21409 7.5 5.83337C7.5 4.45266 8.61929 3.33337 10 3.33337C11.3807 3.33337 12.5 4.45266 12.5 5.83337Z" fill="#00C2C5" stroke="#00C2C5" stroke-width="1.5"/>
<path d="M4.16699 13.7991V15C4.16699 16.1506 5.09973 17.0834 6.25033 17.0834H13.7503C14.9009 17.0834 15.8337 16.1506 15.8337 15V13.8919C15.8337 12.9471 15.2641 12.0937 14.3683 11.7932C13.0879 11.3638 11.4639 10.8334 10.0003 10.8334C8.567 10.8334 6.65521 11.3421 5.52131 11.7665C4.68073 12.0811 4.16699 12.9016 4.16699 13.7991Z" fill="#00C2C5"/>
<path fill-rule="evenodd" clip-rule="evenodd" d="M10.0003 11.4584C8.67378 11.4584 6.8422 11.9395 5.74039 12.3518C5.16876 12.5658 4.79199 13.1348 4.79199 13.7991V15C4.79199 15.8055 5.44491 16.4584 6.25033 16.4584H13.7503C14.5557 16.4584 15.2087 15.8055 15.2087 15V13.8919C15.2087 13.1948 14.7914 12.5943 14.1696 12.3858C12.8712 11.9503 11.3446 11.4584 10.0003 11.4584ZM5.30224 11.1811C6.46822 10.7447 8.46022 10.2084 10.0003 10.2084C11.5832 10.2084 13.3046 10.7772 14.567 11.2006C15.7368 11.593 16.4587 12.6994 16.4587 13.8919V15C16.4587 16.4958 15.2461 17.7084 13.7503 17.7084H6.25033C4.75455 17.7084 3.54199 16.4958 3.54199 15V13.7991C3.54199 12.6685 4.1927 11.5964 5.30224 11.1811Z" fill="#00C2C5"/>
</svg>
