<svg width="24" height="24" viewBox="0 0 24 24" fill="none" xmlns="http://www.w3.org/2000/svg">
<path d="M15 7C15 8.65685 13.6569 10 12 10C10.3431 10 9 8.65685 9 7C9 5.34315 10.3431 4 12 4C13.6569 4 15 5.34315 15 7Z" fill="#676767" stroke="#676767" stroke-width="1.5"/>
<path d="M5 16.5589V18C5 19.3807 6.11929 20.5 7.5 20.5H16.5C17.8807 20.5 19 19.3807 19 18V16.6702C19 15.5364 18.3165 14.5123 17.2416 14.1518C15.7051 13.6365 13.7563 13 12 13C10.28 13 7.98586 13.6105 6.62518 14.1197C5.61649 14.4972 5 15.4819 5 16.5589Z" fill="#676767"/>
<path fill-rule="evenodd" clip-rule="evenodd" d="M12 13.75C10.4081 13.75 8.21025 14.3273 6.88807 14.8221C6.20212 15.0789 5.75 15.7617 5.75 16.5589V18C5.75 18.9665 6.5335 19.75 7.5 19.75H16.5C17.4665 19.75 18.25 18.9665 18.25 18V16.6702C18.25 15.8337 17.7493 15.1132 17.0031 14.8629C15.4451 14.3403 13.6131 13.75 12 13.75ZM6.36229 13.4173C7.76147 12.8936 10.1519 12.25 12 12.25C13.8994 12.25 15.9651 12.9326 17.48 13.4407C18.8837 13.9115 19.75 15.2392 19.75 16.6702V18C19.75 19.7949 18.2949 21.25 16.5 21.25H7.5C5.70507 21.25 4.25 19.7949 4.25 18V16.5589C4.25 15.2021 5.03085 13.9156 6.36229 13.4173Z" fill="#676767"/>
</svg>
