<svg width="72" height="72" viewBox="0 0 72 72" fill="none" xmlns="http://www.w3.org/2000/svg">
<path d="M54.9152 17.0848C49.8623 12.0322 43.1456 9.25 36 9.25C28.8544 9.25 22.1377 12.0322 17.0848 17.0848C17.0848 17.0848 17.0848 17.0848 17.0848 17.0848M54.9152 17.0848L16.908 16.908L17.0848 17.0848M54.9152 17.0848C59.9678 22.1377 62.75 28.8544 62.75 36C62.75 43.1456 59.9678 49.8623 54.9152 54.9152C49.8623 59.9678 43.1456 62.75 36 62.75C28.8544 62.75 22.1377 59.9678 17.0848 54.9152C12.0322 49.8623 9.25 43.1456 9.25 36C9.25 28.8544 12.0322 22.1377 17.0848 17.0848M54.9152 17.0848H17.0848M59.7821 34.668H60.0492L60.0316 34.4015C59.2406 22.3912 49.6088 12.7594 37.5985 11.9684L37.332 11.9508V12.2179V34.418V34.668H37.582H59.7821ZM34.668 12.2179V11.9508L34.4015 11.9684C21.8628 12.7942 11.9141 23.2558 11.9141 36C11.9141 49.2813 22.7187 60.0859 36 60.0859C42.0666 60.0859 47.616 57.8303 51.8551 54.1156L52.056 53.9396L51.8672 53.7508L35.0582 36.9418L35.0581 36.9418C34.8084 36.6921 34.668 36.3533 34.668 36V12.2179ZM53.7509 51.867L53.9397 52.0559L54.1157 51.855C57.5013 47.9914 59.6733 43.039 60.0316 37.5985L60.0492 37.332H59.7821H39.8193H39.2158L39.6426 37.7588L53.7509 51.867Z" fill="#00C2C5" stroke="white" stroke-width="0.5"/>
</svg>
