<svg width="16" height="16" viewBox="0 0 16 16" fill="none" xmlns="http://www.w3.org/2000/svg">
<g clip-path="url(#clip0_5768_6913)">
<path d="M11.7052 8.25294V5.03698C11.7052 2.99406 10.0431 1.33203 8.00023 1.33203C5.95731 1.33203 4.29526 2.99406 4.29526 5.03698V8.25292C4.08828 8.41461 4.04593 8.71242 4.2027 8.92529C4.36234 9.14203 4.66736 9.18823 4.88398 9.02867L6.30864 7.97951C6.43255 7.88826 6.50606 7.7438 6.50695 7.58992V5.89008C6.50752 5.83568 6.55192 5.79201 6.6063 5.79234C6.66067 5.79266 6.70455 5.8368 6.70455 5.89115L6.70479 14.0807C6.70479 14.4035 6.96656 14.6653 7.28948 14.6653C7.61237 14.6653 7.87416 14.4036 7.87416 14.0807V9.40726H8.12661L8.12661 14.0807C8.12661 14.4036 8.38838 14.6654 8.7113 14.6654C9.03419 14.6654 9.29599 14.4036 9.29599 14.0807C9.29599 6.34406 9.29599 10.7807 9.29599 5.88227C9.29599 5.82768 9.34023 5.78341 9.39484 5.78339C9.44943 5.78336 9.49372 5.82763 9.49372 5.88224C9.49372 5.8849 9.4937 5.88763 9.49362 5.89042V7.58997C9.49448 7.74385 9.56799 7.88831 9.69193 7.97956L11.1166 9.02872C11.3333 9.18836 11.6383 9.14195 11.7979 8.92534C11.9545 8.71245 11.9122 8.41464 11.7052 8.25294ZM11.1056 7.81052L10.4625 7.3399V5.88521H10.4625C10.4593 5.25263 9.93799 4.73797 9.30539 4.73797C8.98164 4.73797 7.0208 4.73797 6.6951 4.73797C6.0625 4.73797 5.54114 5.2526 5.53796 5.88492V7.3399L4.89484 7.81052V5.03698C4.89484 3.32464 6.28791 1.93156 8.00026 1.93156C9.7126 1.93156 11.1056 3.32464 11.1056 5.03698V7.81052Z" fill="white"/>
<path d="M8.00003 4.41802C8.55772 4.41802 9.00982 3.96592 9.00982 3.40823C9.00982 2.85054 8.55772 2.39844 8.00003 2.39844C7.44233 2.39844 6.99023 2.85054 6.99023 3.40823C6.99023 3.96592 7.44233 4.41802 8.00003 4.41802Z" fill="white"/>
</g>
<defs>
<clipPath id="clip0_5768_6913">
<rect width="13.3333" height="13.3333" fill="white" transform="translate(1.3335 1.33203)"/>
</clipPath>
</defs>
</svg>
