<svg width="16" height="16" viewBox="0 0 16 16" fill="none" xmlns="http://www.w3.org/2000/svg">
<path d="M3.31254 12.5249C3.09693 12.5249 2.92194 12.3499 2.92194 12.1343C2.92194 11.9187 3.09693 11.7437 3.31254 11.7437H6.83761C6.81313 11.4808 6.81 11.2191 6.82719 10.9626H3.31254C3.09693 10.9626 2.92194 10.7876 2.92194 10.572C2.92194 10.3564 3.09693 10.1814 3.31254 10.1814H6.94749C7.31283 8.69804 8.44353 7.55719 9.9528 7.6622V3.2812C9.9528 3.06561 9.77781 2.89062 9.56219 2.89062H8.9112V3.54159C8.9112 4.18761 8.38545 4.71333 7.73938 4.71333L3.57296 4.71333C2.92689 4.71333 2.40114 4.18761 2.40114 3.54159V2.89062H1.7241C1.50848 2.89062 1.3335 3.06561 1.3335 3.2812L1.3335 13.4362C1.3335 13.6518 1.50848 13.8268 1.7241 13.8268L7.52405 13.8268C7.2803 13.4365 7.09307 12.9954 6.97278 12.5249L3.31254 12.5249V12.5249ZM3.31254 5.49449L6.43737 5.49449C6.65298 5.49449 6.82797 5.66948 6.82797 5.88507C6.82797 6.10066 6.65298 6.27565 6.43737 6.27565L3.31254 6.27565C3.09693 6.27565 2.92194 6.10066 2.92194 5.88507C2.92194 5.66948 3.09695 5.49449 3.31254 5.49449ZM3.31254 7.05681L7.99979 7.05681C8.21541 7.05681 8.3904 7.2318 8.3904 7.44739C8.3904 7.66298 8.21541 7.83797 7.99979 7.83797L3.31254 7.83797C3.09693 7.83797 2.92194 7.66298 2.92194 7.44739C2.92194 7.2318 3.09695 7.05681 3.31254 7.05681ZM3.31254 8.61913H6.43737C6.65298 8.61913 6.82797 8.79412 6.82797 9.00971C6.82797 9.2253 6.65298 9.40029 6.43737 9.40029H3.31254C3.09693 9.40029 2.92194 9.2253 2.92194 9.00971C2.92194 8.79409 3.09695 8.61913 3.31254 8.61913Z" fill="white"/>
<path d="M3.57274 3.93377L7.73918 3.93377C7.9549 3.93377 8.12979 3.75891 8.12979 3.54319V2.50167C8.12979 2.28598 7.9549 2.11109 7.73918 2.11109L6.76082 2.11109C6.39274 1.07303 4.91962 1.07165 4.55107 2.11109H3.57274C3.35701 2.11109 3.18213 2.28595 3.18213 2.50167L3.18213 3.54322C3.18213 3.75891 3.35701 3.93377 3.57274 3.93377Z" fill="white"/>
<path d="M11.482 8.72665C11.5149 8.29847 11.6431 7.87067 11.8693 7.43339C11.9685 7.24179 11.8934 7.00612 11.7018 6.90702C11.5103 6.80792 11.2746 6.8829 11.1754 7.07448C10.9006 7.60588 10.7429 8.14384 10.703 8.68217C9.00768 7.77173 7.30009 9.49198 7.6397 11.8802C7.94478 14.0255 9.72152 15.2654 11.1318 14.3704C12.5659 15.2806 14.3235 13.9928 14.6239 11.8802C14.9745 9.41465 13.1696 7.73235 11.482 8.72665ZM10.7265 11.6464C10.764 11.8589 10.6221 12.0614 10.4097 12.0989C10.1972 12.1363 9.99464 11.9945 9.95719 11.7821L9.88937 11.3974C9.85192 11.185 9.99378 10.9824 10.2062 10.945C10.4187 10.9075 10.6213 11.0494 10.6587 11.2618L10.7265 11.6464ZM12.2895 11.7904C12.252 12.0028 12.0494 12.1447 11.837 12.1072C11.6246 12.0697 11.4827 11.8672 11.5202 11.6547L11.588 11.2701C11.6254 11.0577 11.828 10.9158 12.0405 10.9533C12.2529 10.9907 12.3948 11.1933 12.3573 11.4057L12.2895 11.7904Z" fill="white"/>
</svg>
