<svg width="16" height="16" viewBox="0 0 16 16" fill="none" xmlns="http://www.w3.org/2000/svg">
<path d="M8.21335 1.33212C8.18125 1.3338 8.14987 1.34204 8.12135 1.35691C8.12135 1.35691 5.4825 2.67317 2.19183 3.11193C2.08127 3.12721 1.99919 3.22209 2.00001 3.33369L2.00001 7.99816C2.00001 10.8556 3.56443 12.5507 5.10689 13.4933C6.64935 14.4359 8.18861 14.6628 8.18861 14.6628C8.21047 14.6662 8.23271 14.6662 8.25458 14.6628C8.25458 14.6628 9.79384 14.4359 11.3363 13.4933C12.8788 12.5507 14.4432 10.8556 14.4432 7.99816L14.4432 3.33369C14.4441 3.22209 14.3619 3.12719 14.2514 3.11193C10.9607 2.67317 8.32185 1.35691 8.32185 1.35691C8.28836 1.33961 8.25103 1.33103 8.21335 1.33212H8.21335ZM8.22158 3.99941C10.4279 3.99941 12.2203 5.79183 12.2203 7.99811C12.2203 10.2044 10.4279 11.999 8.22158 11.999C6.0153 11.999 4.22286 10.2044 4.22286 7.99811C4.22286 5.79183 6.0153 3.99941 8.22158 3.99941ZM7.33235 5.99877V7.11107H6.22221C6.0995 7.11062 5.99964 7.20969 5.99915 7.3324L5.99915 8.66603C5.99959 8.78874 6.0995 8.88783 6.22221 8.88736H7.33235L7.33235 9.99966C7.33279 10.1225 7.43297 10.2217 7.55585 10.221H8.88731C9.01002 10.2214 9.10989 10.1224 9.11038 9.99966L9.11038 8.88736H10.2209C10.3437 8.88781 10.4435 8.78874 10.444 8.66603V7.3324C10.4436 7.20969 10.3437 7.1106 10.2209 7.11107H9.11038V5.99877C9.10993 5.87606 9.01002 5.77697 8.88731 5.77744H7.54435C7.41901 5.78861 7.33226 5.88439 7.33235 5.99877H7.33235Z" fill="white"/>
</svg>
