<svg width="28" height="28" viewBox="0 0 28 28" fill="none" xmlns="http://www.w3.org/2000/svg">
<rect width="28" height="28" rx="14" fill="#00C2C5"/>
<path d="M19.5575 14.3814V9.55742C19.5575 6.49305 17.0644 4 14 4C10.9356 4 8.44253 6.49305 8.44253 9.55742V14.3813C8.13206 14.6239 8.06855 15.0706 8.3037 15.3899C8.54316 15.715 9.0007 15.7843 9.32562 15.545L11.4626 13.9712C11.6485 13.8343 11.7587 13.6177 11.7601 13.3868V10.8371C11.7609 10.7555 11.8275 10.69 11.9091 10.6905C11.9907 10.6909 12.0565 10.7571 12.0565 10.8387L12.0568 23.1229C12.0568 23.6073 12.4495 24 12.9339 24C13.4182 24 13.8109 23.6073 13.8109 23.1229V16.1129H14.1896V23.123C14.1896 23.6073 14.5822 24 15.0666 24C15.5509 24 15.9436 23.6074 15.9436 23.123C15.9436 11.518 15.9436 18.173 15.9436 10.8254C15.9436 10.7435 16.01 10.6771 16.0919 10.677C16.1738 10.677 16.2402 10.7434 16.2402 10.8253C16.2402 10.8293 16.2402 10.8334 16.2401 10.8376V13.3869C16.2414 13.6177 16.3516 13.8344 16.5375 13.9713L18.6745 15.545C18.9996 15.7845 19.4571 15.7149 19.6964 15.39C19.9314 15.0706 19.8679 14.6239 19.5575 14.3814ZM18.6581 13.7177L17.6934 13.0118V10.8298H17.6934C17.6887 9.8809 16.9066 9.10891 15.9577 9.10891C15.4721 9.10891 12.5309 9.10891 12.0423 9.10891C11.0934 9.10891 10.3114 9.88086 10.3066 10.8293V13.0118L9.34191 13.7177V9.55742C9.34191 6.98891 11.4315 4.8993 14 4.8993C16.5686 4.8993 18.6581 6.98891 18.6581 9.55742V13.7177Z" fill="white"/>
<path d="M14 8.62703C14.8365 8.62703 15.5147 7.94888 15.5147 7.11234C15.5147 6.2758 14.8365 5.59766 14 5.59766C13.1634 5.59766 12.4853 6.2758 12.4853 7.11234C12.4853 7.94888 13.1634 8.62703 14 8.62703Z" fill="white"/>
</svg>
