<svg width="137" height="78" viewBox="0 0 137 78" fill="none" xmlns="http://www.w3.org/2000/svg">
<path d="M19.508 9.99999C20.7803 9.99817 22.0124 9.59548 22.9947 8.86045C23.9769 8.12543 24.6485 7.10352 24.895 5.96888C25.1416 4.83423 24.9478 3.65698 24.3467 2.63764C23.7456 1.6183 22.7744 0.819963 21.5985 0.378533C20.4226 -0.0628978 19.1147 -0.120109 17.8977 0.2167C16.6806 0.55351 15.6296 1.26351 14.9236 2.22571C14.2177 3.18791 13.9006 4.34281 14.0262 5.49372C14.1518 6.64464 14.7124 7.72035 15.6126 8.53767C16.1243 9.00226 16.7317 9.3706 17.4001 9.62152C18.0685 9.87245 18.7849 10.001 19.508 9.99999V9.99999Z" fill="#00C2C5"/>
<path d="M29.669 0C29.8311 0.462562 33.1178 10.3831 15.3859 17.113C14.9163 17.2944 14.4265 17.4758 13.9993 17.6898C14.8537 17.5762 15.715 17.5198 16.5772 17.5211C21.7592 17.4309 26.7806 19.2932 30.6156 22.7277C34.4506 26.1622 36.8097 30.9096 37.2111 36C37.3105 35.7295 37.3953 35.454 37.4652 35.1747C43.4127 17.9964 30.1846 0.707448 29.669 0Z" fill="#00C2C5"/>
<path d="M15.4218 20C14.6004 20.0002 13.7798 20.0527 12.9651 20.1574L11.0749 20.4214C3.06385 24.8709 -1.92043 33.8313 5.99081 46.8649C6.72619 40.2776 9.88015 25.7987 23.5146 22.4978C23.5146 22.4978 10.8371 27.2005 9.71496 48.5833C15.7905 49.4297 29.5066 50.0302 34.9993 39.3588L34.9158 38.174C34.5819 33.25 32.385 28.6356 28.7685 25.2624C25.152 21.8892 20.3853 20.0085 15.4309 20H15.4218Z" fill="#00C2C5"/>
<path d="M64.9999 36.0209H72.4136C72.4947 37.0062 72.78 37.9644 73.2516 38.8352C73.7232 39.706 74.3711 40.4708 75.1545 41.0816C75.9378 41.6923 76.8399 42.136 77.8041 42.3846C78.7683 42.6333 79.7738 42.6816 80.7577 42.5266C85.7412 42.5266 88.2318 40.8123 88.2294 37.3836C88.2543 36.7871 88.1145 36.1952 87.8252 35.6717C87.5359 35.1483 87.108 34.7131 86.5877 34.4133C84.0133 33.2502 81.3145 32.38 78.5429 31.8193C70.4708 29.7947 66.4348 26.03 66.4348 20.5252C66.3681 19.0155 66.6829 17.5132 67.3504 16.155C68.0179 14.7968 69.017 13.6258 70.2568 12.7485C73.2262 10.8046 76.742 9.84879 80.2951 10.0195C89.7386 10.0195 94.5963 13.8298 94.8684 21.4504L87.2063 21.7727C87.1201 20.9613 86.8716 20.1752 86.4755 19.4603C86.0793 18.7454 85.5434 18.1162 84.8991 17.6094C84.2548 17.1026 83.5151 16.7285 82.7233 16.5089C81.9316 16.2894 81.1036 16.2288 80.288 16.3308C76.3082 16.3308 73.8538 17.5675 73.8538 20.0211C73.8726 20.4624 73.9839 20.8949 74.1807 21.291C74.3775 21.6871 74.6554 22.0382 74.9966 22.3217C77.1846 23.6296 79.6022 24.5153 82.1218 24.9319C88.4864 26.5629 92.39 28.3714 93.8327 30.3576C95.2969 32.3926 96.0563 34.8441 95.9967 37.344C95.9967 45.1027 90.934 48.988 80.8085 49C71.3095 48.958 66.0399 44.6316 64.9999 36.0209Z" fill="#00C2C5"/>
<path d="M131 10.0697L121.96 10L106.573 26.8748V10H98.9999V48H106.564L106.462 37.5455L131 10.0697Z" fill="#00C2C5"/>
<path d="M114 32.7515L122.993 48H133L119.079 27L114 32.7515Z" fill="#00C2C5"/>
<path d="M54.0087 23.2218V48H60.9999L60.8811 16C59.2472 18.9997 56.8725 21.4963 53.9999 23.2345L54.0087 23.2218Z" fill="#00C2C5"/>
<path d="M61.9999 10H55.9677C54.9941 12.3063 53.5023 14.3677 51.6034 16.0309C49.7045 17.694 47.4474 18.9159 44.9999 19.6058V26C51.1634 23.5152 60.7536 17.3022 61.9999 10Z" fill="#00C2C5"/>
<path d="M0 74.0652C0.0415296 75.7632 1.2978 78 4.95241 78C7.81795 78 10.0398 76.5867 10.0398 73.994C10.0398 71.7978 8.59663 70.8828 6.30212 70.2727L4.10105 69.683C2.56445 69.2865 1.79616 68.5341 1.79616 67.2937C1.79616 65.6669 3.14587 64.6908 5.12891 64.6908C7.37151 64.6908 8.40975 65.9211 8.51357 67.253H9.8529C9.80099 64.8331 7.66222 63.5012 5.16006 63.5012C2.5956 63.5012 0.446443 64.9246 0.446443 67.375C0.446443 69.4492 1.94151 70.4761 3.69614 70.9438L5.9595 71.5233C7.77642 72.0012 8.69007 72.6824 8.69007 74.0855C8.69007 75.7327 7.26768 76.8104 5.10814 76.8104C2.58522 76.8104 1.44315 75.4073 1.33933 74.0652H0Z" fill="#00C2C5"/>
<path d="M16.3685 65.1992H17.4171L20.2411 61.7727H18.881L16.3685 65.1992ZM19.5974 75.814H19.6805V77.695H20.9887V68.0461H21.1652C22.7952 68.0461 23.6258 67.0395 23.6258 65.4737V64.2739H22.4318V65.494C22.4318 66.4498 22.0165 67.0903 20.916 67.0903H19.6805V73.7297C19.6805 75.2955 18.4242 76.7494 16.5138 76.7494C14.9669 76.7494 13.8559 75.9563 13.8559 74.1364V67.0903H12.5374V74.4312C12.5374 76.8816 14.1155 77.8678 16.2439 77.8678C18.2269 77.8678 19.2756 76.7291 19.5974 75.814Z" fill="#00C2C5"/>
<path d="M24.3895 73.2721C24.3895 76.1597 26.0922 77.8678 28.7709 77.8678C31.5741 77.8678 32.7681 76.2817 32.8616 74.8684H31.5638C31.3561 75.7835 30.6501 76.6681 28.802 76.6681C26.8813 76.6681 25.6873 75.4175 25.6873 73.262V71.5538C25.6873 69.3882 26.8294 68.0461 28.7709 68.0461C30.6605 68.0461 31.3665 69.2356 31.5118 70.0592H32.8096C32.737 68.5748 31.408 66.9175 28.7605 66.9175C26.1234 66.9175 24.3895 68.6358 24.3895 71.4623V73.2721Z" fill="#00C2C5"/>
<path d="M40.9196 73.5772L42.1447 72.4282L46.2665 77.695H47.855L43.0999 71.6047L47.6162 67.0293H46.0588L40.9715 72.1232H40.9196V63.0945H39.6114V77.695H40.9196V73.5772Z" fill="#00C2C5"/>
<path d="M49.7297 77.695H51.0378V71.5945C51.0378 69.6728 52.1176 68.0359 54.2252 68.0359C55.9279 68.0359 56.935 69.134 56.935 70.8828V77.695H58.2432V70.5167C58.2432 68.1376 56.6755 66.9175 54.5679 66.9175C52.3253 66.9175 51.3597 68.2494 51.1105 69.0933H51.0378V63.0945H49.7297V77.695Z" fill="#00C2C5"/>
<path d="M65.4233 66.9175C62.8588 66.9175 60.8966 68.6358 60.8966 71.5538V73.2315C60.8966 76.241 62.8381 77.8678 65.4233 77.8678C67.9774 77.8678 69.95 76.2207 69.95 73.2315V71.5538C69.95 68.5748 67.967 66.9175 65.4233 66.9175ZM65.4233 68.0461C67.3336 68.0461 68.6314 69.439 68.6314 71.7063V73.0891C68.6314 75.3971 67.3648 76.7189 65.4233 76.7189C63.4714 76.7189 62.1944 75.387 62.1944 73.0891V71.7063C62.1944 69.439 63.5233 68.0461 65.4233 68.0461ZM64.032 63.2063C64.2397 63.125 64.6238 63.0132 65.0599 63.0132C65.6828 63.0132 66.15 63.3589 66.15 63.8774C66.15 64.2943 65.8697 64.6298 65.2156 64.9958L65.7451 65.6872C66.4615 65.2907 67.1468 64.7721 67.1468 63.8367C67.1468 62.7996 66.3577 62.1591 65.143 62.1591C64.6446 62.1591 64.2501 62.2709 64.032 62.3624V63.2063Z" fill="#00C2C5"/>
<path d="M76.6006 77.8678C79.2377 77.8678 80.494 76.2512 80.6497 75.1531H79.2688C79.1027 75.9055 78.1787 76.7189 76.6006 76.7189C74.5864 76.7189 73.4547 75.3158 73.4547 73.2518V72.6926H80.8054V71.6555C80.8054 68.6764 79.0093 66.9175 76.476 66.9175C73.9323 66.9175 72.1465 68.6764 72.1465 71.6555V73.1908C72.1465 76.0682 73.7869 77.8678 76.6006 77.8678ZM73.4547 71.6758V71.5233C73.4547 69.3882 74.6591 68.0461 76.476 68.0461C78.2929 68.0461 79.4869 69.3882 79.4869 71.5233V71.6758H73.4547Z" fill="#00C2C5"/>
<path d="M87.7837 77.695H89.0918V63.0945H87.7837V77.695Z" fill="#00C2C5"/>
<path d="M95.3063 77.8678C97.1129 77.8678 98.1304 76.9324 98.5768 76.1495H98.6391V77.695H99.9057V70.2931C99.9057 67.8935 98.2134 66.9175 96.0435 66.9175C93.749 66.9175 92.3577 67.9139 92.2124 69.5305H93.4894C93.6867 68.7679 94.3512 68.0664 95.9812 68.0664C97.5593 68.0664 98.5872 68.7679 98.5872 70.3541V71.6047H95.5244C93.0637 71.6047 91.7763 72.8451 91.7763 74.6549C91.7763 76.6071 93.2091 77.8678 95.3063 77.8678ZM95.597 76.7494C94.2473 76.7494 93.1364 76.0072 93.1364 74.6244C93.1364 73.5161 93.8424 72.6926 95.5451 72.6926H98.5872V74.0855C98.5872 75.631 97.2686 76.7494 95.597 76.7494ZM96.9779 65.1992L94.4757 61.7727H93.1157L95.9397 65.1992H96.9779Z" fill="#00C2C5"/>
<path d="M106.791 69.9677C106.791 71.9402 108.348 72.4384 110.414 72.8858C111.971 73.2111 113.311 73.506 113.311 74.8379C113.311 76.0173 112.304 76.7799 110.528 76.7799C108.628 76.7799 107.922 75.9157 107.818 74.9701H106.531C106.531 76.6376 107.964 77.8678 110.487 77.8678C112.833 77.8678 114.608 76.7799 114.608 74.6956C114.608 72.6519 112.864 72.1639 110.84 71.7572C109.376 71.4522 108.088 71.1573 108.088 69.8457C108.088 68.6358 109.168 67.985 110.57 67.985C112.345 67.985 113.072 69.012 113.113 69.7847H114.359C114.359 68.2697 113.061 66.9175 110.611 66.9175C108.556 66.9175 106.791 67.8935 106.791 69.9677Z" fill="#00C2C5"/>
<path d="M117.75 65.5042H119.286L121.166 64.0807H121.218L123.076 65.5042H124.561L121.82 63.3487H120.636L117.75 65.5042ZM123.117 63.369L123.751 63.7961L127.011 61H125.464L123.117 63.369ZM121.176 66.9175C118.612 66.9175 116.649 68.6358 116.649 71.5538V73.2315C116.649 76.241 118.591 77.8678 121.176 77.8678C123.73 77.8678 125.703 76.2207 125.703 73.2315V71.5538C125.703 68.5748 123.72 66.9175 121.176 66.9175ZM121.176 68.0461C123.086 68.0461 124.384 69.439 124.384 71.7063V73.0891C124.384 75.3971 123.117 76.7189 121.176 76.7189C119.224 76.7189 117.947 75.387 117.947 73.0891V71.7063C117.947 69.439 119.276 68.0461 121.176 68.0461Z" fill="#00C2C5"/>
<path d="M137 77.695V63.8469H135.692L132.245 66.2667V67.6394L135.619 65.311H135.692V77.695H137Z" fill="#00C2C5"/>
</svg>
