<svg width="104" height="58" viewBox="0 0 104 58" fill="none" xmlns="http://www.w3.org/2000/svg">
<path d="M14.6896 7.25058C15.5387 7.24926 16.361 6.95729 17.0165 6.42435C17.6721 5.89142 18.1202 5.15047 18.2848 4.32779C18.4493 3.5051 18.32 2.65152 17.9188 1.91244C17.5177 1.17336 16.8695 0.594522 16.0847 0.274459C15.3 -0.0456046 14.4271 -0.0870863 13.6149 0.15712C12.8026 0.401327 12.1012 0.916122 11.6301 1.61377C11.159 2.31142 10.9473 3.14879 11.0311 3.98327C11.115 4.81776 11.4891 5.59771 12.0899 6.19031C12.4313 6.52717 12.8367 6.79424 13.2828 6.97617C13.7289 7.15811 14.207 7.25134 14.6896 7.25058V7.25058Z" fill="#00C2C5"/>
<path d="M22.5166 0C22.6356 0.341596 25.0484 7.66781 12.0311 12.6377C11.6864 12.7716 11.3268 12.9056 11.0132 13.0637C11.6404 12.9798 12.2727 12.9382 12.9057 12.9391C16.7099 12.8725 20.3962 14.2478 23.2115 16.7841C26.0268 19.3204 27.7587 22.8263 28.0534 26.5855C28.1264 26.3857 28.1886 26.1823 28.2399 25.976C32.6061 13.2901 22.8951 0.52244 22.5166 0Z" fill="#00C2C5"/>
<path d="M11.1776 13.293C10.5684 13.2931 9.95996 13.3347 9.35584 13.4176L7.95421 13.6266C2.01372 17.1494 -1.68229 24.2436 4.18416 34.5628C4.72946 29.3474 7.06823 17.884 17.1787 15.2706C17.1787 15.2706 7.77784 18.9939 6.94574 35.9232C11.4509 36.5934 21.6219 37.0688 25.6949 28.6199L25.633 27.6819C25.3854 23.7834 23.7563 20.13 21.0745 17.4594C18.3928 14.7887 14.8582 13.2997 11.1843 13.293H11.1776Z" fill="#00C2C5"/>
<path d="M50.1653 26.5965H55.7248C55.7857 27.3293 55.9996 28.0418 56.3533 28.6894C56.707 29.337 57.1928 29.9057 57.7802 30.3599C58.3677 30.8141 59.0441 31.144 59.7672 31.3289C60.4902 31.5138 61.2443 31.5498 61.9821 31.4345C65.7193 31.4345 67.587 30.1597 67.5852 27.6099C67.6038 27.1663 67.499 26.7261 67.2821 26.3369C67.0651 25.9476 66.7442 25.624 66.3541 25.4011C64.4235 24.5361 62.3997 23.889 60.3212 23.472C54.2679 21.9665 51.2413 19.1668 51.2413 15.0731C51.1913 13.9505 51.4274 12.8333 51.9279 11.8233C52.4285 10.8133 53.1777 9.94243 54.1074 9.29002C56.3342 7.84442 58.9707 7.13364 61.6353 7.26056C68.7169 7.26056 72.3598 10.0941 72.5638 15.7612L66.8179 16.0008C66.7533 15.3975 66.567 14.8129 66.2699 14.2812C65.9728 13.7496 65.5709 13.2817 65.0878 12.9048C64.6046 12.528 64.0499 12.2497 63.4562 12.0865C62.8624 11.9232 62.2415 11.8782 61.6299 11.954C58.6454 11.954 56.8048 12.8737 56.8048 14.6983C56.8189 15.0264 56.9024 15.3481 57.05 15.6427C57.1976 15.9372 57.4059 16.1983 57.6618 16.4091C59.3027 17.3818 61.1156 18.0404 63.0051 18.3502C67.7779 19.5631 70.7052 20.908 71.7871 22.385C72.8852 23.8983 73.4546 25.7214 73.4099 27.5805C73.4099 33.3502 69.6134 36.2395 62.0202 36.2485C54.8969 36.2172 50.9452 32.9999 50.1653 26.5965Z" fill="#00C2C5"/>
<path d="M99.1045 7.2993L92.1915 7.24609L80.4251 20.1253V7.24609H74.6339V36.2484H80.4183L80.34 28.2694L99.1045 7.2993Z" fill="#00C2C5"/>
<path d="M86.8691 23.9636L93.2391 36.2481H100.328L90.4672 19.3301L86.8691 23.9636Z" fill="#00C2C5"/>
<path d="M41.6048 16.5983V36.2482H46.4928L46.4098 10.8711C45.2674 13.2499 43.6071 15.2299 41.5987 16.6083L41.6048 16.5983Z" fill="#00C2C5"/>
<path d="M46.4933 7.24609H42.1517C41.451 8.8138 40.3773 10.215 39.0106 11.3455C37.6439 12.476 36.0194 13.3066 34.258 13.7756V18.122C38.694 16.4329 45.5962 12.2097 46.4933 7.24609Z" fill="#00C2C5"/>
<path d="M0 54.923C0.0315261 56.2507 0.985192 57.9998 3.75949 57.9998C5.9348 57.9998 7.62144 56.8947 7.62144 54.8674C7.62144 53.1502 6.52591 52.4346 4.78409 51.9576L3.11321 51.4965C1.94674 51.1864 1.36351 50.5981 1.36351 49.6282C1.36351 48.3562 2.3881 47.593 3.89348 47.593C5.59589 47.593 6.38404 48.5549 6.46286 49.5964H7.47958C7.44017 47.7043 5.81657 46.6628 3.91712 46.6628C1.97038 46.6628 0.338906 47.7758 0.338906 49.6918C0.338906 51.3137 1.47385 52.1166 2.80583 52.4823L4.524 52.9355C5.90327 53.3092 6.59684 53.8418 6.59684 54.9389C6.59684 56.2269 5.51707 57.0696 3.87771 57.0696C1.9625 57.0696 1.09553 55.9725 1.01672 54.923H0Z" fill="#00C2C5"/>
<path d="M12.4257 47.9905H13.2217L15.3655 45.3112H14.333L12.4257 47.9905ZM14.8769 56.2905H14.9399V57.7613H15.933V50.2165H16.067C17.3044 50.2165 17.9349 49.4295 17.9349 48.2051V47.267H17.0285V48.221C17.0285 48.9683 16.7133 49.4692 15.8778 49.4692H14.9399V54.6607C14.9399 55.885 13.9863 57.0219 12.5361 57.0219C11.3617 57.0219 10.5184 56.4018 10.5184 54.9787V49.4692H9.51743V55.2093C9.51743 57.1253 10.7154 57.8964 12.3311 57.8964C13.8365 57.8964 14.6325 57.006 14.8769 56.2905Z" fill="#00C2C5"/>
<path d="M18.5147 54.3029C18.5147 56.5608 19.8072 57.8964 21.8407 57.8964C23.9687 57.8964 24.8751 56.6562 24.946 55.5511H23.9608C23.8032 56.2666 23.2672 56.9583 21.8643 56.9583C20.4062 56.9583 19.4999 55.9804 19.4999 54.295V52.9593C19.4999 51.266 20.3668 50.2165 21.8407 50.2165C23.2751 50.2165 23.8111 51.1467 23.9214 51.7907H24.9066C24.8514 50.6299 23.8426 49.3341 21.8328 49.3341C19.8309 49.3341 18.5147 50.6776 18.5147 52.8878V54.3029Z" fill="#00C2C5"/>
<path d="M31.063 54.5414L31.993 53.6431L35.122 57.7613H36.3279L32.7181 52.9991L36.1466 49.4215H34.9644L31.1024 53.4046H31.063V46.3448H30.0699V57.7613H31.063V54.5414Z" fill="#00C2C5"/>
<path d="M37.751 57.7613H38.744V52.9911C38.744 51.4886 39.5637 50.2086 41.1637 50.2086C42.4562 50.2086 43.2208 51.0672 43.2208 52.4346V57.7613H44.2138V52.1484C44.2138 50.2881 43.0237 49.3341 41.4238 49.3341C39.7214 49.3341 38.9884 50.3755 38.7992 51.0354H38.744V46.3448H37.751V57.7613Z" fill="#00C2C5"/>
<path d="M49.6644 49.3341C47.7176 49.3341 46.228 50.6776 46.228 52.9593V54.2711C46.228 56.6244 47.7019 57.8964 49.6644 57.8964C51.6032 57.8964 53.1007 56.6085 53.1007 54.2711V52.9593C53.1007 50.6299 51.5954 49.3341 49.6644 49.3341ZM49.6644 50.2165C51.1146 50.2165 52.0998 51.3057 52.0998 53.0786V54.1598C52.0998 55.9645 51.1382 56.9981 49.6644 56.9981C48.1827 56.9981 47.2132 55.9566 47.2132 54.1598V53.0786C47.2132 51.3057 48.2221 50.2165 49.6644 50.2165ZM48.6083 46.4322C48.7659 46.3686 49.0575 46.2812 49.3885 46.2812C49.8614 46.2812 50.2161 46.5515 50.2161 46.9569C50.2161 47.2829 50.0033 47.5453 49.5068 47.8315L49.9087 48.3721C50.4525 48.062 50.9727 47.6566 50.9727 46.9251C50.9727 46.1142 50.3737 45.6134 49.4516 45.6134C49.0733 45.6134 48.7738 45.7008 48.6083 45.7724V46.4322Z" fill="#00C2C5"/>
<path d="M58.1493 57.8964C60.1512 57.8964 61.1049 56.6323 61.2231 55.7737H60.1749C60.0488 56.362 59.3473 56.9981 58.1493 56.9981C56.6203 56.9981 55.7612 55.9009 55.7612 54.287V53.8498H61.3414V53.0388C61.3414 50.7094 59.9778 49.3341 58.0547 49.3341C56.1238 49.3341 54.7682 50.7094 54.7682 53.0388V54.2393C54.7682 56.4892 56.0134 57.8964 58.1493 57.8964ZM55.7612 53.0547V52.9355C55.7612 51.266 56.6755 50.2165 58.0547 50.2165C59.434 50.2165 60.3404 51.266 60.3404 52.9355V53.0547H55.7612Z" fill="#00C2C5"/>
<path d="M66.6387 57.7613H67.6318V46.3448H66.6387V57.7613Z" fill="#00C2C5"/>
<path d="M72.3493 57.8964C73.7207 57.8964 74.4931 57.165 74.832 56.5528H74.8793V57.7613H75.8409V51.9735C75.8409 50.0973 74.5562 49.3341 72.9089 49.3341C71.1671 49.3341 70.111 50.1132 70.0006 51.3773H70.9701C71.1198 50.781 71.6242 50.2324 72.8616 50.2324C74.0596 50.2324 74.8399 50.781 74.8399 52.0212V52.9991H72.5148C70.6469 52.9991 69.6696 53.969 69.6696 55.3842C69.6696 56.9106 70.7573 57.8964 72.3493 57.8964ZM72.57 57.0219C71.5454 57.0219 70.7021 56.4415 70.7021 55.3603C70.7021 54.4937 71.238 53.8498 72.5306 53.8498H74.8399V54.9389C74.8399 56.1474 73.8389 57.0219 72.57 57.0219ZM73.6183 47.9905L71.7188 45.3112H70.6863L72.8301 47.9905H73.6183Z" fill="#00C2C5"/>
<path d="M81.0673 51.7191C81.0673 53.2615 82.2495 53.651 83.8179 54.0008C85.0001 54.2552 86.0169 54.4858 86.0169 55.5273C86.0169 56.4495 85.2523 57.0458 83.9046 57.0458C82.4623 57.0458 81.9263 56.37 81.8475 55.6306H80.8702C80.8702 56.9344 81.9579 57.8964 83.8731 57.8964C85.6543 57.8964 87.0021 57.0458 87.0021 55.416C87.0021 53.818 85.678 53.4364 84.1411 53.1184C83.0298 52.8798 82.0524 52.6493 82.0524 51.6237C82.0524 50.6776 82.8721 50.1688 83.9361 50.1688C85.2839 50.1688 85.8356 50.9718 85.8671 51.576H86.8129C86.8129 50.3914 85.8277 49.3341 83.9677 49.3341C82.4071 49.3341 81.0673 50.0973 81.0673 51.7191Z" fill="#00C2C5"/>
<path d="M89.3867 48.229H90.5532L91.9797 47.1159H92.0191L93.4299 48.229H94.557L92.4762 46.5435H91.5778L89.3867 48.229ZM93.4614 46.5594L93.9422 46.8933L96.417 44.707H95.2427L93.4614 46.5594ZM91.9876 49.3341C90.0409 49.3341 88.5512 50.6776 88.5512 52.9593V54.2711C88.5512 56.6244 90.0251 57.8964 91.9876 57.8964C93.9265 57.8964 95.4239 56.6085 95.4239 54.2711V52.9593C95.4239 50.6299 93.9186 49.3341 91.9876 49.3341ZM91.9876 50.2165C93.4378 50.2165 94.423 51.3057 94.423 53.0786V54.1598C94.423 55.9645 93.4614 56.9981 91.9876 56.9981C90.5059 56.9981 89.5364 55.9566 89.5364 54.1598V53.0786C89.5364 51.3057 90.5453 50.2165 91.9876 50.2165Z" fill="#00C2C5"/>
<path d="M104 57.7613V46.9331H103.007L100.39 48.8252V49.8985L102.952 48.0779H103.007V57.7613H104Z" fill="#00C2C5"/>
</svg>
