<svg width="72" height="72" viewBox="0 0 72 72" fill="none" xmlns="http://www.w3.org/2000/svg">
<path d="M51.786 47.8619L51.897 48.0334L52.0872 47.9587C57.1116 45.9846 62.5391 49.7196 62.5391 55.0898C62.5391 59.3135 59.1025 62.75 54.8789 62.75C48.0424 62.75 44.6391 54.4153 49.5165 49.6269L49.6622 49.4839L49.5512 49.3126L44.9975 42.2796L44.8656 42.0757L44.658 42.2018C41.4257 44.1637 37.5012 44.2393 34.2899 42.6568L34.0954 42.5609L33.973 42.7399L29.4807 49.3111L29.3714 49.4711L29.499 49.6168C32.9196 53.5257 30.1399 59.6914 24.9258 59.6914C21.5743 59.6914 18.8477 56.9647 18.8477 53.6133C18.8477 49.4054 23.0427 46.4646 26.9923 47.8975L27.1746 47.9637L27.284 47.8036L31.7763 41.2333L31.8984 41.0546L31.7391 40.9081C28.9602 38.3527 27.7266 34.5872 28.4257 30.9142L28.4705 30.6785L28.2369 30.624L24.1524 29.6711L23.954 29.6248L23.8686 29.8098C22.6545 32.4424 19.9925 34.2734 16.9102 34.2734C12.6865 34.2734 9.25 30.8369 9.25 26.6133C9.25 22.3896 12.6865 18.9531 16.9102 18.9531C21.1919 18.9531 24.6843 22.4902 24.5646 26.8264L24.559 27.0304L24.7577 27.0767L29.1635 28.1047L29.3528 28.1488L29.4423 27.9763C32.4582 22.1594 39.8161 20.3753 45.1247 23.9811L45.3053 24.1038L45.4512 23.9413L49.8368 19.0559L49.9679 18.9099L49.8572 18.7479C47.1174 14.7378 50.0011 9.25 54.8789 9.25C58.2304 9.25 60.957 11.9767 60.957 15.3281C60.957 19.8447 56.171 22.7936 52.1426 20.7526L51.9716 20.666L51.8436 20.8086L47.418 25.7385L47.2743 25.8986L47.4112 26.0646C50.8307 30.2101 50.6927 36.2344 47.0612 40.2222L46.9314 40.3647L47.0362 40.5264L51.786 47.8619ZM11.9141 26.6133C11.9141 29.3683 14.1551 31.6094 16.9102 31.6094C19.6652 31.6094 21.9062 29.3683 21.9062 26.6133C21.9062 23.8583 19.6652 21.6172 16.9102 21.6172C14.1551 21.6172 11.9141 23.8583 11.9141 26.6133ZM21.5117 53.6133C21.5117 55.4961 23.0429 57.0273 24.9258 57.0273C26.8086 57.0273 28.3398 55.4961 28.3398 53.6133C28.3398 51.7304 26.8086 50.1992 24.9258 50.1992C23.0429 50.1992 21.5117 51.7304 21.5117 53.6133ZM58.293 15.3281C58.293 13.4453 56.7617 11.9141 54.8789 11.9141C52.9961 11.9141 51.4648 13.4453 51.4648 15.3281C51.4648 17.211 52.9961 18.7422 54.8789 18.7422C56.7617 18.7422 58.293 17.211 58.293 15.3281ZM39.0586 24.7812C34.5588 24.7812 30.8984 28.4416 30.8984 32.9414C30.8984 37.4412 34.5588 41.1016 39.0586 41.1016C43.5584 41.1016 47.2188 37.4412 47.2188 32.9414C47.2188 28.4416 43.5584 24.7812 39.0586 24.7812ZM49.8828 55.0898C49.8828 57.8449 52.1239 60.0859 54.8789 60.0859C57.6339 60.0859 59.875 57.8449 59.875 55.0898C59.875 52.3348 57.6339 50.0938 54.8789 50.0938C52.1239 50.0938 49.8828 52.3348 49.8828 55.0898Z" fill="#00C2C5" stroke="white" stroke-width="0.5"/>
</svg>
