<svg width="28" height="28" viewBox="0 0 28 28" fill="none" xmlns="http://www.w3.org/2000/svg">
<rect width="28" height="28" rx="14" fill="#00C2C5"/>
<path d="M8.37473 19.4292C8.11601 19.4292 7.90605 19.2193 7.90605 18.9606C7.90605 18.7019 8.11601 18.4919 8.37473 18.4919H12.6044C12.575 18.1764 12.5713 17.8624 12.5919 17.5546H8.37473C8.11601 17.5546 7.90605 17.3446 7.90605 17.086C7.90605 16.8273 8.11601 16.6173 8.37473 16.6173H12.7363C13.1746 14.8374 14.5313 13.4685 16.3423 13.5945V8.33779C16.3423 8.07911 16.1323 7.86914 15.8736 7.86914H15.0925V8.65023C15.0925 9.42538 14.4617 10.0562 13.6864 10.0562H8.6872C7.91199 10.0562 7.28115 9.42538 7.28115 8.65023V7.86914H6.46878C6.21006 7.86914 6.00009 8.07911 6.00009 8.33779V20.5227C6.00009 20.7814 6.21006 20.9914 6.46878 20.9914H13.4281C13.1356 20.523 12.911 19.9938 12.7666 19.4292H8.37473V19.4292ZM8.37473 10.9935H12.1242C12.3829 10.9935 12.5929 11.2035 12.5929 11.4621C12.5929 11.7208 12.3829 11.9308 12.1242 11.9308H8.37473C8.11601 11.9308 7.90605 11.7208 7.90605 11.4621C7.90605 11.2035 8.11605 10.9935 8.37473 10.9935ZM8.37473 12.8681H13.9989C14.2576 12.8681 14.4676 13.0781 14.4676 13.3368C14.4676 13.5954 14.2576 13.8054 13.9989 13.8054H8.37473C8.11601 13.8054 7.90605 13.5954 7.90605 13.3368C7.90605 13.0781 8.11605 12.8681 8.37473 12.8681ZM8.37473 14.7427H12.1242C12.3829 14.7427 12.5929 14.9527 12.5929 15.2114C12.5929 15.4701 12.3829 15.68 12.1242 15.68H8.37473C8.11601 15.68 7.90605 15.4701 7.90605 15.2114C7.90605 14.9527 8.11605 14.7427 8.37473 14.7427Z" fill="white"/>
<path d="M8.68721 9.11985H13.6865C13.9453 9.11985 14.1552 8.91004 14.1552 8.6512V7.40149C14.1552 7.14268 13.9453 6.93283 13.6865 6.93283H12.5126C12.0709 5.68728 10.3033 5.68562 9.8611 6.93283H8.68721C8.42836 6.93283 8.21852 7.14264 8.21852 7.40149V8.65123C8.21852 8.91004 8.42836 9.11985 8.68721 9.11985Z" fill="white"/>
<path d="M18.1771 14.8687C18.2167 14.3549 18.3705 13.8416 18.6419 13.3169C18.7609 13.087 18.6709 12.8042 18.441 12.6853C18.2111 12.5664 17.9283 12.6564 17.8094 12.8862C17.4795 13.5239 17.2903 14.1693 17.2424 14.8153C15.2083 13.7228 13.1594 15.787 13.5669 18.6526C13.9329 21.2267 16.0648 22.7145 17.757 21.6405C19.4778 22.7327 21.5866 21.1874 21.9471 18.6526C22.3678 15.6942 20.2021 13.6756 18.1771 14.8687ZM17.2707 18.3721C17.3156 18.627 17.1455 18.87 16.8905 18.915C16.6356 18.9599 16.3925 18.7897 16.3476 18.5348L16.2662 18.0733C16.2213 17.8184 16.3915 17.5753 16.6464 17.5304C16.9013 17.4854 17.1444 17.6556 17.1893 17.9105L17.2707 18.3721ZM19.1461 18.5448C19.1012 18.7997 18.8581 18.9699 18.6032 18.9249C18.3483 18.88 18.178 18.6369 18.223 18.382L18.3044 17.9205C18.3493 17.6656 18.5924 17.4954 18.8473 17.5404C19.1022 17.5853 19.2724 17.8284 19.2275 18.0833L19.1461 18.5448Z" fill="white"/>
</svg>
