<svg width="22" height="22" viewBox="0 0 22 22" fill="none" xmlns="http://www.w3.org/2000/svg">
<path fill-rule="evenodd" clip-rule="evenodd" d="M9.36589 2.54102C9.2048 2.54102 9.07422 2.6716 9.07422 2.83268V4.69304C9.07422 5.17629 8.68247 5.56804 8.19922 5.56804C7.71597 5.56804 7.32422 5.17629 7.32422 4.69304L7.32422 2.83268C7.32422 1.7051 8.2383 0.791016 9.36589 0.791016L12.6326 0.791016C13.7601 0.791016 14.6742 1.7051 14.6742 2.83268V4.69304C14.6742 5.17629 14.2825 5.56804 13.7992 5.56804C13.316 5.56804 12.9242 5.17629 12.9242 4.69304V2.83268C12.9242 2.6716 12.7936 2.54102 12.6326 2.54102L9.36589 2.54102Z" fill="#BDBDBD"/>
<path fill-rule="evenodd" clip-rule="evenodd" d="M6.39062 4.69336C6.39062 4.21011 6.78238 3.81836 7.26562 3.81836L9.13229 3.81836C9.61554 3.81836 10.0073 4.21011 10.0073 4.69336C10.0073 5.17661 9.61554 5.56836 9.13229 5.56836L7.26562 5.56836C6.78238 5.56836 6.39062 5.17661 6.39062 4.69336Z" fill="#BDBDBD"/>
<path fill-rule="evenodd" clip-rule="evenodd" d="M11.9902 4.69336C11.9902 4.21011 12.382 3.81836 12.8652 3.81836L14.7319 3.81836C15.2152 3.81836 15.6069 4.21011 15.6069 4.69336C15.6069 5.17661 15.2152 5.56836 14.7319 5.56836H12.8652C12.382 5.56836 11.9902 5.17661 11.9902 4.69336Z" fill="#BDBDBD"/>
<path fill-rule="evenodd" clip-rule="evenodd" d="M19.7546 6.48861C19.6144 6.47799 19.4481 6.46559 19.2593 6.45183L18.1958 18.0771C18.0307 19.8623 16.5138 21.2074 14.7224 21.2074L6.89503 21.2074C5.06278 21.2074 3.52838 19.8016 3.41559 17.9727L2.7174 6.52377L2.71313 6.45375C2.53519 6.46674 2.37783 6.47849 2.24422 6.48861C2.082 6.50089 1.95482 6.51078 1.86836 6.51758L1.73687 6.52804C1.25521 6.56715 0.833044 6.20839 0.793928 5.72673C0.754813 5.24507 1.11424 4.82284 1.59591 4.78372L1.73115 4.77297C1.81918 4.76604 1.94804 4.75603 2.11207 4.74361C2.44009 4.71876 2.90888 4.68428 3.47294 4.64565C5.44682 4.51047 8.61819 4.32227 10.9994 4.32227C13.3806 4.32227 16.552 4.51047 18.5258 4.64565C19.0899 4.68428 19.5587 4.71876 19.8867 4.74361C20.0507 4.75603 20.1796 4.76604 20.2676 4.77297L20.4035 4.78378C20.8852 4.82289 21.244 5.24507 21.2049 5.72673C21.1657 6.20839 20.7432 6.56712 20.2615 6.528L20.1304 6.51758C20.044 6.51078 19.9168 6.50089 19.7546 6.48861ZM11.8744 9.7379C11.8744 9.25465 11.4827 8.8629 10.9994 8.8629C10.5162 8.8629 10.1244 9.25465 10.1244 9.7379L10.1244 15.792C10.1244 16.2752 10.5162 16.667 10.9994 16.667C11.4827 16.667 11.8744 16.2752 11.8744 15.792L11.8744 9.7379ZM7.26614 9.87184C7.74939 9.87184 8.14114 10.2636 8.14114 10.7468L8.14114 14.7829C8.14114 15.2661 7.74939 15.6579 7.26614 15.6579C6.7829 15.6579 6.39114 15.2661 6.39114 14.7829L6.39114 10.7468C6.39114 10.2636 6.78289 9.87184 7.26614 9.87184ZM15.6077 10.7468C15.6077 10.2636 15.2159 9.87184 14.7327 9.87184C14.2494 9.87184 13.8577 10.2636 13.8577 10.7468V14.7829C13.8577 15.2661 14.2494 15.6579 14.7327 15.6579C15.2159 15.6579 15.6077 15.2661 15.6077 14.7829V10.7468Z" fill="#BDBDBD"/>
</svg>
