<svg width="72" height="72" viewBox="0 0 72 72" fill="none" xmlns="http://www.w3.org/2000/svg">
<path d="M9.26208 27.2978C9.26493 27.3011 9.26746 27.3048 9.27041 27.3079C9.27083 27.3084 9.27115 27.3089 9.27157 27.3094L35.2177 55.9978C35.411 56.2115 35.704 56.345 35.9999 56.345C36.2949 56.345 36.5874 56.213 36.7822 55.9978L62.7283 27.3094C62.7287 27.309 62.729 27.3085 62.7295 27.3079C62.7324 27.3047 62.7348 27.3011 62.7378 27.2978C63.0758 26.9133 63.0847 26.3485 62.7779 25.9549C62.7749 25.9511 62.7727 25.9468 62.7696 25.943L54.3319 15.3958C54.1318 15.1457 53.8287 15 53.5083 15C49.2085 15 21.9902 15 18.4916 15C18.1712 15 17.8682 15.1457 17.668 15.3958L9.23023 25.943C9.22717 25.9468 9.22506 25.951 9.222 25.9549C8.91202 26.3526 8.92784 26.9176 9.26208 27.2978ZM30.2687 17.1094H41.7311L46.7937 25.5472H25.2061L30.2687 17.1094ZM24.9614 27.6566H47.0383L35.9998 52.6773L24.9614 27.6566ZM49.344 27.6566H59.57L39.605 49.7317L49.344 27.6566ZM22.6557 27.6566L32.3947 49.7317L12.4297 27.6566H22.6557ZM59.7515 25.5472H49.2536L44.191 17.1094H53.0013L59.7515 25.5472ZM18.9984 17.1094H27.8087L22.746 25.5472H12.2482L18.9984 17.1094Z" fill="#00C2C5"/>
</svg>
