<svg width="54" height="47" viewBox="0 0 54 47" fill="none" xmlns="http://www.w3.org/2000/svg">
<path d="M28.0059 29.7739L27.859 29.2645C27.5806 28.2989 27.3074 27.3519 27.038 26.418C26.3923 24.1797 25.7684 22.0172 25.1467 19.8557L25.1466 19.8555C24.9837 19.2873 24.8221 18.7168 24.673 18.1414C24.5686 17.7413 24.4414 17.3948 24.2438 17.1373C24.0544 16.8905 23.7936 16.7163 23.389 16.6691C22.9836 16.6219 22.6963 16.7314 22.4622 16.9276C22.2164 17.1337 22.0189 17.4442 21.8254 17.8178C21.3893 18.6633 20.9466 19.498 20.5048 20.3312C19.9394 21.3972 19.3753 22.4607 18.8281 23.5411L18.828 23.5413C18.6789 23.8349 18.5012 24.0622 18.2554 24.2102C18.01 24.358 17.726 24.4091 17.3986 24.4068L17.3984 24.4068C13.8856 24.3797 10.3729 24.3776 6.86045 24.4068C6.86032 24.4068 6.86019 24.4068 6.86006 24.4068L6.85798 24.1568L28.0059 29.7739ZM28.0059 29.7739L28.3055 29.3365C28.6002 28.9061 28.8868 28.4958 29.1646 28.0978C29.7923 27.1988 30.3759 26.363 30.9111 25.5019L30.9112 25.5018C31.1718 25.082 31.4594 24.8041 31.7918 24.6292C32.1255 24.4536 32.524 24.3716 33.0228 24.3755C35.4674 24.3951 37.9238 24.3942 40.3792 24.3934C42.6286 24.3927 44.8772 24.3919 47.1151 24.4068L47.1153 24.4068C47.5007 24.4091 47.8284 24.3474 48.1167 24.1872C48.4044 24.0273 48.6288 23.7827 48.8313 23.4617M28.0059 29.7739L48.8313 23.4617M48.8313 23.4617C53.1117 16.708 50.4108 7.70239 43.0992 4.4329C38.0854 2.19107 32.3206 3.2871 28.3818 7.22589C27.7832 7.8245 27.3855 8.05235 27.0331 8.05156C26.6801 8.05076 26.2804 7.82046 25.6784 7.21948L48.8313 23.4617ZM33.7547 27.0618C33.5035 27.0648 33.2542 27.1933 33.0559 27.337C32.8511 27.4853 32.6638 27.6769 32.5332 27.8597L32.5328 27.8603C31.2632 29.6486 30.04 31.4678 28.8208 33.2841C28.6098 33.598 28.3932 33.8361 28.1473 33.9812C27.9092 34.1216 27.6278 34.1842 27.2619 34.119L27.2616 34.1189C26.9185 34.0583 26.693 33.909 26.5274 33.7042C26.3554 33.4915 26.2383 33.2065 26.1413 32.861L25.9006 32.9285L26.1413 32.861C25.6273 31.0303 25.1007 29.2027 24.574 27.3751C24.4949 27.1006 24.4158 26.826 24.3368 26.5515L24.3367 26.5513C24.0898 25.6973 23.8397 24.8434 23.5771 23.9468C23.4043 23.357 23.2262 22.7486 23.0399 22.1095L22.8671 21.5166L22.5788 22.0628C22.3447 22.5062 22.1171 22.9303 21.8962 23.3419C21.4112 24.2454 20.9584 25.0892 20.5394 25.9472C20.3366 26.3625 20.0956 26.6376 19.808 26.8081C19.5201 26.9786 19.1614 27.0586 18.6983 27.0411C17.7932 27.0058 16.8825 27.0138 15.979 27.0217C15.5944 27.025 15.211 27.0284 14.83 27.0284H14.8195H14.809H14.7985H14.788H14.7775H14.767H14.7565H14.746H14.7355H14.725H14.7145H14.704H14.6935H14.683H14.6725H14.662H14.6515H14.641H14.6305H14.62H14.6095H14.599H14.5885H14.578H14.5675H14.557H14.5465H14.536H14.5255H14.515H14.5045H14.494H14.4835H14.473H14.4625H14.452H14.4415H14.431H14.4204H14.4099H14.3994H14.3889H14.3784H14.3679H14.3574H14.3469H14.3364H14.3259H14.3154H14.3048H14.2943H14.2838H14.2733H14.2628H14.2523H14.2418H14.2312H14.2207H14.2102H14.1997H14.1892H14.1787H14.1681H14.1576H14.1471H14.1366H14.126H14.1155H14.105H14.0945H14.0839H14.0734H14.0629H14.0524H14.0418H14.0313H14.0208H14.0102H13.9997H13.9892H13.9786H13.9681H13.9576H13.947H13.9365H13.926H13.9154H13.9049H13.8943H13.8838H13.8732H13.8627H13.8522H13.8416H13.8311H13.8205H13.81H13.7994H13.7889H13.7783H13.7678H13.7572H13.7466H13.7361H13.7255H13.715H13.7044H13.6938H13.6833H13.6727H13.6622H13.6516H13.641H13.6305H13.6199H13.6093H13.5987H13.5882H13.5776H13.567H13.5564H13.5459H13.5353H13.5247H13.5141H13.5035H13.4929H13.4824H13.4718H13.4612H13.4506H13.44H13.4294H13.4188H13.4082H13.3976H13.387H13.3764H13.3658H13.3552H13.3446H13.334H13.3234H13.3128H13.3022H13.2916H13.2809H13.2703H13.2597H13.2491H13.2385H13.2278H13.2172H13.2066H13.196H13.1853H13.1747H13.1641H13.1534H13.1428H13.1322H13.1215H13.1109H13.1003H13.0896H13.079H13.0683H13.0577H13.047H13.0364H13.0257H13.0151H13.0044H12.9937H12.9831H12.9724H12.9617H12.9511H12.9404H12.9297H12.9191H12.9084H12.8977H12.887H12.8764H12.8657H12.855H12.8443H12.8336H12.8229H12.8122H12.8015H12.7908H12.7801H12.7694H12.7587H12.748H12.7373H12.7266H12.7159H12.7052H12.6945H12.6838H12.673H12.6623H12.6516H12.6409H12.6301H12.6194H12.6087H12.5979H12.5872H12.5765H12.5657H12.555H12.5442H12.5335H12.5227H12.512H12.5012H12.4905H12.4797H12.469H12.4582H12.4474H12.4367H12.4259H12.4151H12.4043H12.3936H12.3828H12.372H12.3612H12.3504H12.3396H12.3288H12.318H12.3072H12.2964H12.2856H12.2748H12.264H12.2532H12.2424H12.2316H12.2208H12.2099H12.1991H12.1883H12.1775H12.1666H12.1558H12.145H12.1341H12.1233H12.1124H12.1016H12.0907H12.0799H12.069H12.0582H12.0473H12.0365H12.0256H12.0147H12.0038H11.993H11.9821H11.9712H11.9603H11.9494H11.9386H11.9277H11.9168H11.9059H11.895H11.8841H11.8732H11.8623H11.8513H11.8404H11.8295H11.8186H11.8077H11.7967H11.7858H11.7749H11.7639H11.753H11.7421H11.7311H11.7202H11.7092H11.6983H11.6873H11.6764H11.6654H11.6544H11.6435H11.6325H11.6215H11.6105H11.5996H11.5886H11.5776H11.5666H11.5556H11.5446H11.5336H11.5226H11.5116H11.5006H11.4896H11.4785H11.4675H11.4565H11.4455H11.4344H11.4234H11.4124H11.4013H11.3903H11.3792H11.3682H11.3571H11.3461H11.335H11.324H11.3129H11.3018H11.2908H11.2797H11.2686H11.2575H11.2464H11.2353H11.2242H11.2131H11.202H11.1909H11.1798H11.1687H11.1576H11.1465H11.1354H11.1242H11.1131H11.102H11.0908H11.0797H11.0685H11.0574H11.0462H11.0351H11.0239H11.0128H11.0016H10.9904H10.9793H10.9681H10.9569H10.9457H10.9345H10.9233H10.9121H10.9009H10.8897H10.8785H10.8673H10.8561H10.8449H10.8336H10.8224H10.8112H10.8H10.7887H10.7775H10.7662H10.755H10.7437H10.7325H10.7212H10.7099H10.6987H10.6874H10.6761H10.6648H10.6535H10.6423H10.631H10.6197H10.6084H10.597H10.5857H10.5744H10.5631H10.5518H10.5405H10.5291H10.5178H10.5064H10.4951H10.4838H10.4724H10.461H10.4497H10.4383H10.427H10.4156H10.4042H10.3928H10.3814H10.37H10.3586H10.3472H10.3358H10.3244H10.313H10.3016H10.2902H10.2788H10.2673H10.2559H10.2445H10.233H10.2216H10.2101H10.1987H10.1872H10.1757H10.1643H10.1528H10.1413H10.1298H10.1184H10.1069H10.0954H10.0839H10.0724H10.0608H10.0493H10.0378H10.0263H10.0148H10.0032H9.99169H9.98015H9.9686H9.95705H9.9455H9.93394H9.92237H9.9108H9.89923H9.88765H9.87606H9.86448H9.85288H9.84128H9.82968H9.81807H9.80646H9.79484H9.78322H9.77159H9.75996H9.74833H9.73668H9.72504H9.71339H9.70173H9.69007H9.6784H9.66673H9.65506H9.64338H9.63169H9.62H9.6083H9.5966H9.5849H9.57319H9.56147H9.54975H9.53803H9.5263H9.51456H9.50282H9.49108H9.47933H9.46757H9.45581H9.44404H9.43227H9.4205H9.40872H9.39693H9.38514H9.37334H9.36154H9.34973H9.33792H9.3261H9.31428H9.30245H9.29062H9.27878H9.26694H9.25509H9.24323H9.23137H9.21951H8.63628L9.03845 27.4508C9.16394 27.5826 9.27097 27.6979 9.36654 27.8008C9.5463 27.9945 9.68555 28.1445 9.83092 28.2786C15.0133 33.0705 20.1957 37.8604 25.3844 42.6461C25.7287 42.9639 26.0138 43.2155 26.2678 43.3863C26.524 43.5584 26.7743 43.6663 27.0473 43.6624C27.319 43.6585 27.5701 43.5445 27.8293 43.3669C28.0874 43.1901 28.3796 42.9316 28.7343 42.6044L28.7344 42.6044C30.6702 40.8181 32.605 39.0311 34.5398 37.2441C37.764 34.2662 40.988 31.2885 44.2162 28.3147C44.311 28.2278 44.4232 28.1507 44.5512 28.0703C44.5923 28.0445 44.637 28.0173 44.6832 27.9891C44.7724 27.9346 44.8676 27.8765 44.9548 27.8181L45.1667 27.6763L45.0208 27.4673C44.9973 27.4338 44.9743 27.4009 44.9515 27.3685C44.8975 27.2915 44.845 27.2167 44.7929 27.14L44.7185 27.0305H44.5861C43.8131 27.0305 43.0399 27.0296 42.2665 27.0288C39.4299 27.0256 36.5915 27.0224 33.7547 27.0618ZM33.7547 27.0618L33.7577 27.3118M33.7547 27.0618C33.7546 27.0618 33.7544 27.0618 33.7542 27.0618L33.7577 27.3118M33.7577 27.3118C36.5926 27.2724 39.4287 27.2756 42.2651 27.2788C43.0388 27.2796 43.8124 27.2805 44.5861 27.2805L27.2181 34.3651C28.0616 34.5154 28.5878 34.079 29.0284 33.4234C30.2478 31.6068 31.4693 29.7903 32.7367 28.005C32.9664 27.6835 33.409 27.316 33.7577 27.3118ZM26.8748 4.68483L27.0376 4.82269L27.1993 4.6837C29.5525 2.66204 32.1948 1.40379 35.2013 0.858461L35.2014 0.858437C43.6347 -0.675822 52.1975 5.53961 53.3229 14.0461L53.3229 14.0462C54.0619 19.6201 52.362 24.3255 48.2679 28.1438L48.2679 28.1438C43.4404 32.6473 38.5832 37.1196 33.726 41.5919C32.5441 42.6802 31.3622 43.7685 30.1807 44.8572L30.1806 44.8573C29.0942 45.8593 28.0492 46.3307 27.0286 46.3273C26.0076 46.3239 24.9594 45.8452 23.8671 44.8385C22.2344 43.3323 20.5996 41.829 18.9648 40.3258C14.5563 36.2721 10.149 32.2195 5.78906 28.1153L5.78898 28.1152C1.04684 23.6553 -0.609704 18.1645 1.25318 11.9343C3.11466 5.71219 7.48124 1.96472 13.8969 0.869348L13.897 0.86934C18.7137 0.0460151 23.0319 1.42944 26.8748 4.68483Z" fill="white" stroke="white" stroke-width="0.5"/>
</svg>
