<svg width="40" height="40" viewBox="0 0 40 40" fill="none" xmlns="http://www.w3.org/2000/svg">
<path d="M39.5 20C39.5 30.7696 30.7696 39.5 20 39.5C9.23045 39.5 0.5 30.7696 0.5 20C0.5 9.23045 9.23045 0.5 20 0.5C30.7696 0.5 39.5 9.23045 39.5 20Z" stroke="#CED4DA"/>
<path d="M32.0008 20.2728C32.0018 19.4551 31.9313 18.6388 31.7899 17.8329H20.2432V22.4544H26.8566C26.7213 23.1925 26.4349 23.8961 26.0146 24.5228C25.5943 25.1495 25.0489 25.6863 24.4112 26.1009V29.1008H28.3582C30.6693 27.0125 32.0008 23.9243 32.0008 20.2728Z" fill="#4285F4"/>
<path d="M20.2414 31.9998C23.5456 31.9998 26.3277 30.9365 28.3565 29.1033L24.4095 26.1034C23.311 26.8334 21.8961 27.25 20.2414 27.25C17.0478 27.25 14.3371 25.1401 13.3678 22.2969H9.30176V25.3884C10.3208 27.3758 11.8835 29.0465 13.8153 30.214C15.747 31.3814 17.9719 31.9997 20.2414 31.9998Z" fill="#34A853"/>
<path d="M13.3698 22.2959C12.8574 20.806 12.8574 19.1926 13.3698 17.7028V14.6112H9.30377C8.44648 16.2831 8 18.1282 8 19.9993C8 21.8704 8.44648 23.7156 9.30377 25.3874L13.3698 22.2959Z" fill="#FBBC04"/>
<path d="M20.2414 12.7506C21.9876 12.7226 23.6748 13.3692 24.9384 14.5505L28.433 11.1257C26.2171 9.08587 23.2814 7.96599 20.2414 8.00079C17.9719 8.00089 15.7471 8.61919 13.8153 9.78665C11.8835 10.9541 10.3208 12.6248 9.30176 14.6122L13.3678 17.7037C14.3371 14.8605 17.0478 12.7506 20.2414 12.7506Z" fill="#EA4335"/>
</svg>
