<svg width="118" height="35" viewBox="0 0 118 35" fill="none" xmlns="http://www.w3.org/2000/svg">
<g id="Appstore">
<path id="Vector" d="M116.848 30.1526C116.848 31.9526 115.355 33.4148 113.51 33.4148H4.40001C2.55501 33.4148 1.0625 31.9526 1.0625 30.1526V4.13477C1.0625 2.33477 2.55501 0.865234 4.40001 0.865234H113.51C115.355 0.865234 116.848 2.32727 116.848 4.13477V30.1526Z" fill="black"/>
<path id="Vector_2" d="M113.165 0.909912C115.175 0.909912 116.81 2.50026 116.81 4.45776V29.8303C116.81 31.7878 115.175 33.3774 113.165 33.3774H4.75248C2.74248 33.3774 1.10747 31.7878 1.10747 29.8303V4.45776C1.10747 2.50026 2.74248 0.909912 4.75248 0.909912H113.165ZM113.165 0.235352H4.75248C2.36748 0.235352 0.41748 2.14009 0.41748 4.46509V29.8376C0.41748 32.1626 2.36748 34.0674 4.75248 34.0674H113.165C115.55 34.0674 117.5 32.1626 117.5 29.8376V4.46509C117.5 2.13259 115.55 0.235352 113.165 0.235352Z" fill="#A6A6A6"/>
<path id="Vector_3" d="M26.54 16.96C26.5175 14.2375 28.8275 12.9096 28.9325 12.8496C27.62 10.9896 25.5875 10.7349 24.875 10.7124C23.1725 10.5399 21.515 11.71 20.645 11.71C19.76 11.71 18.4175 10.7346 16.9775 10.7571C15.125 10.7871 13.385 11.83 12.4325 13.4575C10.4675 16.7725 11.93 21.6475 13.8125 24.3325C14.7575 25.645 15.8525 27.1148 17.2925 27.0623C18.7025 27.0023 19.2275 26.1848 20.93 26.1848C22.6175 26.1848 23.1125 27.0624 24.5825 27.0249C26.0975 27.0024 27.05 25.7047 27.9575 24.3772C29.045 22.8697 29.48 21.3922 29.5025 21.3172C29.4725 21.3097 26.57 20.23 26.54 16.96Z" fill="white"/>
<path id="Vector_4" d="M23.7649 8.94971C24.5224 8.02721 25.0399 6.76768 24.8974 5.49268C23.8024 5.53768 22.4299 6.23477 21.6349 7.13477C20.9374 7.92977 20.3149 9.23509 20.4724 10.4651C21.7099 10.5551 22.9774 9.85721 23.7649 8.94971Z" fill="white"/>
<path id="Vector_5" d="M46.9399 26.875H44.9674L43.8874 23.5674H40.1374L39.1099 26.875H37.1899L40.9024 15.625H43.1974L46.9399 26.875ZM43.5649 22.1802L42.5899 19.2402C42.4849 18.9402 42.2899 18.2352 42.0049 17.1177H41.9674C41.8549 17.5977 41.6674 18.3027 41.4199 19.2402L40.4599 22.1802H43.5649Z" fill="white"/>
<path id="Vector_6" d="M56.495 22.7126C56.495 24.0926 56.1125 25.1797 55.3475 25.9822C54.665 26.6947 53.81 27.0552 52.7975 27.0552C51.7025 27.0552 50.915 26.6726 50.435 25.9001H50.3975V30.1753H48.545V21.4229C48.545 20.5529 48.5225 19.6674 48.4775 18.7524H50.105L50.21 20.0349H50.2475C50.8625 19.0674 51.8 18.5803 53.0525 18.5803C54.035 18.5803 54.8525 18.9551 55.5125 19.7126C56.165 20.4851 56.495 21.4826 56.495 22.7126ZM54.6125 22.78C54.6125 21.9925 54.4325 21.3403 54.065 20.8303C53.6675 20.2978 53.1275 20.0276 52.4525 20.0276C51.995 20.0276 51.5825 20.1775 51.215 20.47C50.8475 20.77 50.6 21.1523 50.4875 21.6323C50.4275 21.8573 50.405 22.0377 50.405 22.1802V23.53C50.405 24.1225 50.5925 24.6177 50.96 25.0227C51.3275 25.4277 51.815 25.6299 52.4075 25.6299C53.105 25.6299 53.645 25.3675 54.035 24.8425C54.4175 24.325 54.6125 23.635 54.6125 22.78Z" fill="white"/>
<path id="Vector_7" d="M66.0649 22.7126C66.0649 24.0926 65.6824 25.1797 64.9174 25.9822C64.2349 26.6947 63.3798 27.0552 62.3673 27.0552C61.2723 27.0552 60.4849 26.6726 60.0049 25.9001H59.9674V30.1753H58.1149V21.4229C58.1149 20.5529 58.0924 19.6674 58.0474 18.7524H59.6749L59.7799 20.0349H59.8174C60.4324 19.0674 61.3698 18.5803 62.6223 18.5803C63.6048 18.5803 64.4223 18.9551 65.0823 19.7126C65.7423 20.4851 66.0649 21.4826 66.0649 22.7126ZM64.1824 22.78C64.1824 21.9925 64.0023 21.3403 63.6348 20.8303C63.2373 20.2978 62.6974 20.0276 62.0224 20.0276C61.5649 20.0276 61.1524 20.1775 60.7774 20.47C60.4099 20.77 60.1624 21.1523 60.0499 21.6323C59.9899 21.8573 59.9674 22.0377 59.9674 22.1802V23.53C59.9674 24.1225 60.1549 24.6177 60.5224 25.0227C60.8899 25.4277 61.3773 25.6299 61.9698 25.6299C62.6673 25.6299 63.2074 25.3675 63.5974 24.8425C63.9874 24.325 64.1824 23.635 64.1824 22.78Z" fill="white"/>
<path id="Vector_8" d="M76.7675 23.7175C76.7675 24.6775 76.43 25.4501 75.74 26.0576C74.99 26.7176 73.94 27.0398 72.5975 27.0398C71.3525 27.0398 70.3625 26.8075 69.605 26.3425L70.0325 24.8425C70.8425 25.3225 71.735 25.5625 72.7025 25.5625C73.4 25.5625 73.94 25.4047 74.33 25.1047C74.72 24.7972 74.9075 24.385 74.9075 23.875C74.9075 23.4175 74.75 23.035 74.4275 22.72C74.1125 22.405 73.58 22.1199 72.8375 21.8499C70.82 21.1149 69.8075 20.035 69.8075 18.625C69.8075 17.7025 70.16 16.9373 70.8725 16.3523C71.5775 15.7598 72.5225 15.4675 73.7 15.4675C74.75 15.4675 75.62 15.6475 76.3175 16L75.8525 17.47C75.2 17.125 74.465 16.9521 73.64 16.9521C72.9875 16.9521 72.4775 17.1097 72.1175 17.4172C71.81 17.6947 71.6525 18.0325 71.6525 18.4375C71.6525 18.88 71.825 19.2473 72.185 19.5398C72.4925 19.8098 73.055 20.0949 73.865 20.4099C74.855 20.7999 75.59 21.2575 76.055 21.7825C76.535 22.285 76.7675 22.9375 76.7675 23.7175Z" fill="white"/>
<path id="Vector_9" d="M82.8875 20.1104H80.8475V24.0479C80.8475 25.0529 81.2075 25.5479 81.9275 25.5479C82.2575 25.5479 82.535 25.5176 82.7525 25.4651L82.8049 26.8376C82.4374 26.9726 81.9575 27.0398 81.365 27.0398C80.6375 27.0398 80.0675 26.8222 79.655 26.3872C79.2425 25.9522 79.0399 25.2248 79.0399 24.1973V20.1104H77.825V18.7598H79.0399V17.2751L80.855 16.7427V18.7598H82.8949V20.1104H82.8875Z" fill="white"/>
<path id="Vector_10" d="M92.0824 22.75C92.0824 23.995 91.715 25.0222 90.9875 25.8247C90.2225 26.6497 89.2024 27.0625 87.9349 27.0625C86.7124 27.0625 85.7449 26.6649 85.0174 25.8774C84.2899 25.0899 83.9299 24.0928 83.9299 22.8928C83.9299 21.6328 84.3049 20.6052 85.0549 19.8027C85.8049 19.0002 86.8099 18.6023 88.0774 18.6023C89.2999 18.6023 90.2824 18.9999 91.0249 19.7874C91.7224 20.5449 92.0824 21.535 92.0824 22.75ZM90.1624 22.8101C90.1624 22.0601 89.9974 21.4223 89.6674 20.8823C89.2775 20.2373 88.7224 19.9148 88.0099 19.9148C87.2674 19.9148 86.7049 20.2373 86.3149 20.8823C85.9849 21.4148 85.8199 22.0676 85.8199 22.8401C85.8199 23.5901 85.9849 24.2278 86.3149 24.7678C86.7124 25.4128 87.2749 25.7354 87.9949 25.7354C88.6999 25.7354 89.2549 25.4051 89.6524 24.7451C89.9899 24.2051 90.1624 23.5526 90.1624 22.8101Z" fill="white"/>
<path id="Vector_11" d="M98.09 20.3425C97.91 20.3125 97.715 20.2898 97.505 20.2898C96.8525 20.2898 96.35 20.5298 95.9975 21.0098C95.69 21.4298 95.5325 21.9702 95.5325 22.6152V26.875H93.6875L93.7025 21.3174C93.7025 20.3799 93.68 19.5323 93.635 18.7598H95.2475L95.315 20.3125H95.3675C95.5625 19.78 95.87 19.3525 96.29 19.03C96.7025 18.7375 97.145 18.595 97.625 18.595C97.7975 18.595 97.9475 18.61 98.09 18.625V20.3425Z" fill="white"/>
<path id="Vector_12" d="M106.363 22.4277C106.363 22.7502 106.34 23.0201 106.295 23.2451H100.745C100.768 24.0476 101.038 24.6628 101.548 25.0828C102.013 25.4578 102.62 25.6526 103.363 25.6526C104.188 25.6526 104.93 25.5253 105.605 25.2703L105.898 26.5227C105.11 26.8602 104.18 27.0251 103.108 27.0251C101.818 27.0251 100.805 26.6573 100.07 25.9148C99.3351 25.1723 98.9675 24.1825 98.9675 22.9375C98.9675 21.715 99.3125 20.6948 99.995 19.8848C100.715 19.0148 101.683 18.5876 102.905 18.5876C104.105 18.5876 105.013 19.0223 105.628 19.8848C106.115 20.5673 106.363 21.4152 106.363 22.4277ZM104.6 21.9626C104.615 21.4301 104.495 20.9647 104.24 20.5747C103.918 20.0722 103.43 19.8247 102.77 19.8247C102.163 19.8247 101.675 20.0726 101.3 20.5601C100.993 20.9501 100.813 21.4151 100.753 21.9626H104.6Z" fill="white"/>
<path id="Vector_13" d="M42.9575 8.69482C42.9575 9.69232 42.6501 10.4423 42.0426 10.9448C41.4726 11.4098 40.6701 11.6428 39.6276 11.6428C39.1101 11.6428 38.6675 11.6197 38.3 11.5747V6.13721C38.78 6.06221 39.305 6.02515 39.8675 6.02515C40.8575 6.02515 41.6075 6.23503 42.1175 6.65503C42.6725 7.12753 42.9575 7.80982 42.9575 8.69482ZM41.9975 8.71753C41.9975 8.07253 41.8251 7.57718 41.4726 7.23218C41.1201 6.88718 40.61 6.71509 39.935 6.71509C39.65 6.71509 39.4026 6.73765 39.2001 6.77515V10.9075C39.3126 10.9225 39.5151 10.9302 39.8151 10.9302C40.5126 10.9302 41.0451 10.7427 41.4276 10.3677C41.8026 9.99268 41.9975 9.44503 41.9975 8.71753Z" fill="white"/>
<path id="Vector_14" d="M48.035 9.56494C48.035 10.1799 47.855 10.6823 47.495 11.0723C47.12 11.4773 46.6175 11.6802 45.995 11.6802C45.395 11.6802 44.915 11.485 44.5625 11.095C44.21 10.705 44.03 10.2175 44.03 9.625C44.03 9.01 44.21 8.50035 44.5775 8.11035C44.945 7.72035 45.44 7.51782 46.0625 7.51782C46.6625 7.51782 47.1425 7.71229 47.51 8.10229C47.8625 8.48479 48.035 8.97244 48.035 9.56494ZM47.09 9.59497C47.09 9.22747 47.0075 8.91265 46.85 8.65015C46.6625 8.33515 46.385 8.16968 46.0325 8.16968C45.665 8.16968 45.3875 8.32765 45.2 8.65015C45.035 8.91265 44.96 9.23535 44.96 9.61035C44.96 9.97785 45.0425 10.2927 45.2 10.5552C45.395 10.8702 45.6725 11.0349 46.025 11.0349C46.37 11.0349 46.6475 10.8704 46.8425 10.5479C47.0075 10.2779 47.09 9.96247 47.09 9.59497Z" fill="white"/>
<path id="Vector_15" d="M54.8525 7.60718L53.57 11.5974H52.7375L52.205 9.86523C52.07 9.43023 51.965 9.00221 51.875 8.57471H51.86C51.7775 9.00971 51.6725 9.44523 51.53 9.86523L50.9675 11.5974H50.1275L48.9275 7.60718H49.865L50.33 9.50488C50.4425 9.95488 50.5325 10.3824 50.6075 10.7874H50.6225C50.69 10.4574 50.8025 10.0297 50.96 9.51221L51.5375 7.60718H52.28L52.835 9.46753C52.97 9.92503 53.075 10.36 53.165 10.78H53.1875C53.2475 10.3675 53.345 9.93253 53.465 9.46753L53.96 7.60718H54.8525Z" fill="white"/>
<path id="Vector_16" d="M59.5625 11.5901H58.655V9.31006C58.655 8.60506 58.3775 8.25244 57.83 8.25244C57.56 8.25244 57.3425 8.34968 57.17 8.54468C57.005 8.73968 56.915 8.96479 56.915 9.22729V11.5901H56.0075V8.74023C56.0075 8.38773 55.9925 8.01235 55.9775 7.59985H56.78L56.825 8.22241H56.8475C56.9525 8.02741 57.11 7.87018 57.32 7.74268C57.5675 7.59268 57.845 7.51782 58.145 7.51782C58.5275 7.51782 58.8425 7.63744 59.0975 7.87744C59.4125 8.16994 59.57 8.61227 59.57 9.19727V11.5901H59.5625Z" fill="white"/>
<path id="Vector_17" d="M62.0674 11.5901H61.1599V5.77759H62.0674V11.5901Z" fill="white"/>
<path id="Vector_18" d="M67.4225 9.56494C67.4225 10.1799 67.2425 10.6823 66.8825 11.0723C66.5075 11.4773 66.005 11.6802 65.3825 11.6802C64.7825 11.6802 64.3025 11.485 63.95 11.095C63.5975 10.705 63.4175 10.2175 63.4175 9.625C63.4175 9.01 63.5975 8.50035 63.965 8.11035C64.3325 7.72035 64.8275 7.51782 65.45 7.51782C66.05 7.51782 66.53 7.71229 66.8975 8.10229C67.2425 8.48479 67.4225 8.97244 67.4225 9.56494ZM66.4775 9.59497C66.4775 9.22747 66.395 8.91265 66.23 8.65015C66.0425 8.33515 65.765 8.16968 65.4125 8.16968C65.045 8.16968 64.7675 8.32765 64.58 8.65015C64.415 8.91265 64.34 9.23535 64.34 9.61035C64.34 9.97785 64.4225 10.2927 64.58 10.5552C64.775 10.8702 65.0525 11.0349 65.405 11.0349C65.75 11.0349 66.02 10.8704 66.2225 10.5479C66.395 10.2779 66.4775 9.96247 66.4775 9.59497Z" fill="white"/>
<path id="Vector_19" d="M71.8173 11.5901H70.9998L70.9324 11.1323H70.9099C70.6324 11.4998 70.2349 11.6802 69.7174 11.6802C69.3349 11.6802 69.0198 11.5598 68.7873 11.3198C68.5773 11.1023 68.4648 10.8323 68.4648 10.5098C68.4648 10.0223 68.6748 9.65532 69.0948 9.39282C69.5148 9.13782 70.0998 9.01032 70.8573 9.01782V8.94238C70.8573 8.41738 70.5723 8.15503 70.0098 8.15503C69.6048 8.15503 69.2524 8.25227 68.9449 8.44727L68.7574 7.86279C69.1399 7.63029 69.6049 7.51782 70.1599 7.51782C71.2249 7.51782 71.7648 8.06474 71.7648 9.16724V10.6372C71.7573 11.0347 71.7798 11.3576 71.8173 11.5901ZM70.8723 10.2175V9.60229C69.8673 9.58729 69.3649 9.85003 69.3649 10.405C69.3649 10.615 69.4248 10.7651 69.5373 10.8701C69.6573 10.9751 69.7999 11.0276 69.9799 11.0276C70.1824 11.0276 70.3699 10.9676 70.5349 10.8401C70.7074 10.7201 70.8123 10.5627 70.8498 10.3677C70.8723 10.3302 70.8723 10.2775 70.8723 10.2175Z" fill="white"/>
<path id="Vector_20" d="M76.9849 11.5901H76.1749L76.1299 10.9521H76.1074C75.8524 11.4396 75.4099 11.6802 74.7949 11.6802C74.2999 11.6802 73.8949 11.4927 73.5649 11.1177C73.2349 10.7427 73.0774 10.2477 73.0774 9.64771C73.0774 9.00271 73.2574 8.47782 73.6099 8.08032C73.9549 7.70532 74.3749 7.52515 74.8699 7.52515C75.4174 7.52515 75.7999 7.70494 76.0249 8.06494H76.0399V5.77759H76.9474V10.5178C76.9549 10.9078 76.9624 11.2601 76.9849 11.5901ZM76.0399 9.90991V9.24268C76.0399 9.13018 76.0324 9.03259 76.0174 8.96509C75.9649 8.75509 75.8524 8.57529 75.6874 8.42529C75.5149 8.28279 75.3124 8.20776 75.0799 8.20776C74.7424 8.20776 74.4724 8.33474 74.2774 8.60474C74.0824 8.86724 73.9849 9.20518 73.9849 9.61768C73.9849 10.0152 74.0749 10.3296 74.2624 10.5771C74.4574 10.8396 74.7274 10.9675 75.0574 10.9675C75.3574 10.9675 75.5974 10.8547 75.7774 10.6372C75.9574 10.4347 76.0399 10.1949 76.0399 9.90991Z" fill="white"/>
<path id="Vector_21" d="M84.755 9.56494C84.755 10.1799 84.575 10.6823 84.215 11.0723C83.84 11.4773 83.3375 11.6802 82.715 11.6802C82.115 11.6802 81.635 11.485 81.2825 11.095C80.93 10.705 80.75 10.2175 80.75 9.625C80.75 9.01 80.93 8.50035 81.2975 8.11035C81.665 7.72035 82.16 7.51782 82.7825 7.51782C83.3825 7.51782 83.8625 7.71229 84.23 8.10229C84.5825 8.48479 84.755 8.97244 84.755 9.56494ZM83.8175 9.59497C83.8175 9.22747 83.735 8.91265 83.57 8.65015C83.3825 8.33515 83.105 8.16968 82.7525 8.16968C82.385 8.16968 82.1075 8.32765 81.92 8.65015C81.755 8.91265 81.68 9.23535 81.68 9.61035C81.68 9.97785 81.7625 10.2927 81.92 10.5552C82.115 10.8702 82.3925 11.0349 82.745 11.0349C83.09 11.0349 83.3675 10.8704 83.5625 10.5479C83.7275 10.2779 83.8175 9.96247 83.8175 9.59497Z" fill="white"/>
<path id="Vector_22" d="M89.6449 11.5901H88.7374V9.31006C88.7374 8.60506 88.4599 8.25244 87.9124 8.25244C87.6424 8.25244 87.4249 8.34968 87.2599 8.54468C87.0949 8.73968 87.0049 8.96479 87.0049 9.22729V11.5901H86.0974V8.74023C86.0974 8.38773 86.0899 8.01235 86.0674 7.59985H86.8624L86.9074 8.22241H86.9299C87.0349 8.02741 87.1924 7.87018 87.4024 7.74268C87.6499 7.59268 87.9274 7.51782 88.2274 7.51782C88.6099 7.51782 88.9249 7.63744 89.1799 7.87744C89.4949 8.16994 89.6524 8.61227 89.6524 9.19727V11.5901H89.6449Z" fill="white"/>
<path id="Vector_23" d="M95.7649 8.26782H94.7674V10.2021C94.7674 10.6971 94.9474 10.9375 95.2999 10.9375C95.4649 10.9375 95.5999 10.9226 95.7049 10.9001L95.7274 11.5747C95.5474 11.6422 95.3149 11.6729 95.0224 11.6729C94.6624 11.6729 94.3849 11.5674 94.1824 11.3499C93.9799 11.1399 93.8749 10.7801 93.8749 10.2776V8.26782H93.2749V7.59985H93.8749V6.87256L94.7674 6.61035V7.59985H95.7649V8.26782Z" fill="white"/>
<path id="Vector_24" d="M100.573 11.5901H99.6651V9.32471C99.6651 8.61221 99.3876 8.25244 98.8401 8.25244C98.4201 8.25244 98.1276 8.4625 97.9701 8.875C97.9401 8.965 97.9251 9.06977 97.9251 9.19727V11.5974H97.0176V5.78491H97.9251V8.18506H97.9401C98.2251 7.75006 98.6376 7.53247 99.1701 7.53247C99.5451 7.53247 99.8601 7.65282 100.108 7.89282C100.415 8.19282 100.573 8.64229 100.573 9.22729V11.5901Z" fill="white"/>
<path id="Vector_25" d="M105.537 9.40747C105.537 9.56497 105.522 9.7 105.5 9.8125H102.777C102.792 10.21 102.92 10.5026 103.175 10.7126C103.407 10.9001 103.7 10.9902 104.067 10.9902C104.472 10.9902 104.84 10.9302 105.17 10.8027L105.312 11.4172C104.922 11.5822 104.465 11.6648 103.94 11.6648C103.31 11.6648 102.807 11.4852 102.447 11.1177C102.087 10.7502 101.907 10.2625 101.907 9.65503C101.907 9.05503 102.072 8.55253 102.41 8.15503C102.762 7.72753 103.235 7.51782 103.842 7.51782C104.427 7.51782 104.877 7.72753 105.177 8.15503C105.417 8.49253 105.537 8.91247 105.537 9.40747ZM104.667 9.18262C104.675 8.92012 104.615 8.695 104.487 8.5C104.33 8.2525 104.09 8.13232 103.767 8.13232C103.467 8.13232 103.227 8.25268 103.047 8.49268C102.897 8.68768 102.807 8.91262 102.777 9.18262H104.667Z" fill="white"/>
</g>
</svg>
