<svg width="83" height="83" viewBox="0 0 83 83" fill="none" xmlns="http://www.w3.org/2000/svg">
<g id="Group">
<path id="Vector" d="M41.2576 82.6125C64.0393 82.6125 82.5076 64.1443 82.5076 41.3625C82.5076 18.5808 64.0393 0.112549 41.2576 0.112549C18.4758 0.112549 0.00756836 18.5808 0.00756836 41.3625C0.00756836 64.1443 18.4758 82.6125 41.2576 82.6125Z" fill="#FFE443"/>
<path id="Vector_2" d="M50.6326 37.6721H31.8826C29.2951 37.6721 27.1951 39.7721 27.1951 42.3596V56.4221C27.1951 59.0096 29.2951 61.1096 31.8826 61.1096H50.6326C53.2201 61.1096 55.3201 59.0096 55.3201 56.4221V42.3596C55.3201 39.7721 53.2201 37.6721 50.6326 37.6721Z" stroke="black" stroke-width="4" stroke-linecap="round" stroke-linejoin="round"/>
<path id="Vector_3" d="M41.2576 23.6096C38.7751 23.6096 36.3826 24.5997 34.6276 26.3547C32.8726 28.1172 31.8826 30.4946 31.8826 32.9846V37.6721H50.6326V32.9846C50.6326 30.4946 49.6426 28.1097 47.8876 26.3547C46.1326 24.5997 43.7476 23.6096 41.2576 23.6096Z" stroke="black" stroke-width="4" stroke-linecap="round" stroke-linejoin="round"/>
</g>
</svg>
