<svg width="118" height="35" viewBox="0 0 118 35" fill="none" xmlns="http://www.w3.org/2000/svg">
<g id="CHplay">
<path id="Vector" d="M113.007 34.1348H4.74497C2.36747 34.1348 0.41748 32.23 0.41748 29.905V4.53247C0.41748 2.20747 2.36747 0.302734 4.74497 0.302734H113.007C115.385 0.302734 117.335 2.20747 117.335 4.53247V29.905C117.342 32.23 115.392 34.1348 113.007 34.1348Z" fill="black"/>
<path id="Vector_2" d="M113.007 0.985352C115.01 0.985352 116.645 2.57497 116.645 4.53247V29.905C116.645 31.8625 115.01 33.4521 113.007 33.4521H4.74497C2.74247 33.4521 1.10747 31.8625 1.10747 29.905V4.53247C1.10747 2.57497 2.74247 0.985352 4.74497 0.985352H113.007ZM113.007 0.310059H4.74497C2.36747 0.310059 0.41748 2.21479 0.41748 4.53979V29.9124C0.41748 32.2374 2.36747 34.1428 4.74497 34.1428H113.007C115.385 34.1428 117.335 32.2374 117.335 29.9124V4.53979C117.342 2.20729 115.392 0.310059 113.007 0.310059Z" fill="#A6A6A6"/>
<path id="Vector_3" d="M41.4799 8.96509C41.4799 9.67009 41.2624 10.2399 40.8349 10.6599C40.3474 11.1624 39.7024 11.4099 38.9224 11.4099C38.1724 11.4099 37.5349 11.1551 37.0099 10.6526C36.4849 10.1426 36.2224 9.51221 36.2224 8.76221C36.2224 8.01221 36.4849 7.38256 37.0099 6.87256C37.5349 6.36256 38.1724 6.10718 38.9224 6.10718C39.2974 6.10718 39.6499 6.18221 39.9874 6.32471C40.3249 6.46721 40.6024 6.65471 40.7974 6.88721L40.3474 7.33032C40.0024 6.93282 39.5299 6.72974 38.9224 6.72974C38.3749 6.72974 37.9024 6.91724 37.5049 7.29224C37.1074 7.66724 36.9049 8.15488 36.9049 8.75488C36.9049 9.35488 37.1074 9.84253 37.5049 10.2175C37.9099 10.5925 38.3824 10.78 38.9224 10.78C39.4999 10.78 39.9874 10.5925 40.3699 10.2175C40.6249 9.97003 40.7674 9.62494 40.8049 9.18994H38.9224V8.58276H41.4349C41.4724 8.71776 41.4799 8.84509 41.4799 8.96509Z" fill="white" stroke="white" stroke-width="0.1388" stroke-miterlimit="10"/>
<path id="Vector_4" d="M45.4775 6.84985H43.115V8.45532H45.245V9.0625H43.115V10.6672H45.4775V11.2898H42.4475V6.21997H45.4775V6.84985Z" fill="white" stroke="white" stroke-width="0.1388" stroke-miterlimit="10"/>
<path id="Vector_5" d="M48.2901 11.2979H47.6225V6.84985H46.175V6.22729H49.7451V6.84985H48.2976V11.2979H48.2901Z" fill="white" stroke="white" stroke-width="0.1388" stroke-miterlimit="10"/>
<path id="Vector_6" d="M52.325 11.2979V6.22729H52.9924V11.2979H52.325Z" fill="white" stroke="white" stroke-width="0.1388" stroke-miterlimit="10"/>
<path id="Vector_7" d="M55.9548 11.2979H55.2948V6.84985H53.8398V6.22729H57.4174V6.84985H55.9624V11.2979H55.9548Z" fill="white" stroke="white" stroke-width="0.1388" stroke-miterlimit="10"/>
<path id="Vector_8" d="M64.1675 10.6453C63.6575 11.1553 63.02 11.4099 62.2625 11.4099C61.505 11.4099 60.8675 11.1553 60.3575 10.6453C59.8475 10.1353 59.5925 9.50471 59.5925 8.76221C59.5925 8.01971 59.8475 7.38988 60.3575 6.87988C60.8675 6.36988 61.505 6.11523 62.2625 6.11523C63.0125 6.11523 63.65 6.36971 64.16 6.88721C64.6775 7.40471 64.9325 8.02721 64.9325 8.76221C64.9325 9.50471 64.6775 10.1353 64.1675 10.6453ZM60.8525 10.2175C61.235 10.6 61.7075 10.7874 62.2625 10.7874C62.8175 10.7874 63.29 10.6 63.6725 10.2175C64.055 9.83503 64.25 9.34721 64.25 8.76221C64.25 8.17721 64.055 7.68262 63.6725 7.30762C63.29 6.92512 62.8175 6.73779 62.2625 6.73779C61.7075 6.73779 61.235 6.92512 60.8525 7.30762C60.47 7.69012 60.275 8.17721 60.275 8.76221C60.275 9.34721 60.47 9.84253 60.8525 10.2175Z" fill="white" stroke="white" stroke-width="0.1388" stroke-miterlimit="10"/>
<path id="Vector_9" d="M65.8699 11.2979V6.22729H66.6799L69.2074 10.1729H69.2374L69.2074 9.19727V6.22729H69.8749V11.2979H69.1774L66.5374 7.15747H66.5074L66.5374 8.13232V11.2898H65.8699V11.2979Z" fill="white" stroke="white" stroke-width="0.1388" stroke-miterlimit="10"/>
<path id="Vector_10" d="M59.4275 18.6997C57.395 18.6997 55.73 20.2153 55.73 22.3003C55.73 24.3703 57.395 25.8928 59.4275 25.8928C61.4675 25.8928 63.125 24.3628 63.125 22.3003C63.125 20.2153 61.4675 18.6997 59.4275 18.6997ZM59.4275 24.4749C58.31 24.4749 57.35 23.5747 57.35 22.2922C57.35 20.9947 58.31 20.1104 59.4275 20.1104C60.545 20.1104 61.505 20.9947 61.505 22.2922C61.505 23.5747 60.545 24.4749 59.4275 24.4749ZM51.365 18.6997C49.325 18.6997 47.6675 20.2153 47.6675 22.3003C47.6675 24.3703 49.325 25.8928 51.365 25.8928C53.405 25.8928 55.0625 24.3628 55.0625 22.3003C55.055 20.2153 53.3975 18.6997 51.365 18.6997ZM51.365 24.4749C50.2475 24.4749 49.2875 23.5747 49.2875 22.2922C49.2875 20.9947 50.2475 20.1104 51.365 20.1104C52.4825 20.1104 53.4425 20.9947 53.4425 22.2922C53.435 23.5747 52.475 24.4749 51.365 24.4749ZM41.765 19.8027V21.3328H45.5C45.3875 22.1878 45.095 22.8174 44.6525 23.2524C44.105 23.7774 43.2575 24.3701 41.765 24.3701C39.4625 24.3701 37.6625 22.555 37.6625 20.3125C37.6625 18.07 39.4625 16.2549 41.765 16.2549C43.01 16.2549 43.9175 16.7275 44.585 17.3425L45.6875 16.2622C44.75 15.3922 43.5125 14.7249 41.765 14.7249C38.6075 14.7249 35.96 17.23 35.96 20.3125C35.96 23.395 38.615 25.9001 41.765 25.9001C43.4675 25.9001 44.75 25.3528 45.755 24.3328C46.79 23.3278 47.105 21.9097 47.105 20.7622C47.105 20.4097 47.075 20.0801 47.0225 19.8101H41.765V19.8027ZM81.005 20.9878C80.6975 20.1853 79.76 18.6997 77.8475 18.6997C75.95 18.6997 74.375 20.1553 74.375 22.3003C74.375 24.3178 75.935 25.8928 78.0275 25.8928C79.7225 25.8928 80.6975 24.8877 81.095 24.3027L79.8425 23.4854C79.4225 24.0854 78.8525 24.4822 78.0275 24.4822C77.21 24.4822 76.6175 24.1153 76.2425 23.3953L81.17 21.4075L81.005 20.9878ZM75.98 22.1875C75.935 20.8 77.0825 20.0876 77.9075 20.0876C78.5525 20.0876 79.0925 20.4023 79.28 20.8523L75.98 22.1875ZM71.975 25.6753H73.595V15.1072H71.975V25.6753ZM69.3275 19.5024H69.275C68.9075 19.0824 68.2175 18.6997 67.34 18.6997C65.495 18.6997 63.8075 20.2826 63.8075 22.3076C63.8075 24.3251 65.495 25.8928 67.34 25.8928C68.2175 25.8928 68.915 25.5097 69.275 25.0747H69.3275V25.5925C69.3275 26.965 68.5775 27.7078 67.3625 27.7078C66.3725 27.7078 65.7575 27.0103 65.5025 26.4253L64.0925 27.0024C64.4975 27.9549 65.57 29.1323 67.355 29.1323C69.2525 29.1323 70.8575 28.0446 70.8575 25.3896V18.9326H69.32V19.5024H69.3275ZM67.475 24.4749C66.3575 24.4749 65.4275 23.5601 65.4275 22.3076C65.4275 21.0401 66.365 20.1177 67.475 20.1177C68.5775 20.1177 69.44 21.0401 69.44 22.3076C69.44 23.5676 68.57 24.4749 67.475 24.4749ZM88.5875 15.1072H84.7175V25.6753H86.33V21.6697H88.5875C90.38 21.6697 92.1425 20.4023 92.1425 18.3848C92.1425 16.3748 90.38 15.1072 88.5875 15.1072ZM88.6325 20.1997H86.33V16.5771H88.6325C89.84 16.5771 90.5299 17.5528 90.5299 18.3928C90.5299 19.2028 89.84 20.1997 88.6325 20.1997ZM98.615 18.6777C97.445 18.6777 96.2374 19.1804 95.7349 20.2979L97.1675 20.8823C97.475 20.2973 98.045 20.1023 98.645 20.1023C99.485 20.1023 100.332 20.5977 100.347 21.4602V21.5723C100.055 21.4073 99.4325 21.1672 98.66 21.1672C97.115 21.1672 95.5399 21.9997 95.5399 23.5447C95.5399 24.9622 96.8075 25.8701 98.225 25.8701C99.3125 25.8701 99.9125 25.3902 100.287 24.8352H100.34V25.6526H101.9V21.595C101.907 19.7275 100.475 18.6777 98.615 18.6777ZM98.42 24.4749C97.895 24.4749 97.1525 24.2203 97.1525 23.5828C97.1525 22.7653 98.0675 22.4497 98.8625 22.4497C99.575 22.4497 99.905 22.6002 100.34 22.8027C100.22 23.7777 99.3575 24.4749 98.42 24.4749ZM107.592 18.9099L105.732 23.4927H105.68L103.76 18.9099H102.02L104.907 25.3149L103.265 28.8774H104.952L109.4 18.9099H107.592ZM93.0275 25.6753H94.6475V15.1072H93.0275V25.6753Z" fill="white"/>
<path id="Vector_11" d="M9.44746 6.68506C9.19246 6.94756 9.04248 7.35244 9.04248 7.87744V26.5747C9.04248 27.0997 9.19246 27.5048 9.44746 27.7598L9.50748 27.8198L20.24 17.3425V17.095L9.50748 6.61768L9.44746 6.68506Z" fill="url(#paint0_linear_407_1013)"/>
<path id="Vector_12" d="M23.8175 20.8376L20.24 17.3425V17.095L23.8175 13.5999L23.9 13.6453L28.1375 16C29.345 16.6675 29.345 17.77 28.1375 18.4375L23.9 20.7849L23.8175 20.8376Z" fill="url(#paint1_linear_407_1013)"/>
<path id="Vector_13" d="M23.9076 20.7922L20.2476 17.2224L9.45508 27.7678C9.86008 28.1803 10.5126 28.2323 11.2551 27.8198L23.9076 20.7922Z" fill="url(#paint2_linear_407_1013)"/>
<path id="Vector_14" d="M23.9076 13.6453L11.2551 6.62504C10.5126 6.22004 9.85258 6.26528 9.45508 6.67778L20.2476 17.2151L23.9076 13.6453Z" fill="url(#paint3_linear_407_1013)"/>
</g>
<defs>
<linearGradient id="paint0_linear_407_1013" x1="19.1871" y1="26.8708" x2="4.99969" y2="12.3396" gradientUnits="userSpaceOnUse">
<stop stop-color="#7A7A7A"/>
<stop offset="0.0066" stop-color="#7B7B7B"/>
<stop offset="0.2601" stop-color="#8C8C8C"/>
<stop offset="0.5122" stop-color="#989898"/>
<stop offset="0.7604" stop-color="#A0A0A0"/>
<stop offset="1" stop-color="#A2A2A2"/>
</linearGradient>
<linearGradient id="paint1_linear_407_1013" x1="29.7178" y1="17.2191" x2="8.76042" y2="17.2191" gradientUnits="userSpaceOnUse">
<stop stop-color="#D1D1D1"/>
<stop offset="0.4087" stop-color="#BCBCBC"/>
<stop offset="0.7754" stop-color="#AEAEAE"/>
<stop offset="1" stop-color="#A9A9A9"/>
</linearGradient>
<linearGradient id="paint2_linear_407_1013" x1="14.7369" y1="22.2871" x2="-4.5029" y2="2.58128" gradientUnits="userSpaceOnUse">
<stop stop-color="#767676"/>
<stop offset="1" stop-color="#4F4F4F"/>
</linearGradient>
<linearGradient id="paint3_linear_407_1013" x1="-0.0804171" y1="27.3299" x2="8.51089" y2="18.5302" gradientUnits="userSpaceOnUse">
<stop stop-color="#7A7A7A"/>
<stop offset="0.0685" stop-color="#7C7C7C"/>
<stop offset="0.4762" stop-color="#8D8D8D"/>
<stop offset="0.8009" stop-color="#979797"/>
<stop offset="1" stop-color="#9B9B9B"/>
</linearGradient>
</defs>
</svg>
