<svg width="83" height="84" viewBox="0 0 83 84" fill="none" xmlns="http://www.w3.org/2000/svg">
<g id="Group">
<path id="Vector" d="M41.2576 83.1125C64.0393 83.1125 82.5076 64.6443 82.5076 41.8625C82.5076 19.0808 64.0393 0.612549 41.2576 0.612549C18.4758 0.612549 0.00756836 19.0808 0.00756836 41.8625C0.00756836 64.6443 18.4758 83.1125 41.2576 83.1125Z" fill="#FFE443"/>
<path id="Vector_2" d="M29.2724 44.5996L22.5149 52.8646L28.7624 54.1174L31.2599 61.6174L37.8299 51.1848" stroke="black" stroke-width="4" stroke-linecap="round" stroke-linejoin="round"/>
<path id="Vector_3" d="M53.2424 44.5996L60.0074 52.8646L53.7599 54.1174L51.2624 61.6174L44.6924 51.1848" stroke="black" stroke-width="4" stroke-linecap="round" stroke-linejoin="round"/>
<path id="Vector_4" d="M27.5098 37.8572C27.5098 41.5022 28.9573 44.9971 31.5373 47.5771C34.1173 50.1571 37.6123 51.6047 41.2573 51.6047C44.9023 51.6047 48.4048 50.1571 50.9773 47.5771C53.5573 44.9971 55.0048 41.5022 55.0048 37.8572C55.0048 34.2122 53.5573 30.7172 50.9773 28.1372C48.3973 25.5572 44.9023 24.1096 41.2573 24.1096C37.6123 24.1096 34.1173 25.5572 31.5373 28.1372C28.9573 30.7172 27.5098 34.2122 27.5098 37.8572Z" stroke="black" stroke-width="4" stroke-linecap="round" stroke-linejoin="round"/>
</g>
</svg>
