<svg width="30" height="30" viewBox="0 0 30 30" fill="none" xmlns="http://www.w3.org/2000/svg">
<path d="M14.9429 12.4277C22.1954 12.4277 28.0679 10.0802 28.0679 7.17773C28.0679 4.27523 22.1879 1.92773 14.9429 1.92773C7.69037 1.92773 1.81787 4.27523 1.81787 7.17773C1.81787 10.0802 7.69037 12.4277 14.9429 12.4277Z" stroke="#FFE443" stroke-width="3.5" stroke-linecap="round" stroke-linejoin="round"/>
<path d="M1.81787 7.17773V15.0527C1.81787 17.9552 7.69787 20.3027 14.9429 20.3027C22.1954 20.3027 28.0679 17.9552 28.0679 15.0527V7.17773" stroke="#FFE443" stroke-width="3.5" stroke-linecap="round" stroke-linejoin="round"/>
<path d="M1.81787 15.0527V22.9277C1.81787 25.8302 7.69787 28.1777 14.9429 28.1777C22.1954 28.1777 28.0679 25.8302 28.0679 22.9277V15.0527" stroke="#FFE443" stroke-width="3.5" stroke-linecap="round" stroke-linejoin="round"/>
</svg>
