<svg width="22" height="22" viewBox="0 0 22 22" fill="none" xmlns="http://www.w3.org/2000/svg">
<g id="Group">
<g id="Clip path group">
<mask id="mask0_8_5099" style="mask-type:luminance" maskUnits="userSpaceOnUse" x="0" y="0" width="22" height="22">
<g id="SVGID_00000092452919940307599270000007114362098441958272_">
<path id="Vector" d="M21.875 0.325195H0.875V21.3252H21.875V0.325195Z" fill="white"/>
</g>
</mask>
<g mask="url(#mask0_8_5099)">
<g id="Group_2">
<path id="Vector_2" d="M21.875 10.8252C21.875 5.0277 17.1725 0.325195 11.375 0.325195C5.5775 0.325195 0.875 5.0277 0.875 10.8252C0.875 16.0677 4.715 20.4102 9.7325 21.1977V13.8627H7.07001V10.8252H9.7325V8.51523C9.7325 5.88273 11.3 4.42772 13.7 4.42772C14.8475 4.42772 16.0475 4.63023 16.0475 4.63023V7.2177H14.72C13.415 7.2177 13.01 8.0277 13.01 8.8602V10.8252H15.92L15.455 13.8627H13.01V21.1977C18.035 20.4102 21.875 16.0677 21.875 10.8252Z" fill="#1877F1"/>
<path id="Vector_3" d="M15.4625 13.8627L15.9275 10.8252H13.0175V8.86021C13.0175 8.02771 13.4225 7.21771 14.7275 7.21771H16.055V4.63025C16.055 4.63025 14.855 4.42773 13.7075 4.42773C11.3075 4.42773 9.74001 5.88274 9.74001 8.51524V10.8252H7.07751V13.8627H9.74001V21.1977C10.8275 21.3702 11.9375 21.3702 13.025 21.1977V13.8627H15.4625Z" fill="white"/>
</g>
</g>
</g>
</g>
</svg>
