<svg width="22" height="22" viewBox="0 0 22 22" fill="none" xmlns="http://www.w3.org/2000/svg">
<mask id="mask0_8_5088" style="mask-type:luminance" maskUnits="userSpaceOnUse" x="0" y="0" width="22" height="22">
<path d="M21.875 0.325195H0.875V21.3252H21.875V0.325195Z" fill="white"/>
</mask>
<g mask="url(#mask0_8_5088)">
<path d="M21.6724 11.0728C21.6724 10.3603 21.6124 9.64037 21.4924 8.94287H11.5924V12.9853H17.2624C17.0299 14.2903 16.2724 15.4453 15.1624 16.1728V18.7978H18.5449C20.5249 16.9678 21.6724 14.2678 21.6724 11.0728Z" fill="#4284F3"/>
<path d="M11.585 21.3254C14.42 21.3254 16.805 20.3954 18.545 18.7904L15.1625 16.1654C14.2175 16.8029 13.0025 17.1704 11.5925 17.1704C8.85498 17.1704 6.52999 15.3254 5.69749 12.8354H2.20251V15.5429C3.98751 19.0904 7.61752 21.3254 11.585 21.3254Z" fill="#34A753"/>
<path d="M5.68997 12.8427C5.24747 11.5377 5.24747 10.1277 5.68997 8.82272V6.11523H2.2025C0.717495 9.08523 0.717495 12.5802 2.2025 15.5427L5.68997 12.8427Z" fill="#FABB04"/>
<path d="M11.585 4.48041C13.085 4.45791 14.525 5.02039 15.6125 6.05539L18.6125 3.05539C16.715 1.27039 14.195 0.295379 11.585 0.325379C7.61752 0.325379 3.98751 2.5604 2.20251 6.1154L5.68999 8.82289C6.52249 6.33289 8.84752 4.48041 11.585 4.48041Z" fill="#E94335"/>
</g>
</svg>
