<svg width="83" height="83" viewBox="0 0 83 83" fill="none" xmlns="http://www.w3.org/2000/svg">
<path d="M41.2578 82.8228C64.0396 82.8228 82.5078 64.3545 82.5078 41.5728C82.5078 18.791 64.0396 0.322754 41.2578 0.322754C18.4761 0.322754 0.0078125 18.791 0.0078125 41.5728C0.0078125 64.3545 18.4761 82.8228 41.2578 82.8228Z" fill="#FFE443"/>
<path d="M57.5099 57.8249C57.5099 58.4849 57.2474 59.1223 56.7749 59.5873C56.3099 60.0598 55.6724 60.3223 55.0049 60.3223H27.5024C26.8424 60.3223 26.2049 60.0598 25.7399 59.5873C25.2674 59.1223 25.0049 58.4849 25.0049 57.8249V25.3273C25.0049 24.6673 25.2674 24.0298 25.7399 23.5573C26.2049 23.0848 26.8424 22.8223 27.5024 22.8223H45.2174C45.8849 22.8223 46.5149 23.0847 46.9874 23.5497L56.7749 33.3373C57.2399 33.8023 57.5099 34.4399 57.5099 35.0999V57.8249Z" stroke="black" stroke-width="4" stroke-linecap="round" stroke-linejoin="round"/>
<path d="M38.6245 34.5371L35.0695 39.2697C34.9645 39.4122 34.822 39.5321 34.6645 39.6146C34.507 39.6971 34.3345 39.7496 34.1545 39.7646C33.9745 39.7721 33.7945 39.7495 33.6295 39.6895C33.457 39.6295 33.3069 39.5321 33.1794 39.4046L31.252 37.4771" stroke="black" stroke-width="4" stroke-linecap="round" stroke-linejoin="round"/>
<path d="M38.6245 45.7871L35.0695 50.5197C34.9645 50.6622 34.822 50.7821 34.6645 50.8646C34.507 50.9471 34.3345 50.9996 34.1545 51.0146C33.9745 51.0221 33.7945 50.9995 33.6295 50.9395C33.457 50.8795 33.3069 50.7821 33.1794 50.6546L31.252 48.7271" stroke="black" stroke-width="4" stroke-linecap="round" stroke-linejoin="round"/>
<path d="M43.7549 39.7725H51.2549" stroke="black" stroke-width="4" stroke-linecap="round" stroke-linejoin="round"/>
<path d="M43.7549 49.7773H51.2549" stroke="black" stroke-width="4" stroke-linecap="round" stroke-linejoin="round"/>
</svg>
