<svg width="12" height="12" viewBox="0 0 12 12" fill="none" xmlns="http://www.w3.org/2000/svg">
<path d="M11.8125 10.7923L9.90747 8.93229L9.86252 8.8648C9.78001 8.7823 9.66748 8.73729 9.54748 8.73729C9.42748 8.73729 9.31504 8.7823 9.23254 8.8648C7.62004 10.3498 5.13003 10.4248 3.41253 9.0523C1.70253 7.6798 1.29753 5.27228 2.46753 3.43478C3.63753 1.59728 6.02248 0.892303 8.03998 1.7923C10.0575 2.6923 11.0775 4.91229 10.425 6.98229C10.38 7.13229 10.4175 7.2973 10.5225 7.4098C10.6275 7.5223 10.7925 7.57478 10.95 7.53728C11.1075 7.49978 11.235 7.38729 11.28 7.23729C12.06 4.77729 10.8825 2.1373 8.51248 1.0123C6.14248 -0.105204 3.29252 0.629802 1.80752 2.7523C0.322523 4.8748 0.637523 7.73979 2.55752 9.49479C4.47752 11.2498 7.42502 11.3698 9.48752 9.7798L11.1675 11.4223C11.34 11.5948 11.625 11.5948 11.7975 11.4223C11.97 11.2498 11.97 10.9723 11.7975 10.7998L11.8125 10.7923Z" fill="#F0F5FC"/>
</svg>
