<svg width="83" height="83" viewBox="0 0 83 83" fill="none" xmlns="http://www.w3.org/2000/svg">
<g id="Group">
<path id="Vector" d="M41.2576 82.8625C64.0393 82.8625 82.5076 64.3943 82.5076 41.6125C82.5076 18.8308 64.0393 0.362549 41.2576 0.362549C18.4758 0.362549 0.00756836 18.8308 0.00756836 41.6125C0.00756836 64.3943 18.4758 82.8625 41.2576 82.8625Z" fill="#FFE443"/>
<path id="Vector_2" d="M57.5101 28.8621H25.0051C23.6251 28.8621 22.5076 29.9796 22.5076 31.3596V58.8621C22.5076 60.2421 23.6251 61.3596 25.0051 61.3596H57.5101C58.8901 61.3596 60.0076 60.2421 60.0076 58.8621V31.3596C60.0076 29.9796 58.8901 28.8621 57.5101 28.8621Z" stroke="black" stroke-width="4" stroke-linecap="round" stroke-linejoin="round"/>
<path id="Vector_3" d="M22.5076 38.8596H60.0076" stroke="black" stroke-width="4" stroke-linecap="round" stroke-linejoin="round"/>
<path id="Vector_4" d="M32.5051 32.6121V23.8596" stroke="black" stroke-width="4" stroke-linecap="round" stroke-linejoin="round"/>
<path id="Vector_5" d="M50.01 32.6121V23.8596" stroke="black" stroke-width="4" stroke-linecap="round" stroke-linejoin="round"/>
</g>
</svg>
