<svg width="83" height="84" viewBox="0 0 83 84" fill="none" xmlns="http://www.w3.org/2000/svg">
<path d="M41.2578 83.3228C64.0396 83.3228 82.5078 64.8545 82.5078 42.0728C82.5078 19.291 64.0396 0.822754 41.2578 0.822754C18.4761 0.822754 0.0078125 19.291 0.0078125 42.0728C0.0078125 64.8545 18.4761 83.3228 41.2578 83.3228Z" fill="#FFE443"/>
<path d="M22.5078 42.0723C22.5078 47.0448 24.4878 51.8149 27.9978 55.3324C31.5078 58.8499 36.2853 60.8223 41.2578 60.8223C46.2303 60.8223 51.0003 58.8424 54.5178 55.3324C58.0353 51.8224 60.0078 47.0448 60.0078 42.0723C60.0078 37.0998 58.0278 32.3298 54.5178 28.8123C51.0078 25.2948 46.2303 23.3223 41.2578 23.3223C36.2853 23.3223 31.5153 25.2948 27.9978 28.8123C24.4803 32.3298 22.5078 37.0998 22.5078 42.0723Z" stroke="black" stroke-width="4" stroke-linecap="round" stroke-linejoin="round"/>
<path d="M37.5078 45.8221C37.5078 46.5646 37.7253 47.2847 38.1378 47.9072C38.5503 48.5222 39.1353 49.0022 39.8253 49.2872C40.5078 49.5722 41.2653 49.6473 41.9928 49.5048C42.7203 49.3548 43.3878 49.0022 43.9128 48.4772C44.4378 47.9522 44.7903 47.2846 44.9403 46.5571C45.0828 45.8296 45.0078 45.0797 44.7303 44.3897C44.4453 43.6997 43.9653 43.1147 43.3503 42.7097C42.7353 42.2972 42.0078 42.0796 41.2653 42.0796C40.5228 42.0796 39.8028 41.8623 39.1803 41.4498C38.5653 41.0373 38.0853 40.4523 37.8003 39.7623C37.5153 39.0798 37.4403 38.3222 37.5903 37.5947C37.7403 36.8672 38.0928 36.1996 38.6178 35.6746C39.1428 35.1496 39.8103 34.7897 40.5378 34.6472C41.2653 34.5047 42.0228 34.5797 42.7053 34.8572C43.3878 35.1422 43.9728 35.6221 44.3928 36.2371C44.8053 36.8521 45.0228 37.5796 45.0228 38.3221" stroke="black" stroke-width="4" stroke-linecap="round" stroke-linejoin="round"/>
<path d="M41.2578 32.0747V34.5721" stroke="black" stroke-width="4" stroke-linecap="round" stroke-linejoin="round"/>
<path d="M41.2578 49.5723V52.0698" stroke="black" stroke-width="4" stroke-linecap="round" stroke-linejoin="round"/>
</svg>
