<svg width="84" height="84" viewBox="0 0 84 84" fill="none" xmlns="http://www.w3.org/2000/svg">
<path d="M42.2227 83.1649C65.0044 83.1649 83.4727 64.5968 83.4727 41.692C83.4727 18.7872 65.0044 0.219238 42.2227 0.219238C19.4409 0.219238 0.972656 18.7872 0.972656 41.692C0.972656 64.5968 19.4409 83.1649 42.2227 83.1649Z" fill="#FFE443"/>
<path d="M58.475 22.8408H25.9775C24.5975 22.8408 23.48 23.9644 23.48 25.3519V58.025C23.48 59.4124 24.5975 60.5358 25.9775 60.5358H58.475C59.855 60.5358 60.9725 59.4124 60.9725 58.025V25.3519C60.9725 23.9644 59.855 22.8408 58.475 22.8408Z" stroke="black" stroke-width="4" stroke-linecap="round" stroke-linejoin="round"/>
<path d="M43.895 47.9736H53.48" stroke="black" stroke-width="4" stroke-linecap="round" stroke-linejoin="round"/>
<path d="M30.9727 47.9736H35.5551" stroke="black" stroke-width="4" stroke-linecap="round" stroke-linejoin="round"/>
<path d="M43.8952 47.9736C43.8952 48.8031 43.6477 49.6098 43.1902 50.3035C42.7327 50.9897 42.0802 51.5251 41.3227 51.8493C40.5577 52.166 39.7252 52.249 38.9152 52.0907C38.1052 51.9248 37.3627 51.5251 36.7852 50.9445C36.2002 50.3564 35.8027 49.6098 35.6452 48.7954C35.4877 47.981 35.5702 47.1365 35.8852 46.3749C36.2002 45.6058 36.7327 44.9573 37.4227 44.4973C38.1052 44.0374 38.9152 43.7886 39.7402 43.7886C40.8427 43.7886 41.9077 44.226 42.6877 45.0178C43.4527 45.802 43.8952 46.8651 43.8952 47.9736Z" stroke="black" stroke-width="4" stroke-linecap="round" stroke-linejoin="round"/>
<path d="M45.5601 35.4111H30.9727" stroke="black" stroke-width="4" stroke-linecap="round" stroke-linejoin="round"/>
<path d="M53.8924 35.4111C53.8924 34.5816 53.6449 33.7749 53.1874 33.0812C52.7299 32.3875 52.0774 31.8521 51.3199 31.5354C50.5549 31.2187 49.7224 31.1357 48.9124 31.294C48.1024 31.4599 47.3599 31.852 46.7749 32.4402C46.1899 33.0283 45.7924 33.7749 45.6349 34.5893C45.4774 35.4037 45.5599 36.2482 45.8749 37.0098C46.1899 37.7789 46.7224 38.4274 47.4124 38.8874C48.0949 39.3473 48.9049 39.5961 49.7299 39.5961C50.8324 39.5961 51.8974 39.1589 52.6774 38.3671C53.4499 37.5904 53.8924 36.5196 53.8924 35.4111Z" stroke="black" stroke-width="4" stroke-linecap="round" stroke-linejoin="round"/>
</svg>
