<svg width="32" height="33" viewBox="0 0 32 33" fill="none" xmlns="http://www.w3.org/2000/svg">
<g id="raphael:link">
<path id="Vector" d="M16.45 18.335L13.98 20.805C14.0107 21.3287 13.9305 21.8529 13.7448 22.3435C13.559 22.8341 13.2718 23.28 12.902 23.652C12.1979 24.3534 11.2444 24.747 10.2506 24.7467C9.25677 24.7463 8.30361 24.3519 7.60002 23.65C6.89874 22.9464 6.50497 21.9934 6.50497 21C6.50497 20.0066 6.89874 19.0537 7.60002 18.35C7.97183 17.9801 8.41748 17.6927 8.90787 17.5066C9.39826 17.3205 9.92237 17.2399 10.446 17.27L12.916 14.802C11.6755 14.2686 10.3035 14.1193 8.97723 14.3735C7.65099 14.6277 6.43142 15.2737 5.47602 16.228C4.23032 17.498 3.53635 19.2085 3.545 20.9874C3.55365 22.7664 4.26422 24.47 5.5222 25.7278C6.78019 26.9857 8.48387 27.6961 10.2628 27.7045C12.0418 27.713 13.7521 27.0188 15.022 25.773V25.775C15.9759 24.8193 16.6216 23.5999 16.8762 22.2738C17.1307 20.9478 16.9822 19.5759 16.45 18.335ZM14.552 13.165L17.019 10.695C16.9886 10.1715 17.0688 9.64735 17.2543 9.15683C17.4399 8.6663 17.7267 8.22036 18.096 7.84802C18.8003 7.14658 19.7539 6.75292 20.7479 6.7533C21.7419 6.75367 22.6953 7.14805 23.399 7.85002C24.1013 8.55314 24.4957 9.50626 24.4957 10.5C24.4957 11.4938 24.1013 12.4469 23.399 13.15C23.0276 13.5205 22.582 13.8083 22.0915 13.9944C21.601 14.1806 21.0767 14.2609 20.553 14.23L18.083 16.698C19.3236 17.2307 20.6952 17.3798 22.0212 17.126C23.3472 16.8722 24.5669 16.2272 25.523 15.274C26.7889 14.0081 27.5001 12.2912 27.5001 10.501C27.5001 8.7108 26.7889 6.9939 25.523 5.72802C24.2571 4.46214 22.5402 3.75098 20.75 3.75098C18.9598 3.75098 17.2429 4.46214 15.977 5.72802C15.0229 6.68295 14.3771 7.902 14.1229 9.22772C13.8687 10.5534 14.0178 11.9249 14.551 13.165H14.552ZM18.152 10.977L10.728 18.403C10.4469 18.6841 10.289 19.0654 10.289 19.463C10.289 19.8606 10.4469 20.2419 10.728 20.523C11.0091 20.8041 11.3904 20.9621 11.788 20.9621C12.1856 20.9621 12.5669 20.8041 12.848 20.523L20.274 13.098C20.4172 12.9596 20.5314 12.794 20.6099 12.611C20.6885 12.4279 20.7297 12.2311 20.7314 12.0319C20.733 11.8327 20.695 11.6352 20.6195 11.4509C20.544 11.2666 20.4325 11.0992 20.2916 10.9584C20.1507 10.8177 19.9832 10.7064 19.7988 10.631C19.6144 10.5557 19.4169 10.5178 19.2177 10.5196C19.0185 10.5215 18.8217 10.5629 18.6388 10.6416C18.4558 10.7203 18.2903 10.8337 18.152 10.977Z" fill="white"/>
</g>
</svg>
