<svg width="34" height="30" viewBox="0 0 34 30" fill="none" xmlns="http://www.w3.org/2000/svg">
<path d="M7.97794 18.0757V24.1356H1.91797" stroke="#FFE443" stroke-width="3.5" stroke-linecap="round" stroke-linejoin="round"/>
<path d="M26.1504 12.0156V5.95557H32.2104" stroke="#FFE443" stroke-width="3.5" stroke-linecap="round" stroke-linejoin="round"/>
<path d="M26.533 5.95557C28.6255 8.13057 29.9005 10.9582 30.148 13.9657C30.3955 16.9732 29.6005 19.9731 27.898 22.4631C26.1955 24.9531 23.6829 26.7757 20.7879 27.6382C17.8929 28.4932 14.7954 28.3281 12.0129 27.1656" stroke="#FFE443" stroke-width="3.5" stroke-linecap="round" stroke-linejoin="round"/>
<path d="M7.59551 24.1353C5.51051 21.9603 4.23547 19.1329 3.99547 16.1254C3.74797 13.1179 4.54297 10.1253 6.24547 7.6353C7.94797 5.1453 10.453 3.32288 13.348 2.46788C16.243 1.61288 19.333 1.77029 22.123 2.93279" stroke="#FFE443" stroke-width="3.5" stroke-linecap="round" stroke-linejoin="round"/>
</svg>
