<svg width="83" height="84" viewBox="0 0 83 84" fill="none" xmlns="http://www.w3.org/2000/svg">
<g id="Group">
<path id="Vector" d="M41.2576 83.3625C64.0393 83.3625 82.5076 64.8943 82.5076 42.1125C82.5076 19.3308 64.0393 0.862549 41.2576 0.862549C18.4758 0.862549 0.00756836 19.3308 0.00756836 42.1125C0.00756836 64.8943 18.4758 83.3625 41.2576 83.3625Z" fill="#FFE443"/>
<path id="Vector_2" d="M21.0674 41.6697C21.0674 43.5822 21.8249 45.4195 23.1824 46.7695C24.5324 48.1195 26.3699 48.8848 28.2824 48.8848C30.1949 48.8848 32.0324 48.1195 33.3824 46.7695C34.7324 45.4195 35.4974 43.5822 35.4974 41.6697C35.4974 39.7572 34.7399 37.927 33.3824 36.5695C32.0324 35.2195 30.1949 34.4546 28.2824 34.4546C26.3699 34.4546 24.5399 35.212 23.1824 36.5695C21.8249 37.9195 21.0674 39.7572 21.0674 41.6697Z" stroke="black" stroke-width="4" stroke-linecap="round" stroke-linejoin="round"/>
<path id="Vector_3" d="M47.0249 31.567C47.0249 33.4795 47.7899 35.3172 49.1399 36.6672C50.4899 38.0172 52.3274 38.7821 54.2399 38.7821C56.1524 38.7821 57.9824 38.0172 59.3399 36.6672C60.6899 35.3172 61.4549 33.4795 61.4549 31.567C61.4549 29.6545 60.6974 27.8247 59.3399 26.4672C57.9899 25.1172 56.1524 24.3523 54.2399 24.3523C52.3274 24.3523 50.4899 25.1097 49.1399 26.4672C47.7899 27.8247 47.0249 29.6545 47.0249 31.567Z" stroke="black" stroke-width="4" stroke-linecap="round" stroke-linejoin="round"/>
<path id="Vector_4" d="M47.0249 54.6444C47.0249 56.5569 47.7899 58.3871 49.1399 59.7446C50.4899 61.0946 52.3274 61.8595 54.2399 61.8595C56.1524 61.8595 57.9824 61.1021 59.3399 59.7446C60.6899 58.3946 61.4549 56.5569 61.4549 54.6444C61.4549 52.7319 60.6974 50.8946 59.3399 49.5446C57.9899 48.1946 56.1524 47.4297 54.2399 47.4297C52.3274 47.4297 50.4899 48.1946 49.1399 49.5446C47.7899 50.9021 47.0249 52.7319 47.0249 54.6444Z" stroke="black" stroke-width="4" stroke-linecap="round" stroke-linejoin="round"/>
<path id="Vector_5" d="M35.0024 39.0519L47.5199 34.1846" stroke="black" stroke-width="4" stroke-linecap="round" stroke-linejoin="round"/>
<path id="Vector_6" d="M34.7324 44.8945L47.7899 51.427" stroke="black" stroke-width="4" stroke-linecap="round" stroke-linejoin="round"/>
</g>
</svg>
