<svg width="20" height="20" viewBox="0 0 20 20" fill="none" xmlns="http://www.w3.org/2000/svg">
<mask id="mask0_182_509" style="mask-type:luminance" maskUnits="userSpaceOnUse" x="0" y="0" width="20" height="20">
<path d="M19.5 0H0V19.5H19.5V0Z" fill="white"/>
</mask>
<g mask="url(#mask0_182_509)">
<path d="M9.12759 16.6351C9.51009 16.4026 9.98259 16.4026 10.3651 16.6351L14.2876 19.0052C15.1951 19.5527 16.3201 18.7427 16.0726 17.7077L15.0301 13.245C14.9326 12.81 15.0751 12.3602 15.4126 12.0677L18.8776 9.06768C19.6801 8.37018 19.2526 7.05746 18.1951 6.96746L13.6351 6.57744C13.1926 6.53994 12.8026 6.26265 12.6301 5.85015L10.8451 1.63506C10.4326 0.660059 9.04509 0.660059 8.63259 1.63506L6.84758 5.85015C6.67509 6.26265 6.28509 6.53994 5.84259 6.57744L1.28259 6.96746C0.225086 7.05746 -0.202416 8.37768 0.600084 9.06768L4.06509 12.0677C4.40259 12.3602 4.54509 12.81 4.44759 13.245L3.40509 17.7077C3.16509 18.7427 4.28259 19.5527 5.19009 19.0052L9.12759 16.6351Z" fill="#FFC600"/>
</g>
</svg>
