<svg width="83" height="84" viewBox="0 0 83 84" fill="none" xmlns="http://www.w3.org/2000/svg">
<path d="M41.2578 83.3228C64.0396 83.3228 82.5078 64.8545 82.5078 42.0728C82.5078 19.291 64.0396 0.822754 41.2578 0.822754C18.4761 0.822754 0.0078125 19.291 0.0078125 42.0728C0.0078125 64.8545 18.4761 83.3228 41.2578 83.3228Z" fill="#FFE443"/>
<path d="M24.5325 24.9874L44.7825 30.74C46.1475 31.19 47.3475 32.0525 48.21 33.215C49.0725 34.3775 49.56 35.7724 49.575 37.2199V56.6749C49.635 57.2899 49.5375 57.9125 49.3125 58.4825C49.0725 59.0525 48.69 59.555 48.225 59.9525C47.76 60.3425 47.1975 60.62 46.5975 60.7475C45.9975 60.875 45.36 60.8599 44.76 60.6874L28.02 56.1349C26.655 55.7074 25.455 54.8599 24.5925 53.7124C23.73 52.5649 23.2425 51.1699 23.2275 49.7374V28.5424C23.19 27.1999 23.6925 25.895 24.615 24.92C25.5525 23.945 26.8125 23.3749 28.155 23.3374H53.745C55.2225 23.3374 56.6325 23.9225 57.6825 24.965C58.7175 26.0075 59.295 27.4175 59.295 28.8875V45.4624C59.295 46.2124 59.145 46.9475 58.845 47.6375C58.56 48.3275 58.1325 48.95 57.585 49.475C57.06 50 56.4225 50.4124 55.7325 50.6899C55.0425 50.9674 54.2926 51.1099 53.5426 51.1024H49.5825" stroke="black" stroke-width="4" stroke-linecap="round" stroke-linejoin="round"/>
<path d="M41.9547 44.1499C42.0822 44.1499 42.2172 44.1875 42.3297 44.27C42.4647 44.345 42.5397 44.4575 42.5922 44.585C42.6522 44.7125 42.6672 44.8475 42.6297 44.9825C42.6072 45.1175 42.5397 45.2375 42.4422 45.3425C42.3447 45.44 42.2171 45.5075 42.0821 45.53C41.9546 45.5525 41.8197 45.5449 41.6922 45.4924C41.5647 45.4399 41.4447 45.3499 41.3772 45.2374C41.3022 45.1249 41.2646 44.9899 41.2646 44.8549C41.2646 44.6749 41.3397 44.4949 41.4672 44.3599C41.5947 44.2249 41.7672 44.1499 41.9547 44.1499Z" stroke="black" stroke-width="4" stroke-linecap="round" stroke-linejoin="round"/>
</svg>
