<svg width="27" height="30" viewBox="0 0 27 30" fill="none" xmlns="http://www.w3.org/2000/svg">
<path d="M2.07788 28.1779V26.5353C2.07788 25.0278 2.37789 23.5354 2.95539 22.1404C3.53289 20.7454 4.3804 19.4779 5.4454 18.4129C6.5104 17.3479 7.7779 16.5004 9.1729 15.9229C10.5679 15.3454 12.0604 15.0454 13.5679 15.0454C15.0754 15.0454 16.5679 15.3454 17.9629 15.9229C19.3579 16.5004 20.6254 17.3479 21.6904 18.4129C22.7554 19.4779 23.6029 20.7454 24.1804 22.1404C24.7579 23.5354 25.0579 25.0278 25.0579 26.5353V28.1779" stroke="#FFE443" stroke-width="3.5" stroke-linecap="round" stroke-linejoin="round"/>
<path d="M13.5679 15.0527C15.3079 15.0527 16.9804 14.3627 18.2104 13.1327C19.4404 11.9027 20.1304 10.2302 20.1304 8.49023C20.1304 6.75023 19.4404 5.0776 18.2104 3.8476C16.9804 2.6176 15.3079 1.92773 13.5679 1.92773C11.8279 1.92773 10.1554 2.6176 8.92537 3.8476C7.69537 5.0776 7.00537 6.75023 7.00537 8.49023C7.00537 10.2302 7.69537 11.9027 8.92537 13.1327C10.1554 14.3627 11.8279 15.0527 13.5679 15.0527Z" stroke="#FFE443" stroke-width="3.5" stroke-linecap="round" stroke-linejoin="round"/>
</svg>
