<svg width="55" height="55" viewBox="0 0 55 55" fill="none" xmlns="http://www.w3.org/2000/svg">
<path d="M12.2242 0.808594H42.1868C48.8093 0.808594 54.1718 6.17859 54.1718 12.8086V42.8086C54.1718 49.4386 48.8093 54.8086 42.1868 54.8086H12.2242C5.60174 54.8086 0.239258 49.4386 0.239258 42.8086V12.8086C0.239258 6.17859 5.60924 0.808594 12.2242 0.808594Z" fill="#EDEDED"/>
<path d="M10.5889 18.2159V38.2186C10.5889 38.6761 10.9639 39.051 11.4214 39.051H42.9888C43.4463 39.051 43.8213 38.6761 43.8213 38.2186V18.2159C43.8213 17.4734 42.9288 17.1059 42.4038 17.6309L36.1039 23.931C35.7814 24.2535 35.2563 24.2535 34.9263 23.931L27.7938 16.7985C27.4713 16.476 26.9464 16.476 26.6164 16.7985L19.4839 23.931C19.1614 24.2535 18.6364 24.2535 18.3064 23.931L12.0064 17.6309C11.4889 17.1059 10.5889 17.4734 10.5889 18.2159Z" fill="#FFC700"/>
</svg>
