<svg width="203" height="201" viewBox="0 0 203 201" fill="none" xmlns="http://www.w3.org/2000/svg">
<g filter="url(#filter0_d_330_326)">
<path d="M85.8932 11.2492C94.3049 5.13776 105.695 5.13777 114.107 11.2492L180.999 59.8491C189.411 65.9605 192.93 76.7933 189.717 86.6819L164.167 165.318C160.954 175.207 151.739 181.902 141.342 181.902H58.6585C48.2611 181.902 39.0461 175.207 35.8331 165.318L10.2827 86.6819C7.0697 76.7933 10.5895 65.9605 19.0012 59.8491L85.8932 11.2492Z" fill="#A2C7FF"/>
</g>
<g filter="url(#filter1_d_330_326)">
<path d="M77.44 44.536V67H71.968V57.752H63.456V67H57.984V44.536H63.456V53.336H71.968V44.536H77.44ZM97.5503 44.536V48.92H91.5983V67H86.1263V48.92H80.1743V44.536H97.5503ZM125.737 44.536V67H120.265V53.528L115.241 67H110.825L105.769 53.496V67H100.297V44.536H106.76L113.065 60.088L119.305 44.536H125.737ZM135.144 62.776H142.312V67H129.672V44.536H135.144V62.776Z" fill="#EF7D14"/>
</g>
<g filter="url(#filter2_d_330_326)">
<path d="M69.056 103.736C69.056 101.517 69.536 99.544 70.496 97.816C71.456 96.0667 72.7893 94.712 74.496 93.752C76.224 92.7707 78.176 92.28 80.352 92.28C83.0187 92.28 85.3013 92.984 87.2 94.392C89.0987 95.8 90.368 97.72 91.008 100.152H84.992C84.544 99.2133 83.904 98.4987 83.072 98.008C82.2613 97.5173 81.3333 97.272 80.288 97.272C78.6027 97.272 77.2373 97.8587 76.192 99.032C75.1467 100.205 74.624 101.773 74.624 103.736C74.624 105.699 75.1467 107.267 76.192 108.44C77.2373 109.613 78.6027 110.2 80.288 110.2C81.3333 110.2 82.2613 109.955 83.072 109.464C83.904 108.973 84.544 108.259 84.992 107.32H91.008C90.368 109.752 89.0987 111.672 87.2 113.08C85.3013 114.467 83.0187 115.16 80.352 115.16C78.176 115.16 76.224 114.68 74.496 113.72C72.7893 112.739 71.456 111.384 70.496 109.656C69.536 107.928 69.056 105.955 69.056 103.736ZM102.487 115.224C100.844 115.224 99.3723 114.957 98.071 114.424C96.7697 113.891 95.7243 113.101 94.935 112.056C94.167 111.011 93.7617 109.752 93.719 108.28H99.543C99.6283 109.112 99.9163 109.752 100.407 110.2C100.898 110.627 101.538 110.84 102.327 110.84C103.138 110.84 103.778 110.659 104.247 110.296C104.716 109.912 104.951 109.389 104.951 108.728C104.951 108.173 104.759 107.715 104.375 107.352C104.012 106.989 103.554 106.691 102.999 106.456C102.466 106.221 101.698 105.955 100.695 105.656C99.2443 105.208 98.0603 104.76 97.143 104.312C96.2257 103.864 95.4363 103.203 94.775 102.328C94.1137 101.453 93.783 100.312 93.783 98.904C93.783 96.8133 94.5403 95.1813 96.055 94.008C97.5697 92.8133 99.543 92.216 101.975 92.216C104.45 92.216 106.444 92.8133 107.959 94.008C109.474 95.1813 110.284 96.824 110.391 98.936H104.471C104.428 98.2107 104.162 97.6453 103.671 97.24C103.18 96.8133 102.551 96.6 101.783 96.6C101.122 96.6 100.588 96.7813 100.183 97.144C99.7777 97.4853 99.575 97.9867 99.575 98.648C99.575 99.3733 99.9163 99.9387 100.599 100.344C101.282 100.749 102.348 101.187 103.799 101.656C105.25 102.147 106.423 102.616 107.319 103.064C108.236 103.512 109.026 104.163 109.687 105.016C110.348 105.869 110.679 106.968 110.679 108.312C110.679 109.592 110.348 110.755 109.687 111.8C109.047 112.845 108.108 113.677 106.871 114.296C105.634 114.915 104.172 115.224 102.487 115.224ZM122.175 115.224C120.532 115.224 119.06 114.957 117.759 114.424C116.457 113.891 115.412 113.101 114.623 112.056C113.855 111.011 113.449 109.752 113.407 108.28H119.231C119.316 109.112 119.604 109.752 120.095 110.2C120.585 110.627 121.225 110.84 122.015 110.84C122.825 110.84 123.465 110.659 123.935 110.296C124.404 109.912 124.639 109.389 124.639 108.728C124.639 108.173 124.447 107.715 124.063 107.352C123.7 106.989 123.241 106.691 122.687 106.456C122.153 106.221 121.385 105.955 120.383 105.656C118.932 105.208 117.748 104.76 116.831 104.312C115.913 103.864 115.124 103.203 114.463 102.328C113.801 101.453 113.471 100.312 113.471 98.904C113.471 96.8133 114.228 95.1813 115.743 94.008C117.257 92.8133 119.231 92.216 121.663 92.216C124.137 92.216 126.132 92.8133 127.647 94.008C129.161 95.1813 129.972 96.824 130.079 98.936H124.159C124.116 98.2107 123.849 97.6453 123.359 97.24C122.868 96.8133 122.239 96.6 121.47 96.6C120.809 96.6 120.276 96.7813 119.871 97.144C119.465 97.4853 119.263 97.9867 119.263 98.648C119.263 99.3733 119.604 99.9387 120.286 100.344C120.969 100.749 122.036 101.187 123.487 101.656C124.937 102.147 126.111 102.616 127.007 103.064C127.924 103.512 128.713 104.163 129.375 105.016C130.036 105.869 130.367 106.968 130.367 108.312C130.367 109.592 130.036 110.755 129.375 111.8C128.735 112.845 127.796 113.677 126.559 114.296C125.321 114.915 123.86 115.224 122.175 115.224Z" fill="#0083FD"/>
</g>
<g filter="url(#filter3_d_330_326)">
<path d="M96.064 140.536V155.832C96.064 158.2 95.392 160.024 94.048 161.304C92.7253 162.584 90.9333 163.224 88.672 163.224C86.304 163.224 84.4053 162.552 82.976 161.208C81.5467 159.864 80.832 157.955 80.832 155.48H86.272C86.272 156.419 86.464 157.133 86.848 157.624C87.232 158.093 87.7867 158.328 88.512 158.328C89.1733 158.328 89.6853 158.115 90.048 157.688C90.4107 157.261 90.592 156.643 90.592 155.832V140.536H96.064ZM108.612 163.224C106.969 163.224 105.497 162.957 104.196 162.424C102.895 161.891 101.849 161.101 101.06 160.056C100.292 159.011 99.8867 157.752 99.844 156.28H105.668C105.753 157.112 106.041 157.752 106.532 158.2C107.023 158.627 107.663 158.84 108.452 158.84C109.263 158.84 109.903 158.659 110.372 158.296C110.841 157.912 111.076 157.389 111.076 156.728C111.076 156.173 110.884 155.715 110.5 155.352C110.137 154.989 109.679 154.691 109.124 154.456C108.591 154.221 107.823 153.955 106.82 153.656C105.369 153.208 104.185 152.76 103.268 152.312C102.351 151.864 101.561 151.203 100.9 150.328C100.239 149.453 99.908 148.312 99.908 146.904C99.908 144.813 100.665 143.181 102.18 142.008C103.695 140.813 105.668 140.216 108.1 140.216C110.575 140.216 112.569 140.813 114.084 142.008C115.599 143.181 116.409 144.824 116.516 146.936H110.596C110.553 146.211 110.287 145.645 109.796 145.24C109.305 144.813 108.676 144.6 107.908 144.6C107.247 144.6 106.713 144.781 106.308 145.144C105.903 145.485 105.7 145.987 105.7 146.648C105.7 147.373 106.041 147.939 106.724 148.344C107.407 148.749 108.473 149.187 109.924 149.656C111.375 150.147 112.548 150.616 113.444 151.064C114.361 151.512 115.151 152.163 115.812 153.016C116.473 153.869 116.804 154.968 116.804 156.312C116.804 157.592 116.473 158.755 115.812 159.8C115.172 160.845 114.233 161.677 112.996 162.296C111.759 162.915 110.297 163.224 108.612 163.224Z" fill="#ECF00A"/>
</g>
<defs>
<filter id="filter0_d_330_326" x="1.10645" y="0.665527" width="201.787" height="195.236" filterUnits="userSpaceOnUse" color-interpolation-filters="sRGB">
<feFlood flood-opacity="0" result="BackgroundImageFix"/>
<feColorMatrix in="SourceAlpha" type="matrix" values="0 0 0 0 0 0 0 0 0 0 0 0 0 0 0 0 0 0 127 0" result="hardAlpha"/>
<feOffset dx="2" dy="4"/>
<feGaussianBlur stdDeviation="5"/>
<feComposite in2="hardAlpha" operator="out"/>
<feColorMatrix type="matrix" values="0 0 0 0 0.342336 0 0 0 0 0.451089 0 0 0 0 0.836667 0 0 0 0.25 0"/>
<feBlend mode="normal" in2="BackgroundImageFix" result="effect1_dropShadow_330_326"/>
<feBlend mode="normal" in="SourceGraphic" in2="effect1_dropShadow_330_326" result="shape"/>
</filter>
<filter id="filter1_d_330_326" x="53.9839" y="44.5359" width="92.3276" height="30.4641" filterUnits="userSpaceOnUse" color-interpolation-filters="sRGB">
<feFlood flood-opacity="0" result="BackgroundImageFix"/>
<feColorMatrix in="SourceAlpha" type="matrix" values="0 0 0 0 0 0 0 0 0 0 0 0 0 0 0 0 0 0 127 0" result="hardAlpha"/>
<feOffset dy="4"/>
<feGaussianBlur stdDeviation="2"/>
<feComposite in2="hardAlpha" operator="out"/>
<feColorMatrix type="matrix" values="0 0 0 0 0 0 0 0 0 0 0 0 0 0 0 0 0 0 0.25 0"/>
<feBlend mode="normal" in2="BackgroundImageFix" result="effect1_dropShadow_330_326"/>
<feBlend mode="normal" in="SourceGraphic" in2="effect1_dropShadow_330_326" result="shape"/>
</filter>
<filter id="filter2_d_330_326" x="65.0559" y="92.2161" width="69.3105" height="31.0078" filterUnits="userSpaceOnUse" color-interpolation-filters="sRGB">
<feFlood flood-opacity="0" result="BackgroundImageFix"/>
<feColorMatrix in="SourceAlpha" type="matrix" values="0 0 0 0 0 0 0 0 0 0 0 0 0 0 0 0 0 0 127 0" result="hardAlpha"/>
<feOffset dy="4"/>
<feGaussianBlur stdDeviation="2"/>
<feComposite in2="hardAlpha" operator="out"/>
<feColorMatrix type="matrix" values="0 0 0 0 0 0 0 0 0 0 0 0 0 0 0 0 0 0 0.25 0"/>
<feBlend mode="normal" in2="BackgroundImageFix" result="effect1_dropShadow_330_326"/>
<feBlend mode="normal" in="SourceGraphic" in2="effect1_dropShadow_330_326" result="shape"/>
</filter>
<filter id="filter3_d_330_326" x="76.832" y="140.216" width="43.9719" height="31.0078" filterUnits="userSpaceOnUse" color-interpolation-filters="sRGB">
<feFlood flood-opacity="0" result="BackgroundImageFix"/>
<feColorMatrix in="SourceAlpha" type="matrix" values="0 0 0 0 0 0 0 0 0 0 0 0 0 0 0 0 0 0 127 0" result="hardAlpha"/>
<feOffset dy="4"/>
<feGaussianBlur stdDeviation="2"/>
<feComposite in2="hardAlpha" operator="out"/>
<feColorMatrix type="matrix" values="0 0 0 0 0 0 0 0 0 0 0 0 0 0 0 0 0 0 0.25 0"/>
<feBlend mode="normal" in2="BackgroundImageFix" result="effect1_dropShadow_330_326"/>
<feBlend mode="normal" in="SourceGraphic" in2="effect1_dropShadow_330_326" result="shape"/>
</filter>
</defs>
</svg>
