<svg width="203" height="201" viewBox="0 0 203 201" fill="none" xmlns="http://www.w3.org/2000/svg">
<g filter="url(#filter0_d_330_327)">
<path d="M85.8932 11.2492C94.3049 5.13776 105.695 5.13777 114.107 11.2492L180.999 59.8491C189.411 65.9605 192.93 76.7933 189.717 86.6819L164.167 165.318C160.954 175.207 151.739 181.902 141.342 181.902H58.6585C48.2611 181.902 39.0461 175.207 35.8331 165.318L10.2827 86.6819C7.0697 76.7933 10.5895 65.9605 19.0012 59.8491L85.8932 11.2492Z" fill="#A2C7FF"/>
</g>
<g filter="url(#filter1_d_330_327)">
<path d="M77.44 62.536V85H71.968V75.752H63.456V85H57.984V62.536H63.456V71.336H71.968V62.536H77.44ZM97.5503 62.536V66.92H91.5983V85H86.1263V66.92H80.1743V62.536H97.5503ZM125.737 62.536V85H120.265V71.528L115.241 85H110.825L105.769 71.496V85H100.297V62.536H106.76L113.065 78.088L119.305 62.536H125.737ZM135.144 80.776H142.312V85H129.672V62.536H135.144V80.776Z" fill="#EF7D14"/>
</g>
<g filter="url(#filter2_d_330_327)">
<path d="M69.056 121.736C69.056 119.517 69.536 117.544 70.496 115.816C71.456 114.067 72.7893 112.712 74.496 111.752C76.224 110.771 78.176 110.28 80.352 110.28C83.0187 110.28 85.3013 110.984 87.2 112.392C89.0987 113.8 90.368 115.72 91.008 118.152H84.992C84.544 117.213 83.904 116.499 83.072 116.008C82.2613 115.517 81.3333 115.272 80.288 115.272C78.6027 115.272 77.2373 115.859 76.192 117.032C75.1467 118.205 74.624 119.773 74.624 121.736C74.624 123.699 75.1467 125.267 76.192 126.44C77.2373 127.613 78.6027 128.2 80.288 128.2C81.3333 128.2 82.2613 127.955 83.072 127.464C83.904 126.973 84.544 126.259 84.992 125.32H91.008C90.368 127.752 89.0987 129.672 87.2 131.08C85.3013 132.467 83.0187 133.16 80.352 133.16C78.176 133.16 76.224 132.68 74.496 131.72C72.7893 130.739 71.456 129.384 70.496 127.656C69.536 125.928 69.056 123.955 69.056 121.736ZM102.487 133.224C100.844 133.224 99.3723 132.957 98.071 132.424C96.7697 131.891 95.7243 131.101 94.935 130.056C94.167 129.011 93.7617 127.752 93.719 126.28H99.543C99.6283 127.112 99.9163 127.752 100.407 128.2C100.898 128.627 101.538 128.84 102.327 128.84C103.138 128.84 103.778 128.659 104.247 128.296C104.716 127.912 104.951 127.389 104.951 126.728C104.951 126.173 104.759 125.715 104.375 125.352C104.012 124.989 103.554 124.691 102.999 124.456C102.466 124.221 101.698 123.955 100.695 123.656C99.2443 123.208 98.0603 122.76 97.143 122.312C96.2257 121.864 95.4363 121.203 94.775 120.328C94.1137 119.453 93.783 118.312 93.783 116.904C93.783 114.813 94.5403 113.181 96.055 112.008C97.5697 110.813 99.543 110.216 101.975 110.216C104.45 110.216 106.444 110.813 107.959 112.008C109.474 113.181 110.284 114.824 110.391 116.936H104.471C104.428 116.211 104.162 115.645 103.671 115.24C103.18 114.813 102.551 114.6 101.783 114.6C101.122 114.6 100.588 114.781 100.183 115.144C99.7777 115.485 99.575 115.987 99.575 116.648C99.575 117.373 99.9163 117.939 100.599 118.344C101.282 118.749 102.348 119.187 103.799 119.656C105.25 120.147 106.423 120.616 107.319 121.064C108.236 121.512 109.026 122.163 109.687 123.016C110.348 123.869 110.679 124.968 110.679 126.312C110.679 127.592 110.348 128.755 109.687 129.8C109.047 130.845 108.108 131.677 106.871 132.296C105.634 132.915 104.172 133.224 102.487 133.224ZM122.175 133.224C120.532 133.224 119.06 132.957 117.759 132.424C116.457 131.891 115.412 131.101 114.623 130.056C113.855 129.011 113.449 127.752 113.407 126.28H119.231C119.316 127.112 119.604 127.752 120.095 128.2C120.585 128.627 121.225 128.84 122.015 128.84C122.825 128.84 123.465 128.659 123.935 128.296C124.404 127.912 124.639 127.389 124.639 126.728C124.639 126.173 124.447 125.715 124.063 125.352C123.7 124.989 123.241 124.691 122.687 124.456C122.153 124.221 121.385 123.955 120.383 123.656C118.932 123.208 117.748 122.76 116.831 122.312C115.913 121.864 115.124 121.203 114.463 120.328C113.801 119.453 113.471 118.312 113.471 116.904C113.471 114.813 114.228 113.181 115.743 112.008C117.257 110.813 119.231 110.216 121.663 110.216C124.137 110.216 126.132 110.813 127.647 112.008C129.161 113.181 129.972 114.824 130.079 116.936H124.159C124.116 116.211 123.849 115.645 123.359 115.24C122.868 114.813 122.239 114.6 121.47 114.6C120.809 114.6 120.276 114.781 119.871 115.144C119.465 115.485 119.263 115.987 119.263 116.648C119.263 117.373 119.604 117.939 120.286 118.344C120.969 118.749 122.036 119.187 123.487 119.656C124.937 120.147 126.111 120.616 127.007 121.064C127.924 121.512 128.713 122.163 129.375 123.016C130.036 123.869 130.367 124.968 130.367 126.312C130.367 127.592 130.036 128.755 129.375 129.8C128.735 130.845 127.796 131.677 126.559 132.296C125.321 132.915 123.86 133.224 122.175 133.224Z" fill="#0083FD"/>
</g>
<defs>
<filter id="filter0_d_330_327" x="1.10645" y="0.665527" width="201.787" height="195.236" filterUnits="userSpaceOnUse" color-interpolation-filters="sRGB">
<feFlood flood-opacity="0" result="BackgroundImageFix"/>
<feColorMatrix in="SourceAlpha" type="matrix" values="0 0 0 0 0 0 0 0 0 0 0 0 0 0 0 0 0 0 127 0" result="hardAlpha"/>
<feOffset dx="2" dy="4"/>
<feGaussianBlur stdDeviation="5"/>
<feComposite in2="hardAlpha" operator="out"/>
<feColorMatrix type="matrix" values="0 0 0 0 0.342336 0 0 0 0 0.451089 0 0 0 0 0.836667 0 0 0 0.25 0"/>
<feBlend mode="normal" in2="BackgroundImageFix" result="effect1_dropShadow_330_327"/>
<feBlend mode="normal" in="SourceGraphic" in2="effect1_dropShadow_330_327" result="shape"/>
</filter>
<filter id="filter1_d_330_327" x="53.9839" y="62.5359" width="92.3276" height="30.4641" filterUnits="userSpaceOnUse" color-interpolation-filters="sRGB">
<feFlood flood-opacity="0" result="BackgroundImageFix"/>
<feColorMatrix in="SourceAlpha" type="matrix" values="0 0 0 0 0 0 0 0 0 0 0 0 0 0 0 0 0 0 127 0" result="hardAlpha"/>
<feOffset dy="4"/>
<feGaussianBlur stdDeviation="2"/>
<feComposite in2="hardAlpha" operator="out"/>
<feColorMatrix type="matrix" values="0 0 0 0 0 0 0 0 0 0 0 0 0 0 0 0 0 0 0.25 0"/>
<feBlend mode="normal" in2="BackgroundImageFix" result="effect1_dropShadow_330_327"/>
<feBlend mode="normal" in="SourceGraphic" in2="effect1_dropShadow_330_327" result="shape"/>
</filter>
<filter id="filter2_d_330_327" x="65.0562" y="110.216" width="69.3105" height="31.0078" filterUnits="userSpaceOnUse" color-interpolation-filters="sRGB">
<feFlood flood-opacity="0" result="BackgroundImageFix"/>
<feColorMatrix in="SourceAlpha" type="matrix" values="0 0 0 0 0 0 0 0 0 0 0 0 0 0 0 0 0 0 127 0" result="hardAlpha"/>
<feOffset dy="4"/>
<feGaussianBlur stdDeviation="2"/>
<feComposite in2="hardAlpha" operator="out"/>
<feColorMatrix type="matrix" values="0 0 0 0 0 0 0 0 0 0 0 0 0 0 0 0 0 0 0.25 0"/>
<feBlend mode="normal" in2="BackgroundImageFix" result="effect1_dropShadow_330_327"/>
<feBlend mode="normal" in="SourceGraphic" in2="effect1_dropShadow_330_327" result="shape"/>
</filter>
</defs>
</svg>
