<svg width="203" height="201" viewBox="0 0 203 201" fill="none" xmlns="http://www.w3.org/2000/svg">
<g filter="url(#filter0_d_330_325)">
<path d="M85.8932 11.2492C94.3049 5.13776 105.695 5.13777 114.107 11.2492L180.999 59.8491C189.411 65.9605 192.93 76.7933 189.717 86.6819L164.167 165.318C160.954 175.207 151.739 181.902 141.342 181.902H58.6585C48.2611 181.902 39.0461 175.207 35.8331 165.318L10.2827 86.6819C7.0697 76.7933 10.5895 65.9605 19.0012 59.8491L85.8932 11.2492Z" fill="#A2C7FF"/>
</g>
<g filter="url(#filter1_d_330_325)">
<path d="M96.064 89.536V104.832C96.064 107.2 95.392 109.024 94.048 110.304C92.7253 111.584 90.9333 112.224 88.672 112.224C86.304 112.224 84.4053 111.552 82.976 110.208C81.5467 108.864 80.832 106.955 80.832 104.48H86.272C86.272 105.419 86.464 106.133 86.848 106.624C87.232 107.093 87.7867 107.328 88.512 107.328C89.1733 107.328 89.6853 107.115 90.048 106.688C90.4107 106.261 90.592 105.643 90.592 104.832V89.536H96.064ZM108.612 112.224C106.969 112.224 105.497 111.957 104.196 111.424C102.895 110.891 101.849 110.101 101.06 109.056C100.292 108.011 99.8867 106.752 99.844 105.28H105.668C105.753 106.112 106.041 106.752 106.532 107.2C107.023 107.627 107.663 107.84 108.452 107.84C109.263 107.84 109.903 107.659 110.372 107.296C110.841 106.912 111.076 106.389 111.076 105.728C111.076 105.173 110.884 104.715 110.5 104.352C110.137 103.989 109.679 103.691 109.124 103.456C108.591 103.221 107.823 102.955 106.82 102.656C105.369 102.208 104.185 101.76 103.268 101.312C102.351 100.864 101.561 100.203 100.9 99.328C100.239 98.4533 99.908 97.312 99.908 95.904C99.908 93.8133 100.665 92.1813 102.18 91.008C103.695 89.8133 105.668 89.216 108.1 89.216C110.575 89.216 112.569 89.8133 114.084 91.008C115.599 92.1813 116.409 93.824 116.516 95.936H110.596C110.553 95.2107 110.287 94.6453 109.796 94.24C109.305 93.8133 108.676 93.6 107.908 93.6C107.247 93.6 106.713 93.7813 106.308 94.144C105.903 94.4853 105.7 94.9867 105.7 95.648C105.7 96.3733 106.041 96.9387 106.724 97.344C107.407 97.7493 108.473 98.1867 109.924 98.656C111.375 99.1467 112.548 99.616 113.444 100.064C114.361 100.512 115.151 101.163 115.812 102.016C116.473 102.869 116.804 103.968 116.804 105.312C116.804 106.592 116.473 107.755 115.812 108.8C115.172 109.845 114.233 110.677 112.996 111.296C111.759 111.915 110.297 112.224 108.612 112.224Z" fill="#ECF00A"/>
</g>
<defs>
<filter id="filter0_d_330_325" x="1.10645" y="0.665527" width="201.787" height="195.236" filterUnits="userSpaceOnUse" color-interpolation-filters="sRGB">
<feFlood flood-opacity="0" result="BackgroundImageFix"/>
<feColorMatrix in="SourceAlpha" type="matrix" values="0 0 0 0 0 0 0 0 0 0 0 0 0 0 0 0 0 0 127 0" result="hardAlpha"/>
<feOffset dx="2" dy="4"/>
<feGaussianBlur stdDeviation="5"/>
<feComposite in2="hardAlpha" operator="out"/>
<feColorMatrix type="matrix" values="0 0 0 0 0.342336 0 0 0 0 0.451089 0 0 0 0 0.836667 0 0 0 0.25 0"/>
<feBlend mode="normal" in2="BackgroundImageFix" result="effect1_dropShadow_330_325"/>
<feBlend mode="normal" in="SourceGraphic" in2="effect1_dropShadow_330_325" result="shape"/>
</filter>
<filter id="filter1_d_330_325" x="76.832" y="89.2161" width="43.9719" height="31.0078" filterUnits="userSpaceOnUse" color-interpolation-filters="sRGB">
<feFlood flood-opacity="0" result="BackgroundImageFix"/>
<feColorMatrix in="SourceAlpha" type="matrix" values="0 0 0 0 0 0 0 0 0 0 0 0 0 0 0 0 0 0 127 0" result="hardAlpha"/>
<feOffset dy="4"/>
<feGaussianBlur stdDeviation="2"/>
<feComposite in2="hardAlpha" operator="out"/>
<feColorMatrix type="matrix" values="0 0 0 0 0 0 0 0 0 0 0 0 0 0 0 0 0 0 0.25 0"/>
<feBlend mode="normal" in2="BackgroundImageFix" result="effect1_dropShadow_330_325"/>
<feBlend mode="normal" in="SourceGraphic" in2="effect1_dropShadow_330_325" result="shape"/>
</filter>
</defs>
</svg>
