<svg width="189" height="59" viewBox="0 0 189 59" fill="none" xmlns="http://www.w3.org/2000/svg">
<path d="M9.62491 1.75244H179.815C184.195 1.75244 187.75 5.30745 187.75 9.68745V50.0749C187.75 54.4549 184.195 58.0099 179.815 58.0099H9.62491C5.24491 58.0099 1.68994 54.4549 1.68994 50.0749V9.68745C1.68994 5.30745 5.24491 1.75244 9.62491 1.75244Z" fill="white"/>
<path fill-rule="evenodd" clip-rule="evenodd" d="M14.5823 11.915C14.1623 12.3575 13.9148 13.0475 13.9148 13.94V45.815C13.9148 46.7075 14.1623 47.3975 14.5823 47.84L14.6873 47.9451L32.5449 30.0876V29.6676L14.6873 11.8101L14.5823 11.915Z" fill="#00D6FD"/>
<path fill-rule="evenodd" clip-rule="evenodd" d="M38.4924 36.0424L32.5449 30.0874V29.6674L38.4999 23.7124L45.6848 27.7924C47.6948 28.9399 47.6948 30.8074 45.6848 31.9549L38.6349 35.9599L38.4924 36.0424Z" fill="url(#paint0_linear_8_190)"/>
<path fill-rule="evenodd" clip-rule="evenodd" d="M38.6275 35.9674L32.5375 29.8774L14.575 47.84C15.2425 48.545 16.3374 48.6274 17.5674 47.9299L38.6275 35.9674Z" fill="url(#paint1_linear_8_190)"/>
<path fill-rule="evenodd" clip-rule="evenodd" d="M38.6276 23.795L17.575 11.8325C16.3375 11.135 15.2425 11.2175 14.5825 11.9225L32.5451 29.885L38.6276 23.795Z" fill="url(#paint2_linear_8_190)"/>
<path fill-rule="evenodd" clip-rule="evenodd" d="M150.82 45.68H153.512V27.6501H150.82V45.68ZM175.06 34.145L171.977 41.9601H171.887L168.685 34.145H165.782L170.582 45.0725L167.845 51.1476H170.65L178.052 34.145H175.06ZM159.797 43.6326C158.912 43.6326 157.683 43.19 157.683 42.1025C157.683 40.7075 159.212 40.1751 160.532 40.1751C161.717 40.1751 162.272 40.4301 162.992 40.7751C162.79 42.4476 161.35 43.6326 159.797 43.6326ZM160.12 33.7476C158.17 33.7476 156.153 34.6026 155.32 36.5076L157.705 37.5051C158.215 36.5076 159.167 36.1851 160.165 36.1851C161.56 36.1851 162.97 37.0175 162.992 38.5025V38.69C162.505 38.4125 161.463 37.9925 160.188 37.9925C157.615 37.9925 154.99 39.4101 154.99 42.0501C154.99 44.4651 157.105 46.0175 159.468 46.0175C161.275 46.0175 162.272 45.2076 162.902 44.2551H162.992V45.6501H165.587V38.735C165.595 35.5325 163.21 33.7476 160.12 33.7476ZM143.485 36.3351H139.66V30.155H143.485C145.495 30.155 146.642 31.82 146.642 33.245C146.642 34.64 145.502 36.3351 143.485 36.3351ZM143.418 27.6501H136.968V45.68H139.66V38.8475H143.418C146.403 38.8475 149.335 36.6875 149.335 33.245C149.335 29.8025 146.403 27.6501 143.418 27.6501ZM108.258 43.6326C106.398 43.6326 104.845 42.0726 104.845 39.9426C104.845 37.7826 106.405 36.2 108.258 36.2C110.095 36.2 111.535 37.7826 111.535 39.9426C111.528 42.0726 110.088 43.6326 108.258 43.6326ZM111.34 35.1501H111.25C110.643 34.4301 109.487 33.7775 108.017 33.7775C104.95 33.7775 102.137 36.4701 102.137 39.9351C102.137 43.3701 104.95 46.0475 108.017 46.0475C109.48 46.0475 110.643 45.395 111.25 44.6525H111.34V45.5375C111.34 47.885 110.088 49.1375 108.062 49.1375C106.412 49.1375 105.393 47.9525 104.973 46.955L102.625 47.93C103.3 49.5575 105.085 51.5526 108.062 51.5526C111.22 51.5526 113.898 49.6925 113.898 45.1625V34.145H111.34V35.1501ZM115.758 45.68H118.45V27.6501H115.758V45.68ZM122.425 39.7325C122.358 37.3625 124.263 36.155 125.635 36.155C126.708 36.155 127.607 36.6876 127.915 37.4526L122.425 39.7325ZM130.795 37.6851C130.285 36.3126 128.725 33.785 125.545 33.785C122.388 33.785 119.762 36.2675 119.762 39.92C119.762 43.355 122.365 46.055 125.852 46.055C128.665 46.055 130.293 44.3375 130.968 43.34L128.875 41.9451C128.177 42.9651 127.225 43.6401 125.852 43.6401C124.48 43.6401 123.505 43.01 122.875 41.78L131.08 38.3901L130.795 37.6851ZM65.4475 35.66V38.2625H71.6725C71.485 39.725 70.9975 40.7975 70.255 41.54C69.3475 42.4475 67.93 43.4451 65.4475 43.4451C61.615 43.4451 58.615 40.3551 58.615 36.5226C58.615 32.6901 61.615 29.6 65.4475 29.6C67.5175 29.6 69.025 30.4101 70.1425 31.4601L71.98 29.6226C70.42 28.1376 68.3575 26.9976 65.4475 26.9976C60.1975 26.9976 55.78 31.2726 55.78 36.5226C55.78 41.7726 60.1975 46.0475 65.4475 46.0475C68.2825 46.0475 70.42 45.1175 72.0925 43.3775C73.81 41.66 74.35 39.245 74.35 37.2875C74.35 36.68 74.305 36.125 74.2075 35.66H65.4475ZM81.4225 43.6326C79.5625 43.6326 77.9575 42.1025 77.9575 39.9125C77.9575 37.7075 79.5625 36.1926 81.4225 36.1926C83.2825 36.1926 84.8875 37.7 84.8875 39.9125C84.8875 42.095 83.2825 43.6326 81.4225 43.6326ZM81.4225 33.7775C78.025 33.7775 75.265 36.3575 75.265 39.9125C75.265 43.445 78.0325 46.0475 81.4225 46.0475C84.8125 46.0475 87.58 43.445 87.58 39.9125C87.58 36.3575 84.82 33.7775 81.4225 33.7775ZM94.855 43.6326C92.995 43.6326 91.39 42.1025 91.39 39.9125C91.39 37.7075 92.995 36.1926 94.855 36.1926C96.715 36.1926 98.32 37.7 98.32 39.9125C98.32 42.095 96.715 43.6326 94.855 43.6326ZM94.855 33.7775C91.465 33.7775 88.6975 36.3575 88.6975 39.9125C88.6975 43.445 91.465 46.0475 94.855 46.0475C98.245 46.0475 101.012 43.445 101.012 39.9125C101.012 36.3575 98.2525 33.7775 94.855 33.7775Z" fill="black"/>
<path d="M63.6623 20.015C63.3473 20.465 62.9123 20.8025 62.3498 21.02C61.7948 21.2375 61.1422 21.35 60.3997 21.35C59.6497 21.35 58.9823 21.1775 58.3973 20.825C57.8123 20.4725 57.3623 19.97 57.0398 19.3175C56.7248 18.665 56.5597 17.915 56.5522 17.0525V16.25C56.5522 14.8625 56.8748 13.7825 57.5198 13.0175C58.1723 12.2525 59.0798 11.8699 60.2573 11.8699C61.2173 11.8699 61.9973 12.1175 62.5823 12.6125C63.1673 13.1 63.5273 13.7975 63.6623 14.705H62.4473C62.2223 13.4825 61.4948 12.875 60.2648 12.875C59.4473 12.875 58.8323 13.16 58.4048 13.7375C57.9848 14.3075 57.7747 15.1325 57.7747 16.22V16.9774C57.7747 18.0124 58.0148 18.8375 58.4873 19.4525C58.9598 20.06 59.5973 20.3675 60.4073 20.3675C60.8648 20.3675 61.2623 20.315 61.6073 20.2175C61.9523 20.1125 62.2297 19.9475 62.4547 19.7075V17.6375H60.3173V16.6475H63.6623V20.015ZM70.5247 16.9625H66.5273V20.2325H71.1698V21.23H65.3048V12.005H71.1023V13.01H66.5198V15.98H70.5172V16.9625H70.5247ZM78.7973 12.9949H75.8273V21.2225H74.6198V12.9949H71.6573V11.99H78.7973V12.9949ZM83.6648 21.2225H82.4498V11.9975H83.6648V21.2225ZM91.6898 12.9949H88.7273V21.2225H87.5198V12.9949H84.5573V11.99H91.6973V12.9949H91.6898ZM102.347 16.91C102.347 17.8175 102.197 18.605 101.89 19.28C101.582 19.955 101.155 20.465 100.6 20.8175C100.045 21.17 99.3923 21.35 98.6497 21.35C97.9222 21.35 97.2773 21.17 96.7148 20.8175C96.1523 20.4575 95.7173 19.9475 95.4023 19.2875C95.0948 18.6275 94.9373 17.855 94.9298 16.985V16.3175C94.9298 15.4325 95.0873 14.645 95.3948 13.9625C95.7023 13.28 96.1373 12.7625 96.6998 12.4025C97.2698 12.0425 97.9147 11.855 98.6422 11.855C99.3847 11.855 100.03 12.035 100.592 12.395C101.162 12.7475 101.597 13.265 101.897 13.9475C102.205 14.6225 102.355 15.41 102.355 16.31V16.91H102.347ZM101.132 16.31C101.132 15.215 100.915 14.375 100.472 13.7975C100.03 13.2125 99.4148 12.92 98.6273 12.92C97.8548 12.92 97.2548 13.2125 96.8048 13.7975C96.3623 14.3825 96.1373 15.1925 96.1298 16.235V16.91C96.1298 17.9675 96.3548 18.8074 96.7973 19.4149C97.2473 20.0224 97.8622 20.3225 98.6422 20.3225C99.4297 20.3225 100.037 20.0375 100.465 19.4675C100.892 18.89 101.117 18.0725 101.132 17V16.31ZM110.875 21.2225H109.652L105.01 14.1125V21.2225H103.787V11.9975H105.01L109.667 19.1375V11.9975H110.875V21.2225Z" fill="#666666"/>
<path d="M9.62491 1.75244H179.815C184.195 1.75244 187.75 5.30745 187.75 9.68745V50.0749C187.75 54.4549 184.195 58.0099 179.815 58.0099H9.62491C5.24491 58.0099 1.68994 54.4549 1.68994 50.0749V9.68745C1.68994 5.30745 5.24491 1.75244 9.62491 1.75244Z" stroke="#A5A5A5" stroke-width="1.9231"/>
<defs>
<linearGradient id="paint0_linear_8_190" x1="44.3683" y1="29.8803" x2="32.5403" y2="29.8803" gradientUnits="userSpaceOnUse">
<stop stop-color="#FFBB00"/>
<stop offset="1" stop-color="#FFD903"/>
</linearGradient>
<linearGradient id="paint1_linear_8_190" x1="34.1089" y1="34.1383" x2="18.6711" y2="46.863" gradientUnits="userSpaceOnUse">
<stop stop-color="#E12652"/>
<stop offset="1" stop-color="#FF3A44"/>
</linearGradient>
<linearGradient id="paint2_linear_8_190" x1="18.9466" y1="12.2071" x2="29.2392" y2="21.2576" gradientUnits="userSpaceOnUse">
<stop stop-color="#0ED474"/>
<stop offset="1" stop-color="#07EF76"/>
</linearGradient>
</defs>
</svg>
