<svg width="84" height="84" viewBox="0 0 84 84" fill="none" xmlns="http://www.w3.org/2000/svg">
<path d="M42.2227 83.8704C65.0044 83.8704 83.4727 65.3024 83.4727 42.3976C83.4727 19.4928 65.0044 0.924805 42.2227 0.924805C19.4409 0.924805 0.972656 19.4928 0.972656 42.3976C0.972656 65.3024 19.4409 83.8704 42.2227 83.8704Z" fill="#FFE443"/>
<path d="M32.9824 43.7245L38.2699 49.0331L51.4699 35.7617" stroke="black" stroke-width="4" stroke-linecap="round" stroke-linejoin="round"/>
<path d="M23.4727 42.3977C23.4727 47.397 25.4451 52.1929 28.9701 55.7294C32.4726 59.2659 37.2577 61.2489 42.2227 61.2489C47.1877 61.2489 51.9726 59.2659 55.4751 55.7294C59.0001 52.1929 60.9727 47.397 60.9727 42.3977C60.9727 37.3983 59.0001 32.6026 55.4751 29.0661C51.9726 25.5296 47.1877 23.5464 42.2227 23.5464C37.2577 23.5464 32.4726 25.5296 28.9701 29.0661C25.4451 32.6026 23.4727 37.3983 23.4727 42.3977Z" stroke="black" stroke-width="4" stroke-linecap="round" stroke-linejoin="round"/>
</svg>
