<svg width="189" height="59" viewBox="0 0 189 59" fill="none" xmlns="http://www.w3.org/2000/svg">
<path d="M8.93501 1.75244H179.125C183.505 1.75244 187.06 5.30745 187.06 9.68745V50.0749C187.06 54.4549 183.505 58.0099 179.125 58.0099H8.93501C4.55501 58.0099 1 54.4549 1 50.0749V9.68745C1 5.30745 4.55501 1.75244 8.93501 1.75244Z" fill="black"/>
<path fill-rule="evenodd" clip-rule="evenodd" d="M13.885 11.915C13.465 12.3575 13.2175 13.0475 13.2175 13.94V45.815C13.2175 46.7075 13.465 47.3975 13.885 47.84L13.9901 47.9451L31.8475 30.0876V29.6676L13.9901 11.8101L13.885 11.915Z" fill="#00D6FD"/>
<path fill-rule="evenodd" clip-rule="evenodd" d="M37.795 36.0424L31.8474 30.0874V29.6674L37.8024 23.7124L44.9874 27.7924C46.9974 28.9399 46.9974 30.8074 44.9874 31.9549L37.9374 35.9599L37.795 36.0424Z" fill="url(#paint0_linear_8_178)"/>
<path fill-rule="evenodd" clip-rule="evenodd" d="M37.9375 35.9674L31.8475 29.8774L13.885 47.84C14.5525 48.545 15.6475 48.6274 16.8775 47.9299L37.9375 35.9674Z" fill="url(#paint1_linear_8_178)"/>
<path fill-rule="evenodd" clip-rule="evenodd" d="M37.9376 23.795L16.8851 11.8325C15.6476 11.135 14.5526 11.2175 13.8926 11.9225L31.8551 29.885L37.9376 23.795Z" fill="url(#paint2_linear_8_178)"/>
<path fill-rule="evenodd" clip-rule="evenodd" d="M150.122 45.68H152.815V27.6501H150.122V45.68ZM174.37 34.145L171.288 41.9601H171.198L167.995 34.145H165.093L169.892 45.0725L167.155 51.1476H169.96L177.363 34.145H174.37ZM159.108 43.6326C158.223 43.6326 156.993 43.19 156.993 42.1025C156.993 40.7075 158.523 40.1751 159.843 40.1751C161.028 40.1751 161.582 40.4301 162.302 40.7751C162.092 42.4476 160.66 43.6326 159.108 43.6326ZM159.43 33.7476C157.48 33.7476 155.463 34.6026 154.63 36.5076L157.015 37.5051C157.525 36.5076 158.478 36.1851 159.475 36.1851C160.87 36.1851 162.28 37.0175 162.302 38.5025V38.69C161.815 38.4125 160.772 37.9925 159.497 37.9925C156.925 37.9925 154.3 39.4101 154.3 42.0501C154.3 44.4651 156.415 46.0175 158.778 46.0175C160.585 46.0175 161.582 45.2076 162.212 44.2551H162.302V45.6501H164.898V38.735C164.905 35.5325 162.513 33.7476 159.43 33.7476ZM142.795 36.3351H138.97V30.155H142.795C144.805 30.155 145.953 31.82 145.953 33.245C145.953 34.64 144.805 36.3351 142.795 36.3351ZM142.728 27.6501H136.278V45.68H138.97V38.8475H142.728C145.713 38.8475 148.645 36.6875 148.645 33.245C148.645 29.8025 145.713 27.6501 142.728 27.6501ZM107.56 43.6326C105.7 43.6326 104.148 42.0726 104.148 39.9426C104.148 37.7826 105.707 36.2 107.56 36.2C109.397 36.2 110.837 37.7826 110.837 39.9426C110.837 42.0726 109.397 43.6326 107.56 43.6326ZM110.65 35.1501H110.56C109.952 34.4301 108.798 33.7775 107.328 33.7775C104.26 33.7775 101.448 36.4701 101.448 39.9351C101.448 43.3701 104.26 46.0475 107.328 46.0475C108.79 46.0475 109.952 45.395 110.56 44.6525H110.65V45.5375C110.65 47.885 109.397 49.1375 107.372 49.1375C105.722 49.1375 104.702 47.9525 104.283 46.955L101.935 47.93C102.61 49.5575 104.395 51.5526 107.372 51.5526C110.53 51.5526 113.208 49.6925 113.208 45.1625V34.145H110.65V35.1501ZM115.068 45.68H117.76V27.6501H115.068V45.68ZM121.735 39.7325C121.668 37.3625 123.573 36.155 124.945 36.155C126.018 36.155 126.918 36.6876 127.225 37.4526L121.735 39.7325ZM130.098 37.6851C129.588 36.3126 128.028 33.785 124.848 33.785C121.69 33.785 119.065 36.2675 119.065 39.92C119.065 43.355 121.668 46.055 125.155 46.055C127.968 46.055 129.595 44.3375 130.27 43.34L128.177 41.9451C127.48 42.9651 126.528 43.6401 125.155 43.6401C123.783 43.6401 122.807 43.01 122.177 41.78L130.383 38.3901L130.098 37.6851ZM64.75 35.66V38.2625H70.9751C70.7876 39.725 70.3001 40.7975 69.5576 41.54C68.6501 42.4475 67.2325 43.4451 64.75 43.4451C60.9175 43.4451 57.9175 40.3551 57.9175 36.5226C57.9175 32.6901 60.9175 29.6 64.75 29.6C66.82 29.6 68.3275 30.4101 69.445 31.4601L71.2825 29.6226C69.7225 28.1376 67.66 26.9976 64.75 26.9976C59.5 26.9976 55.0825 31.2726 55.0825 36.5226C55.0825 41.7726 59.5 46.0475 64.75 46.0475C67.585 46.0475 69.7225 45.1175 71.395 43.3775C73.1125 41.66 73.6525 39.245 73.6525 37.2875C73.6525 36.68 73.6076 36.125 73.5101 35.66H64.75ZM80.7326 43.6326C78.8726 43.6326 77.2675 42.1025 77.2675 39.9125C77.2675 37.7075 78.8726 36.1926 80.7326 36.1926C82.5926 36.1926 84.1976 37.7 84.1976 39.9125C84.1976 42.095 82.5926 43.6326 80.7326 43.6326ZM80.7326 33.7775C77.3426 33.7775 74.575 36.3575 74.575 39.9125C74.575 43.445 77.3426 46.0475 80.7326 46.0475C84.1226 46.0475 86.89 43.445 86.89 39.9125C86.89 36.3575 84.1226 33.7775 80.7326 33.7775ZM94.165 43.6326C92.305 43.6326 90.7 42.1025 90.7 39.9125C90.7 37.7075 92.305 36.1926 94.165 36.1926C96.025 36.1926 97.63 37.7 97.63 39.9125C97.6225 42.095 96.025 43.6326 94.165 43.6326ZM94.165 33.7775C90.775 33.7775 88.0075 36.3575 88.0075 39.9125C88.0075 43.445 90.775 46.0475 94.165 46.0475C97.555 46.0475 100.323 43.445 100.323 39.9125C100.323 36.3575 97.555 33.7775 94.165 33.7775Z" fill="#FFFFFD"/>
<path d="M62.9725 20.015C62.6575 20.465 62.2225 20.8025 61.66 21.02C61.105 21.2375 60.4526 21.35 59.7101 21.35C58.9601 21.35 58.2925 21.1775 57.7075 20.825C57.1225 20.4725 56.6726 19.97 56.3501 19.3175C56.0351 18.665 55.87 17.915 55.8625 17.0525V16.25C55.8625 14.8625 56.185 13.7825 56.83 13.0175C57.4825 12.2525 58.39 11.8699 59.5675 11.8699C60.5275 11.8699 61.3075 12.1175 61.8925 12.6125C62.4775 13.1 62.8375 13.7975 62.9725 14.705H61.7575C61.5325 13.4825 60.805 12.875 59.575 12.875C58.7575 12.875 58.1425 13.16 57.715 13.7375C57.295 14.3075 57.085 15.1325 57.0775 16.22V16.9774C57.0775 18.0124 57.3175 18.8375 57.79 19.4525C58.2625 20.06 58.9001 20.3675 59.7101 20.3675C60.1676 20.3675 60.565 20.315 60.91 20.2175C61.255 20.1125 61.5325 19.9475 61.7575 19.7075V17.6375H59.6201V16.6475H62.965V20.015H62.9725ZM69.8351 16.9625H65.8375V20.2325H70.48V21.23H64.615V12.005H70.4126V13.01H65.83V15.98H69.8275V16.9625H69.8351ZM78.1076 12.9949H75.1375V21.2225H73.93V12.9949H70.9676V11.99H78.1076V12.9949ZM82.9676 21.2225H81.7526V11.9975H82.9676V21.2225ZM91 12.9949H88.0376V21.2225H86.83V12.9949H83.8675V11.99H91.0075V12.9949H91ZM101.65 16.91C101.65 17.8175 101.5 18.605 101.193 19.28C100.885 19.955 100.458 20.465 99.9025 20.8175C99.3475 21.17 98.695 21.35 97.9525 21.35C97.225 21.35 96.58 21.17 96.0175 20.8175C95.455 20.4575 95.02 19.9475 94.705 19.2875C94.3975 18.6275 94.2401 17.855 94.2326 16.985V16.3175C94.2326 15.4325 94.3901 14.645 94.6976 13.9625C95.0051 13.28 95.4401 12.7625 96.0026 12.4025C96.5726 12.0425 97.2175 11.855 97.945 11.855C98.6875 11.855 99.3325 12.035 99.895 12.395C100.465 12.7475 100.9 13.265 101.2 13.9475C101.508 14.6225 101.658 15.41 101.658 16.31V16.91H101.65ZM100.443 16.31C100.443 15.215 100.225 14.375 99.7825 13.7975C99.34 13.2125 98.725 12.92 97.9375 12.92C97.165 12.92 96.565 13.2125 96.115 13.7975C95.6725 14.3825 95.4476 15.1925 95.4401 16.235V16.91C95.4401 17.9675 95.6651 18.8074 96.1076 19.4149C96.5576 20.0224 97.1725 20.3225 97.9525 20.3225C98.74 20.3225 99.3475 20.0375 99.775 19.4675C100.202 18.89 100.428 18.0725 100.443 17V16.31ZM110.185 21.2225H108.962L104.32 14.1125V21.2225H103.098V11.9975H104.32L108.978 19.1375V11.9975H110.185V21.2225Z" fill="white"/>
<path d="M8.93501 1.75244H179.125C183.505 1.75244 187.06 5.30745 187.06 9.68745V50.0749C187.06 54.4549 183.505 58.0099 179.125 58.0099H8.93501C4.55501 58.0099 1 54.4549 1 50.0749V9.68745C1 5.30745 4.55501 1.75244 8.93501 1.75244Z" stroke="#A5A5A5" stroke-width="1.9231"/>
<defs>
<linearGradient id="paint0_linear_8_178" x1="43.6761" y1="29.8803" x2="31.848" y2="29.8803" gradientUnits="userSpaceOnUse">
<stop stop-color="#FFBB00"/>
<stop offset="1" stop-color="#FFD903"/>
</linearGradient>
<linearGradient id="paint1_linear_8_178" x1="33.4166" y1="34.1383" x2="17.9789" y2="46.863" gradientUnits="userSpaceOnUse">
<stop stop-color="#E12652"/>
<stop offset="1" stop-color="#FF3A44"/>
</linearGradient>
<linearGradient id="paint2_linear_8_178" x1="18.2544" y1="12.2071" x2="28.547" y2="21.2576" gradientUnits="userSpaceOnUse">
<stop stop-color="#0ED474"/>
<stop offset="1" stop-color="#07EF76"/>
</linearGradient>
</defs>
</svg>
