<svg width="167" height="54" viewBox="0 0 167 54" fill="none" xmlns="http://www.w3.org/2000/svg">
<path d="M43.1425 43.6672C42.16 43.0822 41.41 42.2876 40.8925 41.2751C40.375 40.2626 40.1275 39.1373 40.1575 37.9148C40.18 36.7598 40.4725 35.6874 41.02 34.6899C41.575 33.6924 42.355 32.8979 43.36 32.2979C44.365 31.6979 45.5275 31.3977 46.84 31.3977C47.98 31.3977 48.97 31.6452 49.8175 32.1477C50.6575 32.6427 51.3175 33.2646 51.7975 34.0146C52.2775 34.7646 52.57 35.5225 52.6825 36.28H50.0125C49.93 35.89 49.75 35.5 49.4875 35.125C49.225 34.75 48.8575 34.4423 48.385 34.1948C47.9125 33.9473 47.365 33.8271 46.735 33.8271C46 33.8271 45.34 34.0077 44.7625 34.3677C44.185 34.7277 43.7425 35.2226 43.4275 35.8376C43.1125 36.4601 42.94 37.15 42.9025 37.9075C42.88 38.7175 43.015 39.4453 43.315 40.0828C43.615 40.7203 44.05 41.2147 44.6125 41.5747C45.175 41.9272 45.8275 42.1072 46.5625 42.1072C47.2 42.1072 47.785 41.9723 48.31 41.6948C48.835 41.4173 49.2775 41.035 49.615 40.5325C49.96 40.0375 50.17 39.4601 50.245 38.8076L52.915 38.8604C52.8325 39.8429 52.5175 40.7648 51.9775 41.6348C51.4375 42.4973 50.7025 43.2029 49.765 43.7354C48.835 44.2679 47.7625 44.5374 46.5625 44.5374C45.265 44.5374 44.125 44.2522 43.1425 43.6672ZM46.42 37.5999H52.9225V38.8677L51.595 39.4749H46.42V37.5999Z" fill="white"/>
<path d="M56.575 43.6753C55.5925 43.0978 54.85 42.3171 54.34 41.3271C53.83 40.3371 53.59 39.2272 53.6125 37.9822C53.635 36.8047 53.9275 35.7103 54.475 34.7053C55.03 33.7003 55.8025 32.8898 56.8075 32.2898C57.805 31.6898 58.975 31.3896 60.295 31.3896C61.6 31.3896 62.7325 31.6749 63.715 32.2524C64.69 32.8299 65.44 33.6176 65.95 34.6226C66.4675 35.6201 66.7075 36.7447 66.685 37.9822C66.6625 39.1972 66.3625 40.3077 65.785 41.3052C65.2075 42.3027 64.4125 43.0978 63.4075 43.6753C62.4025 44.2528 61.27 44.5374 60.0175 44.5374C58.705 44.5374 57.5575 44.2528 56.575 43.6753ZM62.065 41.5447C62.6425 41.1697 63.0925 40.6674 63.4075 40.0374C63.73 39.4074 63.895 38.7172 63.925 37.9822C63.94 37.2097 63.7975 36.505 63.5125 35.875C63.2275 35.245 62.8 34.7425 62.23 34.375C61.6675 34.0075 60.9925 33.8198 60.205 33.8198C59.47 33.8198 58.81 34.0152 58.2325 34.3977C57.655 34.7877 57.205 35.2976 56.89 35.9351C56.5675 36.5726 56.395 37.2547 56.3725 37.9822C56.35 38.7847 56.4775 39.4901 56.77 40.1201C57.0625 40.7501 57.4825 41.2378 58.0525 41.5828C58.615 41.9353 59.2825 42.1072 60.04 42.1072C60.8125 42.1072 61.4875 41.9197 62.065 41.5447Z" fill="white"/>
<path d="M67.9001 31.3896H70.6601V41.8003H76.9976V44.1924H67.9001V31.3896Z" fill="white"/>
<path d="M78.8801 31.3896H81.6626V44.1924H78.8801V31.3896ZM79.9301 31.3896H83.8001C84.9551 31.3896 85.9676 31.6826 86.8451 32.2751C87.7226 32.8676 88.3976 33.6476 88.8626 34.6226C89.3276 35.5976 89.5601 36.6552 89.5601 37.8027C89.5601 38.8827 89.3276 39.9176 88.8626 40.9001C88.3976 41.8826 87.7226 42.6774 86.8376 43.2849C85.9526 43.8924 84.9251 44.1997 83.7401 44.1997H79.3226L79.9301 31.3896ZM83.5601 41.9424C84.2126 41.9424 84.7976 41.7477 85.3226 41.3652C85.8476 40.9752 86.2451 40.4501 86.5226 39.7751C86.8001 39.1001 86.9276 38.3652 86.8976 37.5852C86.8601 36.3327 86.5451 35.3576 85.9526 34.6526C85.3601 33.9551 84.5576 33.6023 83.5451 33.6023H80.6201L80.8076 41.9424H83.5601Z" fill="white"/>
<path d="M90.7225 31.3896H99.6025L99.5875 33.6023H93.4525V36.7378H98.83V38.9878H93.4525V41.9351H99.805V44.1997H90.7075L90.7225 31.3896Z" fill="white"/>
<path d="M103.915 35.4773V44.1924H101.245V31.3896H103.915L110.125 40.2849V31.3896H112.75V44.1924H109.99L103.915 35.4773Z" fill="white"/>
<path d="M117.91 31.3896H126.678V33.7297H120.67V37.6753H126.085L126.07 39.9927H120.67V44.1924H117.91V31.3896Z" fill="white"/>
<path d="M129.947 42.9927C128.882 41.9577 128.357 40.3753 128.357 38.2378V31.3823H131.08V38.1396C131.08 39.5121 131.365 40.5025 131.942 41.095C132.52 41.6875 133.337 41.9878 134.395 41.9878C135.46 41.9878 136.292 41.6722 136.87 41.0422C137.455 40.4122 137.747 39.4446 137.747 38.1396V31.3823H140.545V38.3052C140.545 39.6177 140.305 40.7423 139.817 41.6648C139.33 42.5873 138.625 43.2997 137.702 43.7947C136.772 44.2822 135.655 44.53 134.342 44.53C132.475 44.5375 131.012 44.0277 129.947 42.9927Z" fill="white"/>
<path d="M144.948 35.4773V44.1924H142.278V31.3896H144.948L151.158 40.2849V31.3896H153.79V44.1924H151.03L144.948 35.4773Z" fill="white"/>
<path d="M155.485 31.3896H158.268V44.1924H155.485V31.3896ZM156.535 31.3896H160.405C161.56 31.3896 162.573 31.6826 163.45 32.2751C164.328 32.8676 165.003 33.6476 165.468 34.6226C165.933 35.5976 166.165 36.6552 166.165 37.8027C166.165 38.8827 165.933 39.9176 165.468 40.9001C165.003 41.8826 164.328 42.6774 163.443 43.2849C162.558 43.8924 161.53 44.1997 160.345 44.1997H155.928L156.535 31.3896ZM160.165 41.9424C160.818 41.9424 161.403 41.7477 161.928 41.3652C162.453 40.9752 162.85 40.4501 163.128 39.7751C163.405 39.1001 163.533 38.3652 163.503 37.5852C163.465 36.3327 163.15 35.3576 162.558 34.6526C161.965 33.9551 161.163 33.6023 160.15 33.6023H157.225L157.413 41.9424H160.165Z" fill="white"/>
<path d="M43.8925 26.8003V23.1624H42.3325V22.1729H46.615V23.1624H45.0175V26.8003H43.8925Z" fill="white"/>
<path d="M47.2751 26.8003V22.1729H49.6001C49.9301 22.1729 50.2151 22.2329 50.4626 22.3604C50.7101 22.4879 50.8976 22.6599 51.0401 22.8774C51.1751 23.0949 51.2426 23.3503 51.2426 23.6428C51.2426 23.9353 51.1676 24.2052 51.0251 24.4302C50.8826 24.6627 50.6876 24.8423 50.4326 24.9773C50.1851 25.1123 49.9076 25.1802 49.5926 25.1802H48.3401V26.7922H47.2751V26.8003ZM48.3401 24.3247H49.4801C49.6001 24.3247 49.7126 24.2952 49.8101 24.2427C49.9076 24.1902 49.9826 24.1151 50.0351 24.0251C50.0876 23.9351 50.1176 23.8221 50.1176 23.7021C50.1176 23.5821 50.0876 23.4772 50.0276 23.3872C49.9676 23.2972 49.8851 23.2302 49.7801 23.1777C49.6751 23.1327 49.5551 23.1023 49.4126 23.1023H48.3401V24.3247ZM50.1701 26.8003L48.8351 24.7078L49.9976 24.5422L51.4676 26.8003H50.1701Z" fill="white"/>
<path d="M54.0551 26.8376C53.6276 26.8376 53.2526 26.7553 52.9226 26.5828C52.5926 26.4103 52.3451 26.1774 52.1576 25.8774C51.9776 25.5774 51.8801 25.2324 51.8801 24.8499V22.1729H53.0201V24.8052C53.0201 25.0002 53.0651 25.1801 53.1551 25.3376C53.2451 25.4951 53.3651 25.6226 53.5226 25.7126C53.6801 25.8026 53.8526 25.8474 54.0551 25.8474C54.2651 25.8474 54.4451 25.8026 54.6026 25.7126C54.7601 25.6226 54.8876 25.4951 54.9776 25.3376C55.0751 25.1801 55.1201 25.0002 55.1201 24.8052V22.1729H56.2151V24.8499C56.2151 25.2324 56.1251 25.5774 55.9376 25.8774C55.7576 26.1774 55.5026 26.4103 55.1726 26.5828C54.8501 26.7553 54.4751 26.8376 54.0551 26.8376Z" fill="white"/>
<path d="M58.8101 26.8677C58.4726 26.8677 58.1726 26.8297 57.9026 26.7622C57.6326 26.6947 57.3851 26.5901 57.1751 26.4626C56.9576 26.3351 56.7626 26.1774 56.5901 26.0049L57.2051 25.1875C57.4826 25.465 57.7601 25.6596 58.0451 25.7646C58.3226 25.8696 58.6076 25.9302 58.8851 25.9302C59.0126 25.9302 59.1401 25.9148 59.2601 25.8848C59.3801 25.8548 59.4776 25.8102 59.5526 25.7427C59.6276 25.6752 59.6651 25.5928 59.6651 25.4878C59.6651 25.4203 59.6426 25.3526 59.6051 25.3076C59.5676 25.2551 59.5076 25.2177 59.4401 25.1802C59.3726 25.1427 59.2901 25.1126 59.1926 25.0901C59.0951 25.0601 58.9976 25.0377 58.8926 25.0227C58.7876 25.0002 58.6826 24.985 58.5626 24.97C58.2851 24.925 58.0376 24.865 57.8276 24.7825C57.6101 24.7 57.4376 24.6022 57.2876 24.4822C57.1451 24.3622 57.0326 24.2275 56.9501 24.0625C56.8751 23.905 56.8376 23.7252 56.8376 23.5227C56.8376 23.3052 56.8901 23.1102 56.9951 22.9302C57.1001 22.7502 57.2426 22.5999 57.4226 22.4724C57.6026 22.3449 57.8126 22.2477 58.0526 22.1802C58.2926 22.1127 58.5401 22.0747 58.8101 22.0747C59.1251 22.0747 59.4026 22.1048 59.6426 22.1648C59.8751 22.2248 60.0851 22.3152 60.2576 22.4277C60.4376 22.5402 60.5801 22.6674 60.7001 22.8174L60.0701 23.53C59.9576 23.4175 59.8376 23.3274 59.7026 23.2524C59.5676 23.1774 59.4251 23.1178 59.2676 23.0803C59.1176 23.0428 58.9601 23.0203 58.8101 23.0203C58.6526 23.0203 58.5176 23.0348 58.3976 23.0723C58.2776 23.1023 58.1801 23.1551 58.1126 23.2151C58.0451 23.2751 58.0076 23.3498 58.0076 23.4473C58.0076 23.5298 58.0376 23.5976 58.0901 23.6501C58.1501 23.7026 58.2251 23.7547 58.3151 23.7922C58.4126 23.8297 58.5176 23.8671 58.6376 23.8896C58.7576 23.9121 58.8776 23.9347 58.9976 23.9497C59.2526 23.9872 59.4851 24.0397 59.7026 24.1072C59.9201 24.1747 60.1151 24.2578 60.2876 24.3628C60.4526 24.4678 60.5876 24.5948 60.6776 24.7598C60.7751 24.9173 60.8201 25.1204 60.8201 25.3604C60.8201 25.6829 60.7301 25.9526 60.5576 26.1851C60.3851 26.4101 60.1451 26.5821 59.8451 26.7021C59.5451 26.8071 59.2001 26.8677 58.8101 26.8677Z" fill="white"/>
<path d="M62.695 26.8003V23.1624H61.135V22.1729H65.4175V23.1624H63.82V26.8003H62.695Z" fill="white"/>
<path d="M68.2151 26.8003V25.8328H69.1826V23.1323H68.2151V22.1648H71.2751V23.1323H70.3001V25.8328H71.2751V26.8003H68.2151Z" fill="white"/>
<path d="M74.1102 26.8677C73.7727 26.8677 73.4726 26.8297 73.2026 26.7622C72.9326 26.6947 72.6926 26.5901 72.4751 26.4626C72.2576 26.3351 72.0626 26.1774 71.8901 26.0049L72.5051 25.1875C72.7826 25.465 73.0601 25.6596 73.3451 25.7646C73.6226 25.8696 73.9076 25.9302 74.1851 25.9302C74.3126 25.9302 74.4401 25.9148 74.5601 25.8848C74.6801 25.8548 74.7776 25.8102 74.8526 25.7427C74.9276 25.6752 74.9651 25.5928 74.9651 25.4878C74.9651 25.4203 74.9427 25.3526 74.9052 25.3076C74.8677 25.2551 74.8077 25.2177 74.7402 25.1802C74.6727 25.1427 74.5901 25.1126 74.4926 25.0901C74.3951 25.0676 74.2976 25.0377 74.1926 25.0227C74.0876 25.0002 73.9826 24.985 73.8626 24.97C73.5851 24.925 73.3377 24.865 73.1277 24.7825C72.9102 24.7 72.7377 24.6022 72.5877 24.4822C72.4452 24.3622 72.3326 24.2275 72.2501 24.0625C72.1751 23.905 72.1376 23.7252 72.1376 23.5227C72.1376 23.3052 72.1901 23.1102 72.2951 22.9302C72.4001 22.7502 72.5426 22.5999 72.7226 22.4724C72.9026 22.3449 73.1126 22.2477 73.3526 22.1802C73.5926 22.1127 73.8402 22.0747 74.1102 22.0747C74.4252 22.0747 74.7026 22.1048 74.9426 22.1648C75.1751 22.2248 75.3851 22.3152 75.5576 22.4277C75.7301 22.5402 75.8801 22.6674 76.0001 22.8174L75.3701 23.53C75.2576 23.4175 75.1377 23.3274 75.0027 23.2524C74.8677 23.1774 74.7251 23.1178 74.5676 23.0803C74.4101 23.0428 74.2602 23.0203 74.1102 23.0203C73.9527 23.0203 73.8176 23.0348 73.6976 23.0723C73.5776 23.1023 73.4801 23.1551 73.4126 23.2151C73.3451 23.2751 73.3076 23.3498 73.3076 23.4473C73.3076 23.5298 73.3376 23.5976 73.3901 23.6501C73.4501 23.7026 73.5252 23.7547 73.6152 23.7922C73.7127 23.8297 73.8176 23.8671 73.9376 23.8896C74.0576 23.9121 74.1777 23.9347 74.2977 23.9497C74.5527 23.9872 74.7852 24.0397 75.0027 24.1072C75.2202 24.1747 75.4152 24.2578 75.5877 24.3628C75.7527 24.4678 75.8876 24.5948 75.9776 24.7598C76.0751 24.9173 76.1201 25.1204 76.1201 25.3604C76.1201 25.6829 76.0301 25.9526 75.8576 26.1851C75.6851 26.4101 75.4451 26.5821 75.1451 26.7021C74.8451 26.8071 74.5002 26.8677 74.1102 26.8677Z" fill="white"/>
<path d="M81.2726 26.8677C80.8901 26.8677 80.5376 26.8146 80.2226 26.7021C79.9076 26.5896 79.6376 26.4324 79.4051 26.2224C79.1726 26.0124 79.0001 25.7576 78.8726 25.4651C78.7451 25.1651 78.6851 24.835 78.6851 24.4675C78.6851 24.1225 78.7526 23.8071 78.8801 23.5146C79.0076 23.2296 79.1951 22.9748 79.4426 22.7573C79.6826 22.5398 79.9676 22.3749 80.2976 22.2549C80.6276 22.1349 80.9876 22.0747 81.3701 22.0747C81.6626 22.0747 81.9401 22.1127 82.1876 22.1802C82.4426 22.2477 82.6676 22.3453 82.8626 22.4578C83.0651 22.5703 83.2301 22.6976 83.3651 22.8401L82.6826 23.5747C82.5626 23.4697 82.4351 23.3875 82.3001 23.3125C82.1651 23.2375 82.0226 23.1773 81.8651 23.1323C81.7076 23.0873 81.5426 23.0649 81.3626 23.0649C81.1451 23.0649 80.9501 23.1022 80.7626 23.1697C80.5826 23.2372 80.4176 23.3351 80.2826 23.4626C80.1476 23.5901 80.0426 23.74 79.9676 23.905C79.8926 24.0775 79.8551 24.2577 79.8551 24.4602C79.8551 24.6852 79.8926 24.8876 79.9751 25.0601C80.0576 25.2326 80.1626 25.3824 80.3051 25.5024C80.4476 25.6224 80.6051 25.7125 80.7926 25.78C80.9801 25.8475 81.1751 25.8774 81.3851 25.8774C81.5576 25.8774 81.7226 25.8551 81.8726 25.8101C82.0226 25.7651 82.1576 25.7049 82.2701 25.6299C82.3826 25.5549 82.4726 25.4648 82.5326 25.3523C82.5926 25.2473 82.6226 25.1273 82.6301 25.0073V24.8572L82.7726 25.1047H81.2726V24.2354H83.6876C83.6951 24.2954 83.7026 24.3625 83.7101 24.4375C83.7176 24.52 83.7176 24.5949 83.7176 24.6624C83.7176 24.7299 83.7176 24.7825 83.7176 24.8125C83.7176 25.1275 83.6576 25.4122 83.5376 25.6672C83.4176 25.9222 83.2451 26.1325 83.0351 26.3125C82.8176 26.4925 82.5626 26.6274 82.2626 26.7249C81.9551 26.8224 81.6251 26.8677 81.2726 26.8677Z" fill="white"/>
<path d="M86.7852 26.8677C86.3952 26.8677 86.0427 26.8075 85.7277 26.6875C85.4127 26.5675 85.1351 26.4026 84.9026 26.1851C84.6701 25.9676 84.4827 25.7122 84.3552 25.4197C84.2277 25.1272 84.1602 24.8125 84.1602 24.4675C84.1602 24.1225 84.2277 23.8071 84.3552 23.5146C84.4827 23.2221 84.6626 22.9675 84.9026 22.75C85.1351 22.5325 85.4127 22.3601 85.7277 22.2476C86.0427 22.1276 86.3951 22.0674 86.7776 22.0674C87.1601 22.0674 87.5052 22.1276 87.8202 22.2476C88.1352 22.3676 88.4126 22.5325 88.6451 22.75C88.8776 22.9675 89.0577 23.2221 89.1852 23.5146C89.3127 23.8071 89.3802 24.1225 89.3802 24.4675C89.3802 24.805 89.3127 25.1197 89.1852 25.4197C89.0577 25.7122 88.8776 25.9676 88.6451 26.1851C88.4126 26.4026 88.1352 26.575 87.8202 26.6875C87.5052 26.8075 87.1602 26.8677 86.7852 26.8677ZM86.7776 25.8101C86.9876 25.8101 87.1826 25.7801 87.3626 25.7126C87.5426 25.6451 87.7001 25.5552 87.8276 25.4277C87.9626 25.3077 88.0601 25.165 88.1351 25C88.2026 24.835 88.2402 24.655 88.2402 24.4675C88.2402 24.28 88.2026 24.0926 88.1351 23.9351C88.0676 23.7701 87.9626 23.6273 87.8276 23.5073C87.6926 23.3873 87.5426 23.2899 87.3626 23.2224C87.1826 23.1549 86.9876 23.125 86.7776 23.125C86.5676 23.125 86.3726 23.1549 86.1926 23.2224C86.0126 23.2899 85.8551 23.3798 85.7201 23.5073C85.5851 23.6348 85.4876 23.7776 85.4126 23.9351C85.3451 24.1001 85.3077 24.2725 85.3077 24.4675C85.3077 24.6625 85.3451 24.8425 85.4126 25C85.4801 25.165 85.5851 25.3077 85.7201 25.4277C85.8551 25.5477 86.0126 25.6451 86.1926 25.7126C86.3726 25.7726 86.5676 25.8101 86.7776 25.8101Z" fill="white"/>
<path d="M90.175 26.8003V22.1729H91.3V25.8101H93.7375V26.8003H90.175Z" fill="white"/>
<path d="M94.4727 26.8003V22.1729H96.6252C97.0002 22.1729 97.3376 22.2325 97.6451 22.345C97.9526 22.465 98.2076 22.6301 98.4326 22.8401C98.6501 23.0501 98.8152 23.2972 98.9352 23.5747C99.0477 23.8522 99.1077 24.1597 99.1077 24.4822C99.1077 24.8122 99.0477 25.12 98.9352 25.405C98.8227 25.69 98.6576 25.9296 98.4326 26.1396C98.2151 26.3496 97.9526 26.5074 97.6451 26.6274C97.3376 26.7474 97.0002 26.8003 96.6252 26.8003H94.4727ZM95.5977 26.0349L95.4476 25.8101H96.5952C96.8127 25.8101 97.0076 25.7728 97.1801 25.7053C97.3451 25.6378 97.4876 25.5397 97.6001 25.4197C97.7126 25.2997 97.8027 25.165 97.8627 25C97.9227 24.835 97.9527 24.6699 97.9527 24.4749C97.9527 24.2874 97.9227 24.1153 97.8627 23.9578C97.8027 23.8003 97.7126 23.6574 97.6001 23.5374C97.4876 23.4174 97.3451 23.3273 97.1801 23.2598C97.0151 23.1923 96.8202 23.155 96.5952 23.155H95.4326L95.6052 22.9448V26.0349H95.5977Z" fill="white"/>
<path d="M18.6775 4.60718C26.245 4.60718 32.4025 10.7653 32.4025 18.3328C32.4025 22.2628 30.715 26.0052 27.7675 28.6152L26.9575 29.3352L29.2975 48.9927H8.05753L10.3975 29.3352L9.58754 28.6152C6.64004 26.0127 4.95252 22.2628 4.95252 18.3328C4.95252 10.7653 11.11 4.60718 18.6775 4.60718ZM18.6775 0.550293C8.87504 0.550293 0.89502 8.53026 0.89502 18.3328C0.89502 23.0653 2.78502 27.5953 6.12252 30.9253L4.03004 48.5122L3.49004 53.0503H8.05753H29.2975H33.865L33.325 48.5122L31.2325 30.9253C34.5625 27.5953 36.46 23.0653 36.46 18.3328C36.46 8.53026 28.4875 0.550293 18.6775 0.550293Z" fill="white"/>
<path d="M25.105 45.9097H12.2424L12.8274 41.8374H19.5549L19.0149 37.7197H13.6224L14.2074 33.6475H18.445L17.8825 29.9048C12.6325 29.5448 8.15494 25.57 7.36744 20.1475C6.45244 13.9 10.7799 8.08706 17.0274 7.16456C23.2824 6.24956 29.0949 10.577 30.0099 16.8245C30.6699 21.3395 28.5925 25.6296 25.03 28.0071L24.2274 28.5249L24.1749 28.1426L23.9649 26.6873L23.455 23.1248C24.8425 21.6923 25.5774 19.6525 25.2699 17.5225C24.7374 13.8925 21.3624 11.3723 17.7249 11.9048C14.0874 12.4373 11.5749 15.812 12.1074 19.4495C12.5124 22.2245 14.5824 24.3551 17.1624 24.9551L16.1574 18.1223H21.1074L21.9999 24.2498L23.485 34.5769L23.4924 34.637L25.105 45.9097Z" fill="white"/>
</svg>
