<svg width="164" height="53" viewBox="0 0 164 53" fill="none" xmlns="http://www.w3.org/2000/svg">
<path d="M41.8967 43.6177C40.9233 43.0327 40.1803 42.2377 39.6676 41.2252C39.1549 40.2127 38.9097 39.0877 38.9394 37.8652C38.9617 36.7102 39.2515 35.6377 39.7939 34.6402C40.3438 33.6427 41.1165 32.8477 42.1122 32.2477C43.1078 31.6477 44.2595 31.3477 45.5599 31.3477C46.6893 31.3477 47.6701 31.5952 48.5097 32.0902C49.3419 32.5852 49.9958 33.2077 50.4713 33.9577C50.9468 34.7077 51.2366 35.4652 51.3481 36.2227H48.7029C48.6212 35.8327 48.4428 35.4502 48.1828 35.0752C47.9227 34.7002 47.5586 34.3927 47.0905 34.1452C46.6224 33.8977 46.08 33.7777 45.4558 33.7777C44.7276 33.7777 44.0738 33.9577 43.5017 34.3177C42.9295 34.6777 42.4911 35.1727 42.1791 35.7877C41.867 36.4102 41.6961 37.1002 41.6589 37.8577C41.6366 38.6677 41.7704 39.3952 42.0676 40.0327C42.3648 40.6702 42.7958 41.1652 43.353 41.5252C43.9103 41.8852 44.5568 42.0577 45.2849 42.0577C45.9165 42.0577 46.4961 41.9227 47.0162 41.6452C47.5363 41.3677 47.9747 40.9852 48.3091 40.4827C48.6509 39.9877 48.8589 39.4102 48.9332 38.7577L51.5784 38.8102C51.4967 39.7927 51.1846 40.7152 50.6496 41.5852C50.1147 42.4477 49.3865 43.1527 48.4577 43.6852C47.5363 44.2177 46.4738 44.4877 45.2849 44.4877C43.9995 44.4877 42.8701 44.1952 41.8967 43.6177ZM45.1438 37.5427H51.5859V38.8102L50.2707 39.4177H45.1438V37.5427Z" fill="#222222"/>
<path d="M55.1969 43.6248C54.2235 43.0473 53.4879 42.2673 52.9827 41.2773C52.4774 40.2873 52.2396 39.1773 52.2619 37.9323C52.2842 36.7548 52.574 35.6598 53.1164 34.6548C53.6663 33.6498 54.4316 32.8398 55.4273 32.2398C56.4155 31.6398 57.5746 31.3398 58.8824 31.3398C60.1752 31.3398 61.2972 31.6248 62.2706 32.2023C63.2365 32.7798 63.9796 33.5673 64.4848 34.5723C64.9975 35.5698 65.2353 36.6948 65.213 37.9323C65.1907 39.1473 64.8935 40.2573 64.3214 41.2548C63.7492 42.2598 62.9616 43.0473 61.966 43.6248C60.9703 44.2023 59.8483 44.4873 58.6074 44.4873C57.3071 44.4873 56.1703 44.2023 55.1969 43.6248ZM60.6359 41.4948C61.2081 41.1198 61.6539 40.6173 61.966 39.9873C62.2855 39.3573 62.4489 38.6673 62.4786 37.9323C62.4935 37.1598 62.3523 36.4548 62.07 35.8248C61.7876 35.1948 61.3641 34.6923 60.7994 34.3248C60.2421 33.9573 59.5734 33.7698 58.7932 33.7698C58.065 33.7698 57.4112 33.9648 56.839 34.3473C56.2669 34.7373 55.8211 35.2473 55.509 35.8848C55.1895 36.5223 55.0186 37.2048 54.9963 37.9323C54.974 38.7273 55.1003 39.4398 55.3901 40.0698C55.6725 40.6998 56.096 41.1873 56.6607 41.5323C57.218 41.8848 57.8793 42.0573 58.6297 42.0573C59.3951 42.0573 60.0638 41.8698 60.6359 41.4948Z" fill="#222222"/>
<path d="M66.4241 31.3398H69.1585V41.7498H75.4371V44.1423H66.4241V31.3398Z" fill="#222222"/>
<path d="M77.2947 31.3398H80.0514V44.1423H77.2947V31.3398ZM78.3349 31.3398H82.169C83.3133 31.3398 84.3163 31.6323 85.1857 32.2248C86.055 32.8173 86.7238 33.5973 87.1845 34.5723C87.6451 35.5473 87.8755 36.6048 87.8755 37.7523C87.8755 38.8323 87.6451 39.8673 87.1845 40.8498C86.7238 41.8323 86.0551 42.6273 85.1783 43.2348C84.3015 43.8423 83.2835 44.1498 82.1095 44.1498H77.7331L78.3349 31.3398ZM81.9312 41.8923C82.5777 41.8923 83.1572 41.6973 83.6773 41.3148C84.1975 40.9248 84.5913 40.3998 84.8662 39.7248C85.1411 39.0498 85.2674 38.3223 85.2377 37.5348C85.2006 36.2823 84.8885 35.3073 84.3015 34.6023C83.7145 33.9048 82.9194 33.5523 81.9164 33.5523H79.0185L79.2043 41.8998H81.9312V41.8923Z" fill="#222222"/>
<path d="M89.0347 31.3398H97.8322L97.8173 33.5523H91.7393V36.6873H97.0668V38.9373H91.7393V41.8848H98.0328V44.1498H89.0198L89.0347 31.3398Z" fill="#222222"/>
<path d="M102.097 35.4273V44.1423H99.4521V31.3398H102.097L108.25 40.2348V31.3398H110.858V44.1423H108.123L102.097 35.4273Z" fill="#222222"/>
<path d="M115.97 31.3398H124.656V33.6798H118.704V37.6248H124.069L124.054 39.9423H118.704V44.1423H115.97V31.3398Z" fill="#222222"/>
<path d="M127.895 42.9427C126.84 41.9077 126.32 40.3252 126.32 38.1877V31.3327H129.017V38.0902C129.017 39.4627 129.3 40.4527 129.872 41.0452C130.444 41.6377 131.254 41.9377 132.301 41.9377C133.357 41.9377 134.181 41.6227 134.754 40.9852C135.333 40.3552 135.623 39.3877 135.623 38.0827V31.3252H138.394V38.2477C138.394 39.5602 138.157 40.6852 137.674 41.6077C137.191 42.5377 136.492 43.2427 135.578 43.7377C134.657 44.2252 133.55 44.4727 132.249 44.4727C130.392 44.4877 128.943 43.9777 127.895 42.9427Z" fill="#222222"/>
<path d="M142.756 35.4273V44.1423H140.111V31.3398H142.756L148.908 40.2348V31.3398H151.516V44.1423H148.782L142.756 35.4273Z" fill="#222222"/>
<path d="M153.196 31.3398H155.952V44.1423H153.196V31.3398ZM154.236 31.3398H158.07C159.214 31.3398 160.217 31.6323 161.087 32.2248C161.956 32.8173 162.625 33.5973 163.086 34.5723C163.546 35.5473 163.777 36.6048 163.777 37.7523C163.777 38.8323 163.546 39.8673 163.086 40.8498C162.625 41.8323 161.956 42.6273 161.079 43.2348C160.203 43.8423 159.185 44.1498 158.011 44.1498H153.634L154.236 31.3398ZM157.832 41.8923C158.479 41.8923 159.058 41.6973 159.578 41.3148C160.099 40.9248 160.492 40.3998 160.767 39.7248C161.042 39.0498 161.169 38.3223 161.139 37.5348C161.102 36.2823 160.79 35.3073 160.203 34.6023C159.616 33.9048 158.821 33.5523 157.817 33.5523H154.92L155.105 41.8998H157.832V41.8923Z" fill="#222222"/>
<path d="M42.6322 26.7501V23.1126H41.0867V22.1226H45.3294V23.1126H43.7467V26.7501H42.6322Z" fill="#222222"/>
<path d="M45.9834 26.7501V22.1226H48.2868C48.6137 22.1226 48.8961 22.1826 49.1413 22.3101C49.3865 22.4376 49.5722 22.6101 49.7134 22.8276C49.8472 23.0451 49.914 23.3076 49.914 23.5926C49.914 23.8851 49.8397 24.1551 49.6986 24.3801C49.5574 24.6126 49.3642 24.7926 49.1116 24.9276C48.8664 25.0626 48.5914 25.1301 48.2794 25.1301H47.0385V26.7501H45.9834ZM47.0459 24.2751H48.1753C48.2942 24.2751 48.4057 24.2451 48.5023 24.1926C48.5989 24.1401 48.6732 24.0651 48.7252 23.9751C48.7772 23.8851 48.8069 23.7726 48.8069 23.6526C48.8069 23.5326 48.7772 23.4276 48.7178 23.3376C48.6583 23.2476 48.5766 23.1801 48.4726 23.1276C48.3685 23.0826 48.2496 23.0526 48.1085 23.0526H47.0459V24.2751ZM48.8515 26.7501L47.5289 24.6576L48.6806 24.4926L50.137 26.7501H48.8515Z" fill="#222222"/>
<path d="M52.7002 26.7876C52.2767 26.7876 51.9052 26.7051 51.5782 26.5326C51.2513 26.3601 51.0061 26.1276 50.8203 25.8276C50.642 25.5276 50.5454 25.1826 50.5454 24.8001V22.1226H51.6748V24.7551C51.6748 24.9501 51.7194 25.1301 51.8086 25.2876C51.8977 25.4451 52.0166 25.5726 52.1727 25.6626C52.3287 25.7526 52.4996 25.7976 52.7002 25.7976C52.9083 25.7976 53.0866 25.7526 53.2426 25.6626C53.3987 25.5726 53.525 25.4451 53.6141 25.2876C53.7107 25.1301 53.7553 24.9501 53.7553 24.7551V22.1226H54.8401V24.8001C54.8401 25.1826 54.751 25.5276 54.5652 25.8276C54.3869 26.1276 54.1343 26.3601 53.8073 26.5326C53.4878 26.7051 53.1163 26.7876 52.7002 26.7876Z" fill="#222222"/>
<path d="M57.4186 26.8174C57.0842 26.8174 56.787 26.7799 56.5195 26.7124C56.2521 26.6449 56.0069 26.5399 55.7988 26.4124C55.5833 26.2849 55.3901 26.1274 55.2192 25.9549L55.8285 25.1374C56.1035 25.4149 56.3784 25.6099 56.6607 25.7149C56.9356 25.8199 57.218 25.8799 57.4929 25.8799C57.6192 25.8799 57.7456 25.8649 57.8644 25.8349C57.9833 25.8049 58.0799 25.7599 58.1542 25.6924C58.2285 25.6249 58.2657 25.5424 58.2657 25.4374C58.2657 25.3699 58.2434 25.3099 58.2062 25.2574C58.1691 25.2049 58.1096 25.1599 58.0428 25.1299C57.9759 25.0924 57.8942 25.0624 57.7976 25.0399C57.701 25.0099 57.6044 24.9874 57.5004 24.9724C57.3963 24.9499 57.2923 24.9349 57.1734 24.9199C56.8985 24.8749 56.6533 24.8149 56.4452 24.7324C56.2298 24.6499 56.0589 24.5524 55.9103 24.4324C55.7691 24.3124 55.6576 24.1774 55.5759 24.0124C55.5016 23.8549 55.4644 23.6749 55.4644 23.4724C55.4644 23.2549 55.5165 23.0599 55.6205 22.8799C55.7245 22.6999 55.8657 22.5499 56.044 22.4224C56.2223 22.2949 56.4304 22.1974 56.6682 22.1299C56.9059 22.0624 57.1511 22.0249 57.4186 22.0249C57.7307 22.0249 58.0056 22.0549 58.2434 22.1149C58.4737 22.1749 58.6818 22.2649 58.8527 22.3774C59.0236 22.4899 59.1722 22.6174 59.2911 22.7674L58.6669 23.4799C58.5554 23.3674 58.4366 23.2774 58.3028 23.2024C58.1691 23.1274 58.0279 23.0674 57.8719 23.0299C57.7233 22.9924 57.5672 22.9699 57.4186 22.9699C57.2626 22.9699 57.1288 22.9849 57.01 23.0224C56.8911 23.0524 56.7945 23.1049 56.7276 23.1649C56.6607 23.2249 56.6236 23.3074 56.6236 23.3974C56.6236 23.4799 56.6533 23.5474 56.7053 23.5999C56.7647 23.6524 56.839 23.7049 56.9282 23.7424C57.0248 23.7799 57.1288 23.8174 57.2477 23.8399C57.3666 23.8624 57.4855 23.8849 57.6044 23.8999C57.857 23.9374 58.0873 23.9899 58.3028 24.0574C58.5183 24.1249 58.7115 24.2074 58.8824 24.3124C59.0459 24.4174 59.1796 24.5449 59.2688 24.7099C59.3654 24.8674 59.4099 25.0699 59.4099 25.3099C59.4099 25.6324 59.3208 25.9099 59.1499 26.1349C58.979 26.3599 58.7412 26.5324 58.444 26.6524C58.1468 26.7574 57.805 26.8174 57.4186 26.8174Z" fill="#222222"/>
<path d="M61.2674 26.7501V23.1126H59.7219V22.1226H63.9646V23.1126H62.382V26.7501H61.2674Z" fill="#222222"/>
<path d="M66.7288 26.7502V25.7827H67.6873V23.0827H66.7288V22.1152H69.7604V23.0827H68.7944V25.7827H69.7604V26.7502H66.7288Z" fill="#222222"/>
<path d="M72.5766 26.8174C72.2422 26.8174 71.945 26.7799 71.6775 26.7124C71.41 26.6449 71.1722 26.5399 70.9568 26.4124C70.7413 26.2849 70.5481 26.1274 70.3772 25.9549L70.9865 25.1374C71.2614 25.4149 71.5363 25.6099 71.8187 25.7149C72.0936 25.8199 72.376 25.8799 72.6509 25.8799C72.7772 25.8799 72.9035 25.8649 73.0224 25.8349C73.1413 25.8049 73.2379 25.7599 73.3122 25.6924C73.3865 25.6249 73.4236 25.5424 73.4236 25.4374C73.4236 25.3699 73.4014 25.3099 73.3642 25.2574C73.3271 25.2049 73.2676 25.1599 73.2007 25.1299C73.1339 25.0924 73.0521 25.0624 72.9555 25.0399C72.8589 25.0099 72.7623 24.9874 72.6583 24.9724C72.5543 24.9499 72.4503 24.9349 72.3314 24.9199C72.0565 24.8749 71.8112 24.8149 71.6032 24.7324C71.3877 24.6499 71.2168 24.5524 71.0682 24.4324C70.927 24.3124 70.8156 24.1774 70.7339 24.0124C70.6596 23.8549 70.6224 23.6749 70.6224 23.4724C70.6224 23.2549 70.6744 23.0599 70.7784 22.8799C70.8825 22.6999 71.0236 22.5499 71.202 22.4224C71.3803 22.2949 71.5884 22.1974 71.8261 22.1299C72.0639 22.0624 72.3091 22.0249 72.5766 22.0249C72.8886 22.0249 73.1636 22.0549 73.4014 22.1149C73.6317 22.1749 73.8397 22.2649 74.0106 22.3774C74.1815 22.4899 74.3301 22.6174 74.449 22.7674L73.8174 23.4724C73.706 23.3599 73.5871 23.2699 73.4534 23.1949C73.3196 23.1199 73.1784 23.0599 73.0224 23.0224C72.8738 22.9849 72.7178 22.9624 72.5692 22.9624C72.4131 22.9624 72.2794 22.9774 72.1605 23.0149C72.0416 23.0449 71.945 23.0974 71.8781 23.1574C71.8113 23.2174 71.7741 23.2999 71.7741 23.3899C71.7741 23.4724 71.8038 23.5399 71.8558 23.5924C71.9153 23.6449 71.9896 23.6974 72.0788 23.7349C72.1753 23.7724 72.2794 23.8099 72.3983 23.8324C72.5171 23.8549 72.636 23.8774 72.7549 23.8924C73.0075 23.9299 73.2379 23.9824 73.4534 24.0499C73.6688 24.1174 73.862 24.1999 74.0329 24.3049C74.1964 24.4099 74.3301 24.5374 74.4193 24.7024C74.5159 24.8599 74.5605 25.0624 74.5605 25.3024C74.5605 25.6249 74.4713 25.9024 74.3004 26.1274C74.1295 26.3524 73.8918 26.5249 73.5945 26.6449C73.2973 26.7574 72.9629 26.8174 72.5766 26.8174Z" fill="#222222"/>
<path d="M79.665 26.8174C79.2861 26.8174 78.9368 26.7649 78.6248 26.6524C78.3127 26.5399 78.0452 26.3824 77.8149 26.1724C77.5845 25.9624 77.4136 25.7074 77.2873 25.4149C77.161 25.1149 77.1016 24.7849 77.1016 24.4174C77.1016 24.0724 77.1684 23.7574 77.2947 23.4649C77.4211 23.1799 77.6068 22.9249 77.852 22.7074C78.0898 22.4899 78.3721 22.3249 78.6991 22.2049C79.026 22.0849 79.3827 22.0249 79.7616 22.0249C80.0514 22.0249 80.3263 22.0624 80.5715 22.1299C80.8242 22.1974 81.0471 22.2949 81.2402 22.4074C81.4409 22.5199 81.6043 22.6474 81.7381 22.7899L81.0619 23.5249C80.943 23.4199 80.8167 23.3374 80.683 23.2624C80.5492 23.1874 80.4081 23.1274 80.252 23.0824C80.096 23.0374 79.9325 23.0149 79.7542 23.0149C79.5387 23.0149 79.3455 23.0524 79.1598 23.1199C78.9814 23.1874 78.818 23.2849 78.6842 23.4124C78.5505 23.5399 78.4464 23.6824 78.3721 23.8549C78.2978 24.0274 78.2607 24.2074 78.2607 24.4099C78.2607 24.6349 78.2978 24.8374 78.3796 25.0099C78.4613 25.1824 78.5653 25.3324 78.7065 25.4524C78.8477 25.5724 79.0037 25.6624 79.1895 25.7299C79.3752 25.7974 79.5684 25.8274 79.7765 25.8274C79.9474 25.8274 80.1109 25.8049 80.2595 25.7599C80.4081 25.7149 80.5418 25.6549 80.6533 25.5799C80.7647 25.5049 80.8539 25.4149 80.9133 25.3024C80.9728 25.1974 81.0025 25.0774 81.0099 24.9574V24.8074L81.1511 25.0549H79.665V24.1849H82.0576C82.065 24.2449 82.0724 24.3124 82.0799 24.3874C82.0873 24.4699 82.0873 24.5449 82.0873 24.6124C82.0873 24.6799 82.0873 24.7324 82.0873 24.7624C82.0873 25.0774 82.0279 25.3624 81.909 25.6174C81.7901 25.8724 81.6192 26.0824 81.4112 26.2624C81.1957 26.4424 80.943 26.5774 80.6458 26.6749C80.3412 26.7649 80.0217 26.8174 79.665 26.8174Z" fill="#222222"/>
<path d="M85.1338 26.8176C84.7474 26.8176 84.3982 26.7576 84.0861 26.6376C83.7741 26.5176 83.4991 26.3526 83.2688 26.1351C83.0385 25.9176 82.8527 25.6626 82.7264 25.3701C82.6001 25.0776 82.5332 24.7626 82.5332 24.4176C82.5332 24.0726 82.6001 23.7576 82.7264 23.4651C82.8527 23.1726 83.031 22.9176 83.2688 22.7001C83.4991 22.4826 83.7741 22.3101 84.0861 22.1976C84.3982 22.0776 84.7474 22.0176 85.1264 22.0176C85.5053 22.0176 85.8471 22.0776 86.1592 22.1976C86.4713 22.3176 86.7462 22.4826 86.9765 22.7001C87.2069 22.9176 87.3852 23.1726 87.5115 23.4651C87.6378 23.7576 87.7047 24.0726 87.7047 24.4176C87.7047 24.7551 87.6378 25.0701 87.5115 25.3701C87.3852 25.6626 87.2069 25.9176 86.9765 26.1351C86.7462 26.3526 86.4713 26.5251 86.1592 26.6376C85.8471 26.7576 85.5053 26.8176 85.1338 26.8176ZM85.1264 25.7601C85.3344 25.7601 85.5276 25.7301 85.706 25.6626C85.8843 25.5951 86.0403 25.5051 86.1666 25.3776C86.3004 25.2576 86.397 25.1151 86.4713 24.9501C86.5381 24.7851 86.5753 24.6051 86.5753 24.4176C86.5753 24.2301 86.5381 24.0426 86.4713 23.8851C86.4044 23.7201 86.3004 23.5776 86.1666 23.4576C86.0329 23.3376 85.8843 23.2401 85.706 23.1801C85.5276 23.1126 85.3344 23.0826 85.1264 23.0826C84.9183 23.0826 84.7251 23.1126 84.5468 23.1801C84.3685 23.2476 84.2125 23.3376 84.0787 23.4651C83.945 23.5851 83.8484 23.7351 83.7741 23.8926C83.7072 24.0576 83.67 24.2301 83.67 24.4251C83.67 24.6201 83.7072 24.8001 83.7741 24.9576C83.8409 25.1226 83.945 25.2651 84.0787 25.3851C84.2125 25.5051 84.3685 25.6026 84.5468 25.6701C84.7177 25.7226 84.9109 25.7601 85.1264 25.7601Z" fill="#222222"/>
<path d="M88.4849 26.7501V22.1226H89.5994V25.7601H92.0143V26.7501H88.4849Z" fill="#222222"/>
<path d="M92.7424 26.7501V22.1226H94.8749C95.2465 22.1226 95.5808 22.1826 95.8855 22.2951C96.1901 22.4151 96.4427 22.5726 96.6657 22.7901C96.8811 23.0001 97.0446 23.2476 97.1635 23.5251C97.2824 23.8026 97.3344 24.1101 97.3344 24.4326C97.3344 24.7626 97.2749 25.0701 97.1635 25.3551C97.052 25.6401 96.8886 25.8801 96.6657 26.0901C96.4502 26.3001 96.1901 26.4576 95.8855 26.5776C95.5808 26.6976 95.2465 26.7501 94.8749 26.7501H92.7424ZM93.857 25.9851L93.7084 25.7601H94.8452C95.0607 25.7601 95.2539 25.7226 95.4248 25.6551C95.5882 25.5876 95.7294 25.4901 95.8409 25.3776C95.9523 25.2576 96.0415 25.1226 96.1009 24.9576C96.1604 24.8001 96.1901 24.6276 96.1901 24.4326C96.1901 24.2451 96.1604 24.0726 96.1009 23.9151C96.0415 23.7576 95.9523 23.6151 95.8409 23.4951C95.7294 23.3751 95.5882 23.2851 95.4248 23.2176C95.2613 23.1501 95.0681 23.1126 94.8452 23.1126H93.6935L93.8644 22.9026V25.9851H93.857Z" fill="#222222"/>
<path d="M17.6589 4.5575C25.1561 4.5575 31.2564 10.715 31.2564 18.2825C31.2564 22.2125 29.5846 25.955 26.6644 28.565L25.8619 29.285L28.1802 48.95H7.13749L9.45576 29.285L8.65327 28.565C5.73314 25.9625 4.06132 22.2125 4.06132 18.2825C4.06132 10.715 10.1616 4.5575 17.6589 4.5575ZM17.6589 0.5C7.9474 0.5 0.0415039 8.48 0.0415039 18.2825C0.0415039 23.015 1.91395 27.545 5.22045 30.875L3.1474 48.4625L2.60498 53H7.13006H28.1728H32.6979L32.1629 48.4625L30.0898 30.875C33.3889 27.545 35.2688 23.015 35.2688 18.29C35.2762 8.48 27.3703 0.5 17.6589 0.5Z" fill="#222222"/>
<path d="M24.0267 45.8524H11.2837L11.8632 41.7799H18.5283L17.9933 37.6624H12.6509L13.2304 33.5899H17.4286L16.8713 29.8474C11.67 29.4874 7.23414 25.5124 6.45395 20.0899C5.54745 13.8424 9.83476 8.02993 16.0242 7.10743C22.2211 6.19243 27.9797 10.5199 28.8862 16.7674C29.54 21.2824 27.4818 25.5724 23.9524 27.9499L23.1574 28.4674L23.1053 28.0849L22.8973 26.6299L22.392 23.0674C23.7667 21.6349 24.4948 19.5949 24.1902 17.4649C23.6626 13.8349 20.319 11.3149 16.7153 11.8474C13.1115 12.3799 10.6224 15.7549 11.1499 19.3924C11.5512 22.1674 13.6019 24.2974 16.158 24.9049L15.1623 18.0724H20.0663L20.9506 24.1924L22.4217 34.5199L22.4292 34.5799L24.0267 45.8524Z" fill="#222222"/>
</svg>
