<svg width="84" height="84" viewBox="0 0 84 84" fill="none" xmlns="http://www.w3.org/2000/svg">
<path d="M42.2227 83.8381C65.0044 83.8381 83.4727 65.2701 83.4727 42.3653C83.4727 19.4605 65.0044 0.892578 42.2227 0.892578C19.4409 0.892578 0.972656 19.4605 0.972656 42.3653C0.972656 65.2701 19.4409 83.8381 42.2227 83.8381Z" fill="#FFE443"/>
<path d="M42.2227 38.6025C52.5802 38.6025 60.9727 35.2244 60.9727 31.062C60.9727 26.8996 52.5802 23.5215 42.2227 23.5215C31.8652 23.5215 23.4727 26.8996 23.4727 31.062C23.4727 35.2244 31.8727 38.6025 42.2227 38.6025Z" stroke="black" stroke-width="4" stroke-linecap="round" stroke-linejoin="round"/>
<path d="M23.4727 31.062V42.3728C23.4727 46.5351 31.8652 49.9133 42.2227 49.9133C52.5802 49.9133 60.9727 46.5351 60.9727 42.3728V31.062" stroke="black" stroke-width="4" stroke-linecap="round" stroke-linejoin="round"/>
<path d="M23.4727 42.3652V53.676C23.4727 57.8384 31.8652 61.2165 42.2227 61.2165C52.5802 61.2165 60.9727 57.8384 60.9727 53.676V42.3652" stroke="black" stroke-width="4" stroke-linecap="round" stroke-linejoin="round"/>
</svg>
