<svg width="83" height="83" viewBox="0 0 83 83" fill="none" xmlns="http://www.w3.org/2000/svg">
<path d="M41.2578 82.8228C64.0396 82.8228 82.5078 64.3545 82.5078 41.5728C82.5078 18.791 64.0396 0.322754 41.2578 0.322754C18.4761 0.322754 0.0078125 18.791 0.0078125 41.5728C0.0078125 64.3545 18.4761 82.8228 41.2578 82.8228Z" fill="#FFE443"/>
<path d="M55.8746 26.9551H26.6396C23.9471 26.9551 21.7646 29.1376 21.7646 31.8301V51.3226C21.7646 54.0151 23.9471 56.1976 26.6396 56.1976H55.8746C58.5671 56.1976 60.7496 54.0151 60.7496 51.3226V31.8301C60.7496 29.1376 58.5671 26.9551 55.8746 26.9551Z" stroke="black" stroke-width="3.1187" stroke-linecap="round" stroke-linejoin="round"/>
<path d="M21.7646 36.7051H60.7496" stroke="black" stroke-width="3.1187" stroke-linecap="round" stroke-linejoin="round"/>
<path d="M51.0068 46.4478H46.1318" stroke="black" stroke-width="3.1187" stroke-linecap="round" stroke-linejoin="round"/>
</svg>
