<svg width="135" height="42" viewBox="0 0 135 42" fill="none" xmlns="http://www.w3.org/2000/svg">
<path d="M16.463 34.3703L16.3814 34.2971L16.172 34.0864L16.0817 34.0221C15.7664 33.811 15.3968 33.6965 15.0181 33.6927C14.5362 33.6924 14.072 33.8754 13.7187 34.205L13.6183 34.306C13.101 34.8337 12.4828 35.2505 11.8009 35.5312C11.0917 35.8109 10.3364 35.9534 9.57458 35.9513C8.81176 35.9613 8.05492 35.8149 7.3502 35.5209C6.64548 35.227 6.00765 34.7917 5.47567 34.2416C4.66679 33.4326 4.1136 32.4013 3.88553 31.277C3.65747 30.1528 3.76474 28.9858 4.19385 27.9227C4.47979 27.2059 4.91713 26.5601 5.47567 26.0301C6.02236 25.4751 6.67461 25.0365 7.39345 24.7406C8.08532 24.4543 8.82649 24.3081 9.57458 24.3103C11.0836 24.3092 12.5328 24.9036 13.6108 25.9658C13.6337 26.0029 13.6645 26.0344 13.7011 26.0579C14.0586 26.3816 14.5249 26.557 15.0058 26.5484C15.4868 26.5399 15.9467 26.3483 16.2926 26.0121C16.6386 25.6759 16.8449 25.2202 16.87 24.7369C16.8951 24.2537 16.7371 23.7788 16.4279 23.4081L16.3551 23.335C16.2892 23.2579 16.2162 23.1873 16.1368 23.1243L16.0554 23.0599C15.2162 22.2739 14.2376 21.6537 13.1705 21.2316C10.8499 20.3056 8.26542 20.3056 5.94479 21.2316C4.75482 21.7199 3.67791 22.4502 2.78155 23.3767C1.86778 24.2742 1.15234 25.3555 0.681912 26.5499C-0.227304 28.8835 -0.227304 31.4765 0.681912 33.8101C1.14887 35.009 1.86469 36.0938 2.78155 36.9922C3.69019 37.897 4.77241 38.6063 5.96232 39.0767C8.27821 40.0274 10.8722 40.0274 13.1881 39.0767C14.2998 38.6262 15.3149 37.9648 16.1783 37.1285C16.2462 37.0756 16.31 37.0174 16.3689 36.9544L16.4868 36.8358C16.7725 36.5 16.9275 36.0715 16.9233 35.6296C16.9253 35.169 16.7603 34.7235 16.4592 34.3766L16.463 34.3703Z" fill="white"/>
<path d="M80.6672 24.4636C80.6764 24.4401 80.6764 24.4139 80.6672 24.3904C80.6054 24.0994 80.4765 23.8271 80.291 23.5954L80.1994 23.5134C80.1411 23.4378 80.0703 23.3729 79.9899 23.3217C79.1511 22.497 78.156 21.8503 77.0638 21.4202C74.7904 20.4941 72.248 20.4941 69.9747 21.4202C68.7977 21.894 67.7303 22.6065 66.839 23.5134C65.9426 24.4038 65.24 25.4721 64.7758 26.6502C64.3354 27.7755 64.1074 28.9736 64.1035 30.1831C64.1056 31.4095 64.3335 32.6249 64.7758 33.7677C65.2349 34.9485 65.9382 36.0178 66.839 36.9045C67.7158 37.7947 68.76 38.5003 69.9107 38.9801C71.0602 39.4731 72.2985 39.7222 73.5481 39.7119C75.7298 39.7114 77.8436 38.9488 79.5284 37.5543C79.7642 37.3537 79.9824 37.1518 80.2107 36.9234L80.4013 36.7405C80.5117 36.5298 80.5826 36.3006 80.6108 36.0642C80.6243 35.9806 80.6243 35.8954 80.6108 35.8118C80.6244 35.721 80.6244 35.6288 80.6108 35.538C80.5485 35.0678 80.317 34.637 79.9601 34.327C79.6032 34.017 79.1457 33.8495 78.6742 33.8561C78.3348 33.852 78.0011 33.9439 77.7109 34.1211L77.5655 34.2674C77.4072 34.4293 77.2397 34.5818 77.0638 34.7242C76.2288 35.4037 75.2166 35.8264 74.1487 35.9417C73.0809 36.057 72.0026 35.8599 71.0433 35.374L80.2596 26.1026C80.4657 25.861 80.6092 25.5719 80.6772 25.261C80.6856 25.2373 80.6856 25.2115 80.6772 25.1878C80.7258 24.9557 80.7258 24.7159 80.6772 24.4838L80.6672 24.4636ZM74.3044 26.7221C73.5895 27.4228 72.844 28.1634 72.0681 28.944C71.3042 29.7301 70.5629 30.4582 69.8781 31.1471L68.3416 32.6927C67.959 31.9135 67.7599 31.056 67.7597 30.1869C67.7517 29.4322 67.8967 28.6839 68.1859 27.9875C68.475 27.2911 68.9024 26.6613 69.4416 26.1367C70.2814 25.2665 71.384 24.7008 72.5773 24.5279C73.7354 24.3554 74.9181 24.5471 75.9638 25.0768L74.3044 26.7221Z" fill="white"/>
<path d="M91.8367 20.7383C93.0858 20.733 94.323 20.982 95.474 21.4701C96.5901 21.9492 97.605 22.6382 98.4642 23.5002C99.319 24.3663 100.004 25.3869 100.482 26.5083C100.973 27.6648 101.223 28.9099 101.219 30.1674V39.6861H91.8379C90.588 39.6909 89.3503 39.4389 88.2006 38.9454C87.0527 38.4625 86.0108 37.7566 85.1344 36.8681C84.258 35.9795 83.5644 34.9258 83.0933 33.7673C82.6222 32.6089 82.3828 31.3683 82.3888 30.1167C82.3948 28.865 82.6461 27.6268 83.1284 26.473C83.6103 25.3465 84.3051 24.325 85.1741 23.465C86.0453 22.5994 87.073 21.9094 88.2019 21.4322C89.356 20.9586 90.5928 20.7222 91.8392 20.737L91.8367 20.7383ZM97.5084 35.9538V30.2015C97.5141 29.4416 97.3656 28.6885 97.0719 27.9883C96.4955 26.6158 95.4098 25.5236 94.0454 24.9437C93.3482 24.6413 92.5959 24.4887 91.8367 24.4958C90.7138 24.4889 89.6141 24.8171 88.6764 25.4387C87.7388 26.0603 87.0054 26.9476 86.5688 27.9883C86.2694 28.687 86.1178 29.4407 86.1235 30.2015C86.1165 30.9587 86.2596 31.7097 86.5444 32.4106C86.8292 33.1116 87.25 33.7484 87.7823 34.2839C88.3146 34.8193 88.9476 35.2427 89.6444 35.5292C90.3412 35.8157 91.0877 35.9596 91.8405 35.9525L97.5084 35.9538Z" fill="white"/>
<path d="M115.423 22.4113C115.368 21.9901 115.172 21.6001 114.869 21.3046C114.565 21.0091 114.171 20.8256 113.751 20.7837H113.614C113.427 20.77 113.239 20.77 113.051 20.7837C111.997 20.8199 110.958 21.0521 109.988 21.4688C108.865 21.9542 107.842 22.6457 106.971 23.5078C106.1 24.3651 105.402 25.3835 104.916 26.5071C104.424 27.6786 104.174 28.9385 104.18 30.2103V37.8906C104.227 38.3738 104.455 38.8209 104.818 39.1411C105.181 39.4613 105.651 39.6305 106.134 39.6144C106.616 39.5984 107.074 39.3982 107.416 39.0546C107.757 38.711 107.955 38.2498 107.97 37.7644V30.2115C107.963 29.4478 108.115 28.691 108.415 27.9896C108.703 27.3104 109.113 26.6905 109.625 26.1613C110.151 25.643 110.767 25.225 111.442 24.9273C112.02 24.6853 112.634 24.5432 113.259 24.5071C113.402 24.498 113.545 24.498 113.687 24.5071H113.996C114.029 24.5154 114.063 24.5154 114.096 24.5071C114.204 24.4885 114.309 24.4514 114.405 24.3974C114.775 24.2403 115.079 23.9595 115.267 23.6025C115.377 23.3945 115.448 23.1684 115.477 22.935C115.491 22.8515 115.491 22.7661 115.477 22.6827C115.473 22.59 115.454 22.4985 115.423 22.4113Z" fill="white"/>
<path d="M134.298 26.5159C133.822 25.3914 133.13 24.3723 132.262 23.5167C131.397 22.6585 130.38 21.97 129.264 21.4865C127.831 20.8716 126.269 20.6243 124.717 20.7667C123.166 20.9091 121.674 21.4368 120.376 22.3026C119.077 23.1683 118.013 24.3448 117.278 25.7266C116.543 27.1083 116.161 28.652 116.165 30.2191V37.8086C116.161 37.8505 116.161 37.8929 116.165 37.9348C116.189 38.395 116.379 38.8306 116.698 39.1609C117.017 39.4912 117.445 39.6936 117.902 39.7305C118.358 39.7674 118.813 39.6362 119.18 39.3614C119.548 39.0866 119.804 38.6867 119.901 38.2363V30.2179C119.891 29.4547 120.039 28.698 120.337 27.9959C120.625 27.3129 121.042 26.6921 121.564 26.1676C122.079 25.6401 122.698 25.226 123.381 24.9513C124.078 24.6459 124.83 24.4903 125.59 24.4945C127.105 24.5042 128.558 25.1038 129.644 26.1676C130.163 26.6925 130.576 27.3133 130.861 27.9959C131.162 28.6973 131.314 29.4541 131.307 30.2179V38.008C131.35 38.4768 131.566 38.9124 131.913 39.2288C132.259 39.5453 132.711 39.7197 133.179 39.7176C133.603 39.71 134.012 39.56 134.341 39.2916C134.671 39.0232 134.901 38.6518 134.997 38.2363C135.001 38.2092 135.001 38.1815 134.997 38.1543V30.2179C135.023 28.9478 134.785 27.6862 134.297 26.5146L134.298 26.5159Z" fill="white"/>
<path d="M60.788 35.8705H55.653V19.1282C55.6573 19.0736 55.6573 19.0187 55.653 18.9642C55.6652 18.8915 55.6652 18.8173 55.653 18.7447C55.6026 18.5096 55.4968 18.2902 55.3444 18.1049C55.1656 17.8477 54.9275 17.6377 54.6506 17.4929C54.3737 17.3481 54.0662 17.2729 53.7541 17.2734C53.4272 17.2727 53.1056 17.3565 52.82 17.5166C52.5345 17.6768 52.2947 17.908 52.1235 18.1882C52.0254 18.3337 51.9517 18.4944 51.9053 18.6639V18.7736C51.8975 18.8153 51.8975 18.8582 51.9053 18.8998C51.8966 18.9299 51.8966 18.9619 51.9053 18.992C51.8952 19.0278 51.8952 19.0658 51.9053 19.1017V37.5347C51.8918 37.6183 51.8918 37.7035 51.9053 37.7871C51.8909 37.8748 51.8909 37.9644 51.9053 38.0521C51.9669 38.5102 52.1914 38.9304 52.5373 39.2348C52.8833 39.5391 53.3271 39.707 53.7867 39.7074H60.8494C61.111 39.7266 61.3738 39.6912 61.6213 39.6036C61.8687 39.516 62.0956 39.3781 62.2877 39.1984C62.4798 39.0187 62.6331 38.801 62.7379 38.5591C62.8426 38.3171 62.8967 38.056 62.8967 37.7921C62.8967 37.5282 62.8426 37.2672 62.7379 37.0252C62.6331 36.7833 62.4798 36.5656 62.2877 36.3859C62.0956 36.2061 61.8687 36.0681 61.6213 35.9806C61.3738 35.893 61.111 35.8577 60.8494 35.8768L60.788 35.8705Z" fill="white"/>
<path d="M10.1445 13.3772L23.4146 1.234L41.4382 0L28.177 13.3746L10.1445 13.3772Z" fill="#FFC116"/>
<path d="M49.5898 25.3729V25.5104C49.594 27.6581 49.1556 29.7834 48.3024 31.7521C47.4492 33.7208 46.1997 35.4903 44.6327 36.949C43.0657 38.4077 41.2152 39.5238 39.198 40.2271C37.1807 40.9303 35.0405 41.2054 32.9123 41.0349C30.7842 40.8645 28.7142 40.2522 26.8329 39.2367C24.9517 38.2212 23.3002 36.8246 21.9823 35.1348C20.6645 33.4451 19.7091 31.499 19.1763 29.4193C18.6436 27.3395 18.545 25.1712 18.8869 23.0513C19.7336 21.9944 20.8049 21.1419 22.0221 20.5562C23.2393 19.9706 24.5715 19.6669 25.9208 19.6672C27.2761 19.6662 28.6134 19.9792 29.829 20.582C29.1125 21.1847 28.5366 21.9387 28.1423 22.7904C27.748 23.6422 27.5449 24.5708 27.5475 25.5104C27.5487 26.3773 27.7196 27.2356 28.0504 28.0361C28.3813 28.8366 28.8656 29.5636 29.4758 30.1758C30.0859 30.788 30.81 31.2733 31.6066 31.6039C32.4033 31.9346 33.2568 32.1043 34.1186 32.1031C34.1818 32.1118 34.246 32.1118 34.3092 32.1031C35.1955 32.0818 36.068 31.8767 36.8719 31.5007C37.6758 31.1246 38.3939 30.5858 38.9813 29.9178C40.0751 28.7226 40.6764 27.1538 40.6633 25.5293C40.6644 24.664 40.496 23.8069 40.1676 23.0071C39.8392 22.2073 39.3573 21.4804 38.7495 20.8681C38.1416 20.2558 37.4198 19.7701 36.6252 19.4387C35.8305 19.1072 34.9788 18.9367 34.1186 18.9367C33.6597 18.9446 33.203 18.9996 32.7552 19.1007C33.2137 17.129 34.3147 15.3683 35.8831 14.099C37.4514 12.8297 39.3969 12.1249 41.4096 12.0967C41.6503 12.1341 41.8874 12.1923 42.1182 12.2708C44.3723 13.631 46.2424 15.5493 47.5503 17.8429C48.8583 20.1365 49.5604 22.7288 49.5898 25.3729Z" fill="#FFC116"/>
<path d="M36.3843 7.64453L28.9215 15.0599L18.3594 15.2605C18.3951 16.9123 18.9773 18.5048 20.0137 19.7864L20.2408 19.6603C21.8092 18.5072 23.6806 17.8444 25.6212 17.7546C27.5618 17.6649 29.4857 18.1521 31.1528 19.1555V18.9625C31.1979 18.6786 31.2531 18.4048 31.3158 18.131C31.3329 18.0508 31.3543 17.9716 31.3798 17.8938C31.8224 16.2316 32.6816 14.7115 33.8751 13.4788C35.0686 12.2461 36.5566 11.342 38.1967 10.8531L38.573 10.7157L36.3843 7.64453Z" fill="#FFC116"/>
</svg>
